<?xml version="1.0" encoding="UTF-8" standalone="no"?>
<!-- Created with Inkscape (http://www.inkscape.org/) -->

<svg
   width="179.46161"
   height="216.59001"
   viewBox="0 -11 47.482552 57.306107"
   version="1.1"
   id="svg1788"
   xmlns="http://www.w3.org/2000/svg"
   xmlnsSvg="http://www.w3.org/2000/svg">
  <g
     id="layer2"
     transform="translate(-47.709772,-125.63643)">
    <g
       id="g1333"
       transform="matrix(0.03527778,0,0,-0.03527778,34.833629,268.25987)">
      <path
         id="path562"
         style="fill:#3c58b0;fill-opacity:1;fill-rule:nonzero;stroke:none"
         d="m 431.793,3748.5 c 0,334.79 271.398,606.18 606.177,606.18 334.79,0 606.18,-271.39 606.18,-606.18 0,-334.78 -271.39,-606.17 -606.18,-606.17 -334.779,0 -606.177,271.39 -606.177,606.17" />
      <path
         id="path564"
         style="fill:#212122;fill-opacity:1;fill-rule:nonzero;stroke:none"
         d="m 720.703,4047.89 c -8.594,24.72 -6.789,53.19 4.84,76.5 11.625,23.32 32.906,41.13 57.18,47.85 2.566,37.83 34.855,67.35 71.035,65.99 2.941,17.82 17.012,34.27 33.152,40.68 16.145,6.4 35.418,3.22 48.903,-8.09 4.316,16.77 15.414,32.66 31.644,36.19 16.231,3.53 34.103,-3.25 44.433,-16.84 8.72,19.59 28.17,24.21 48.76,25.68 20.58,1.48 41.55,-9.54 52.74,-27.71 13.81,17.36 36.59,21.6 56.73,13.54 20.14,-8.05 34.26,-30.34 33.51,-52.92 12.98,10.29 33.69,7.09 48.19,-0.62 14.51,-7.7 24.18,-24.49 23.93,-41.53 18.08,-0.4 34.32,-11.16 44.57,-26.79 10.24,-15.62 12.81,-36.47 6.68,-54.3 18.18,-2.43 31.49,-24.03 37.5,-42.17 6.01,-18.13 1.41,-39.66 -11.42,-53.37 14.9,-9.87 19.95,-33.24 22.64,-51.5 2.69,-18.26 -2.5,-37.64 -13.87,-51.77 11.99,-11.58 13.68,-36.32 11.49,-53.25 -2.2,-16.93 -12.67,-32.44 -27.17,-40.25 11.12,-11.93 5.21,-37.6 -1.82,-52.56 -7.03,-14.95 -23.55,-24.35 -39.35,-22.38 4.68,-15.78 -7.35,-39.61 -20.04,-49.42 -12.68,-9.82 -31.34,-10.17 -44.35,-0.84 -3.99,-38.65 -50.33,-81.1 -87.19,-76.62 -9.22,-15.75 -30.62,-30.34 -48.23,-31.41 -17.61,-1.07 -35.5,7.38 -46.4,21.91 -6.5,-17.1 -30.55,-36.04 -48.11,-36.08 -17.575,-0.04 -34.61,11.99 -41.176,29.06 -29.516,-17.58 -80.488,2.27 -94.633,34.61 -12.965,-13.24 -42.09,-20.24 -57.461,-10.22 -15.371,10.02 -22.879,31.57 -17.277,49.6 -14.41,-1.52 -32.461,6.44 -42.363,17.52 -9.907,11.07 -14.532,27.09 -12.145,42.06 -13.723,1.82 -26.937,18.27 -31.879,31.81 -4.941,13.54 -2.191,29.83 6.887,40.78 -12.207,9.35 -17.684,30.4 -18.516,46.22 -0.836,15.83 5.414,31.9 16.563,42.61 -21.832,20.65 -25.129,64.59 -3.465,85.43 -8.715,5.29 -11.289,12.88 -11.672,23.42 -0.391,10.54 8.855,23.21 17.16,29.18" />
      <path
         id="path566"
         style="fill:#f4f1fa;fill-opacity:1;fill-rule:nonzero;stroke:none"
         d="m 1205.44,3877.22 c -24.74,-39.72 -22.35,-86.78 5.33,-105.11 27.69,-18.32 70.18,-0.98 94.92,38.75 24.74,39.73 22.35,86.79 -5.34,105.11 -27.68,18.33 -70.18,0.98 -94.91,-38.75" />
      <path
         id="path568"
         style="fill:none;stroke:#212122;stroke-width:5.35;stroke-linecap:round;stroke-linejoin:round;stroke-miterlimit:10;stroke-dasharray:none;stroke-opacity:1"
         d="m 1205.44,3877.22 c -24.74,-39.72 -22.35,-86.78 5.33,-105.11 27.69,-18.32 70.18,-0.98 94.92,38.75 24.74,39.73 22.35,86.79 -5.34,105.11 -27.68,18.33 -70.18,0.98 -94.91,-38.75 z" />
      <path
         id="path570"
         style="fill:none;stroke:#212122;stroke-width:5.35;stroke-linecap:round;stroke-linejoin:round;stroke-miterlimit:10;stroke-dasharray:none;stroke-opacity:1"
         d="m 1279.52,3896.91 c 11.99,-4.69 21.11,-16.07 23.05,-28.8 1.94,-12.72 -3.36,-26.31 -13.41,-34.35" />
      <path
         id="path572"
         style="fill:#f4f1fa;fill-opacity:1;fill-rule:nonzero;stroke:none"
         d="m 871.52,3877.22 c 24.73,-39.72 22.343,-86.78 -5.34,-105.11 -27.688,-18.32 -70.184,-0.98 -94.918,38.75 -24.739,39.73 -22.344,86.79 5.34,105.11 27.687,18.33 70.183,0.98 94.918,-38.75" />
      <path
         id="path574"
         style="fill:none;stroke:#212122;stroke-width:5.35;stroke-linecap:round;stroke-linejoin:round;stroke-miterlimit:10;stroke-dasharray:none;stroke-opacity:1"
         d="m 871.52,3877.22 c 24.73,-39.72 22.343,-86.78 -5.34,-105.11 -27.688,-18.32 -70.184,-0.98 -94.918,38.75 -24.739,39.73 -22.344,86.79 5.34,105.11 27.687,18.33 70.183,0.98 94.918,-38.75 z" />
      <path
         id="path576"
         style="fill:none;stroke:#212122;stroke-width:5.35;stroke-linecap:round;stroke-linejoin:round;stroke-miterlimit:10;stroke-dasharray:none;stroke-opacity:1"
         d="m 797.43,3896.91 c -11.989,-4.69 -21.102,-16.07 -23.043,-28.8 -1.946,-12.72 3.359,-26.31 13.406,-34.35" />
      <path
         id="path578"
         style="fill:#f4f1fa;fill-opacity:1;fill-rule:nonzero;stroke:none"
         d="m 1157.21,3417.38 c 2.23,-67.17 -51.53,-122.72 -118.71,-122.72 -65.836,0 -118.82,53.42 -118.82,118.7 0,1.34 0,2.68 0.113,4.02 l 13.187,177.06 3.356,44.82 6.594,87.97 h 191.03 l 10.5,-139.05 7.49,-101.16 5.26,-69.64" />
      <path
         id="path580"
         style="fill:none;stroke:#212122;stroke-width:5.58881;stroke-linecap:round;stroke-linejoin:round;stroke-miterlimit:10;stroke-dasharray:none;stroke-opacity:1"
         d="m 1157.21,3417.38 c 2.23,-67.17 -51.53,-122.72 -118.71,-122.72 -65.836,0 -118.82,53.42 -118.82,118.7 0,1.34 0,2.68 0.113,4.02 l 13.187,177.06 3.356,44.82 6.594,87.97 h 191.03 l 10.5,-139.05 7.49,-101.16 z" />
      <path
         id="path582"
         style="fill:#212122;fill-opacity:1;fill-rule:nonzero;stroke:none"
         d="m 1151.95,3487.02 c -62.71,-4.47 -131.78,26.72 -179.177,87.3 -15.984,20.34 -28.168,42.36 -36.437,64.94 l 6.594,87.97 h 191.03 l 10.5,-139.05 7.49,-101.16" />
      <path
         id="path584"
         style="fill:#f4f1fa;fill-opacity:1;fill-rule:nonzero;stroke:none"
         d="m 1242.99,3759.47 c -7.44,-19.07 -18.18,-39.03 -31.12,-58.35 -24.92,-37.2 -57.93,-72.1 -90.89,-94.25 -36.14,-24.21 -83.5,-32.13 -124.722,-18.07 -32.43,11.05 -59.176,34.25 -83.098,58.82 -29.824,30.59 -57.047,64.84 -72.344,104.76 -11.871,31.07 -16.949,65.62 -18.304,100.99 -1.895,49.02 3.363,99.57 7.558,144.63 6.141,66.38 46.356,129.39 103.7,163.18 56.222,33.07 128.1,38.03 188.34,12.87 60.17,-25.16 107.24,-79.73 123.18,-143.04 11.41,-45 7.5,-91.71 8.22,-137.6 0.17,-12.87 0.76,-25.86 1.06,-38.86 0.89,-32.3 0.23,-64.6 -11.58,-95.08" />
      <path
         id="path586"
         style="fill:none;stroke:#212122;stroke-width:5.35;stroke-linecap:round;stroke-linejoin:round;stroke-miterlimit:10;stroke-dasharray:none;stroke-opacity:1"
         d="m 1242.99,3759.47 c -7.44,-19.07 -18.18,-39.03 -31.12,-58.35 -24.92,-37.2 -57.93,-72.1 -90.89,-94.25 -36.14,-24.21 -83.5,-32.13 -124.722,-18.07 -32.43,11.05 -59.176,34.25 -83.098,58.82 -29.824,30.59 -57.047,64.84 -72.344,104.76 -11.871,31.07 -16.949,65.62 -18.304,100.99 -1.895,49.02 3.363,99.57 7.558,144.63 6.141,66.38 46.356,129.39 103.7,163.18 56.222,33.07 128.1,38.03 188.34,12.87 60.17,-25.16 107.24,-79.73 123.18,-143.04 11.41,-45 7.5,-91.71 8.22,-137.6 0.17,-12.87 0.76,-25.86 1.06,-38.86 0.89,-32.3 0.23,-64.6 -11.58,-95.08 z" />
      <path
         id="path588"
         style="fill:#212122;fill-opacity:1;fill-rule:nonzero;stroke:none"
         d="m 1255.33,3854.54 v -1.61 l -1.17,1.08 c -14.88,12.94 -23.97,31.67 -24.94,51.25 l -7.81,148.19 c -7.81,3.1 -15.3,6.31 -22.9,9.85 -11.34,5.45 -22.36,11.34 -32.63,17.65 -22.36,13.38 -41.84,28.68 -56.6,44.4 -21.19,-5.13 -45.37,-7.8 -69.98,-7.8 -28.68,0 -56.39,3.63 -80.144,10.59 -13.804,-15.41 -31.992,-30.28 -52.965,-43.55 -11.988,-7.7 -24.929,-14.88 -38.625,-21.29 -3,-1.39 -6.316,-2.89 -10.273,-4.61 l -7.813,-153.43 c -1.07,-20.44 -10.699,-39.49 -26.425,-52.43 l -1.18,-0.97 -0.105,1.5 c -1.715,45.58 2.777,93.09 6.628,134.93 l 0.969,9.73 c 3.953,42.91 21.719,84 49.434,117.07 15.402,18.51 33.914,34.45 54.672,46.75 56.285,33.07 128.727,38.09 188.967,12.84 29.64,-12.3 56.28,-31.99 77.46,-56.39 21.83,-24.93 37.99,-54.99 46.12,-87.09 8.78,-34.67 8.56,-70.84 8.24,-105.83 -0.1,-10.49 -0.1,-21.4 0,-31.99 0.11,-7.38 0.32,-14.98 0.64,-22.36 0.11,-5.46 0.33,-10.92 0.43,-16.48" />
      <path
         id="path590"
         style="fill:#212122;fill-opacity:1;fill-rule:nonzero;stroke:none"
         d="m 1199.9,4118.29 c -21.18,24.4 -47.82,44.09 -77.46,56.39 -60.24,25.25 -132.682,20.23 -188.967,-12.84 -20.758,-12.3 -39.27,-28.24 -54.672,-46.75 3.847,-6.46 8.691,-12.58 14.234,-18.4 0.567,-13.49 6.516,-26.75 16.485,-35.9 11.679,-10.72 28.527,-15.53 44.109,-12.61 2.988,-11.8 16.906,-23.94 28.945,-25.7 12.047,-1.76 24.866,4.34 31.106,14.79 6.75,-10.44 20.75,-19.59 33.14,-18.54 12.39,1.05 23.89,9.36 28.79,20.78 7.31,-12.33 18.88,-23.09 33.09,-21.16 14.21,1.93 26.76,12.95 30.51,26.79 17.89,-5.16 38.92,3.38 43.39,21.45 2.1,8.47 0.28,17.42 -4.02,24.98 8.79,8.2 16.08,17.13 21.32,26.72" />
      <path
         id="path592"
         style="fill:#f4f1fa;fill-opacity:1;fill-rule:nonzero;stroke:none"
         d="m 1102.05,3708.97 c 0,-16.6 -35.54,-30.07 -59.69,-30.07 -22.7,0 -68.895,13.47 -68.895,30.07" />
      <path
         id="path594"
         style="fill:none;stroke:#212122;stroke-width:6.21216;stroke-linecap:round;stroke-linejoin:round;stroke-miterlimit:10;stroke-dasharray:none;stroke-opacity:1"
         d="m 1102.05,3708.97 c 0,-16.6 -35.54,-30.07 -59.69,-30.07 -22.7,0 -68.895,13.47 -68.895,30.07" />
      <path
         id="path596"
         style="fill:#212122;fill-opacity:1;fill-rule:nonzero;stroke:none"
         d="m 1102.05,3709.43 v -0.31 H 973.465 v 0.31 c 0,12.62 44.755,22.86 68.905,22.86 22.7,0 59.68,-10.24 59.68,-22.86" />
      <path
         id="path598"
         style="fill:none;stroke:#212122;stroke-width:4.60817;stroke-linecap:butt;stroke-linejoin:miter;stroke-miterlimit:10;stroke-dasharray:none;stroke-opacity:1"
         d="m 1102.05,3709.43 v -0.31 H 973.465 v 0.31 c 0,12.62 44.755,22.86 68.905,22.86 22.7,0 59.68,-10.24 59.68,-22.86 z" />
      <path
         id="path600"
         style="fill:#212122;fill-opacity:1;fill-rule:nonzero;stroke:none"
         d="m 1091.76,3722.21 c 6.49,-4.17 16.6,-4.98 25.17,-0.64 l 0.07,0.04 c 1.34,0.68 2.97,0.15 3.64,-1.18 0.53,-1.04 0.32,-2.26 -0.43,-3.07 -7.78,-8.39 -20.43,-13.15 -33.63,-10.82 l -0.89,0.16 c -4.61,0.82 -7.69,5.23 -6.88,9.84 0.82,4.62 5.22,7.7 9.84,6.88 1.13,-0.2 2.2,-0.64 3.11,-1.21" />
      <path
         id="path602"
         style="fill:#212122;fill-opacity:1;fill-rule:nonzero;stroke:none"
         d="m 990.371,3706.54 c -13.195,-2.33 -25.844,2.43 -33.625,10.82 -1.016,1.1 -0.953,2.81 0.141,3.83 0.855,0.79 2.078,0.92 3.062,0.43 l 0.082,-0.05 c 8.571,-4.34 18.676,-3.53 25.16,0.64 3.95,2.53 9.2,1.39 11.735,-2.56 2.535,-3.95 1.387,-9.2 -2.559,-11.73 -0.961,-0.62 -2.004,-1.02 -3.066,-1.21 l -0.93,-0.17" />
      <path
         id="path604"
         style="fill:#212122;fill-opacity:1;fill-rule:nonzero;stroke:none"
         d="m 1019.26,3711.83 c 5.34,-4.9 12.44,-7.85 19.68,-8.19 7.23,-0.33 14.57,1.96 20.33,6.35" />
      <path
         id="path606"
         style="fill:none;stroke:#212122;stroke-width:9.21635;stroke-linecap:round;stroke-linejoin:round;stroke-miterlimit:10;stroke-dasharray:none;stroke-opacity:1"
         d="m 1019.26,3711.83 c 5.34,-4.9 12.44,-7.85 19.68,-8.19 7.23,-0.33 14.57,1.96 20.33,6.35" />
      <path
         id="path608"
         style="fill:#212122;fill-opacity:1;fill-rule:nonzero;stroke:none"
         d="m 1070.94,3933.57 c 5.05,12.28 15.08,21.32 26.2,27.57 11.24,6.18 23.99,9.56 36.88,9.98 12.9,0.44 25.8,-2.14 37.4,-7.54 11.49,-5.47 22.06,-13.73 28.09,-25.58 l -34.37,0.93 c -10.41,0.2 -20.3,0.15 -30.11,-0.13 -9.8,-0.31 -19.66,-0.87 -29.99,-1.75 -10.44,-0.83 -21.05,-2.01 -34.1,-3.48" />
      <path
         id="path610"
         style="fill:#212122;fill-opacity:1;fill-rule:nonzero;stroke:none"
         d="m 1006.01,3933.57 c -13.049,1.47 -23.655,2.65 -34.088,3.48 -10.344,0.88 -20.195,1.44 -29.996,1.75 -9.809,0.28 -19.703,0.33 -30.117,0.13 L 877.441,3938 c 6.028,11.85 16.602,20.11 28.094,25.58 11.602,5.4 24.5,7.98 37.395,7.54 12.898,-0.42 25.64,-3.8 36.886,-9.98 11.122,-6.25 21.144,-15.29 26.194,-27.57" />
      <path
         id="path612"
         style="fill:#212122;fill-opacity:1;fill-rule:nonzero;stroke:none"
         d="m 1076.94,3846.92 c 2.33,5.16 4.92,10.16 7.36,15.24 l 0.21,0.31 c 6.11,9.18 13.77,18.04 24.01,23.85 10.05,5.96 22.15,8.98 33.87,8.25 11.65,-0.58 23.13,-4.07 33.03,-10.1 4.94,-2.97 9.44,-6.53 13.6,-10.38 4.15,-3.78 7.87,-8.38 9.39,-13.97 l 0.03,-0.09 c 0.37,-1.37 -0.43,-2.77 -1.8,-3.15 -0.58,-0.15 -1.18,-0.1 -1.7,0.13 -5.51,2.41 -9.08,5.61 -13.07,8.74 -3.94,3.08 -8.14,5.74 -12.5,7.97 -8.64,4.54 -18.13,7.16 -27.75,7.93 -9.56,0.77 -19.1,-0.95 -27.77,-5.17 -8.62,-4.3 -16.41,-10.85 -23.09,-18.63 l 0.2,0.31 c -3.34,-4.55 -6.55,-9.18 -10.02,-13.65 -0.79,-1.02 -2.27,-1.2 -3.29,-0.41 -0.88,0.68 -1.14,1.85 -0.71,2.82" />
      <path
         id="path614"
         style="fill:#212122;fill-opacity:1;fill-rule:nonzero;stroke:none"
         d="m 1116.37,3866.74 c 0.78,10.83 10.2,18.99 21.04,18.21 10.84,-0.78 18.99,-10.2 18.21,-21.04 -0.78,-10.84 -10.2,-19 -21.04,-18.21 -10.84,0.78 -18.99,10.2 -18.21,21.04" />
      <path
         id="path616"
         style="fill:none;stroke:#212122;stroke-width:5.35;stroke-linecap:round;stroke-linejoin:round;stroke-miterlimit:10;stroke-dasharray:none;stroke-opacity:1"
         d="m 1175.7,3848.78 c 7.24,1.61 14.1,4.9 19.88,9.53" />
      <path
         id="path618"
         style="fill:none;stroke:#212122;stroke-width:5.35;stroke-linecap:round;stroke-linejoin:round;stroke-miterlimit:10;stroke-dasharray:none;stroke-opacity:1"
         d="m 1076.49,3879.95 c 8.11,13.81 21.23,24.61 36.34,29.92 15.12,5.32 32.11,5.09 47.08,-0.61" />
      <path
         id="path620"
         style="fill:#212122;fill-opacity:1;fill-rule:nonzero;stroke:none"
         d="m 996.012,3844.51 c -3.473,4.47 -6.676,9.1 -10.02,13.65 l 0.199,-0.31 c -6.671,7.78 -14.461,14.33 -23.086,18.63 -8.671,4.22 -18.214,5.94 -27.773,5.17 -9.613,-0.77 -19.105,-3.39 -27.746,-7.93 -4.356,-2.23 -8.563,-4.89 -12.508,-7.97 -3.976,-3.13 -7.558,-6.33 -13.066,-8.74 -1.297,-0.57 -2.809,0.02 -3.371,1.32 -0.246,0.55 -0.274,1.15 -0.129,1.7 l 0.031,0.09 c 1.523,5.59 5.242,10.19 9.387,13.97 4.16,3.85 8.668,7.41 13.609,10.38 9.895,6.03 21.371,9.52 33.027,10.1 11.723,0.73 23.825,-2.29 33.864,-8.25 10.242,-5.81 17.906,-14.67 24.011,-23.85 l 0.207,-0.31 c 2.446,-5.08 5.04,-10.08 7.362,-15.24 0.53,-1.19 0,-2.57 -1.182,-3.1 -1.004,-0.46 -2.168,-0.14 -2.816,0.69" />
      <path
         id="path622"
         style="fill:#212122;fill-opacity:1;fill-rule:nonzero;stroke:none"
         d="m 960.582,3866.74 c -0.781,10.83 -10.199,18.99 -21.039,18.21 -10.836,-0.78 -18.988,-10.2 -18.207,-21.04 0.781,-10.84 10.199,-19 21.039,-18.21 10.836,0.78 18.988,10.2 18.207,21.04" />
      <path
         id="path624"
         style="fill:none;stroke:#212122;stroke-width:5.35;stroke-linecap:round;stroke-linejoin:round;stroke-miterlimit:10;stroke-dasharray:none;stroke-opacity:1"
         d="m 901.25,3848.78 c -7.234,1.61 -14.09,4.9 -19.883,9.53" />
      <path
         id="path626"
         style="fill:none;stroke:#212122;stroke-width:5.35;stroke-linecap:round;stroke-linejoin:round;stroke-miterlimit:10;stroke-dasharray:none;stroke-opacity:1"
         d="m 1000.46,3879.95 c -8.108,13.81 -21.226,24.61 -36.339,29.92 -15.117,5.32 -32.101,5.09 -47.074,-0.61" />
      <path
         id="path628"
         style="fill:none;stroke:#212122;stroke-width:6.20565;stroke-linecap:round;stroke-linejoin:round;stroke-miterlimit:10;stroke-dasharray:none;stroke-opacity:1"
         d="m 1007.47,3775.05 c -10.587,-1.29 -16.638,10.2 -11.661,19.64" />
      <path
         id="path630"
         style="fill:none;stroke:#212122;stroke-width:6.20565;stroke-linecap:round;stroke-linejoin:round;stroke-miterlimit:10;stroke-dasharray:none;stroke-opacity:1"
         d="m 1069.48,3773.99 c 10.59,-1.29 16.64,10.2 11.67,19.64" />
      <path
         id="path632"
         style="fill:none;stroke:#212122;stroke-width:6.20565;stroke-linecap:round;stroke-linejoin:round;stroke-miterlimit:10;stroke-dasharray:none;stroke-opacity:1"
         d="m 1006.54,3776.6 c 17.06,-15.67 45.96,-16.13 63.52,-1.03" />
      <path
         id="path634"
         style="fill:#212122;fill-opacity:1;fill-rule:nonzero;stroke:none"
         d="m 1499.88,2958.69 c -91.17,-41.14 -174.41,-53.82 -185.91,-28.32 -11.5,25.49 53.08,79.51 144.25,120.65 91.17,41.14 174.4,53.82 185.91,28.32 11.51,-25.5 -53.08,-79.51 -144.25,-120.65" />
      <path
         id="path636"
         style="fill:#f4f1fa;fill-opacity:1;fill-rule:nonzero;stroke:none"
         d="m 1459.83,2734.75 -42.69,103.68 -34.17,83.07 -28.8,70.08 -63.29,153.8 c -33.33,80.93 -0.57,170.57 71.3,195.19 12.55,4.3 25.4,6.23 38.14,6.14 1.18,-0.01 2.35,-0.02 3.53,-0.13 55.73,-2.02 109.57,-43.39 131.15,-106.57 l 51.23,-149.75 22.95,-67.16 99.1,-290.17" />
      <path
         id="path638"
         style="fill:none;stroke:#212122;stroke-width:5.35;stroke-linecap:round;stroke-linejoin:round;stroke-miterlimit:10;stroke-dasharray:none;stroke-opacity:1"
         d="m 1459.83,2734.75 -42.69,103.68 -34.17,83.07 -28.8,70.08 -63.29,153.8 c -33.33,80.93 -0.57,170.57 71.3,195.19 12.55,4.3 25.4,6.23 38.14,6.14 1.18,-0.01 2.35,-0.02 3.53,-0.13 55.73,-2.02 109.57,-43.39 131.15,-106.57 l 51.23,-149.75 22.95,-67.16 99.1,-290.17" />
      <path
         id="path640"
         style="fill:#f4f1fa;fill-opacity:1;fill-rule:nonzero;stroke:none"
         d="m 1642.16,3082.43 c -16.86,21.28 -96.72,7.88 -183.9,-31.36 -91.19,-41.17 -155.85,-95.19 -144.25,-120.76 0.28,-0.55 0.56,-0.96 0.97,-1.51 l -0.97,-0.42 -100.72,236.13 c -39.51,92.71 3.18,198.4 92.99,229.77 16.99,5.94 34.26,8.84 51.53,8.84 61.49,0 120.49,-36.47 150.74,-95.61 l 133.61,-225.08" />
      <path
         id="path642"
         style="fill:none;stroke:#212122;stroke-width:5.35;stroke-linecap:round;stroke-linejoin:round;stroke-miterlimit:10;stroke-dasharray:none;stroke-opacity:1"
         d="m 1642.16,3082.43 c -16.86,21.28 -96.72,7.88 -183.9,-31.36 -91.19,-41.17 -155.85,-95.19 -144.25,-120.76 0.28,-0.55 0.56,-0.96 0.97,-1.51 l -0.97,-0.42 -100.72,236.13 c -39.51,92.71 3.18,198.4 92.99,229.77 16.99,5.94 34.26,8.84 51.53,8.84 61.49,0 120.49,-36.47 150.74,-95.61 z" />
      <path
         id="path644"
         style="fill:#212122;fill-opacity:1;fill-rule:nonzero;stroke:none"
         d="m 578.293,2957.11 c 91.172,-41.14 174.41,-53.82 185.91,-28.32 11.508,25.49 -53.074,79.51 -144.246,120.65 -91.172,41.14 -174.402,53.82 -185.906,28.33 -11.512,-25.5 53.074,-79.52 144.242,-120.66" />
      <path
         id="path646"
         style="fill:#f4f1fa;fill-opacity:1;fill-rule:nonzero;stroke:none"
         d="m 367.668,2732.93 101.219,289.33 23.437,67.09 52.321,149.37 c 22.472,64.31 78.433,105.72 135.355,105.72 h 0.746 c 12.524,-0.11 25.043,-2.14 37.348,-6.42 71.687,-25.15 103.894,-115.03 69.98,-195.7 L 723.66,2988.99 v -0.11 l -29.324,-69.77 -31.238,-74.36 -46.973,-111.82" />
      <path
         id="path648"
         style="fill:none;stroke:#212122;stroke-width:5.35;stroke-linecap:round;stroke-linejoin:round;stroke-miterlimit:10;stroke-dasharray:none;stroke-opacity:1"
         d="m 367.668,2732.93 101.219,289.33 23.437,67.09 52.321,149.37 c 22.472,64.31 78.433,105.72 135.355,105.72 h 0.746 c 12.524,-0.11 25.043,-2.14 37.348,-6.42 71.687,-25.15 103.894,-115.03 69.98,-195.7 L 723.66,2988.99 v -0.11 l -29.324,-69.77 -31.238,-74.36 -46.973,-111.82" />
      <path
         id="path650"
         style="fill:#f4f1fa;fill-opacity:1;fill-rule:nonzero;stroke:none"
         d="m 436.016,3080.86 c 16.855,21.28 96.714,7.87 183.898,-31.37 91.191,-41.17 155.856,-95.2 144.246,-120.75 -0.277,-0.56 -0.551,-0.97 -0.965,-1.53 l 0.965,-0.41 100.723,236.13 c 39.519,92.71 -3.172,198.4 -92.981,229.77 -17,5.94 -34.269,8.84 -51.539,8.84 -61.484,0 -120.484,-36.47 -150.738,-95.61 L 436.016,3080.86" />
      <path
         id="path652"
         style="fill:none;stroke:#212122;stroke-width:5.35;stroke-linecap:round;stroke-linejoin:round;stroke-miterlimit:10;stroke-dasharray:none;stroke-opacity:1"
         d="m 436.016,3080.86 c 16.855,21.28 96.714,7.87 183.898,-31.37 91.191,-41.17 155.856,-95.2 144.246,-120.75 -0.277,-0.56 -0.551,-0.97 -0.965,-1.53 l 0.965,-0.41 100.723,236.13 c 39.519,92.71 -3.172,198.4 -92.981,229.77 -17,5.94 -34.269,8.84 -51.539,8.84 -61.484,0 -120.484,-36.47 -150.738,-95.61 z" />
      <path
         id="path654"
         style="fill:#f4f1fa;fill-opacity:1;fill-rule:nonzero;stroke:none"
         d="M 1419.48,2732.93 H 656.461 l 3.961,111.82 2.781,80.68 3.531,99.08 11.344,319.93 1.727,53.64 167.652,54.54 27.609,9.95 13.696,5.02 35.734,19.23 h 10.809 206.515 4.28 l 40.12,-18.47 13.59,-4.93 27.6,-9.95 170.26,-55.39 1.27,-53.75 6.1,-180.19 4.6,-137.71 3.32,-99.61 v -0.53 l 2.99,-89.99 3.53,-103.37" />
      <path
         id="path656"
         style="fill:none;stroke:#212122;stroke-width:5.35;stroke-linecap:round;stroke-linejoin:round;stroke-miterlimit:10;stroke-dasharray:none;stroke-opacity:1"
         d="M 1419.48,2732.93 H 656.461 l 3.961,111.82 2.781,80.68 3.531,99.08 11.344,319.93 1.727,53.64 167.652,54.54 27.609,9.95 13.696,5.02 35.734,19.23 h 10.809 206.515 4.28 l 40.12,-18.47 13.59,-4.93 27.6,-9.95 170.26,-55.39 1.27,-53.75 6.1,-180.19 4.6,-137.71 3.32,-99.61 v -0.53 l 2.99,-89.99 z" />
      <path
         id="path660"
         style="fill:none;stroke:#212122;stroke-width:5.35;stroke-linecap:round;stroke-linejoin:round;stroke-miterlimit:10;stroke-dasharray:none;stroke-opacity:1"
         d="m 1153.02,3491.6 27.85,-20.92 13.03,-4.7 c -9.74,-77.72 -76.07,-137.7 -156.49,-137.7 -80.058,0 -146.269,59.63 -156.48,136.88 l 13.265,4.81 31.645,25.45" />
    </g>
  </g>
</svg>
