<?xml version="1.0" encoding="UTF-8" standalone="no"?>
<!-- Created with Inkscape (http://www.inkscape.org/) -->

<svg
   width="45.141537mm"
   height="57.305931mm"
   viewBox="0 0 45.141537 57.305931"
   version="1.1"
   id="svg2884"
   xmlns="http://www.w3.org/2000/svg"
   xmlnssvg="http://www.w3.org/2000/svg">
  <defs
     id="defs2881" />
  <g
     id="layer1"
     transform="translate(51.515687,-137.46568)">
    <g
       id="g1460"
       transform="matrix(0.03527778,0,0,-0.03527778,-117.23254,291.08912)">
      <path
         id="path316"
         style="fill:#fbc325;fill-opacity:1;fill-rule:nonzero;stroke:none"
         d="m 1896.47,3748.5 c 0,334.79 271.39,606.18 606.17,606.18 334.79,0 606.18,-271.39 606.18,-606.18 0,-334.78 -271.39,-606.17 -606.18,-606.17 -334.78,0 -606.17,271.39 -606.17,606.17" />
      <path
         id="path318"
         style="fill:#212122;fill-opacity:1;fill-rule:nonzero;stroke:none"
         d="m 2872.84,3718.72 c 23,19.47 20.99,52.45 9.05,80.11 -11.94,27.67 -43.07,45.71 -73.01,42.32 24.03,16.85 20.78,51.38 7.16,77.37 -13.62,26 -47.7,39.12 -75.23,28.96 25.6,20.42 26.45,54.17 9.83,82.4 -6.94,11.8 -17.75,20.88 -30.17,26.59 -7.01,27.12 -22.64,52.01 -45.31,68.54 -18.21,13.27 -40.17,20.49 -62.61,22.03 -26.08,17.64 -59.34,27.92 -87.14,14.3 -78.85,28.32 -173.66,4.9 -230.24,-56.9 -9.49,-10.36 -18.22,-22.26 -20.53,-36.13 -2.3,-13.85 3.62,-29.91 16.55,-35.39 -35.16,17.12 -66.33,3.74 -93.27,-24.62 -26.94,-28.35 -32.89,-74.53 -14,-108.79 -30.21,-0.99 -54.55,-36.49 -61.69,-65.85 -7.13,-29.37 7.38,-62.63 33.75,-77.38 -37.24,-3.81 -51.03,-55.01 -39.8,-90.73 7.36,-23.38 30.15,-39.43 54.19,-42.69 -20.66,-10.25 -39.05,-29.92 -47.48,-49.26 -13.35,-30.63 -2.57,-69.89 24.56,-89.4 27.12,-19.52 67.78,-17.26 92.57,5.13 -8.47,-23.45 9.07,-55.29 31.27,-66.65 22.2,-11.35 49.44,-8.89 72.46,0.68 23.03,9.57 42.73,25.51 62.07,41.25 -8,-4.78 3.9,-16.84 7.46,-25.45 3.57,-8.6 11.33,-14.75 19.4,-19.39 44.9,-25.8 108.71,-10.57 137.12,32.72 -1.46,-30.92 22.32,-59.91 53.25,-60.79 30.95,-0.88 59.79,26.86 60.09,57.81 19.92,-29.97 56.54,-37.67 84.95,-15.57 28.41,22.1 32.5,69.15 8.34,95.82 26.19,-23.37 71.98,-37.55 93.62,-9.91 21.64,27.64 14.61,73.04 -14.36,92.85 32.31,-6.89 69.77,5.77 73.95,38.54 4.19,32.78 -23.79,66.02 -56.8,67.48" />
      <path
         id="path320"
         style="fill:#f4f1fa;fill-opacity:1;fill-rule:nonzero;stroke:none"
         d="m 2615.12,3343.38 c 2.17,-66.17 -49.7,-121.03 -114.42,-121.03 -63.36,0 -114.43,52.6 -114.43,117.14 0,1.26 0,2.62 0.09,3.89 l 12.74,174.71 1.63,22.51 7.95,108.55 h 184.03 l 8.22,-112.62 1.81,-24.58 12.38,-168.57" />
      <path
         id="path322"
         style="fill:none;stroke:#212122;stroke-width:5;stroke-linecap:round;stroke-linejoin:round;stroke-miterlimit:10;stroke-dasharray:none;stroke-opacity:1"
         d="m 2615.12,3343.38 c 2.17,-66.17 -49.7,-121.03 -114.42,-121.03 -63.36,0 -114.43,52.6 -114.43,117.14 0,1.26 0,2.62 0.09,3.89 l 12.74,174.71 1.63,22.51 7.95,108.55 h 184.03 l 8.22,-112.62 1.81,-24.58 z" />
      <path
         id="path324"
         style="fill:#212122;fill-opacity:1;fill-rule:nonzero;stroke:none"
         d="m 2609.65,3430.15 c -57.99,-7.1 -123.39,20.8 -167.7,77.4 -17.99,22.9 -30.49,48.1 -37.7,73.6 l 5.2,70.5 h 184 l 8.21,-112.6 1.89,-24.6 6.1,-84.3" />
      <path
         id="path326"
         style="fill:#f4f1fa;fill-opacity:1;fill-rule:nonzero;stroke:none"
         d="m 2670.99,3814.29 c -23.11,-37.13 -20.89,-81.1 4.99,-98.23 25.87,-17.13 65.59,-0.92 88.7,36.21 23.12,37.13 20.89,81.11 -4.99,98.24 -25.87,17.13 -65.58,0.91 -88.7,-36.22" />
      <path
         id="path328"
         style="fill:none;stroke:#212122;stroke-width:5;stroke-linecap:round;stroke-linejoin:round;stroke-miterlimit:10;stroke-dasharray:none;stroke-opacity:1"
         d="m 2670.99,3814.29 c -23.11,-37.13 -20.89,-81.1 4.99,-98.23 25.87,-17.13 65.59,-0.92 88.7,36.21 23.12,37.13 20.89,81.11 -4.99,98.24 -25.87,17.13 -65.58,0.91 -88.7,-36.22 z" />
      <path
         id="path330"
         style="fill:none;stroke:#212122;stroke-width:5;stroke-linecap:round;stroke-linejoin:round;stroke-miterlimit:10;stroke-dasharray:none;stroke-opacity:1"
         d="m 2740.23,3832.69 c 11.21,-4.38 19.73,-15.02 21.53,-26.91 1.82,-11.9 -3.13,-24.59 -12.53,-32.11" />
      <path
         id="path332"
         style="fill:#f4f1fa;fill-opacity:1;fill-rule:nonzero;stroke:none"
         d="m 2328.92,3814.29 c 23.11,-37.13 20.88,-81.1 -4.99,-98.23 -25.88,-17.13 -65.59,-0.92 -88.71,36.21 -23.11,37.13 -20.88,81.11 4.99,98.24 25.88,17.13 65.59,0.91 88.71,-36.22" />
      <path
         id="path334"
         style="fill:none;stroke:#212122;stroke-width:5;stroke-linecap:round;stroke-linejoin:round;stroke-miterlimit:10;stroke-dasharray:none;stroke-opacity:1"
         d="m 2328.92,3814.29 c 23.11,-37.13 20.88,-81.1 -4.99,-98.23 -25.88,-17.13 -65.59,-0.92 -88.71,36.21 -23.11,37.13 -20.88,81.11 4.99,98.24 25.88,17.13 65.59,0.91 88.71,-36.22 z" />
      <path
         id="path336"
         style="fill:none;stroke:#212122;stroke-width:5;stroke-linecap:round;stroke-linejoin:round;stroke-miterlimit:10;stroke-dasharray:none;stroke-opacity:1"
         d="m 2259.67,3832.69 c -11.2,-4.38 -19.72,-15.02 -21.53,-26.91 -1.82,-11.9 3.14,-24.59 12.53,-32.11" />
      <path
         id="path338"
         style="fill:#f4f1fa;fill-opacity:1;fill-rule:nonzero;stroke:none"
         d="m 2730.82,3883.73 c 0,-3.42 0,-6.72 -0.26,-9.84 -0.38,-9.72 -1.26,-19.44 -2.64,-28.93 l -1.46,-13.61 -0.69,-7.37 -1.08,-10.66 c -0.62,-6.48 -1.07,-12.84 -1.51,-19.21 -0.25,-4.06 -0.5,-8.07 -0.75,-12.08 -1.02,-16.14 -1.96,-32.05 -4.36,-47.96 0,-0.24 -0.12,-0.53 -0.12,-0.76 -0.51,-3.01 -1.02,-6.07 -1.65,-9.08 -0.63,-3.3 -1.25,-6.54 -2.2,-9.72 -1.14,-4.77 -2.53,-9.61 -4.17,-14.49 -0.51,-1.77 -1.13,-3.42 -1.83,-5.19 -1.27,-3.53 -2.77,-7.07 -4.29,-10.72 -4.23,-9.31 -9.21,-18.44 -14.96,-27.52 -23.91,-37.82 -60.51,-72.41 -97.24,-95.39 -0.13,-0.24 -0.38,-0.35 -0.51,-0.35 -4.48,-2.89 -8.96,-5.54 -13.38,-7.96 -44.74,-24.74 -97.68,-26.1 -144.07,-4.77 -9.59,4.42 -18.87,9.43 -27.83,15.38 -0.13,0 -0.25,0 -0.37,0.23 -35.54,22.99 -66.02,56.27 -88.98,92.86 -1.64,2.54 -3.16,5.07 -4.74,7.72 -0.75,1.36 -1.51,2.77 -2.27,4.12 -1.27,2.3 -2.53,4.72 -3.85,7.07 -3.66,6.31 -6.88,12.91 -9.78,19.33 -0.76,1.77 -1.64,3.54 -2.34,5.42 -10.79,25.75 -14.64,54.5 -17.16,82.78 -0.44,4.42 -0.82,8.9 -1.2,13.32 -0.44,4.95 -0.89,9.9 -1.26,14.79 l -1.26,13.26 c -0.32,1.47 -0.57,2.88 -0.83,4.3 -0.38,1.58 -0.63,3.18 -0.82,4.77 -1.13,6.07 -2.01,12.14 -2.71,18.44 -1.13,10.19 -1.76,20.91 -1.76,31.82 0,0.88 0,1.88 0.12,2.77 0,6.83 0.32,13.55 0.89,20.21 0.49,5.65 1.26,11.25 2.2,16.73 5.31,33.58 17.17,64.81 34.33,92.2 4.29,6.9 8.9,13.5 13.82,19.86 49.04,63.43 132.84,100.33 218.5,86.52 68.53,-11.04 124.16,-53.26 157.61,-107.55 1.02,-1.42 1.84,-2.88 2.84,-4.48 15.02,-25.86 25.75,-54.85 30.74,-85.9 0,-0.24 0.12,-0.42 0.12,-0.65 0.89,-5.48 1.58,-11.08 2.08,-16.73 0.64,-6.66 0.95,-13.38 0.95,-20.21 0.13,-0.89 0.13,-1.89 0.13,-2.77" />
      <path
         id="path340"
         style="fill:none;stroke:#212122;stroke-width:5.08589;stroke-linecap:round;stroke-linejoin:round;stroke-miterlimit:10;stroke-dasharray:none;stroke-opacity:1"
         d="m 2730.82,3883.73 c 0,-3.42 0,-6.72 -0.26,-9.84 -0.38,-9.72 -1.26,-19.44 -2.64,-28.93 l -1.46,-13.61 -0.69,-7.37 -1.08,-10.66 c -0.62,-6.48 -1.07,-12.84 -1.51,-19.21 -0.25,-4.06 -0.5,-8.07 -0.75,-12.08 -1.02,-16.14 -1.96,-32.05 -4.36,-47.96 0,-0.24 -0.12,-0.53 -0.12,-0.76 -0.51,-3.01 -1.02,-6.07 -1.65,-9.08 -0.63,-3.3 -1.25,-6.54 -2.2,-9.72 -1.14,-4.77 -2.53,-9.61 -4.17,-14.49 -0.51,-1.77 -1.13,-3.42 -1.83,-5.19 -1.27,-3.53 -2.77,-7.07 -4.29,-10.72 -4.23,-9.31 -9.21,-18.44 -14.96,-27.52 -23.91,-37.82 -60.51,-72.41 -97.24,-95.39 -0.13,-0.24 -0.38,-0.35 -0.51,-0.35 -4.48,-2.89 -8.96,-5.54 -13.38,-7.96 -44.74,-24.74 -97.68,-26.1 -144.07,-4.77 -9.59,4.42 -18.87,9.43 -27.83,15.38 -0.13,0 -0.25,0 -0.37,0.23 -35.54,22.99 -66.02,56.27 -88.98,92.86 -1.64,2.54 -3.16,5.07 -4.74,7.72 -0.75,1.36 -1.51,2.77 -2.27,4.12 -1.27,2.3 -2.53,4.72 -3.85,7.07 -3.66,6.31 -6.88,12.91 -9.78,19.33 -0.76,1.77 -1.64,3.54 -2.34,5.42 -10.79,25.75 -14.64,54.5 -17.16,82.78 -0.44,4.42 -0.82,8.9 -1.2,13.32 -0.44,4.95 -0.89,9.9 -1.26,14.79 l -1.26,13.26 c -0.32,1.47 -0.57,2.88 -0.83,4.3 -0.38,1.58 -0.63,3.18 -0.82,4.77 -1.13,6.07 -2.01,12.14 -2.71,18.44 -1.13,10.19 -1.76,20.91 -1.76,31.82 0,0.88 0,1.88 0.12,2.77 0,6.83 0.32,13.55 0.89,20.21 0.49,5.65 1.26,11.25 2.2,16.73 5.31,33.58 17.17,64.81 34.33,92.2 4.29,6.9 8.9,13.5 13.82,19.86 49.04,63.43 132.84,100.33 218.5,86.52 68.53,-11.04 124.16,-53.26 157.61,-107.55 1.02,-1.42 1.84,-2.88 2.84,-4.48 15.02,-25.86 25.75,-54.85 30.74,-85.9 0,-0.24 0.12,-0.42 0.12,-0.65 0.89,-5.48 1.58,-11.08 2.08,-16.73 0.64,-6.66 0.95,-13.38 0.95,-20.21 0.13,-0.89 0.13,-1.89 0.13,-2.77 z" />
      <path
         id="path342"
         style="fill:#212122;fill-opacity:1;fill-rule:nonzero;stroke:none"
         d="m 2527.53,4155.22 c 24.58,-22.55 30.59,-61.32 13.92,-89.68 -16.68,-28.37 -54.52,-43.72 -87.53,-35.5 10.24,-15.34 2.19,-38.85 -8.83,-53.68 -11.01,-14.83 -31.83,-22.36 -50.4,-18.25 15.73,-48.96 -16.34,-106.35 -62.87,-131.94 12.58,-24.27 5.85,-62.99 -7.42,-86.93 -13.28,-23.93 -39.06,-41.18 -67.19,-44.95 18.6,-20.92 25.19,-54.36 15.36,-80.14 -9.82,-25.78 -34.83,-45.74 -63.19,-50.41 -23.14,-3.81 -58.46,2.12 -68.53,22.34 -10.08,20.21 -3.62,46.68 14.77,60.59 -10.64,21.7 -17.23,42.01 -18.57,65.93 -1.67,29.67 4.49,60.34 21.52,85.23 17.03,24.89 45.76,43.25 76.9,44.76 -26.86,38.13 -33.49,83.45 -13.92,125.41 19.58,41.96 62.77,73.09 110.46,79.61 -0.47,26.25 9.68,51.56 30.99,68.19 21.31,16.63 50.76,23.36 77.67,17.74 6.92,15.74 31.66,25.01 49.33,27.76 17.68,2.74 36.62,-3.75 48.42,-16.59" />
      <path
         id="path344"
         style="fill:#212122;fill-opacity:1;fill-rule:nonzero;stroke:none"
         d="m 2548.14,4143.45 c -18.04,-31.54 -17.01,-73.07 2.57,-103.69 19.57,-30.62 56.84,-48.98 93.04,-45.85 -16.86,-18.78 -13.95,-49.85 1.74,-69.61 15.7,-19.75 46.18,-25.87 68.28,-13.7 -11.3,-9.49 -22.85,-23.82 -23.91,-38.54 -1.06,-14.72 7.37,-30.54 21.44,-35.01 14.06,-4.47 31.73,6.13 31.85,20.88 0.32,41.53 25.76,80.57 11.79,119.68 -13.99,39.11 -45.44,71.6 -84.07,86.84 -13.77,53.46 -67.53,79.74 -122.73,79" />
      <path
         id="path346"
         style="fill:none;stroke:#212122;stroke-width:5;stroke-linecap:round;stroke-linejoin:round;stroke-miterlimit:10;stroke-dasharray:none;stroke-opacity:1"
         d="m 2308.51,3792.54 c 0,45.03 36.5,81.52 81.53,81.52 45.03,0 81.53,-36.49 81.53,-81.52 0,-45.03 -36.5,-81.53 -81.53,-81.53 -45.03,0 -81.53,36.5 -81.53,81.53 z" />
      <path
         id="path348"
         style="fill:none;stroke:#212122;stroke-width:5;stroke-linecap:round;stroke-linejoin:round;stroke-miterlimit:10;stroke-dasharray:none;stroke-opacity:1"
         d="m 2532.97,3792.54 c 0,45.03 36.49,81.52 81.52,81.52 45.03,0 81.53,-36.49 81.53,-81.52 0,-45.03 -36.5,-81.53 -81.53,-81.53 -45.03,0 -81.52,36.5 -81.52,81.53 z" />
      <path
         id="path350"
         style="fill:none;stroke:#212122;stroke-width:5;stroke-linecap:round;stroke-linejoin:round;stroke-miterlimit:10;stroke-dasharray:none;stroke-opacity:1"
         d="m 2471.61,3802.15 c 9.01,5.24 19.48,8.25 30.65,8.25 11.34,0 21.95,-3.09 31.04,-8.47" />
      <path
         id="path352"
         style="fill:none;stroke:#212122;stroke-width:5;stroke-linecap:round;stroke-linejoin:round;stroke-miterlimit:10;stroke-dasharray:none;stroke-opacity:1"
         d="m 2308.51,3792.54 -46.11,61.4" />
      <path
         id="path354"
         style="fill:none;stroke:#212122;stroke-width:5;stroke-linecap:round;stroke-linejoin:round;stroke-miterlimit:10;stroke-dasharray:none;stroke-opacity:1"
         d="m 2694.52,3792.54 46.1,61.4" />
      <path
         id="path356"
         style="fill:#212122;fill-opacity:1;fill-rule:nonzero;stroke:none"
         d="m 2540.69,3875.25 c 4.72,11.48 14.09,19.93 24.48,25.77 10.51,5.78 22.42,8.93 34.47,9.33 12.06,0.41 24.12,-2 34.96,-7.05 10.73,-5.11 20.61,-12.83 26.25,-23.91 l -32.12,0.88 c -9.73,0.18 -18.98,0.13 -28.15,-0.13 -9.16,-0.28 -18.37,-0.81 -28.03,-1.63 -9.75,-0.78 -19.66,-1.89 -31.86,-3.26" />
      <path
         id="path358"
         style="fill:#212122;fill-opacity:1;fill-rule:nonzero;stroke:none"
         d="m 2462.34,3875.25 c -12.2,1.37 -22.11,2.48 -31.86,3.26 -9.67,0.82 -18.88,1.35 -28.04,1.63 -9.17,0.26 -18.41,0.31 -28.14,0.13 l -32.12,-0.88 c 5.63,11.08 15.52,18.8 26.25,23.91 10.84,5.05 22.9,7.46 34.95,7.05 12.05,-0.4 23.97,-3.55 34.47,-9.33 10.4,-5.84 19.77,-14.29 24.49,-25.77" />
      <path
         id="path360"
         style="fill:#212122;fill-opacity:1;fill-rule:nonzero;stroke:none"
         d="m 2546.31,3794.27 c 2.16,4.82 4.58,9.5 6.87,14.25 l 0.19,0.29 c 5.71,8.57 12.87,16.86 22.45,22.28 9.38,5.58 20.69,8.4 31.64,7.72 10.9,-0.55 21.63,-3.81 30.87,-9.44 4.62,-2.78 8.82,-6.11 12.71,-9.71 3.88,-3.52 7.35,-7.83 8.78,-13.05 l 0.03,-0.09 c 0.34,-1.27 -0.41,-2.59 -1.68,-2.93 -0.55,-0.16 -1.11,-0.1 -1.59,0.11 -5.15,2.26 -8.5,5.24 -12.22,8.17 -3.68,2.88 -7.61,5.37 -11.69,7.45 -8.07,4.25 -16.94,6.69 -25.93,7.41 -8.93,0.72 -17.85,-0.88 -25.95,-4.83 -8.06,-4.02 -15.33,-10.14 -21.57,-17.41 l 0.18,0.28 c -3.12,-4.25 -6.12,-8.57 -9.36,-12.75 -0.75,-0.95 -2.12,-1.12 -3.08,-0.38 -0.82,0.63 -1.07,1.73 -0.65,2.63" />
      <path
         id="path362"
         style="fill:#212122;fill-opacity:1;fill-rule:nonzero;stroke:none"
         d="m 2583.15,3812.79 c 0.72,10.13 9.53,17.75 19.66,17.02 10.13,-0.73 17.75,-9.53 17.02,-19.66 -0.73,-10.13 -9.53,-17.75 -19.67,-17.02 -10.12,0.73 -17.74,9.53 -17.01,19.66" />
      <path
         id="path364"
         style="fill:none;stroke:#212122;stroke-width:5;stroke-linecap:round;stroke-linejoin:round;stroke-miterlimit:10;stroke-dasharray:none;stroke-opacity:1"
         d="m 2638.6,3796.01 c 6.76,1.51 13.17,4.58 18.57,8.9" />
      <path
         id="path366"
         style="fill:#212122;fill-opacity:1;fill-rule:nonzero;stroke:none"
         d="m 2452.99,3792.02 c -3.24,4.18 -6.24,8.5 -9.37,12.75 l 0.19,-0.28 c -6.24,7.27 -13.51,13.39 -21.57,17.41 -8.11,3.95 -17.02,5.55 -25.96,4.83 -8.98,-0.72 -17.86,-3.16 -25.93,-7.41 -4.07,-2.08 -8,-4.57 -11.69,-7.45 -3.72,-2.93 -7.06,-5.91 -12.21,-8.17 -1.21,-0.53 -2.62,0.02 -3.15,1.23 -0.23,0.52 -0.26,1.08 -0.12,1.59 l 0.02,0.09 c 1.43,5.22 4.91,9.53 8.78,13.05 3.89,3.6 8.1,6.93 12.72,9.71 9.24,5.63 19.97,8.89 30.87,9.44 10.95,0.68 22.26,-2.14 31.64,-7.72 9.57,-5.42 16.74,-13.71 22.45,-22.28 l 0.19,-0.29 c 2.29,-4.75 4.71,-9.43 6.88,-14.25 0.49,-1.1 0,-2.4 -1.1,-2.9 -0.95,-0.43 -2.03,-0.13 -2.64,0.65" />
      <path
         id="path368"
         style="fill:#212122;fill-opacity:1;fill-rule:nonzero;stroke:none"
         d="m 2419.88,3812.79 c -0.73,10.13 -9.53,17.75 -19.66,17.02 -10.13,-0.73 -17.75,-9.53 -17.02,-19.66 0.73,-10.13 9.53,-17.75 19.66,-17.02 10.13,0.73 17.75,9.53 17.02,19.66" />
      <path
         id="path370"
         style="fill:none;stroke:#212122;stroke-width:5;stroke-linecap:round;stroke-linejoin:round;stroke-miterlimit:10;stroke-dasharray:none;stroke-opacity:1"
         d="m 2364.43,3796.01 c -6.76,1.51 -13.17,4.58 -18.58,8.9" />
      <path
         id="path372"
         style="fill:none;stroke:#212122;stroke-width:4.63753;stroke-linecap:round;stroke-linejoin:round;stroke-miterlimit:10;stroke-dasharray:none;stroke-opacity:1"
         d="m 2469.65,3711.99 c 7.65,9.84 19.64,15.87 31.79,15.97 12.15,0.1 24.2,-5.73 31.94,-15.44" />
      <path
         id="path374"
         style="fill:#212122;fill-opacity:1;fill-rule:nonzero;stroke:none"
         d="m 2503.45,3642.35 c 8.19,0.05 16.38,0.57 24.51,1.56 2.49,0.31 26.83,3.66 26.66,5.18 0,0 -12.54,9.63 -16.89,13.33 l -1.93,1.72 c -4.67,4.17 -9.49,8.49 -15.55,10.67 -5.94,2.03 -13.87,1.14 -18.45,-4.07 -4.45,5.33 -12.35,6.44 -18.37,4.56 -6.09,-2 -11.03,-6.19 -15.8,-10.23 l -1.95,-1.66 c -4.46,-3.56 -17.27,-12.88 -17.27,-12.88 -0.18,-1.99 20.99,-5.65 23.41,-6 8.92,-1.3 17.93,-2.01 26.94,-2.16 1.56,-0.02 3.13,-0.03 4.69,-0.02" />
      <path
         id="path376"
         style="fill:#f4f1fa;fill-opacity:1;fill-rule:nonzero;stroke:none"
         d="m 2472.12,3626.46 c 18.45,-10.94 42.72,-11.29 61.48,-0.88" />
      <path
         id="path378"
         style="fill:none;stroke:#212122;stroke-width:5.08589;stroke-linecap:round;stroke-linejoin:round;stroke-miterlimit:10;stroke-dasharray:none;stroke-opacity:1"
         d="m 2472.12,3626.46 c 18.45,-10.94 42.72,-11.29 61.48,-0.88" />
      <path
         id="path380"
         style="fill:#212122;fill-opacity:1;fill-rule:nonzero;stroke:none"
         d="m 1992.52,2789.89 c 81.21,-36.65 155.35,-47.94 165.6,-25.23 10.25,22.71 -47.28,70.83 -128.49,107.48 -81.21,36.64 -155.36,47.94 -165.61,25.23 -10.24,-22.72 47.29,-70.83 128.5,-107.48" />
      <path
         id="path382"
         style="fill:#f4f1fa;fill-opacity:1;fill-rule:nonzero;stroke:none"
         d="m 2101.43,2732.76 82.4,195.9 13.6,32.5 22.5,53.5 14.9,35.4 25.3,60.4 21.8,51.8 c 30.2,71.9 1.5,151.9 -62.3,174.3 -11.1,3.9 -22.6,5.8 -33.9,5.8 -10.1,0 -20.1,-1.5 -29.9,-4.3 -39.5,-11.1 -74.7,-44 -90.8,-89.9 l -47.6,-136 -23.6,-67.4 -108.2,-309.1 c -0.3,-1 -0.7,-1.9 -1,-2.9" />
      <path
         id="path384"
         style="fill:none;stroke:#212122;stroke-width:5;stroke-linecap:round;stroke-linejoin:round;stroke-miterlimit:10;stroke-dasharray:none;stroke-opacity:1"
         d="m 2101.43,2732.76 82.4,195.9 13.6,32.5 22.5,53.5 14.9,35.4 25.3,60.4 21.8,51.8 c 30.2,71.9 1.5,151.9 -62.3,174.3 -11.1,3.9 -22.6,5.8 -33.9,5.8 -10.1,0 -20.1,-1.5 -29.9,-4.3 -39.5,-11.1 -74.7,-44 -90.8,-89.9 l -47.6,-136 -23.6,-67.4 -108.2,-309.1 c -0.3,-1 -0.7,-1.9 -1,-2.9" />
      <path
         id="path386"
         style="fill:#212122;fill-opacity:1;fill-rule:nonzero;stroke:none"
         d="m 1864.96,2899.9 c 15.02,18.96 86.15,7.02 163.82,-27.93 81.23,-36.68 138.82,-84.8 128.49,-107.57 -0.25,-0.49 -0.5,-0.86 -0.86,-1.36 l 0.86,-0.36 175.55,417.94 c 35.2,82.58 -2.83,176.74 -82.83,204.67 -15.14,5.3 -30.53,7.88 -45.91,7.88 -54.77,0 -107.32,-32.49 -134.27,-85.17 l -204.85,-408.1" />
      <path
         id="path388"
         style="fill:#f4f1fa;fill-opacity:1;fill-rule:nonzero;stroke:none"
         d="m 1990.82,3054.91 c 0,-5.61 4.54,-10.15 10.15,-10.15 5.6,0 10.14,4.54 10.14,10.15 0,5.6 -4.54,10.15 -10.14,10.15 -5.61,0 -10.15,-4.55 -10.15,-10.15" />
      <path
         id="path390"
         style="fill:#f4f1fa;fill-opacity:1;fill-rule:nonzero;stroke:none"
         d="m 2019.97,2935.56 c 0,-7.95 6.44,-14.39 14.39,-14.39 7.95,0 14.39,6.44 14.39,14.39 0,7.95 -6.44,14.39 -14.39,14.39 -7.95,0 -14.39,-6.44 -14.39,-14.39" />
      <path
         id="path392"
         style="fill:#f4f1fa;fill-opacity:1;fill-rule:nonzero;stroke:none"
         d="m 2077.45,3123.9 c 0,-6.73 -5.45,-12.18 -12.17,-12.18 -6.72,0 -12.18,5.45 -12.18,12.18 0,6.72 5.46,12.17 12.18,12.17 6.72,0 12.17,-5.45 12.17,-12.17" />
      <path
         id="path394"
         style="fill:#212122;fill-opacity:1;fill-rule:nonzero;stroke:none"
         d="m 3012.77,2789.89 c -81.21,-36.65 -155.36,-47.94 -165.61,-25.23 -10.25,22.71 47.28,70.83 128.49,107.48 81.22,36.64 155.36,47.94 165.61,25.23 10.25,-22.72 -47.28,-70.83 -128.49,-107.48" />
      <path
         id="path396"
         style="fill:#f4f1fa;fill-opacity:1;fill-rule:nonzero;stroke:none"
         d="m 2903.85,2732.76 -82.39,195.9 -13.6,32.5 -22.5,53.5 -14.9,35.4 -25.3,60.4 -21.8,51.8 c -30.2,71.9 -1.5,151.9 62.3,174.3 11.1,3.9 22.6,5.8 33.9,5.8 10.09,0 20.09,-1.5 29.9,-4.3 39.5,-11.1 74.7,-44 90.8,-89.9 l 47.6,-136 23.6,-67.4 108.19,-309.1 c 0.31,-1 0.71,-1.9 1.01,-2.9" />
      <path
         id="path398"
         style="fill:none;stroke:#212122;stroke-width:5;stroke-linecap:round;stroke-linejoin:round;stroke-miterlimit:10;stroke-dasharray:none;stroke-opacity:1"
         d="m 2903.85,2732.76 -82.39,195.9 -13.6,32.5 -22.5,53.5 -14.9,35.4 -25.3,60.4 -21.8,51.8 c -30.2,71.9 -1.5,151.9 62.3,174.3 11.1,3.9 22.6,5.8 33.9,5.8 10.09,0 20.09,-1.5 29.9,-4.3 39.5,-11.1 74.7,-44 90.8,-89.9 l 47.6,-136 23.6,-67.4 108.19,-309.1 c 0.31,-1 0.71,-1.9 1.01,-2.9" />
      <path
         id="path400"
         style="fill:#212122;fill-opacity:1;fill-rule:nonzero;stroke:none"
         d="m 3140.32,2899.9 c -15.01,18.96 -86.15,7.02 -163.81,-27.93 -81.23,-36.68 -138.83,-84.8 -128.5,-107.57 0.26,-0.49 0.5,-0.86 0.87,-1.36 l -0.87,-0.36 -175.54,417.94 c -35.2,82.58 2.83,176.74 82.83,204.67 15.14,5.3 30.52,7.88 45.91,7.88 54.76,0 107.31,-32.49 134.27,-85.17 l 204.84,-408.1" />
      <path
         id="path402"
         style="fill:#f4f1fa;fill-opacity:1;fill-rule:nonzero;stroke:none"
         d="m 2896.77,3283.1 c 0,-5.5 -4.46,-9.96 -9.97,-9.96 -5.5,0 -9.96,4.46 -9.96,9.96 0,5.51 4.46,9.96 9.96,9.96 5.51,0 9.97,-4.45 9.97,-9.96" />
      <path
         id="path404"
         style="fill:#f4f1fa;fill-opacity:1;fill-rule:nonzero;stroke:none"
         d="m 3014.47,3054.91 c 0,-5.61 -4.54,-10.15 -10.15,-10.15 -5.6,0 -10.15,4.54 -10.15,10.15 0,5.6 4.55,10.15 10.15,10.15 5.61,0 10.15,-4.55 10.15,-10.15" />
      <path
         id="path406"
         style="fill:#f4f1fa;fill-opacity:1;fill-rule:nonzero;stroke:none"
         d="m 2929.98,3128.15 c 0,-6.73 -5.45,-12.18 -12.18,-12.18 -6.73,0 -12.18,5.45 -12.18,12.18 0,6.72 5.45,12.17 12.18,12.17 6.73,0 12.18,-5.45 12.18,-12.17" />
      <path
         id="path408"
         style="fill:#f4f1fa;fill-opacity:1;fill-rule:nonzero;stroke:none"
         d="m 2985.32,2935.56 c 0,-7.95 -6.45,-14.39 -14.4,-14.39 -7.95,0 -14.38,6.44 -14.38,14.39 0,7.95 6.43,14.39 14.38,14.39 7.95,0 14.4,-6.44 14.4,-14.39" />
      <path
         id="path410"
         style="fill:#f4f1fa;fill-opacity:1;fill-rule:nonzero;stroke:none"
         d="m 2867.99,2904.57 c 0,-5.5 -4.46,-9.96 -9.96,-9.96 -5.5,0 -9.96,4.46 -9.96,9.96 0,5.5 4.46,9.96 9.96,9.96 5.5,0 9.96,-4.46 9.96,-9.96" />
      <path
         id="path412"
         style="fill:#212122;fill-opacity:1;fill-rule:nonzero;stroke:none"
         d="m 2869.76,3209.96 -25.59,-122.4 c 5.09,-11.2 9.1,-23 11.79,-35.3 2.81,-12.8 4.3,-26 4.3,-39.6 0,-16.2 -2.1,-32 -6.2,-47 -3.4,-13 -8.19,-25.4 -14.3,-37 -10,-19.2 -23.2,-36.5 -39.1,-51 l -30.1,-144.9 h -541.7 l -30.09,149 c -10.91,10.6 -20.51,22.7 -28.5,35.8 -9.51,15.6 -16.81,32.7 -21.31,50.9 -3.49,14.1 -5.39,28.9 -5.39,44.2 0,15.5 1.99,30.6 5.59,45 2.3,9.1 5.21,17.9 8.7,26.4 l -25.4,125.9 c -10.9,46.4 -8.8,91.8 7.6,126 13.51,28.4 36.9,49 70.9,56.3 8.6,1.8 18,2.8 28.1,2.8 h 537.4 c 10,0 19.2,-1 27.6,-2.8 32.21,-7 52.7,-26.9 63.7,-54.2 14.1,-34.5 13.11,-80.8 2,-128.1" />
      <path
         id="path414"
         style="fill:#ffffff;fill-opacity:1;fill-rule:nonzero;stroke:none"
         d="m 2870.57,3210.01 c -3.76,-20.51 -7.22,-41.07 -11.28,-61.51 -3.93,-20.47 -7.82,-40.95 -12.06,-61.35 l -0.14,1.37 c 7.99,-17.59 13.34,-36.44 15.43,-55.69 2.01,-19.25 0.87,-38.78 -3.08,-57.69 -3.93,-18.94 -11.36,-37.04 -21.07,-53.62 -9.76,-16.62 -22.51,-31.28 -36.85,-43.88 13.73,13.31 25.17,28.74 34.35,45.3 9.18,16.6 15.48,34.62 19.29,53.08 7.43,37 3.15,76.17 -12.15,110.67 -0.2,0.44 -0.24,0.92 -0.15,1.37 4.28,20.39 8.89,40.72 13.47,61.05 4.45,20.36 9.5,40.6 14.24,60.9" />
      <path
         id="path416"
         style="fill:#ffffff;fill-opacity:1;fill-rule:nonzero;stroke:none"
         d="m 2199.59,2881.73 c -13.3,12.5 -25.09,26.84 -34.13,42.89 -8.99,16.04 -15.81,33.42 -19.53,51.54 -3.66,18.11 -4.79,36.76 -3,55.19 1.71,18.44 6.54,36.53 13.73,53.55 l -0.14,-1.32 c -8.37,42.01 -15.98,84.18 -23.17,126.43 9.73,-41.74 19.06,-83.56 27.62,-125.53 0.09,-0.45 0.03,-0.93 -0.13,-1.32 -13.66,-33.37 -17.59,-70.7 -10.67,-106.15 3.49,-17.7 9.31,-34.99 17.76,-51.05 8.44,-16.03 18.98,-31.06 31.66,-44.23" />
      <path
         id="path418"
         style="fill:#f4f1fa;fill-opacity:1;fill-rule:nonzero;stroke:none"
         d="m 2609.21,3401.36 54.45,-8.16 c -24.2,-62.8 -86.3,-111.3 -154.1,-114.2 -72.8,-3.2 -143.6,46.6 -169.3,114.2 l 52.93,12.66" />
      <path
         id="path420"
         style="fill:none;stroke:#212122;stroke-width:5;stroke-linecap:round;stroke-linejoin:round;stroke-miterlimit:10;stroke-dasharray:none;stroke-opacity:1"
         d="m 2609.21,3401.36 54.45,-8.16 c -24.2,-62.8 -86.3,-111.3 -154.1,-114.2 -72.8,-3.2 -143.6,46.6 -169.3,114.2 l 52.93,12.66" />
      <path
         id="path422"
         style="fill:#f4f1fa;fill-opacity:1;fill-rule:nonzero;stroke:none"
         d="m 2259.14,3139.22 c 0,-6.73 -5.45,-12.18 -12.18,-12.18 -6.72,0 -12.17,5.45 -12.17,12.18 0,6.72 5.45,12.17 12.17,12.17 6.73,0 12.18,-5.45 12.18,-12.17" />
      <path
         id="path424"
         style="fill:#f4f1fa;fill-opacity:1;fill-rule:nonzero;stroke:none"
         d="m 2378.68,2840.37 c 0,-12.83 -10.41,-23.24 -23.24,-23.24 -12.84,0 -23.25,10.41 -23.25,23.24 0,12.84 10.41,23.25 23.25,23.25 12.83,0 23.24,-10.41 23.24,-23.25" />
      <path
         id="path426"
         style="fill:#f4f1fa;fill-opacity:1;fill-rule:nonzero;stroke:none"
         d="m 2735.07,3036.28 c 0,-8.56 -6.93,-15.49 -15.49,-15.49 -8.56,0 -15.49,6.93 -15.49,15.49 0,8.56 6.93,15.49 15.49,15.49 8.56,0 15.49,-6.93 15.49,-15.49" />
      <path
         id="path428"
         style="fill:#f4f1fa;fill-opacity:1;fill-rule:nonzero;stroke:none"
         d="m 2555.77,3081.66 c 0,-17.73 -14.37,-32.1 -32.1,-32.1 -17.73,0 -32.1,14.37 -32.1,32.1 0,17.73 14.37,32.1 32.1,32.1 17.73,0 32.1,-14.37 32.1,-32.1" />
      <path
         id="path430"
         style="fill:#f4f1fa;fill-opacity:1;fill-rule:nonzero;stroke:none"
         d="m 2792.63,3318.52 c 0,-6.72 -5.45,-12.18 -12.17,-12.18 -6.73,0 -12.18,5.46 -12.18,12.18 0,6.73 5.45,12.18 12.18,12.18 6.72,0 12.17,-5.45 12.17,-12.18" />
      <path
         id="path432"
         style="fill:#f4f1fa;fill-opacity:1;fill-rule:nonzero;stroke:none"
         d="m 2259.14,3303.02 c 0,-12.83 -10.4,-23.24 -23.24,-23.24 -12.84,0 -23.25,10.41 -23.25,23.24 0,12.85 10.41,23.25 23.25,23.25 12.84,0 23.24,-10.4 23.24,-23.25" />
      <path
         id="path434"
         style="fill:#f4f1fa;fill-opacity:1;fill-rule:nonzero;stroke:none"
         d="m 2664.23,2822.66 c 0,-10.39 -8.41,-18.81 -18.8,-18.81 -10.39,0 -18.82,8.42 -18.82,18.81 0,10.39 8.43,18.82 18.82,18.82 10.39,0 18.8,-8.43 18.8,-18.82" />
      <path
         id="path436"
         style="fill:#f4f1fa;fill-opacity:1;fill-rule:nonzero;stroke:none"
         d="m 2270.21,2945.52 c 0,-9.78 -7.93,-17.71 -17.71,-17.71 -9.78,0 -17.71,7.93 -17.71,17.71 0,9.78 7.93,17.71 17.71,17.71 9.78,0 17.71,-7.93 17.71,-17.71" />
      <path
         id="path438"
         style="fill:#f4f1fa;fill-opacity:1;fill-rule:nonzero;stroke:none"
         d="m 2699.65,3200.09 c 0,-8.55 -6.93,-15.49 -15.48,-15.49 -8.57,0 -15.5,6.94 -15.5,15.49 0,8.56 6.93,15.5 15.5,15.5 8.55,0 15.48,-6.94 15.48,-15.5" />
      <path
         id="path440"
         style="fill:#f4f1fa;fill-opacity:1;fill-rule:nonzero;stroke:none"
         d="m 2451.73,3193.45 c 0,-9.78 -7.93,-17.71 -17.71,-17.71 -9.78,0 -17.71,7.93 -17.71,17.71 0,9.78 7.93,17.71 17.71,17.71 9.78,0 17.71,-7.93 17.71,-17.71" />
      <path
         id="path442"
         style="fill:#f4f1fa;fill-opacity:1;fill-rule:nonzero;stroke:none"
         d="m 2535.85,2792.78 c 0,-4.89 -3.97,-8.85 -8.86,-8.85 -4.88,0 -8.85,3.96 -8.85,8.85 0,4.89 3.97,8.85 8.85,8.85 4.89,0 8.86,-3.96 8.86,-8.85" />
    </g>
  </g>
</svg>
