<?xml version="1.0" encoding="UTF-8" standalone="no"?>
<!-- Created with Inkscape (http://www.inkscape.org/) -->

<svg
   width="44.739281mm"
   height="53.544895mm"
   viewBox="0 0 44.739281 53.544895"
   version="1.1"
   id="svg3862"
   xmlns="http://www.w3.org/2000/svg"
   xmlnsSvg="http://www.w3.org/2000/svg">
  <defs
     id="defs3859" />
  <g
     inkscapeLabel="Layer 1"
     id="layer1"
     transform="translate(32.437436,-131.79535)">
    <g
       id="g1560"
       transform="matrix(0.03527778,0,0,-0.03527778,-150.04156,206.17784)">
      <path
         id="path124"
         style="fill:#fbc325;fill-opacity:1;fill-rule:nonzero;stroke:none"
         d="m 3361.58,1502.3 c 0,334.79 271.39,606.18 606.18,606.18 334.78,0 606.17,-271.39 606.17,-606.18 0,-334.78 -271.39,-606.179 -606.17,-606.179 -334.79,0 -606.18,271.399 -606.18,606.179" />
      <path
         id="path126"
         style="fill:#212122;fill-opacity:1;fill-rule:nonzero;stroke:none"
         d="m 4288.44,1472.98 c -10.98,105.06 -34.76,208.76 -70.39,308.22 -1.05,15.03 -3.33,29.69 -6.82,43.85 -10.94,44.15 -33.37,83.61 -63.68,114.85 -35.86,36.99 -82.68,62.47 -135.19,70.46 -1.71,0.23 -3.41,0.58 -5.12,0.82 -2.17,0.35 -4.33,0.58 -6.49,0.82 -4.1,0.47 -8.2,0.7 -12.31,0.94 -3.18,0.23 -6.6,0.35 -9.79,0.35 h -2.74 c -0.79,0 -1.47,0 -2.27,-0.12 -0.12,0.12 -0.23,0.12 -0.34,0 -112.19,-1.17 -206.16,-80.79 -232.81,-188.12 -1.47,-5.96 -2.66,-12.03 -3.72,-18.15 -56.83,-119.76 -76.19,-257.87 -73.99,-391.68 8.79,23.02 22.79,44.02 40.66,60.98 -16.58,-35.89 -16.26,-79.02 0.4,-114.86 l -0.17,-2.38 h 1.21 c 0.21,-0.45 0.36,-0.92 0.58,-1.35 l 0.22,1.35 h 538.86 l -2.05,5.24 c 6.28,1.74 14.27,1.29 19.73,3.84 -1.16,13.86 -2.32,27.71 -3.48,41.57 6.94,-10.72 14.38,-15.13 21.32,-25.83 -4.33,35.31 -10.14,77.77 -20.09,111.93 11.33,-6.87 22.7,-10.8 28.47,-22.73" />
      <path
         id="path128"
         style="fill:#f4f1fa;fill-opacity:1;fill-rule:nonzero;stroke:none"
         d="m 4089.93,1223.8 c 2.17,-66.17 -49.72,-121.04 -114.44,-121.04 -63.35,0 -114.42,52.61 -114.42,117.15 0,1.26 0,2.62 0.09,3.89 l 12.74,174.71 1.62,22.5 7.96,108.56 h 184.03 l 8.22,-112.62 1.82,-24.59 12.38,-168.56" />
      <path
         id="path130"
         style="fill:none;stroke:#212122;stroke-width:5;stroke-linecap:round;stroke-linejoin:round;stroke-miterlimit:10;stroke-dasharray:none;stroke-opacity:1"
         d="m 4089.93,1223.8 c 2.17,-66.17 -49.72,-121.04 -114.44,-121.04 -63.35,0 -114.42,52.61 -114.42,117.15 0,1.26 0,2.62 0.09,3.89 l 12.74,174.71 1.62,22.5 7.96,108.56 h 184.03 l 8.22,-112.62 1.82,-24.59 z" />
      <path
         id="path132"
         style="fill:#212122;fill-opacity:1;fill-rule:nonzero;stroke:none"
         d="m 4083.53,1309.21 c -58.01,-7.1 -123.4,20.8 -167.7,77.4 -18,22.9 -30.5,48.09 -37.7,73.59 l 5.2,70.5 h 184 l 8.19,-112.6 1.91,-24.6 6.1,-84.29" />
      <path
         id="path134"
         style="fill:#f4f1fa;fill-opacity:1;fill-rule:nonzero;stroke:none"
         d="m 4131.57,1704.71 c -23.12,-37.13 -20.89,-81.11 4.99,-98.24 25.87,-17.12 65.58,-0.91 88.7,36.22 23.12,37.13 20.89,81.11 -4.99,98.23 -25.87,17.13 -65.59,0.92 -88.7,-36.21" />
      <path
         id="path136"
         style="fill:none;stroke:#212122;stroke-width:5;stroke-linecap:round;stroke-linejoin:round;stroke-miterlimit:10;stroke-dasharray:none;stroke-opacity:1"
         d="m 4131.57,1704.71 c -23.12,-37.13 -20.89,-81.11 4.99,-98.24 25.87,-17.12 65.58,-0.91 88.7,36.22 23.12,37.13 20.89,81.11 -4.99,98.23 -25.87,17.13 -65.59,0.92 -88.7,-36.21 z" />
      <path
         id="path138"
         style="fill:none;stroke:#212122;stroke-width:5;stroke-linecap:round;stroke-linejoin:round;stroke-miterlimit:10;stroke-dasharray:none;stroke-opacity:1"
         d="m 4200.81,1723.1 c 11.2,-4.37 19.71,-15.02 21.53,-26.9 1.82,-11.9 -3.13,-24.59 -12.53,-32.11" />
      <path
         id="path140"
         style="fill:#f4f1fa;fill-opacity:1;fill-rule:nonzero;stroke:none"
         d="m 3819.49,1704.71 c 23.11,-37.13 20.89,-81.11 -4.99,-98.24 -25.87,-17.12 -65.59,-0.91 -88.7,36.22 -23.12,37.13 -20.89,81.11 4.99,98.23 25.87,17.13 65.58,0.92 88.7,-36.21" />
      <path
         id="path142"
         style="fill:none;stroke:#212122;stroke-width:5;stroke-linecap:round;stroke-linejoin:round;stroke-miterlimit:10;stroke-dasharray:none;stroke-opacity:1"
         d="m 3819.49,1704.71 c 23.11,-37.13 20.89,-81.11 -4.99,-98.24 -25.87,-17.12 -65.59,-0.91 -88.7,36.22 -23.12,37.13 -20.89,81.11 4.99,98.23 25.87,17.13 65.58,0.92 88.7,-36.21 z" />
      <path
         id="path144"
         style="fill:none;stroke:#212122;stroke-width:5;stroke-linecap:round;stroke-linejoin:round;stroke-miterlimit:10;stroke-dasharray:none;stroke-opacity:1"
         d="m 3750.25,1723.1 c -11.21,-4.37 -19.73,-15.02 -21.53,-26.9 -1.82,-11.9 3.13,-24.59 12.53,-32.11" />
      <path
         id="path146"
         style="fill:#f4f1fa;fill-opacity:1;fill-rule:nonzero;stroke:none"
         d="m 4192.73,1766.07 c 0,-3.49 0,-6.89 -0.2,-10.19 -0.4,-10 -1.21,-20.1 -2.5,-29.91 l -1.4,-13.99 -0.61,-7.61 -0.99,-10.99 c -0.6,-6.7 -1,-13.3 -1.51,-19.91 -0.19,-4.2 -0.4,-8.3 -0.69,-12.5 -0.9,-16.6 -1.81,-33.09 -4,-49.5 0,-0.29 -0.2,-0.59 -0.2,-0.8 -0.4,-3.09 -0.91,-6.3 -1.5,-9.3 0,-0.09 0,-0.09 0,-0.09 -0.6,-3.4 -1.2,-6.7 -2.1,-10 -1,-5 -2.31,-9.91 -3.9,-14.91 v -0.09 c -0.4,-1.8 -1,-3.51 -1.7,-5.4 -1.1,-3.61 -2.61,-7.31 -4,-11 -3.9,-9.71 -8.61,-19.1 -14.01,-28.51 -22.29,-38.99 -56.59,-74.79 -90.89,-98.49 -0.2,-0.3 -0.4,-0.4 -0.5,-0.4 -4.2,-3 -8.4,-5.71 -12.5,-8.21 -41.91,-25.59 -91.4,-27 -134.81,-4.9 -8.99,4.5 -17.69,9.71 -26.09,15.9 -0.1,0 -0.21,0 -0.3,0.21 -33.21,23.7 -61.8,58.09 -83.21,95.89 -1.59,2.71 -2.99,5.31 -4.49,8 -0.7,1.41 -1.41,2.9 -2.1,4.31 -1.2,2.29 -2.4,4.79 -3.6,7.29 -3.4,6.51 -6.4,13.3 -9.2,19.91 -0.7,1.89 -1.51,3.7 -2.1,5.59 -10.1,26.6 -13.7,56.3 -16.1,85.61 -0.4,4.5 -0.81,9.2 -1.1,13.7 -0.4,5.1 -0.8,10.29 -1.2,15.29 l -1.2,13.7 c -0.3,1.51 -0.5,3 -0.7,4.41 -0.4,1.7 -0.6,3.3 -0.8,5 -1.1,6.2 -1.9,12.5 -2.6,18.99 -1,10.61 -1.6,21.6 -1.6,32.9 0,0.91 0,1.91 0.09,2.9 0,5.21 0.21,10.3 0.51,15.4 0.1,1.81 0.2,3.61 0.29,5.4 0.5,5.9 1.21,11.7 2.1,17.31 5,34.69 16.11,67 32.1,95.3 4.01,7.1 8.3,13.9 13.01,20.5 15.4,22.1 34.3,41.09 55.4,55.99 1.5,1.21 3.1,2.31 4.6,3.3 1.9,1.3 3.8,2.6 5.7,3.8 7.5,4.6 15.2,8.8 23.1,12.41 23.1,10.59 48.19,16.7 74.6,17.4 0.1,0.19 0.2,0.19 0.29,0 v 0.19 c 1.31,0.1 2.71,0.1 4.01,0.1 h 1.3 c 3.3,0 6.9,-0.1 10.2,-0.4 4.4,-0.19 8.59,-0.5 12.9,-1.09 2.3,-0.21 4.6,-0.5 6.8,-0.9 1.8,-0.21 3.6,-0.61 5.4,-0.91 15,-2.89 29.39,-7.39 43.2,-13.69 10.6,-4.6 20.9,-10.3 30.6,-16.91 0.5,-0.3 0.99,-0.7 1.5,-0.99 6.19,-4.2 12.1,-8.6 17.79,-13.51 21.51,-18.09 39.91,-40.59 54.41,-66.39 v -0.1 c 0.99,-1.51 1.7,-3.01 2.6,-4.5 0.09,0 0.09,-0.21 0.09,-0.21 14.01,-26.7 24.11,-56.59 28.71,-88.7 0,-0.19 0.09,-0.39 0.09,-0.69 0.91,-5.61 1.51,-11.41 2,-17.31 0.11,-0.99 0.21,-2 0.21,-3 0.5,-5.8 0.69,-11.79 0.69,-17.8 0.11,-0.99 0.11,-1.99 0.11,-2.9" />
      <path
         id="path148"
         style="fill:none;stroke:#212122;stroke-width:5;stroke-linecap:round;stroke-linejoin:round;stroke-miterlimit:10;stroke-dasharray:none;stroke-opacity:1"
         d="m 4192.73,1766.07 c 0,-3.49 0,-6.89 -0.2,-10.19 -0.4,-10 -1.21,-20.1 -2.5,-29.91 l -1.4,-13.99 -0.61,-7.61 -0.99,-10.99 c -0.6,-6.7 -1,-13.3 -1.51,-19.91 -0.19,-4.2 -0.4,-8.3 -0.69,-12.5 -0.9,-16.6 -1.81,-33.09 -4,-49.5 0,-0.29 -0.2,-0.59 -0.2,-0.8 -0.4,-3.09 -0.91,-6.3 -1.5,-9.3 0,-0.09 0,-0.09 0,-0.09 -0.6,-3.4 -1.2,-6.7 -2.1,-10 -1,-5 -2.31,-9.91 -3.9,-14.91 v -0.09 c -0.4,-1.8 -1,-3.51 -1.7,-5.4 -1.1,-3.61 -2.61,-7.31 -4,-11 -3.9,-9.71 -8.61,-19.1 -14.01,-28.51 -22.29,-38.99 -56.59,-74.79 -90.89,-98.49 -0.2,-0.3 -0.4,-0.4 -0.5,-0.4 -4.2,-3 -8.4,-5.71 -12.5,-8.21 -41.91,-25.59 -91.4,-27 -134.81,-4.9 -8.99,4.5 -17.69,9.71 -26.09,15.9 -0.1,0 -0.21,0 -0.3,0.21 -33.21,23.7 -61.8,58.09 -83.21,95.89 -1.59,2.71 -2.99,5.31 -4.49,8 -0.7,1.41 -1.41,2.9 -2.1,4.31 -1.2,2.29 -2.4,4.79 -3.6,7.29 -3.4,6.51 -6.4,13.3 -9.2,19.91 -0.7,1.89 -1.51,3.7 -2.1,5.59 -10.1,26.6 -13.7,56.3 -16.1,85.61 -0.4,4.5 -0.81,9.2 -1.1,13.7 -0.4,5.1 -0.8,10.29 -1.2,15.29 l -1.2,13.7 c -0.3,1.51 -0.5,3 -0.7,4.41 -0.4,1.7 -0.6,3.3 -0.8,5 -1.1,6.2 -1.9,12.5 -2.6,18.99 -1,10.61 -1.6,21.6 -1.6,32.9 0,0.91 0,1.91 0.09,2.9 0,5.21 0.21,10.3 0.51,15.4 0.1,1.81 0.2,3.61 0.29,5.4 0.5,5.9 1.21,11.7 2.1,17.31 5,34.69 16.11,67 32.1,95.3 4.01,7.1 8.3,13.9 13.01,20.5 15.4,22.1 34.3,41.09 55.4,55.99 1.5,1.21 3.1,2.31 4.6,3.3 1.9,1.3 3.8,2.6 5.7,3.8 7.5,4.6 15.2,8.8 23.1,12.41 23.1,10.59 48.19,16.7 74.6,17.4 0.1,0.19 0.2,0.19 0.29,0 v 0.19 c 1.31,0.1 2.71,0.1 4.01,0.1 h 1.3 c 3.3,0 6.9,-0.1 10.2,-0.4 4.4,-0.19 8.59,-0.5 12.9,-1.09 2.3,-0.21 4.6,-0.5 6.8,-0.9 1.8,-0.21 3.6,-0.61 5.4,-0.91 15,-2.89 29.39,-7.39 43.2,-13.69 10.6,-4.6 20.9,-10.3 30.6,-16.91 0.5,-0.3 0.99,-0.7 1.5,-0.99 6.19,-4.2 12.1,-8.6 17.79,-13.51 21.51,-18.09 39.91,-40.59 54.41,-66.39 v -0.1 c 0.99,-1.51 1.7,-3.01 2.6,-4.5 0.09,0 0.09,-0.21 0.09,-0.21 14.01,-26.7 24.11,-56.59 28.71,-88.7 0,-0.19 0.09,-0.39 0.09,-0.69 0.91,-5.61 1.51,-11.41 2,-17.31 0.11,-0.99 0.21,-2 0.21,-3 0.5,-5.8 0.69,-11.79 0.69,-17.8 0.11,-0.99 0.11,-1.99 0.11,-2.9 z" />
      <path
         id="path150"
         style="fill:#212122;fill-opacity:1;fill-rule:nonzero;stroke:none"
         d="m 3862.45,1978.87 c -15.29,-94.22 -48.28,-185.35 -96.76,-266.67 -0.53,-0.91 -1.12,-1.95 -1.77,-2.98 -0.36,1.64 -0.59,3.29 -0.77,4.93 -1.06,6.27 -1.88,12.54 -2.54,19.05 -1.05,10.53 -1.65,21.61 -1.65,32.87 0,0.91 0,1.95 0.12,2.86 0,13.03 0.95,25.81 2.9,38.17 6.19,43.39 22.01,83.02 45.04,115.78 15.47,22.09 34.29,41.14 55.43,55.99" />
      <path
         id="path152"
         style="fill:#212122;fill-opacity:1;fill-rule:nonzero;stroke:none"
         d="m 4193.36,1766.07 c 0,-3.53 0,-6.94 -0.24,-10.16 -0.35,-10.04 -1.18,-20.09 -2.48,-29.89 l -1.36,-14.06 -0.65,-7.61 c -1.83,2.92 -3.42,5.54 -4.78,7.85 -48.82,82 -82.12,173.91 -97.17,268.93 6.14,-4.14 12.1,-8.58 17.83,-13.46 22.78,-19.17 42.09,-43.27 56.9,-71.03 0.13,0 0.13,-0.12 0.13,-0.12 14.04,-26.73 24.08,-56.67 28.75,-88.75 0,-0.24 0.12,-0.43 0.12,-0.67 1.76,-12.36 2.83,-25.14 2.83,-38.17 0.12,-0.91 0.12,-1.95 0.12,-2.86" />
      <path
         id="path154"
         style="fill:#212122;fill-opacity:1;fill-rule:nonzero;stroke:none"
         d="m 4192.56,1786.77 c -5.99,-5.89 -13.09,-10.4 -21.49,-12.4 -23.6,-5.8 -48.1,10.71 -59.5,32.21 -11.51,21.4 -7.9,50.9 -9.1,75.19 -5.2,-39 -31.4,-71.5 -64.3,-93.2 25,25.61 33.3,68.41 27.6,103.7 -1.68,-7.82 -4.88,-16.03 -9.04,-24.26 -25.48,-50.51 -78.49,-81.23 -135.07,-80.95 -27.99,0.13 -55.3,0.27 -63.09,0.32 30.9,15.69 48.4,48.59 63.99,79.6 -35.05,-40.88 -81.32,-71.93 -132.31,-89.12 -10.6,-3.58 -22.62,-1.52 -30.55,6.38 l -0.13,0.13 c -0.03,0.08 -0.06,0.16 -0.09,0.24 0.5,7.67 1.33,15.24 2.49,22.47 5,34.69 16.09,67 32.1,95.3 3.99,7.1 8.3,13.9 13,20.5 15.4,22.1 34.29,41.09 55.4,55.99 1.5,1.21 3.09,2.31 4.6,3.3 1.9,1.3 3.8,2.6 5.7,3.8 7.5,4.6 15.2,8.8 23.1,12.41 23.1,10.59 48.2,16.7 74.6,17.4 0.09,0.19 0.2,0.19 0.3,0 v 0.19 c 1.3,0.1 2.69,0.1 4,0.1 h 1.3 c 3.3,0 6.9,-0.1 10.2,-0.4 4.4,-0.19 8.6,-0.5 12.9,-1.09 2.3,-0.21 4.6,-0.5 6.79,-0.9 1.81,-0.21 3.61,-0.61 5.4,-0.91 15,-2.89 29.41,-7.39 43.21,-13.69 10.6,-4.6 20.9,-10.3 30.6,-16.91 0.5,-0.3 1,-0.7 1.5,-0.99 6.2,-4.2 12.1,-8.6 17.8,-13.51 21.49,-18.09 39.9,-40.59 54.39,-66.39 v -0.1 c 1.01,-1.51 1.7,-3.01 2.61,-4.5 0.1,0 0.1,-0.21 0.1,-0.21 13.99,-26.7 24.1,-56.59 28.7,-88.7 0,-0.19 0.1,-0.39 0.1,-0.69 1.04,-6.52 1.69,-13.3 2.23,-20.2 -0.01,-0.04 -0.02,-0.07 -0.04,-0.11" />
      <path
         id="path156"
         style="fill:#212122;fill-opacity:1;fill-rule:nonzero;stroke:none"
         d="m 4130.93,1839.24 c 33.94,-43.84 53.22,-98.85 54.05,-154.29 0.84,-55.44 -16.76,-111.01 -49.37,-155.85 42.06,39.87 69.27,84.63 75.23,142.28 5.95,57.65 -9.37,117.26 -42.39,164.9 -4.24,6.12 -9.2,12.37 -16.26,14.75 -7.06,2.38 -20.05,-4.44 -21.26,-11.79" />
      <path
         id="path158"
         style="fill:#212122;fill-opacity:1;fill-rule:nonzero;stroke:none"
         d="m 4019.36,1739.88 c 6.83,9.15 16.66,14.55 26.44,18.3 9.91,3.61 20.22,5.33 30.47,5.57 10.26,0.21 20.5,-1.13 30.45,-4.05 9.88,-3.07 19.69,-7.43 27.94,-15.22 -10.7,-2.99 -20.24,-4.32 -29.78,-5.45 -9.49,-1.02 -18.77,-1.53 -28.02,-1.7 -9.25,-0.17 -18.44,0 -27.77,0.41 -9.45,0.52 -18.69,1.11 -29.73,2.14" />
      <path
         id="path160"
         style="fill:#212122;fill-opacity:1;fill-rule:nonzero;stroke:none"
         d="m 3931.69,1739.88 c -6.82,9.15 -16.65,14.55 -26.43,18.3 -9.91,3.61 -20.22,5.33 -30.47,5.57 -10.26,0.21 -20.51,-1.13 -30.45,-4.05 -9.88,-3.07 -19.7,-7.43 -27.96,-15.22 10.72,-2.99 20.26,-4.32 29.8,-5.45 9.49,-1.02 18.77,-1.53 28.02,-1.7 9.24,-0.17 18.42,0 27.77,0.41 9.44,0.52 18.69,1.11 29.72,2.14" />
      <path
         id="path162"
         style="fill:#212122;fill-opacity:1;fill-rule:nonzero;stroke:none"
         d="m 4016.06,1658.19 c 5.34,7.86 10.6,15.85 17.66,23.08 6.8,7.24 15.36,13.32 25.28,16.91 9.87,3.72 21.24,4.01 31.41,1.03 10.35,-2.7 19.21,-8.73 26.73,-15.66 l -0.58,0.46 c 4.23,-3.3 8.53,-6.47 12.67,-9.89 l -2.9,0.92 c -0.18,-0.28 1.41,-0.11 2.63,0.33 1.32,0.43 2.73,1.02 4.11,1.7 2.77,1.34 5.6,2.99 8.07,4.74 l 0.11,0.08 c 0.98,0.7 2.35,0.47 3.05,-0.52 0.58,-0.81 0.52,-1.87 -0.06,-2.61 -2.19,-2.81 -4.5,-5.23 -7.09,-7.61 -1.29,-1.18 -2.65,-2.33 -4.21,-3.42 -1.68,-1.02 -3.13,-2.26 -6.6,-2.71 h -0.01 c -0.82,-0.07 -1.6,0.13 -2.25,0.52 l -0.65,0.39 c -4.6,2.78 -9.02,5.8 -13.53,8.69 l -0.3,0.22 -0.28,0.24 c -6.56,5.77 -14.2,10.16 -22.21,12.57 -8.06,2.58 -16.55,2.24 -24.69,0.02 -8.21,-2.26 -15.77,-7.12 -22.79,-12.79 -6.92,-5.69 -13.3,-12.85 -20.23,-19.48 -0.86,-0.85 -2.25,-0.83 -3.1,0.03 -0.73,0.75 -0.8,1.92 -0.24,2.76" />
      <path
         id="path164"
         style="fill:#212122;fill-opacity:1;fill-rule:nonzero;stroke:none"
         d="m 4054.11,1676.68 c 0.73,10.12 9.53,17.74 19.66,17.01 10.13,-0.72 17.75,-9.53 17.02,-19.66 -0.73,-10.13 -9.53,-17.75 -19.66,-17.02 -10.13,0.73 -17.75,9.53 -17.02,19.67" />
      <path
         id="path166"
         style="fill:none;stroke:#212122;stroke-width:5;stroke-linecap:round;stroke-linejoin:round;stroke-miterlimit:10;stroke-dasharray:none;stroke-opacity:1"
         d="m 4108.16,1659.66 c 6.77,1.5 13.17,4.58 18.58,8.9" />
      <path
         id="path168"
         style="fill:none;stroke:#212122;stroke-width:5;stroke-linecap:round;stroke-linejoin:round;stroke-miterlimit:10;stroke-dasharray:none;stroke-opacity:1"
         d="m 4017.98,1679.79 c 8.59,15.12 23.54,26.5 40.41,30.72" />
      <path
         id="path170"
         style="fill:#212122;fill-opacity:1;fill-rule:nonzero;stroke:none"
         d="m 3931.66,1655.4 c -6.94,6.63 -13.31,13.79 -20.23,19.48 -7.02,5.67 -14.58,10.53 -22.79,12.79 -8.15,2.22 -16.63,2.56 -24.69,-0.02 -8.02,-2.41 -15.65,-6.8 -22.22,-12.57 l -0.26,-0.23 -0.31,-0.23 c -4.51,-2.89 -8.94,-5.91 -13.54,-8.69 l -0.64,-0.39 c -0.7,-0.42 -1.5,-0.59 -2.26,-0.52 h -0.01 c -3.46,0.45 -4.91,1.69 -6.59,2.71 -1.56,1.09 -2.92,2.24 -4.23,3.42 -2.58,2.38 -4.88,4.8 -7.08,7.61 -0.74,0.94 -0.57,2.32 0.38,3.07 0.78,0.61 1.85,0.61 2.62,0.06 l 0.11,-0.08 c 2.47,-1.75 5.3,-3.4 8.06,-4.74 1.39,-0.68 2.8,-1.27 4.12,-1.7 1.22,-0.44 2.81,-0.61 2.62,-0.33 l -2.9,-0.92 c 4.14,3.42 8.45,6.59 12.68,9.89 l -0.58,-0.46 c 7.52,6.92 16.38,12.96 26.73,15.66 10.17,2.98 21.53,2.69 31.41,-1.03 9.92,-3.59 18.47,-9.67 25.28,-16.91 7.06,-7.23 12.31,-15.22 17.66,-23.08 0.68,-1.01 0.42,-2.36 -0.58,-3.05 -0.87,-0.58 -2.03,-0.45 -2.76,0.26" />
      <path
         id="path172"
         style="fill:#212122;fill-opacity:1;fill-rule:nonzero;stroke:none"
         d="m 3896.95,1676.68 c -0.73,10.12 -9.53,17.74 -19.66,17.01 -10.14,-0.72 -17.75,-9.53 -17.02,-19.66 0.73,-10.13 9.53,-17.75 19.66,-17.02 10.13,0.73 17.75,9.53 17.02,19.67" />
      <path
         id="path174"
         style="fill:none;stroke:#212122;stroke-width:5;stroke-linecap:round;stroke-linejoin:round;stroke-miterlimit:10;stroke-dasharray:none;stroke-opacity:1"
         d="m 3842.9,1659.66 c -6.77,1.5 -13.18,4.58 -18.59,8.9" />
      <path
         id="path176"
         style="fill:none;stroke:#212122;stroke-width:5;stroke-linecap:round;stroke-linejoin:round;stroke-miterlimit:10;stroke-dasharray:none;stroke-opacity:1"
         d="m 3933.07,1679.79 c -8.58,15.12 -23.53,26.5 -40.4,30.72" />
      <path
         id="path178"
         style="fill:#212122;fill-opacity:1;fill-rule:nonzero;stroke:none"
         d="m 3976.85,1494.51 c 8.99,0.42 17.93,1.49 27,2.66 2.14,0.29 30.83,3.61 30.58,5.41 l -0.84,6.05 c -6.79,-0.43 -13.44,3.85 -18.4,7.66 l -2.21,1.77 c -5.32,4.3 -10.82,8.75 -17.69,10.94 -6.72,2.05 -15.65,1 -20.74,-4.51 -5.1,5.51 -14.03,6.56 -20.78,4.5 -6.84,-2.18 -12.34,-6.63 -17.66,-10.93 l -2.18,-1.75 c -4.97,-3.8 -11.61,-7.99 -18.43,-7.68 l -0.84,-6.05 c 11.56,-4.37 26.27,-5.75 38.5,-7.29 7.98,-1.01 15.84,-1.14 23.69,-0.78" />
      <path
         id="path180"
         style="fill:none;stroke:#212122;stroke-width:5.77826;stroke-linecap:round;stroke-linejoin:round;stroke-miterlimit:10;stroke-dasharray:none;stroke-opacity:1"
         d="m 4024.64,1503.32 c 6.6,1.28 13.08,3.29 19.34,5.99" />
      <path
         id="path182"
         style="fill:none;stroke:#212122;stroke-width:5.77826;stroke-linecap:round;stroke-linejoin:round;stroke-miterlimit:10;stroke-dasharray:none;stroke-opacity:1"
         d="m 3926.41,1503.32 c -6.59,1.28 -13.07,3.29 -19.33,5.99" />
      <path
         id="path184"
         style="fill:none;stroke:#212122;stroke-width:5;stroke-linecap:round;stroke-linejoin:round;stroke-miterlimit:10;stroke-dasharray:none;stroke-opacity:1"
         d="m 3941.84,1477.83 c 21.7,-5.13 44.47,-5.68 66.4,-1.63" />
      <path
         id="path186"
         style="fill:none;stroke:#212122;stroke-width:6.13897;stroke-linecap:round;stroke-linejoin:round;stroke-miterlimit:10;stroke-dasharray:none;stroke-opacity:1"
         d="m 3952.05,1575.87 c 12.53,-11.51 33.41,-12.49 46.96,-2.21" />
      <path
         id="path188"
         style="fill:none;stroke:#212122;stroke-width:5;stroke-linecap:round;stroke-linejoin:round;stroke-miterlimit:10;stroke-dasharray:none;stroke-opacity:1"
         d="m 3975.52,1680.25 v -75.86" />
      <path
         id="path190"
         style="fill:#212122;fill-opacity:1;fill-rule:nonzero;stroke:none"
         d="m 3529.04,857.699 c 81.21,-36.648 155.35,-47.937 165.6,-25.23 10.25,22.711 -47.28,70.832 -128.49,107.48 -81.21,36.641 -155.35,47.942 -165.61,25.223 -10.24,-22.703 47.29,-70.832 128.5,-107.473" />
      <path
         id="path192"
         style="fill:#f4f1fa;fill-opacity:1;fill-rule:nonzero;stroke:none"
         d="m 3336.16,593.172 c 0.3,1.008 0.7,1.91 0.99,2.898 l 108.21,309.102 23.6,67.41 47.6,135.988 c 15.1,43.3 47.2,74.9 83.9,87.8 11.9,4.2 24.3,6.4 36.69,6.4 11.41,0 22.81,-1.89 34.01,-5.79 63.8,-22.4 92.4,-102.4 62.29,-174.31 l -61.99,-147.588 -22.5,-53.5 -18.3,-43.602 -77.7,-184.808" />
      <path
         id="path194"
         style="fill:none;stroke:#212122;stroke-width:5;stroke-linecap:round;stroke-linejoin:round;stroke-miterlimit:10;stroke-dasharray:none;stroke-opacity:1"
         d="m 3336.16,593.172 c 0.3,1.008 0.7,1.91 0.99,2.898 l 108.21,309.102 23.6,67.41 47.6,135.988 c 15.1,43.3 47.2,74.9 83.9,87.8 11.9,4.2 24.3,6.4 36.69,6.4 11.41,0 22.81,-1.89 34.01,-5.79 63.8,-22.4 92.4,-102.4 62.29,-174.31 l -61.99,-147.588 -22.5,-53.5 -18.3,-43.602 -77.7,-184.808" />
      <path
         id="path196"
         style="fill:#212122;fill-opacity:1;fill-rule:nonzero;stroke:none"
         d="m 3402.3,967.93 c 15.01,18.949 86.15,7.019 163.81,-27.942 81.23,-36.668 138.83,-84.797 128.5,-107.558 -0.25,-0.5 -0.5,-0.871 -0.86,-1.36 l 0.86,-0.371 89.71,210.341 c 35.21,82.58 -2.83,176.73 -82.82,204.67 -15.14,5.29 -30.53,7.88 -45.91,7.88 -54.77,0 -107.32,-32.49 -134.28,-85.17 L 3402.3,967.93" />
      <path
         id="path198"
         style="fill:#212122;fill-opacity:1;fill-rule:nonzero;stroke:none"
         d="m 4406.45,857.699 c -81.21,-36.648 -155.35,-47.937 -165.6,-25.23 -10.25,22.711 47.28,70.832 128.49,107.48 81.21,36.641 155.36,47.942 165.61,25.223 10.24,-22.703 -47.29,-70.832 -128.5,-107.473" />
      <path
         id="path200"
         style="fill:#f4f1fa;fill-opacity:1;fill-rule:nonzero;stroke:none"
         d="m 4382.55,593.172 -82.39,195.91 -13.6,32.5 -22.5,53.5 -14.9,35.398 -25.31,60.399 -21.79,51.791 c -30.2,71.91 -1.51,151.91 62.3,174.31 11.1,3.9 22.6,5.79 33.9,5.79 10.1,0 20.1,-1.49 29.9,-4.3 39.5,-11.09 74.7,-43.99 90.8,-89.9 l 47.6,-135.988 23.6,-67.41 108.2,-309.102 c 0.3,-0.988 0.7,-1.89 1,-2.898" />
      <path
         id="path202"
         style="fill:none;stroke:#212122;stroke-width:5;stroke-linecap:round;stroke-linejoin:round;stroke-miterlimit:10;stroke-dasharray:none;stroke-opacity:1"
         d="m 4382.55,593.172 -82.39,195.91 -13.6,32.5 -22.5,53.5 -14.9,35.398 -25.31,60.399 -21.79,51.791 c -30.2,71.91 -1.51,151.91 62.3,174.31 11.1,3.9 22.6,5.79 33.9,5.79 10.1,0 20.1,-1.49 29.9,-4.3 39.5,-11.09 74.7,-43.99 90.8,-89.9 l 47.6,-135.988 23.6,-67.41 108.2,-309.102 c 0.3,-0.988 0.7,-1.89 1,-2.898" />
      <path
         id="path204"
         style="fill:#212122;fill-opacity:1;fill-rule:nonzero;stroke:none"
         d="m 4533.19,967.93 c -15.01,18.949 -86.15,7.019 -163.81,-27.942 -81.23,-36.668 -138.83,-84.797 -128.49,-107.558 0.25,-0.5 0.49,-0.871 0.86,-1.36 l -0.86,-0.371 -89.72,210.341 c -35.21,82.58 2.83,176.73 82.83,204.67 15.14,5.29 30.52,7.88 45.91,7.88 54.76,0 107.31,-32.49 134.27,-85.17 l 119.01,-200.49" />
      <path
         id="path206"
         style="fill:#212122;fill-opacity:1;fill-rule:nonzero;stroke:none"
         d="m 4334.17,1070.38 -25.6,-122.4 c 5.1,-11.21 9.09,-23 11.8,-35.308 2.8,-12.793 4.29,-25.992 4.29,-39.602 0,-16.199 -2.1,-32 -6.2,-47 -3.4,-13 -8.19,-25.398 -14.29,-36.988 -10,-19.203 -23.21,-36.5 -39.11,-51.012 l -30.09,-144.898 h -541.7 l -30.1,149 c -10.91,10.598 -20.51,22.707 -28.51,35.808 -9.5,15.59 -16.79,32.692 -21.29,50.891 -3.5,14.109 -5.4,28.899 -5.4,44.199 0,15.5 2,30.61 5.6,45 2.3,9.102 5.2,17.899 8.69,26.41 l -25.39,125.9 c -10.91,46.39 -8.81,91.79 7.6,125.99 13.5,28.4 36.89,49.01 70.9,56.3 8.6,1.81 18,2.81 28.09,2.81 h 537.41 c 10,0 19.19,-1 27.59,-2.81 32.21,-7 52.71,-26.89 63.7,-54.2 14.11,-34.5 13.11,-80.8 2.01,-128.09" />
      <path
         id="path208"
         style="fill:#ffffff;fill-opacity:1;fill-rule:nonzero;stroke:none"
         d="m 4334.14,1070.43 c -3.76,-20.51 -7.23,-41.08 -11.28,-61.52 -3.95,-20.469 -7.83,-40.941 -12.06,-61.34 l -0.16,1.36 c 8.01,-17.578 13.35,-36.43 15.44,-55.68 2.01,-19.262 0.88,-38.789 -3.08,-57.699 -3.92,-18.93 -11.35,-37.031 -21.07,-53.621 -9.76,-16.61 -22.52,-31.27 -36.85,-43.879 13.73,13.32 25.17,28.738 34.35,45.308 9.19,16.602 15.49,34.621 19.3,53.082 7.43,36.989 3.14,76.168 -12.15,110.668 -0.21,0.442 -0.25,0.922 -0.16,1.36 4.28,20.402 8.9,40.73 13.47,61.061 4.45,20.36 9.5,40.59 14.25,60.9" />
      <path
         id="path210"
         style="fill:#ffffff;fill-opacity:1;fill-rule:nonzero;stroke:none"
         d="m 3663.15,742.148 c -13.3,12.5 -25.09,26.832 -34.13,42.891 -8.99,16.043 -15.81,33.422 -19.53,51.543 -3.65,18.098 -4.79,36.758 -3,55.18 1.72,18.437 6.54,36.539 13.73,53.558 l -0.14,-1.32 c -8.37,42.012 -15.97,84.17 -23.17,126.43 9.74,-41.74 19.06,-83.559 27.62,-125.532 0.1,-0.457 0.04,-0.929 -0.13,-1.328 -13.66,-33.371 -17.59,-70.691 -10.66,-106.14 3.48,-17.7 9.3,-34.989 17.75,-51.051 8.44,-16.027 18.98,-31.059 31.66,-44.231" />
      <path
         id="path212"
         style="fill:#212122;fill-opacity:1;fill-rule:nonzero;stroke:none"
         d="m 4101.41,1218.09 h -270.1 v 82.21 h 270.1 v -82.21" />
      <path
         id="path214"
         style="fill:none;stroke:#ffffff;stroke-width:5;stroke-linecap:round;stroke-linejoin:round;stroke-miterlimit:10;stroke-dasharray:none;stroke-opacity:1"
         d="m 4105.71,1257.97 c 0.85,-10.22 1.29,-20.64 1.29,-31.23 0,-126.35 -62.43,-228.771 -139.45,-228.771 -77.03,0 -139.46,102.421 -139.46,228.771 0,9.02 0.31,17.92 0.94,26.67" />
    </g>
  </g>
</svg>
