<?xml version="1.0" encoding="UTF-8" standalone="no"?>
<!-- Created with Inkscape (http://www.inkscape.org/) -->

<svg
   width="44.731686mm"
   height="54.006699mm"
   viewBox="0 0 44.731686 54.006699"
   version="1.1"
   id="svg4738"
   xmlns="http://www.w3.org/2000/svg"
   xmlnsSvg="http://www.w3.org/2000/svg">
  <defs
     id="defs4735" />
  <g
     inkscapeLabel="Layer 1"
     id="layer1"
     transform="translate(-82.716785,-121.49665)">
    <g
       id="g1617"
       transform="matrix(0.03527778,0,0,-0.03527778,68.46532,196.34095)">
      <path
         id="path16"
         style="fill:#fbc325;fill-opacity:1;fill-rule:nonzero;stroke:none"
         d="m 431.793,1513.6 c 0,334.79 271.398,606.18 606.177,606.18 334.79,0 606.18,-271.39 606.18,-606.18 0,-334.78 -271.39,-606.178 -606.18,-606.178 -334.779,0 -606.177,271.398 -606.177,606.178" />
      <path
         id="path18"
         style="fill:#212122;fill-opacity:1;fill-rule:nonzero;stroke:none"
         d="m 1298.51,1738.3 c -38.38,55.69 -104.8,88.55 -120.78,157.61 -6.82,29.45 -2.85,60.76 -5.81,91.07 -7.18,73.31 -57.27,130.84 -119.95,134.41 -1.22,0.07 -2.45,0.12 -3.69,0.15 -3.26,0.08 -6.54,0 -9.81,-0.21 -3.27,0.21 -6.55,0.29 -9.82,0.21 -1.23,-0.03 -2.46,-0.08 -3.69,-0.15 -62.675,-3.57 -112.761,-61.1 -119.94,-134.41 -2.969,-30.31 1.007,-61.62 -5.809,-91.07 -15.981,-69.06 -82.402,-101.92 -120.785,-157.61 -36.481,-52.92 -45.633,-129.76 -22.91,-192.33 17.757,-48.91 53.789,-92.73 50.285,-145.71 -2.512,-38.1 -25.696,-71.33 -27.332,-109.49 -2.184,-50.91 38.562,-95.65 82.031,-99.21 43.465,-3.57 312.47,-3.57 355.94,0 43.46,3.56 84.21,48.3 82.03,99.21 -1.64,38.16 -24.82,71.39 -27.34,109.49 -3.5,52.98 32.54,96.8 50.3,145.71 22.72,62.57 13.56,139.41 -22.92,192.33" />
      <path
         id="path20"
         style="fill:none;stroke:#212122;stroke-width:4.62275;stroke-linecap:round;stroke-linejoin:round;stroke-miterlimit:10;stroke-dasharray:none;stroke-opacity:1"
         d="m 1057.83,2100.01 c 62.57,7.05 125.77,-48.27 137.64,-120.5 5.37,-32.69 1.38,-67.21 9.96,-98.95 19.36,-71.65 94.12,-104.1 120.93,-172.38 16.47,-41.96 11.85,-92.36 -5.31,-133.94 -17.17,-41.58 -45.67,-75.39 -76.5,-104.21" />
      <path
         id="path22"
         style="fill:none;stroke:#212122;stroke-width:4.62275;stroke-linecap:round;stroke-linejoin:round;stroke-miterlimit:10;stroke-dasharray:none;stroke-opacity:1"
         d="m 1114.3,1876.97 c 97.29,-103.89 153.86,-258.03 151.25,-412.09 -0.43,-25.28 -2.17,-51.76 6.89,-74.71 7.36,-18.63 21.07,-32.76 30.19,-50.29 24.49,-47.06 7.01,-116.79 -35.32,-140.93" />
      <path
         id="path24"
         style="fill:#f4f1fa;fill-opacity:1;fill-rule:nonzero;stroke:none"
         d="m 995.176,1985.86 -21.203,19.74 c -20.731,19.29 -4.071,45.07 31.597,48.35 13.22,1.22 26.36,2 37.62,1.87 13.8,-0.17 27.68,-0.93 41.34,-2.26 38.29,-3.72 57.01,-32.46 33.92,-51.31 l -24.2,-19.74 c -9.4,-7.68 -24.16,-12 -39.86,-11.66 l -17.64,0.38 c -16.56,0.35 -32.11,5.83 -41.574,14.63" />
      <path
         id="path26"
         style="fill:#f4f1fa;fill-opacity:1;fill-rule:nonzero;stroke:none"
         d="m 890.461,1938.63 c 10.297,13.41 22.625,25.49 35.965,35.96 3.39,2.67 6.875,5.23 10.379,7.69 l 11.113,6.48 11.164,6.47 c 3.809,2 7.742,3.78 11.707,5.47 15.945,6.48 32.711,11.31 49.931,13.34 17.19,2.13 34.8,1.95 51.95,-1.47 l -0.38,0.04 c 13.87,-2.18 26.61,-5.85 39.27,-10.97 12.53,-5.08 24.33,-11.65 35.56,-19.2 5.86,-3.41 10.86,-7.79 16.08,-11.98 5.19,-4.2 10.48,-8.27 15.05,-13.18 9.33,-9.54 17.96,-19.73 25.25,-30.8 -8.85,9.85 -18.08,19.26 -28.2,27.6 -4.98,4.25 -10.33,8.03 -15.68,11.8 -5.32,3.77 -10.55,7.81 -16.35,10.69 -11.15,6.49 -22.9,12.11 -34.95,16.73 -11.99,4.37 -24.88,7.7 -37.12,9.61 l -0.38,0.06 c -32.19,5.78 -66,1.39 -96.996,-10.02 -3.894,-1.39 -7.773,-2.87 -11.547,-4.57 l -11.113,-5.59 -11.152,-5.62 c -3.547,-2.18 -7.016,-4.42 -10.41,-6.77 -14.153,-9.18 -27.008,-19.92 -39.141,-31.77" />
      <path
         id="path28"
         style="fill:#f4f1fa;fill-opacity:1;fill-rule:nonzero;stroke:none"
         d="m 1155.75,1222.24 c 2.2,-66.1 -49.7,-120.99 -114.4,-120.99 -63.405,0 -114.405,52.59 -114.405,117.1 0,1.3 0,2.69 0.102,3.89 l 12.699,174.7 1.602,22.5 2.8,38.11 5.2,70.49 h 184.002 l 8.2,-112.59 1.9,-24.6 6.1,-84.31 6.2,-84.3" />
      <path
         id="path30"
         style="fill:none;stroke:#212122;stroke-width:5;stroke-linecap:butt;stroke-linejoin:miter;stroke-miterlimit:10;stroke-dasharray:none;stroke-opacity:1"
         d="m 1155.75,1222.24 c 2.2,-66.1 -49.7,-120.99 -114.4,-120.99 -63.405,0 -114.405,52.59 -114.405,117.1 0,1.3 0,2.69 0.102,3.89 l 12.699,174.7 1.602,22.5 2.8,38.11 5.2,70.49 h 184.002 l 8.2,-112.59 1.9,-24.6 6.1,-84.31 z" />
      <path
         id="path32"
         style="fill:#212122;fill-opacity:1;fill-rule:nonzero;stroke:none"
         d="m 1149.55,1306.54 c -58,-7.1 -123.4,20.8 -167.702,77.4 -18,22.9 -30.5,48.11 -37.7,73.61 l 5.2,70.49 h 184.002 l 8.2,-112.59 1.9,-24.6 6.1,-84.31" />
      <path
         id="path34"
         style="fill:#f4f1fa;fill-opacity:1;fill-rule:nonzero;stroke:none"
         d="m 1201.65,1703.18 c -23.12,-37.13 -20.89,-81.11 4.99,-98.23 25.87,-17.13 65.58,-0.92 88.7,36.21 23.12,37.13 20.89,81.1 -4.99,98.23 -25.87,17.13 -65.59,0.92 -88.7,-36.21" />
      <path
         id="path36"
         style="fill:none;stroke:#212122;stroke-width:5;stroke-linecap:butt;stroke-linejoin:miter;stroke-miterlimit:10;stroke-dasharray:none;stroke-opacity:1"
         d="m 1201.65,1703.18 c -23.12,-37.13 -20.89,-81.11 4.99,-98.23 25.87,-17.13 65.58,-0.92 88.7,36.21 23.12,37.13 20.89,81.1 -4.99,98.23 -25.87,17.13 -65.59,0.92 -88.7,-36.21 z" />
      <path
         id="path38"
         style="fill:none;stroke:#212122;stroke-width:5;stroke-linecap:round;stroke-linejoin:round;stroke-miterlimit:10;stroke-dasharray:none;stroke-opacity:1"
         d="m 1270.89,1721.57 c 11.2,-4.38 19.72,-15.01 21.53,-26.91 1.82,-11.89 -3.14,-24.58 -12.53,-32.1" />
      <path
         id="path40"
         style="fill:#f4f1fa;fill-opacity:1;fill-rule:nonzero;stroke:none"
         d="m 889.57,1703.18 c 23.118,-37.13 20.883,-81.11 -4.988,-98.23 -25.875,-17.13 -65.586,-0.92 -88.707,36.21 -23.113,37.13 -20.883,81.1 4.992,98.23 25.871,17.13 65.59,0.92 88.703,-36.21" />
      <path
         id="path42"
         style="fill:none;stroke:#212122;stroke-width:5;stroke-linecap:butt;stroke-linejoin:miter;stroke-miterlimit:10;stroke-dasharray:none;stroke-opacity:1"
         d="m 889.57,1703.18 c 23.118,-37.13 20.883,-81.11 -4.988,-98.23 -25.875,-17.13 -65.586,-0.92 -88.707,36.21 -23.113,37.13 -20.883,81.1 4.992,98.23 25.871,17.13 65.59,0.92 88.703,-36.21 z" />
      <path
         id="path44"
         style="fill:none;stroke:#212122;stroke-width:5;stroke-linecap:round;stroke-linejoin:round;stroke-miterlimit:10;stroke-dasharray:none;stroke-opacity:1"
         d="m 820.332,1721.57 c -11.211,-4.38 -19.727,-15.01 -21.535,-26.91 -1.817,-11.89 3.137,-24.58 12.527,-32.1" />
      <path
         id="path46"
         style="fill:#f4f1fa;fill-opacity:1;fill-rule:nonzero;stroke:none"
         d="m 1259.15,1754.55 c 0,-3.51 0,-6.91 -0.2,-10.21 -0.4,-10 -1.2,-20.1 -2.5,-29.9 l -1.4,-13.99 -0.61,-7.6 -0.39,-4.5 -0.6,-6.51 c -0.6,-6.7 -1,-13.3 -1.4,-19.9 -0.11,-1.7 -0.2,-3.3 -0.3,-5 -0.2,-2.5 -0.3,-5 -0.4,-7.5 -1,-16.59 -1.91,-33.1 -4.1,-49.49 0,-0.3 -0.11,-0.61 -0.11,-0.8 -0.49,-3.11 -0.99,-6.3 -1.59,-9.41 -0.6,-3.4 -1.11,-6.7 -2,-10 -1.1,-5 -2.4,-9.9 -3.91,-15 -0.49,-1.79 -1.09,-3.49 -1.69,-5.4 -1.2,-3.59 -2.6,-7.29 -4.1,-10.99 -3.9,-9.71 -8.6,-19.11 -13.9,-28.51 -22.4,-38.99 -56.7,-74.79 -91,-98.5 -0.1,-0.3 -0.4,-0.4 -0.5,-0.4 -4.2,-2.99 -8.4,-5.7 -12.5,-8.2 -41.9,-25.59 -91.4,-26.99 -134.802,-4.89 -9.003,4.49 -17.601,9.7 -26,15.9 -0.101,0 -0.304,0 -0.402,0.19 -33.195,23.7 -61.699,58.11 -83.195,95.9 -1.602,2.71 -3.004,5.3 -4.504,8.01 -0.699,1.39 -1.402,2.9 -2.098,4.3 -1.203,2.29 -2.301,4.79 -3.601,7.29 -3.403,6.5 -6.399,13.3 -9.102,19.9 -0.695,1.91 -1.601,3.7 -2.199,5.61 -10.098,26.59 -13.699,56.3 -16.102,85.59 -0.297,2.9 -0.496,5.9 -0.8,8.9 0,1.6 -0.2,3.2 -0.297,4.8 -0.399,5.1 -0.801,10.31 -1.2,15.31 l -1.203,13.7 c -0.297,1.49 -0.496,3 -0.699,4.39 -0.398,1.7 -0.598,3.3 -0.801,5 -1.097,6.2 -1.898,12.5 -2.5,19.01 -0.297,2.9 -0.597,5.9 -0.8,8.89 -0.598,7.81 -0.899,15.8 -0.899,24.01 0,0.9 0,1.89 0.098,2.9 0,6.99 0.304,13.99 0.902,20.8 0.402,5.9 1.102,11.7 2,17.29 5,34.7 16.102,67.01 32.098,95.31 4.101,7.1 8.402,13.89 13.004,20.49 15.398,22.1 34.297,41.11 55.398,56 1.5,1.2 3.102,2.31 4.602,3.3 1.898,1.3 3.8,2.61 5.699,3.8 7.5,4.6 15.199,8.81 23.101,12.4 33.598,15.31 73.602,22.31 110.102,15.31 1.8,-0.21 3.6,-0.61 5.39,-0.9 15.11,-2.9 29.51,-7.41 43.21,-13.7 4.4,-1.91 8.7,-4.01 12.9,-6.3 6.1,-3.21 12,-6.7 17.8,-10.61 0.4,-0.29 1,-0.69 1.4,-0.99 6.2,-4.2 12.1,-8.61 17.9,-13.51 17.1,-14.4 32.3,-31.7 45,-51.19 3.3,-5 6.4,-10.11 9.29,-15.3 1.01,-1.51 1.71,-3 2.71,-4.7 14,-26.7 24.1,-56.6 28.7,-88.7 0,-0.21 0.2,-0.4 0.2,-0.71 0.8,-5.59 1.4,-11.39 1.9,-17.29 0.6,-6.81 0.9,-13.81 0.9,-20.8 0.1,-1.01 0.1,-2 0.1,-2.9" />
      <path
         id="path48"
         style="fill:none;stroke:#212122;stroke-width:5;stroke-linecap:butt;stroke-linejoin:miter;stroke-miterlimit:10;stroke-dasharray:none;stroke-opacity:1"
         d="m 1259.15,1754.55 c 0,-3.51 0,-6.91 -0.2,-10.21 -0.4,-10 -1.2,-20.1 -2.5,-29.9 l -1.4,-13.99 -0.61,-7.6 -0.39,-4.5 -0.6,-6.51 c -0.6,-6.7 -1,-13.3 -1.4,-19.9 -0.11,-1.7 -0.2,-3.3 -0.3,-5 -0.2,-2.5 -0.3,-5 -0.4,-7.5 -1,-16.59 -1.91,-33.1 -4.1,-49.49 0,-0.3 -0.11,-0.61 -0.11,-0.8 -0.49,-3.11 -0.99,-6.3 -1.59,-9.41 -0.6,-3.4 -1.11,-6.7 -2,-10 -1.1,-5 -2.4,-9.9 -3.91,-15 -0.49,-1.79 -1.09,-3.49 -1.69,-5.4 -1.2,-3.59 -2.6,-7.29 -4.1,-10.99 -3.9,-9.71 -8.6,-19.11 -13.9,-28.51 -22.4,-38.99 -56.7,-74.79 -91,-98.5 -0.1,-0.3 -0.4,-0.4 -0.5,-0.4 -4.2,-2.99 -8.4,-5.7 -12.5,-8.2 -41.9,-25.59 -91.4,-26.99 -134.802,-4.89 -9.003,4.49 -17.601,9.7 -26,15.9 -0.101,0 -0.304,0 -0.402,0.19 -33.195,23.7 -61.699,58.11 -83.195,95.9 -1.602,2.71 -3.004,5.3 -4.504,8.01 -0.699,1.39 -1.402,2.9 -2.098,4.3 -1.203,2.29 -2.301,4.79 -3.601,7.29 -3.403,6.5 -6.399,13.3 -9.102,19.9 -0.695,1.91 -1.601,3.7 -2.199,5.61 -10.098,26.59 -13.699,56.3 -16.102,85.59 -0.297,2.9 -0.496,5.9 -0.8,8.9 0,1.6 -0.2,3.2 -0.297,4.8 -0.399,5.1 -0.801,10.31 -1.2,15.31 l -1.203,13.7 c -0.297,1.49 -0.496,3 -0.699,4.39 -0.398,1.7 -0.598,3.3 -0.801,5 -1.097,6.2 -1.898,12.5 -2.5,19.01 -0.297,2.9 -0.597,5.9 -0.8,8.89 -0.598,7.81 -0.899,15.8 -0.899,24.01 0,0.9 0,1.89 0.098,2.9 0,6.99 0.304,13.99 0.902,20.8 0.402,5.9 1.102,11.7 2,17.29 5,34.7 16.102,67.01 32.098,95.31 4.101,7.1 8.402,13.89 13.004,20.49 15.398,22.1 34.297,41.11 55.398,56 1.5,1.2 3.102,2.31 4.602,3.3 1.898,1.3 3.8,2.61 5.699,3.8 7.5,4.6 15.199,8.81 23.101,12.4 33.598,15.31 73.602,22.31 110.102,15.31 1.8,-0.21 3.6,-0.61 5.39,-0.9 15.11,-2.9 29.51,-7.41 43.21,-13.7 4.4,-1.91 8.7,-4.01 12.9,-6.3 6.1,-3.21 12,-6.7 17.8,-10.61 0.4,-0.29 1,-0.69 1.4,-0.99 6.2,-4.2 12.1,-8.61 17.9,-13.51 17.1,-14.4 32.3,-31.7 45,-51.19 3.3,-5 6.4,-10.11 9.29,-15.3 1.01,-1.51 1.71,-3 2.71,-4.7 14,-26.7 24.1,-56.6 28.7,-88.7 0,-0.21 0.2,-0.4 0.2,-0.71 0.8,-5.59 1.4,-11.39 1.9,-17.29 0.6,-6.81 0.9,-13.81 0.9,-20.8 0.1,-1.01 0.1,-2 0.1,-2.9 z" />
      <path
         id="path50"
         style="fill:#212122;fill-opacity:1;fill-rule:nonzero;stroke:none"
         d="m 1259.15,1754.55 c 0,-3.51 0,-6.91 -0.2,-10.21 -0.4,-10 -1.2,-20.1 -2.5,-29.9 l -1.4,-13.99 -0.61,-7.6 -0.39,-4.5 -0.6,-6.51 c -0.6,-6.7 -1,-13.3 -1.4,-19.9 -0.11,-1.7 -0.2,-3.3 -0.3,-5 -23.4,55.8 -34.1,116.9 -30.8,177.3 -17,31.4 -42.5,53.71 -75,68.71 -21.9,10.09 -45.7,15.3 -69.7,15.3 -11.5,0 -23,-1.2 -34.31,-3.6 -35,7.5 -71.592,3.3 -104.092,-11.7 -32.403,-15 -57.899,-37.31 -74.903,-68.71 3.301,-59.5 -7.097,-119.69 -29.8,-174.8 0,1.6 -0.2,3.2 -0.297,4.8 -0.399,5.1 -0.801,10.31 -1.2,15.31 l -1.203,13.7 c -0.297,1.49 -0.496,3 -0.699,4.39 -0.398,1.7 -0.598,3.3 -0.801,5 -1.097,6.2 -1.898,12.5 -2.5,19.01 -0.297,2.9 -0.597,5.9 -0.8,8.89 -0.598,7.81 -0.899,15.8 -0.899,24.01 0,0.9 0,1.89 0.098,2.9 0,6.99 0.304,13.99 0.902,20.8 0.402,5.9 1.102,11.7 2,17.29 5,34.7 16.102,67.01 32.098,95.31 4.101,7.1 8.402,13.89 13.004,20.49 15.398,22.1 34.297,41.11 55.398,56 1.5,1.2 3.102,2.31 4.602,3.3 1.898,1.3 3.8,2.61 5.699,3.8 7.5,4.6 15.199,8.81 23.101,12.4 33.598,15.31 73.602,22.31 110.102,15.31 1.8,-0.21 3.6,-0.61 5.39,-0.9 15.11,-2.9 29.51,-7.41 43.21,-13.7 4.4,-1.91 8.7,-4.01 12.9,-6.3 6.1,-3.21 12,-6.7 17.8,-10.61 0.4,-0.29 1,-0.69 1.4,-0.99 6.2,-4.2 12.1,-8.61 17.9,-13.51 17.1,-14.4 32.3,-31.7 45,-51.19 3.3,-5 6.4,-10.11 9.29,-15.3 1.01,-1.51 1.71,-3 2.71,-4.7 14,-26.7 24.1,-56.6 28.7,-88.7 0,-0.21 0.2,-0.4 0.2,-0.71 0.8,-5.59 1.4,-11.39 1.9,-17.29 0.6,-6.81 0.9,-13.81 0.9,-20.8 0.1,-1.01 0.1,-2 0.1,-2.9" />
      <path
         id="path52"
         style="fill:none;stroke:#212122;stroke-width:4.82157;stroke-linecap:round;stroke-linejoin:round;stroke-miterlimit:10;stroke-dasharray:none;stroke-opacity:1"
         d="m 1165.86,1905.14 c 3.95,-28.62 27.71,-52.83 54.9,-55.91" />
      <path
         id="path54"
         style="fill:none;stroke:#212122;stroke-width:4.82157;stroke-linecap:round;stroke-linejoin:round;stroke-miterlimit:10;stroke-dasharray:none;stroke-opacity:1"
         d="m 1157.71,1921.9 c 1.06,-24.94 10.87,-49.35 27.09,-67.49 16.23,-18.12 38.74,-29.81 62.23,-32.3" />
      <path
         id="path56"
         style="fill:none;stroke:#212122;stroke-width:4.82157;stroke-linecap:round;stroke-linejoin:round;stroke-miterlimit:10;stroke-dasharray:none;stroke-opacity:1"
         d="m 1158.97,1907.21 c 1.06,-24.93 10.87,-49.35 27.1,-67.48 16.22,-18.13 38.74,-29.82 62.22,-32.3" />
      <path
         id="path58"
         style="fill:none;stroke:#212122;stroke-width:4.82157;stroke-linecap:round;stroke-linejoin:round;stroke-miterlimit:10;stroke-dasharray:none;stroke-opacity:1"
         d="m 918,1905.14 c -3.949,-28.62 -27.719,-52.83 -54.906,-55.91" />
      <path
         id="path60"
         style="fill:none;stroke:#212122;stroke-width:4.82157;stroke-linecap:round;stroke-linejoin:round;stroke-miterlimit:10;stroke-dasharray:none;stroke-opacity:1"
         d="m 926.148,1921.9 c -1.062,-24.94 -10.867,-49.35 -27.093,-67.49 -16.231,-18.12 -38.746,-29.81 -62.227,-32.3" />
      <path
         id="path62"
         style="fill:none;stroke:#212122;stroke-width:4.82157;stroke-linecap:round;stroke-linejoin:round;stroke-miterlimit:10;stroke-dasharray:none;stroke-opacity:1"
         d="m 924.883,1907.21 c -1.063,-24.93 -10.867,-49.35 -27.094,-67.48 -16.226,-18.13 -38.738,-29.82 -62.226,-32.3" />
      <path
         id="path64"
         style="fill:#212122;fill-opacity:1;fill-rule:nonzero;stroke:none"
         d="m 1100.18,1733.89 c 3.54,11.9 12.18,21.33 22.37,27.95 10.28,6.58 22.35,10.34 34.58,11.09 12.22,0.77 24.66,-1.52 35.66,-6.82 10.92,-5.34 20.64,-13.69 25.56,-25.11 -12.26,1.22 -22.16,2.08 -31.79,2.36 -9.55,0.32 -18.59,0.14 -27.63,-0.37 -9.05,-0.53 -18.05,-1.45 -27.5,-2.91 -9.53,-1.42 -19.26,-3.47 -31.25,-6.19" />
      <path
         id="path66"
         style="fill:#212122;fill-opacity:1;fill-rule:nonzero;stroke:none"
         d="m 993.941,1733.89 c -11.992,2.72 -21.718,4.77 -31.253,6.19 -9.45,1.46 -18.454,2.38 -27.497,2.91 -9.043,0.51 -18.082,0.69 -27.636,0.37 -9.629,-0.28 -19.528,-1.14 -31.778,-2.36 4.914,11.42 14.629,19.77 25.547,25.11 11,5.3 23.449,7.59 35.668,6.82 12.223,-0.75 24.297,-4.51 34.582,-11.09 10.184,-6.62 18.828,-16.05 22.367,-27.95" />
      <path
         id="path68"
         style="fill:#212122;fill-opacity:1;fill-rule:nonzero;stroke:none"
         d="m 1093.09,1669.13 c 2.92,4.42 6.01,8.67 9.05,13.02 3.45,4.34 7.2,8.62 11.73,12.03 8.8,7.18 19.85,11.34 31.12,13.22 11.36,1.32 23.19,0.19 33.85,-4.24 5.38,-2.07 10.32,-5.16 14.97,-8.38 4.15,-3.24 8.39,-6.37 12.46,-9.72 l -2.9,0.91 v 0 c -0.19,-0.27 1.41,-0.1 2.62,0.34 1.33,0.43 2.73,1.02 4.11,1.68 2.77,1.36 5.6,3 8.07,4.76 l 0.11,0.08 c 0.98,0.7 2.35,0.47 3.05,-0.52 0.58,-0.81 0.53,-1.87 -0.05,-2.62 -2.2,-2.8 -4.51,-5.22 -7.09,-7.61 -1.3,-1.17 -2.66,-2.33 -4.23,-3.41 -1.67,-1.04 -3.12,-2.27 -6.58,-2.73 h -0.01 c -0.82,-0.05 -1.61,0.14 -2.26,0.54 l -0.64,0.39 c -4.52,2.73 -8.87,5.69 -13.31,8.53 -4.09,2.58 -8.2,5.01 -12.73,6.56 -8.87,3.53 -18.56,4.81 -28.1,3.93 -9.52,-0.83 -18.97,-3.9 -27.18,-9.16 -4.27,-2.44 -7.91,-5.79 -11.5,-9.21 -3.74,-3.7 -7.37,-7.55 -11.21,-11.19 -0.88,-0.84 -2.27,-0.8 -3.1,0.08 -0.72,0.75 -0.79,1.89 -0.25,2.72" />
      <path
         id="path70"
         style="fill:#212122;fill-opacity:1;fill-rule:nonzero;stroke:none"
         d="m 1129.49,1685.14 c 0.74,10.13 9.54,17.75 19.67,17.02 10.13,-0.73 17.75,-9.54 17.02,-19.66 -0.73,-10.13 -9.54,-17.75 -19.67,-17.02 -10.13,0.73 -17.74,9.53 -17.02,19.66" />
      <path
         id="path72"
         style="fill:none;stroke:#212122;stroke-width:5;stroke-linecap:round;stroke-linejoin:round;stroke-miterlimit:10;stroke-dasharray:none;stroke-opacity:1"
         d="m 1185.2,1670.59 c 6.76,1.51 13.17,4.58 18.58,8.91" />
      <path
         id="path74"
         style="fill:none;stroke:#212122;stroke-width:5;stroke-linecap:round;stroke-linejoin:round;stroke-miterlimit:10;stroke-dasharray:none;stroke-opacity:1"
         d="m 1094.28,1689.73 c 10.18,14.1 26.28,23.76 43.51,26.14" />
      <path
         id="path76"
         style="fill:#212122;fill-opacity:1;fill-rule:nonzero;stroke:none"
         d="m 997.684,1666.33 c -3.84,3.64 -7.473,7.49 -11.207,11.19 -3.594,3.42 -7.239,6.77 -11.504,9.21 -8.215,5.26 -17.657,8.33 -27.188,9.16 -9.531,0.88 -19.23,-0.4 -28.086,-3.93 -4.535,-1.55 -8.648,-3.98 -12.738,-6.56 -4.441,-2.84 -8.789,-5.8 -13.309,-8.53 l -0.644,-0.39 c -0.707,-0.43 -1.492,-0.59 -2.254,-0.54 h -0.012 c -3.461,0.46 -4.914,1.69 -6.586,2.73 -1.566,1.08 -2.926,2.24 -4.226,3.41 -2.578,2.39 -4.891,4.81 -7.082,7.61 -0.746,0.95 -0.575,2.33 0.375,3.08 0.781,0.61 1.851,0.61 2.617,0.06 l 0.113,-0.08 c 2.473,-1.76 5.305,-3.4 8.063,-4.76 1.39,-0.66 2.793,-1.25 4.117,-1.68 1.211,-0.44 2.805,-0.61 2.621,-0.34 v 0 l -2.895,-0.91 c 4.067,3.35 8.301,6.47 12.446,9.72 4.656,3.22 9.597,6.31 14.976,8.38 10.657,4.43 22.492,5.56 33.852,4.24 11.269,-1.88 22.32,-6.04 31.121,-13.22 4.523,-3.41 8.273,-7.69 11.726,-12.03 3.04,-4.35 6.137,-8.6 9.05,-13.02 0.67,-1.02 0.38,-2.38 -0.63,-3.04 -0.869,-0.58 -1.994,-0.44 -2.716,0.24" />
      <path
         id="path78"
         style="fill:#212122;fill-opacity:1;fill-rule:nonzero;stroke:none"
         d="m 964.625,1685.14 c -0.727,10.13 -9.531,17.75 -19.664,17.02 -10.125,-0.73 -17.746,-9.54 -17.016,-19.66 0.727,-10.13 9.532,-17.75 19.66,-17.02 10.129,0.73 17.754,9.53 17.02,19.66" />
      <path
         id="path80"
         style="fill:none;stroke:#212122;stroke-width:5;stroke-linecap:round;stroke-linejoin:round;stroke-miterlimit:10;stroke-dasharray:none;stroke-opacity:1"
         d="m 908.926,1670.59 c -6.762,1.51 -13.168,4.58 -18.578,8.91" />
      <path
         id="path82"
         style="fill:none;stroke:#212122;stroke-width:5;stroke-linecap:round;stroke-linejoin:round;stroke-miterlimit:10;stroke-dasharray:none;stroke-opacity:1"
         d="m 999.836,1689.73 c -10.18,14.1 -26.281,23.76 -43.508,26.14" />
      <path
         id="path84"
         style="fill:none;stroke:#212122;stroke-width:5;stroke-linecap:round;stroke-linejoin:round;stroke-miterlimit:10;stroke-dasharray:none;stroke-opacity:1"
         d="m 1055.68,1561.59 c 5,2.24 9.42,5.73 12.75,10.07" />
      <path
         id="path86"
         style="fill:none;stroke:#212122;stroke-width:5;stroke-linecap:round;stroke-linejoin:round;stroke-miterlimit:10;stroke-dasharray:none;stroke-opacity:1"
         d="m 1038.43,1561.59 c -4.99,2.24 -9.41,5.73 -12.75,10.07" />
      <path
         id="path88"
         style="fill:#f4f1fa;fill-opacity:1;fill-rule:nonzero;stroke:none"
         d="m 1045.26,1649.76 v -65.73" />
      <path
         id="path90"
         style="fill:none;stroke:#212122;stroke-width:5;stroke-linecap:butt;stroke-linejoin:miter;stroke-miterlimit:10;stroke-dasharray:none;stroke-opacity:1"
         d="m 1045.26,1649.76 v -65.73" />
      <path
         id="path92"
         style="fill:#212122;fill-opacity:1;fill-rule:nonzero;stroke:none"
         d="m 1112.01,1511.62 -1.8,-1.75 -0.1,-0.09 c -5.9,-2.94 -13,-2.94 -19.7,-2.2 -6.7,0.73 -13.5,2.1 -20.2,1.47 -8.1,-0.74 -15.4,-4.23 -23.2,-6.06 h -0.1 c -7.9,1.83 -15.2,5.32 -23.2,6.06 -6.8,0.63 -13.5,-0.74 -20.2,-1.47 -6.701,-0.74 -13.901,-0.74 -19.803,2.29 l -1.598,1.56 c 6.797,-0.27 19.201,4.41 24.101,7.89 l 2.2,1.56 c 5.3,3.94 10.8,8.07 17.7,10 6.7,1.93 15.7,0.91 20.7,-4.13 5.1,5.04 14.1,6.06 20.8,4.13 6.9,-1.93 12.4,-6.06 17.7,-10 l 2.2,-1.65 c 5,-3.49 17.7,-7.98 24.5,-7.61" />
      <path
         id="path94"
         style="fill:none;stroke:#212122;stroke-width:3.80846;stroke-linecap:round;stroke-linejoin:round;stroke-miterlimit:10;stroke-dasharray:none;stroke-opacity:1"
         d="m 1025.21,1473.27 c 1.1,-0.37 2.3,-0.65 3.4,-0.82 3.6,-1.02 7.4,-1.66 11.1,-1.94 1.1,-0.18 2.2,-0.18 3.3,-0.27 0.8,0 1.7,-0.09 2.5,-0.09 0.5,0 1,0 1.5,0 0.1,0 0.2,0 0.3,0" />
      <path
         id="path96"
         style="fill:none;stroke:#212122;stroke-width:3.80846;stroke-linecap:round;stroke-linejoin:round;stroke-miterlimit:10;stroke-dasharray:none;stroke-opacity:1"
         d="m 1110.11,1509.78 c -6.4,-14.77 -18.4,-27.06 -34.2,-33.76 -8.9,-3.86 -18.8,-5.78 -28.6,-5.87 -0.1,0 -0.2,0 -0.3,0 -0.5,0 -1,0 -1.5,0 -0.8,0 -1.7,0.09 -2.5,0.09 -1.1,0.09 -2.2,0.19 -3.3,0.27 -3.7,0.38 -7.5,1.02 -11.1,1.94 -3.7,0.91 -7.3,2.11 -10.7,3.57 -15.7,6.7 -27.898,19.08 -34.199,33.85 5.898,-3.03 13.098,-3.03 19.799,-2.29 6.7,0.73 13.4,2.1 20.2,1.47 8,-0.74 15.3,-4.23 23.2,-6.06 h 0.1 c 7.8,1.83 15.1,5.32 23.2,6.06 6.7,0.63 13.5,-0.74 20.2,-1.47 6.7,-0.74 13.8,-0.74 19.7,2.2 l 0.1,0.09 1.8,1.75 c -6.8,-0.37 -19.5,4.12 -24.5,7.61 l -2.2,1.65 c -5.3,3.94 -10.8,8.07 -17.7,10 -6.7,1.92 -15.7,0.91 -20.8,-4.13 -5,5.04 -14,6.05 -20.7,4.13 -6.9,-1.93 -12.4,-6.06 -17.7,-10 l -2.2,-1.56 c -4.9,-3.48 -17.304,-8.16 -24.101,-7.89 l 1.602,-1.56" />
      <path
         id="path98"
         style="fill:none;stroke:#212122;stroke-width:2.83713;stroke-linecap:round;stroke-linejoin:round;stroke-miterlimit:10;stroke-dasharray:none;stroke-opacity:1"
         d="m 1109.09,1507.7 c -7.44,-5.09 -18.05,-9.24 -30.99,-11.79 -9.72,-1.96 -20.54,-2.93 -31.24,-2.98 -0.11,0 -0.22,0 -0.33,0 -0.54,0 -1.09,0 -1.63,0 -0.88,0 -1.86,0.05 -2.74,0.05 -1.2,0.04 -2.4,0.09 -3.6,0.13 -4.04,0.2 -8.19,0.52 -12.12,0.99 -4.04,0.46 -7.97,1.06 -11.69,1.81 -11.62,2.31 -21.492,5.94 -28.785,10.39" />
      <path
         id="path100"
         style="fill:#212122;fill-opacity:1;fill-rule:nonzero;stroke:none"
         d="M 599.254,856.172 C 680.465,819.52 754.605,808.23 764.855,830.941 775.105,853.648 717.578,901.77 636.363,938.41 555.152,975.07 481.008,986.352 470.758,963.641 460.516,940.93 518.039,892.809 599.254,856.172" />
      <path
         id="path102"
         style="fill:#f4f1fa;fill-opacity:1;fill-rule:nonzero;stroke:none"
         d="m 406.371,591.648 c 0.301,0.993 0.699,1.891 1.004,2.903 l 108.199,309.09 23.598,67.398 47.601,136.011 c 15.098,43.3 47.2,74.89 83.899,87.79 11.898,4.2 24.301,6.41 36.703,6.41 11.395,0 22.797,-1.91 33.996,-5.8 63.801,-22.41 92.399,-102.41 62.301,-174.31 l -62,-147.601 -22.5,-53.488 -18.301,-43.61 -77.699,-184.793" />
      <path
         id="path104"
         style="fill:none;stroke:#212122;stroke-width:5;stroke-linecap:butt;stroke-linejoin:miter;stroke-miterlimit:10;stroke-dasharray:none;stroke-opacity:1"
         d="m 406.371,591.648 c 0.301,0.993 0.699,1.891 1.004,2.903 l 108.199,309.09 23.598,67.398 47.601,136.011 c 15.098,43.3 47.2,74.89 83.899,87.79 11.898,4.2 24.301,6.41 36.703,6.41 11.395,0 22.797,-1.91 33.996,-5.8 63.801,-22.41 92.399,-102.41 62.301,-174.31 l -62,-147.601 -22.5,-53.488 -18.301,-43.61 -77.699,-184.793" />
      <path
         id="path106"
         style="fill:#212122;fill-opacity:1;fill-rule:nonzero;stroke:none"
         d="m 472.516,966.398 c 15.011,18.954 86.152,7.012 163.812,-27.937 81.227,-36.68 138.824,-84.801 128.488,-107.563 -0.246,-0.5 -0.492,-0.859 -0.859,-1.359 l 0.859,-0.367 89.727,210.338 c 35.195,82.58 -2.832,176.74 -82.832,204.67 -15.137,5.29 -30.523,7.88 -45.91,7.88 -54.766,0 -107.317,-32.49 -134.278,-85.17 L 472.516,966.398" />
      <path
         id="path108"
         style="fill:#212122;fill-opacity:1;fill-rule:nonzero;stroke:none"
         d="m 1476.67,856.172 c -81.21,-36.652 -155.36,-47.942 -165.6,-25.231 -10.25,22.707 47.28,70.829 128.49,107.469 81.21,36.66 155.35,47.942 165.6,25.231 10.25,-22.711 -47.28,-70.832 -128.49,-107.469" />
      <path
         id="path110"
         style="fill:#f4f1fa;fill-opacity:1;fill-rule:nonzero;stroke:none"
         d="m 1452.77,591.648 -82.4,195.903 -13.6,32.5 -22.5,53.488 -14.9,35.402 -25.3,60.399 -21.8,51.8 c -30.2,71.9 -1.5,151.9 62.3,174.31 11.1,3.89 22.6,5.8 33.9,5.8 10.1,0 20.1,-1.51 29.9,-4.31 39.5,-11.09 74.7,-43.99 90.8,-89.89 l 47.6,-136.011 23.6,-67.398 108.2,-309.09 c 0.3,-1.012 0.7,-1.91 1,-2.903" />
      <path
         id="path112"
         style="fill:none;stroke:#212122;stroke-width:5;stroke-linecap:butt;stroke-linejoin:miter;stroke-miterlimit:10;stroke-dasharray:none;stroke-opacity:1"
         d="m 1452.77,591.648 -82.4,195.903 -13.6,32.5 -22.5,53.488 -14.9,35.402 -25.3,60.399 -21.8,51.8 c -30.2,71.9 -1.5,151.9 62.3,174.31 11.1,3.89 22.6,5.8 33.9,5.8 10.1,0 20.1,-1.51 29.9,-4.31 39.5,-11.09 74.7,-43.99 90.8,-89.89 l 47.6,-136.011 23.6,-67.398 108.2,-309.09 c 0.3,-1.012 0.7,-1.91 1,-2.903" />
      <path
         id="path114"
         style="fill:#212122;fill-opacity:1;fill-rule:nonzero;stroke:none"
         d="m 1603.4,966.398 c -15.01,18.954 -86.15,7.012 -163.8,-27.937 -81.23,-36.68 -138.83,-84.801 -128.5,-107.563 0.25,-0.5 0.49,-0.859 0.86,-1.359 l -0.86,-0.367 -89.72,210.338 c -35.2,82.58 2.83,176.74 82.83,204.67 15.14,5.29 30.52,7.88 45.91,7.88 54.77,0 107.32,-32.49 134.27,-85.17 L 1603.4,966.398" />
      <path
         id="path116"
         style="fill:#f4f1fa;fill-opacity:1;fill-rule:nonzero;stroke:none"
         d="m 1400.83,1070.38 -25.6,-122.4 c 5.1,-11.21 9.1,-23 11.8,-35.308 2.8,-12.793 4.3,-25.992 4.3,-39.602 0,-16.199 -2.1,-32 -6.2,-47 -3.4,-13 -8.2,-25.398 -14.3,-36.988 -10,-19.203 -23.2,-36.5 -39.1,-51.012 l -30.1,-144.898 h -541.7 l -30.106,149 c -10.898,10.598 -20.496,22.707 -28.496,35.808 -9.5,15.59 -16.801,32.692 -21.301,50.891 -3.496,14.109 -5.402,28.899 -5.402,44.199 0,15.5 2.004,30.61 5.602,45 2.3,9.102 5.199,17.899 8.699,26.41 l -25.399,125.9 c -10.898,46.39 -8.8,91.79 7.602,125.99 13.496,28.4 36.898,49.01 70.898,56.3 8.598,1.81 18,2.81 28.102,2.81 h 537.401 c 10,0 19.2,-1 27.6,-2.81 32.2,-7 52.7,-26.89 63.7,-54.2 14.1,-34.5 13.1,-80.8 2,-128.09" />
      <path
         id="path118"
         style="fill:none;stroke:#212122;stroke-width:5;stroke-linecap:round;stroke-linejoin:round;stroke-miterlimit:10;stroke-dasharray:none;stroke-opacity:1"
         d="m 1400.83,1070.38 -25.6,-122.4 c 5.1,-11.21 9.1,-23 11.8,-35.308 2.8,-12.793 4.3,-25.992 4.3,-39.602 0,-16.199 -2.1,-32 -6.2,-47 -3.4,-13 -8.2,-25.398 -14.3,-36.988 -10,-19.203 -23.2,-36.5 -39.1,-51.012 l -30.1,-144.898 h -541.7 l -30.106,149 c -10.898,10.598 -20.496,22.707 -28.496,35.808 -9.5,15.59 -16.801,32.692 -21.301,50.891 -3.496,14.109 -5.402,28.899 -5.402,44.199 0,15.5 2.004,30.61 5.602,45 2.3,9.102 5.199,17.899 8.699,26.41 l -25.399,125.9 c -10.898,46.39 -8.8,91.79 7.602,125.99 13.496,28.4 36.898,49.01 70.898,56.3 8.598,1.81 18,2.81 28.102,2.81 h 537.401 c 10,0 19.2,-1 27.6,-2.81 32.2,-7 52.7,-26.89 63.7,-54.2 14.1,-34.5 13.1,-80.8 2,-128.09 z" />
      <path
         id="path120"
         style="fill:#f4f1fa;fill-opacity:1;fill-rule:nonzero;stroke:none"
         d="m 1152.1,1261.87 42.62,-6.39 c -24.2,-62.81 -86.3,-111.3 -154.1,-114.2 -72.796,-3.21 -143.597,46.6 -169.296,114.2 l 60.485,6.39" />
      <path
         id="path122"
         style="fill:none;stroke:#212122;stroke-width:5;stroke-linecap:round;stroke-linejoin:round;stroke-miterlimit:10;stroke-dasharray:none;stroke-opacity:1"
         d="m 1152.1,1261.87 42.62,-6.39 c -24.2,-62.81 -86.3,-111.3 -154.1,-114.2 -72.796,-3.21 -143.597,46.6 -169.296,114.2 l 60.485,6.39" />
    </g>
  </g>
</svg>
