<?xml version="1.0" encoding="UTF-8" standalone="no"?>
<!-- Created with Inkscape (http://www.inkscape.org/) -->

<svg
   width="47.335724mm"
   height="57.535412mm"
   viewBox="0 0 47.335724 57.535412"
   version="1.1"
   id="svg2337"
   xmlns="http://www.w3.org/2000/svg"
   xmlnssvg="http://www.w3.org/2000/svg">
  <defs
     id="defs2334" />
  <g
     id="layer1"
     transform="translate(-1.5016254,-94.562801)">
    <g
       id="g1394"
       transform="matrix(0.03527778,0,0,-0.03527778,-114.8041,248.41555)">
      <path
         id="path444"
         style="fill:#3c58b0;fill-opacity:1;fill-rule:nonzero;stroke:none"
         d="m 3361.58,3755 c 0,334.78 271.39,606.18 606.18,606.18 334.78,0 606.17,-271.4 606.17,-606.18 0,-334.78 -271.39,-606.18 -606.17,-606.18 -334.79,0 -606.18,271.4 -606.18,606.18" />
      <path
         id="path446"
         style="fill:#212122;fill-opacity:1;fill-rule:nonzero;stroke:none"
         d="m 4058.77,3760.52 h -189.39 c -55.74,0 -103.14,48 -111.59,113.02 l -17.35,133.57 c -10.49,80.68 42.42,153.41 111.58,153.41 h 225.6 c 69.77,0 122.84,-73.92 111.36,-155.12 l -18.87,-133.57 c -9.07,-64.24 -56.16,-111.31 -111.34,-111.31" />
      <path
         id="path448"
         style="fill:#f4f1fa;fill-opacity:1;fill-rule:nonzero;stroke:none"
         d="m 4117.6,3880.78 c -23.14,-37.17 -20.9,-81.21 5,-98.36 25.9,-17.15 65.67,-0.91 88.81,36.26 23.16,37.17 20.92,81.21 -4.99,98.36 -25.91,17.15 -65.67,0.91 -88.82,-36.26" />
      <path
         id="path450"
         style="fill:none;stroke:#212122;stroke-width:5.00624;stroke-linecap:round;stroke-linejoin:round;stroke-miterlimit:10;stroke-dasharray:none;stroke-opacity:1"
         d="m 4117.6,3880.78 c -23.14,-37.17 -20.9,-81.21 5,-98.36 25.9,-17.15 65.67,-0.91 88.81,36.26 23.16,37.17 20.92,81.21 -4.99,98.36 -25.91,17.15 -65.67,0.91 -88.82,-36.26 z" />
      <path
         id="path452"
         style="fill:none;stroke:#212122;stroke-width:5.00624;stroke-linecap:round;stroke-linejoin:round;stroke-miterlimit:10;stroke-dasharray:none;stroke-opacity:1"
         d="m 4186.93,3899.2 c 11.22,-4.39 19.75,-15.04 21.56,-26.95 1.82,-11.91 -3.14,-24.62 -12.54,-32.15" />
      <path
         id="path454"
         style="fill:#f4f1fa;fill-opacity:1;fill-rule:nonzero;stroke:none"
         d="m 3805.14,3880.78 c 23.15,-37.17 20.91,-81.21 -5,-98.36 -25.91,-17.15 -65.66,-0.91 -88.82,36.26 -23.14,37.17 -20.9,81.21 5,98.36 25.91,17.15 65.68,0.91 88.82,-36.26" />
      <path
         id="path456"
         style="fill:none;stroke:#212122;stroke-width:5.00624;stroke-linecap:round;stroke-linejoin:round;stroke-miterlimit:10;stroke-dasharray:none;stroke-opacity:1"
         d="m 3805.14,3880.78 c 23.15,-37.17 20.91,-81.21 -5,-98.36 -25.91,-17.15 -65.66,-0.91 -88.82,36.26 -23.14,37.17 -20.9,81.21 5,98.36 25.91,17.15 65.68,0.91 88.82,-36.26 z" />
      <path
         id="path458"
         style="fill:none;stroke:#212122;stroke-width:5.00624;stroke-linecap:round;stroke-linejoin:round;stroke-miterlimit:10;stroke-dasharray:none;stroke-opacity:1"
         d="m 3735.82,3899.2 c -11.22,-4.39 -19.75,-15.04 -21.57,-26.95 -1.82,-11.91 3.14,-24.62 12.54,-32.15" />
      <path
         id="path460"
         style="fill:#f4f1fa;fill-opacity:1;fill-rule:nonzero;stroke:none"
         d="m 4090.12,3432.01 c 2.24,-67.18 -51.52,-122.73 -118.7,-122.73 -65.84,0 -118.82,53.43 -118.82,118.71 0,1.33 0,2.68 0.11,4.02 l 13.19,177.05 3.35,44.82 6.61,87.97 h 191.02 l 10.5,-139.05 7.49,-101.16 5.25,-69.63" />
      <path
         id="path462"
         style="fill:none;stroke:#212122;stroke-width:5.58881;stroke-linecap:round;stroke-linejoin:round;stroke-miterlimit:10;stroke-dasharray:none;stroke-opacity:1"
         d="m 4090.12,3432.01 c 2.24,-67.18 -51.52,-122.73 -118.7,-122.73 -65.84,0 -118.82,53.43 -118.82,118.71 0,1.33 0,2.68 0.11,4.02 l 13.19,177.05 3.35,44.82 6.61,87.97 h 191.02 l 10.5,-139.05 7.49,-101.16 z" />
      <path
         id="path464"
         style="fill:#212122;fill-opacity:1;fill-rule:nonzero;stroke:none"
         d="m 4084.87,3501.64 c -62.71,-4.47 -131.78,26.72 -179.17,87.3 -15.99,20.34 -28.17,42.37 -36.45,64.94 l 6.61,87.97 h 191.02 l 10.5,-139.05 7.49,-101.16" />
      <path
         id="path466"
         style="fill:#f4f1fa;fill-opacity:1;fill-rule:nonzero;stroke:none"
         d="m 4176.45,3820.7 c 0,-51.46 -21.02,-100.72 -58.27,-136.27 l -56.78,-50.96 c -17.21,-18.82 -41.54,-29.54 -67.08,-29.54 h -52.86 c -25.33,0 -49.36,10.52 -66.69,28.94 l -57.97,51.46 c -37.95,35.65 -59.37,85.31 -59.37,137.27 l 0.9,15.72 5.2,90.11 3.91,66.79 c 0,111.04 89.31,201.05 199.45,201.05 55.17,0 105.03,-22.53 141.08,-58.87 36.14,-36.35 58.47,-86.61 58.47,-142.18 l 4.41,-76 4.3,-74.99 1.3,-22.53" />
      <path
         id="path468"
         style="fill:none;stroke:#212122;stroke-width:5.00624;stroke-linecap:round;stroke-linejoin:round;stroke-miterlimit:10;stroke-dasharray:none;stroke-opacity:1"
         d="m 4176.45,3820.7 c 0,-51.46 -21.02,-100.72 -58.27,-136.27 l -56.78,-50.96 c -17.21,-18.82 -41.54,-29.54 -67.08,-29.54 h -52.86 c -25.33,0 -49.36,10.52 -66.69,28.94 l -57.97,51.46 c -37.95,35.65 -59.37,85.31 -59.37,137.27 l 0.9,15.72 5.2,90.11 3.91,66.79 c 0,111.04 89.31,201.05 199.45,201.05 55.17,0 105.03,-22.53 141.08,-58.87 36.14,-36.35 58.47,-86.61 58.47,-142.18 l 4.41,-76 4.3,-74.99 z" />
      <path
         id="path470"
         style="fill:#212122;fill-opacity:1;fill-rule:nonzero;stroke:none"
         d="m 4170.85,3918.22 h -6.21 c -29.24,42.86 -48.06,92.82 -54.27,144.28 -3.91,32.14 -49.56,42.96 -81.8,39.46 -14.52,-21.93 -40.06,-36.25 -66.39,-37.06 -26.33,-0.8 -52.16,16.83 -67.98,37.95 -32.14,3.51 -78,-7.31 -81.9,-39.44 -5.81,-48.16 -22.64,-95.02 -48.77,-135.98 l 3.91,66.79 c 0,111.04 89.31,201.05 199.45,201.05 55.17,0 105.03,-22.53 141.08,-58.87 36.14,-36.35 58.47,-86.61 58.47,-142.18 l 4.41,-76" />
      <path
         id="path472"
         style="fill:#212122;fill-opacity:1;fill-rule:nonzero;stroke:none"
         d="m 4176.45,3820.7 -1.3,22.53 c -15.62,-20.63 -34.74,-45.86 -48.26,-60.78 -19.53,-21.42 -53.07,-23.74 -86.51,-22.94 -8.71,0.2 -20.23,4.21 -31.84,9.52 -29.03,13.21 -65.08,13.21 -94.22,0 -11.51,-5.31 -23.23,-9.32 -31.94,-9.52 -33.44,-0.8 -66.98,1.52 -86.41,22.94 -11.81,13.02 -25.83,34.75 -37.64,54.87 l -0.9,-15.72 c 0,-8.86 0.85,-17.62 2.07,-26.29 -0.39,0.65 -0.79,1.31 -1.17,1.96 l -0.9,-15.72 c 0,-51.96 21.42,-101.62 59.37,-137.27 l 57.97,-51.46 c 17.33,-18.42 41.36,-28.94 66.69,-28.94 h 52.86 c 25.54,0 49.87,10.72 67.08,29.54 l 56.78,50.96 c 37.25,35.55 58.27,84.81 58.27,136.27 l -1.14,19.79 c 0.72,6.7 1.14,13.46 1.14,20.26" />
      <path
         id="path474"
         style="fill:#f4f1fa;fill-opacity:1;fill-rule:nonzero;stroke:none"
         d="m 3931.66,3564.41 c 11.5,-0.09 22.99,1.04 34.51,1.22 11.43,0.59 23.2,0.4 34.35,0.97 22.36,1.82 43.74,11.87 59.55,28.04 l 0.1,0.11 0.03,0.02 c 9.23,7.81 18.6,15.46 28.19,22.88 -8.39,-8.74 -17.01,-17.24 -25.78,-25.58 l 0.13,0.12 c -15.26,-17.81 -38.19,-29.43 -61.87,-30.52 -11.85,-0.43 -23.12,0.1 -34.7,0.47 -11.5,0.47 -23.05,0.53 -34.51,2.27" />
      <path
         id="path476"
         style="fill:#f4f1fa;fill-opacity:1;fill-rule:nonzero;stroke:none"
         d="m 4060.1,3719.21 c -26.13,-26.64 -61.28,-41.56 -96.31,-40.42 -31.84,1.03 -62.98,15.37 -87.02,39.05 h 5.61 c 8.71,0.23 20.43,4.79 31.94,10.82 29.14,15.03 65.19,15.03 94.22,0 11.61,-6.03 23.13,-10.59 31.84,-10.82 6.61,-0.22 13.22,0.23 19.72,1.37" />
      <path
         id="path478"
         style="fill:#212122;fill-opacity:1;fill-rule:nonzero;stroke:none"
         d="m 3963.79,3691.2 c 11.07,-4.61 16.81,-9.23 20.95,-13.84 3.94,-4.61 5.79,-9.23 5.79,-13.84 0.06,-4.62 -1.78,-9.23 -5.71,-13.85 -4.13,-4.61 -9.89,-9.22 -21.03,-13.84 -11.15,4.62 -16.91,9.23 -21.04,13.84 -3.93,4.62 -5.77,9.23 -5.71,13.85 -0.01,4.61 1.85,9.23 5.79,13.84 4.14,4.61 9.88,9.23 20.96,13.84" />
      <path
         id="path480"
         style="fill:#212122;fill-opacity:1;fill-rule:nonzero;stroke:none"
         d="m 4010.69,3956.53 c 9.31,5.59 19.49,9.43 30.22,12.3 10.75,2.76 22.15,4.34 33.92,3.92 11.71,-0.38 23.89,-3.07 34.57,-8.69 10.69,-5.54 19.52,-14.18 24.19,-24.54 -10.8,3.56 -20.53,5.43 -29.81,5.72 -9.29,0.3 -18.17,-0.89 -27.18,-2.51 -18.06,-3.22 -36.39,-9.49 -57.03,-12.05 -7.66,-0.96 -14.63,4.47 -15.59,12.13 -0.7,5.65 2.13,10.96 6.71,13.72" />
      <path
         id="path482"
         style="fill:#212122;fill-opacity:1;fill-rule:nonzero;stroke:none"
         d="m 3914.06,3930.68 c -20.64,2.56 -38.98,8.83 -57.02,12.05 -9.02,1.62 -17.9,2.81 -27.19,2.51 -9.29,-0.29 -19,-2.16 -29.8,-5.72 4.66,10.36 13.49,19 24.18,24.54 10.69,5.62 22.87,8.31 34.57,8.69 11.77,0.42 23.18,-1.16 33.92,-3.92 10.72,-2.87 20.91,-6.71 30.22,-12.3 6.63,-3.95 8.79,-12.52 4.84,-19.15 -2.91,-4.89 -8.41,-7.34 -13.72,-6.7" />
      <path
         id="path484"
         style="fill:#212122;fill-opacity:1;fill-rule:nonzero;stroke:none"
         d="m 4014.84,3870.98 c 2.88,4.47 5.93,8.76 8.97,13.11 3.46,4.36 7.18,8.69 11.71,12.13 8.91,7.07 19.91,11.52 31.26,13.2 11.38,1.44 23.31,0.22 33.85,-4.51 5.38,-2.07 10.2,-5.36 14.75,-8.67 4.17,-3.22 8.39,-6.39 11.13,-11.62 0.63,-1.21 0.17,-2.68 -1.04,-3.31 -0.47,-0.25 -0.99,-0.33 -1.49,-0.25 -5.85,0.85 -10.23,3.78 -14.65,6.65 -4.21,2.5 -8.45,4.73 -13.01,6.28 -9,3.26 -18.62,4.45 -28.16,3.67 -9.46,-1.02 -18.99,-3.81 -27.13,-9.21 -4.27,-2.4 -7.95,-5.71 -11.54,-9.14 -3.74,-3.69 -7.42,-7.51 -11.31,-11.12 -0.88,-0.83 -2.28,-0.79 -3.11,0.1 -0.7,0.75 -0.77,1.87 -0.23,2.69" />
      <path
         id="path486"
         style="fill:#212122;fill-opacity:1;fill-rule:nonzero;stroke:none"
         d="m 4051.29,3887.02 c 0.72,10.14 9.54,17.77 19.68,17.04 10.14,-0.73 17.78,-9.55 17.04,-19.69 -0.73,-10.14 -9.55,-17.77 -19.68,-17.04 -10.15,0.73 -17.78,9.55 -17.04,19.69" />
      <path
         id="path488"
         style="fill:none;stroke:#212122;stroke-width:5.00624;stroke-linecap:round;stroke-linejoin:round;stroke-miterlimit:10;stroke-dasharray:none;stroke-opacity:1"
         d="m 4018.64,3869.39 c 8.91,-4.73 19.26,-7.01 29.97,-6.63" />
      <path
         id="path490"
         style="fill:none;stroke:#212122;stroke-width:5.00624;stroke-linecap:round;stroke-linejoin:round;stroke-miterlimit:10;stroke-dasharray:none;stroke-opacity:1"
         d="m 4016.03,3891.61 c 10.2,14.11 26.31,23.8 43.56,26.17" />
      <path
         id="path492"
         style="fill:#212122;fill-opacity:1;fill-rule:nonzero;stroke:none"
         d="m 3925.11,3868.19 c -3.87,3.61 -7.56,7.43 -11.31,11.12 -3.59,3.43 -7.26,6.74 -11.54,9.14 -8.13,5.4 -17.65,8.19 -27.12,9.21 -9.54,0.78 -19.16,-0.41 -28.16,-3.67 -4.55,-1.55 -8.8,-3.78 -13.01,-6.28 -4.42,-2.87 -8.81,-5.8 -14.66,-6.65 -1.34,-0.2 -2.58,0.72 -2.77,2.06 -0.08,0.53 0.02,1.05 0.25,1.5 2.75,5.23 6.96,8.4 11.14,11.62 4.55,3.31 9.36,6.6 14.73,8.67 10.54,4.73 22.47,5.95 33.86,4.51 11.36,-1.68 22.35,-6.13 31.25,-13.2 4.53,-3.44 8.26,-7.77 11.72,-12.12 3.05,-4.36 6.09,-8.65 8.97,-13.12 0.67,-1.02 0.37,-2.37 -0.65,-3.03 -0.86,-0.56 -1.97,-0.43 -2.7,0.24" />
      <path
         id="path494"
         style="fill:#212122;fill-opacity:1;fill-rule:nonzero;stroke:none"
         d="m 3892.02,3887.02 c -0.73,10.14 -9.55,17.77 -19.69,17.04 -10.15,-0.73 -17.77,-9.55 -17.04,-19.69 0.73,-10.14 9.54,-17.77 19.69,-17.04 10.14,0.73 17.77,9.55 17.04,19.69" />
      <path
         id="path496"
         style="fill:none;stroke:#212122;stroke-width:5.00624;stroke-linecap:round;stroke-linejoin:round;stroke-miterlimit:10;stroke-dasharray:none;stroke-opacity:1"
         d="m 3924.66,3869.39 c -8.92,-4.73 -19.25,-7.01 -29.97,-6.63" />
      <path
         id="path498"
         style="fill:none;stroke:#212122;stroke-width:5.00624;stroke-linecap:round;stroke-linejoin:round;stroke-miterlimit:10;stroke-dasharray:none;stroke-opacity:1"
         d="m 3927.27,3891.61 c -10.19,14.11 -26.32,23.8 -43.56,26.17" />
      <path
         id="path500"
         style="fill:none;stroke:#212122;stroke-width:4.62182;stroke-linecap:round;stroke-linejoin:round;stroke-miterlimit:10;stroke-dasharray:none;stroke-opacity:1"
         d="m 3970.9,3802.42 v 89.52" />
      <path
         id="path502"
         style="fill:none;stroke:#212122;stroke-width:4.62182;stroke-linecap:round;stroke-linejoin:round;stroke-miterlimit:10;stroke-dasharray:none;stroke-opacity:1"
         d="m 3939.82,3786.92 15.36,-6.47 h 0.01 c 9.85,-4.14 20.88,-4.14 30.73,0 v 0 l 15.37,6.47" />
      <path
         id="path504"
         style="fill:none;stroke:#212122;stroke-width:4.17762;stroke-linecap:round;stroke-linejoin:round;stroke-miterlimit:10;stroke-dasharray:none;stroke-opacity:1"
         d="m 3983.21,3715.96 c 18.75,-0.2 38.37,3.46 54.44,13.1" />
      <path
         id="path506"
         style="fill:none;stroke:#212122;stroke-width:4.17762;stroke-linecap:round;stroke-linejoin:round;stroke-miterlimit:10;stroke-dasharray:none;stroke-opacity:1"
         d="m 3947.55,3715.15 c -18.75,-0.19 -38.37,3.46 -54.45,13.1" />
      <path
         id="path508"
         style="fill:none;stroke:#212122;stroke-width:4.17762;stroke-linecap:round;stroke-linejoin:round;stroke-miterlimit:10;stroke-dasharray:none;stroke-opacity:1"
         d="m 3947.55,3715.15 c 8.45,-6.46 24.34,-8.08 35.66,0.81" />
      <path
         id="path510"
         style="fill:#212122;fill-opacity:1;fill-rule:nonzero;stroke:none"
         d="m 3965.9,3759.04 c 4.14,8.66 12.41,13.89 20.62,16.16 8.33,2.27 16.67,1.83 24.24,0.41 15.56,-3.48 26.72,-9.73 34.98,-13.2 l 9.77,-4.23 c 2.56,-1.16 5.23,-2.15 9.65,-2.37 8.79,-0.68 21.72,3.76 38.16,5.28 -1.6,-19.01 -7.37,-35.43 -21.74,-48.41 -7.04,-6.36 -17.03,-10.73 -27.11,-11.47 -10.1,-0.88 -19.42,1.67 -27.06,5.12 -15.43,7.08 -25.35,17.7 -32.9,26.23 -3.97,4.55 -7.66,9.04 -11.83,13.61 -4.24,4.64 -8.94,9.11 -16.78,12.87" />
      <path
         id="path512"
         style="fill:#212122;fill-opacity:1;fill-rule:nonzero;stroke:none"
         d="m 3965.99,3759.04 c -7.83,-3.76 -12.54,-8.23 -16.77,-12.87 -4.17,-4.57 -7.87,-9.06 -11.83,-13.61 -7.55,-8.53 -17.47,-19.15 -32.9,-26.23 -7.65,-3.45 -16.96,-6 -27.06,-5.12 -10.08,0.74 -20.07,5.11 -27.11,11.47 -14.38,12.98 -20.15,29.4 -21.74,48.41 16.43,-1.52 29.36,-5.96 38.15,-5.28 4.43,0.22 7.08,1.21 9.65,2.37 l 9.78,4.23 c 8.26,3.47 19.41,9.72 34.98,13.2 7.57,1.42 15.91,1.86 24.24,-0.41 8.21,-2.27 16.48,-7.5 20.61,-16.16" />
      <path
         id="path514"
         style="fill:#212122;fill-opacity:1;fill-rule:nonzero;stroke:none"
         d="m 3982.72,4103.82 c 37.13,4.28 76.91,16.75 97.04,48.23 16.96,26.5 15.93,61.59 4.07,90.74 -17.63,43.35 -59.13,76.56 -105.55,82.45 -46.43,5.89 -95.74,-16.72 -120.06,-56.71 -24.31,-39.99 -21.17,-95.35 8.87,-131.23 30.04,-35.89 85.33,-48.5 127.22,-27.64" />
      <path
         id="path516"
         style="fill:none;stroke:#212122;stroke-width:4.04684;stroke-linecap:round;stroke-linejoin:round;stroke-miterlimit:10;stroke-dasharray:none;stroke-opacity:1"
         d="m 4090.91,4248.89 c 20.45,-19.83 20.6,-54.75 6.24,-79.47 -14.34,-24.72 -39.97,-40.63 -66.27,-51.21 -40.44,-16.26 -86.75,-21.93 -127.36,-6.1 -40.59,15.83 -73.19,56.47 -71.39,100.5" />
      <path
         id="path518"
         style="fill:none;stroke:#212122;stroke-width:4.04684;stroke-linecap:round;stroke-linejoin:round;stroke-miterlimit:10;stroke-dasharray:none;stroke-opacity:1"
         d="m 3996.49,4128.29 c 38.17,4.85 71.06,35.72 80.52,73.03 9.46,37.3 -3.81,78.9 -31.56,105.57 -27.75,26.67 -68.52,38.33 -106.6,32.75 -34.46,-5.05 -67.36,-24.41 -85.37,-54.23 -18.01,-29.82 -19.27,-69.97 -0.11,-99.06 19.16,-29.09 59.15,-43.74 91.47,-30.77" />
      <path
         id="path520"
         style="fill:#212122;fill-opacity:1;fill-rule:nonzero;stroke:none"
         d="m 4427.59,2961.89 c -91.17,-41.14 -174.4,-53.82 -185.9,-28.32 -11.51,25.49 53.07,79.51 144.24,120.66 91.17,41.13 174.41,53.81 185.91,28.32 11.51,-25.5 -53.07,-79.52 -144.25,-120.66" />
      <path
         id="path522"
         style="fill:#f4f1fa;fill-opacity:1;fill-rule:nonzero;stroke:none"
         d="m 4387.54,2737.96 -42.69,103.67 -34.16,83.07 -28.81,70.09 -63.29,153.8 c -33.33,80.92 -0.57,170.56 71.3,195.18 12.55,4.3 25.41,6.24 38.14,6.14 1.18,-0.01 2.36,-0.02 3.53,-0.13 55.73,-2.01 109.58,-43.39 131.15,-106.58 l 51.23,-149.75 22.94,-67.14 99.1,-290.18" />
      <path
         id="path524"
         style="fill:none;stroke:#212122;stroke-width:5.35;stroke-linecap:round;stroke-linejoin:round;stroke-miterlimit:10;stroke-dasharray:none;stroke-opacity:1"
         d="m 4387.54,2737.96 -42.69,103.67 -34.16,83.07 -28.81,70.09 -63.29,153.8 c -33.33,80.92 -0.57,170.56 71.3,195.18 12.55,4.3 25.41,6.24 38.14,6.14 1.18,-0.01 2.36,-0.02 3.53,-0.13 55.73,-2.01 109.58,-43.39 131.15,-106.58 l 51.23,-149.75 22.94,-67.14 99.1,-290.18" />
      <path
         id="path526"
         style="fill:#f4f1fa;fill-opacity:1;fill-rule:nonzero;stroke:none"
         d="m 4569.83,3085.64 c -16.8,21.29 -96.73,7.92 -183.83,-31.36 -91.27,-41.19 -155.9,-95.23 -144.23,-120.8 0.21,-0.53 0.53,-0.96 0.96,-1.5 l -0.96,-0.43 L 4201,3027 c 18.2,29.11 73.94,69.02 145.41,101.22 72.34,32.64 139.86,48.15 173.34,41.95 l 50.08,-84.53" />
      <path
         id="path528"
         style="fill:none;stroke:#212122;stroke-width:5.00624;stroke-linecap:round;stroke-linejoin:round;stroke-miterlimit:10;stroke-dasharray:none;stroke-opacity:1"
         d="m 4569.83,3085.64 c -16.8,21.29 -96.73,7.92 -183.83,-31.36 -91.27,-41.19 -155.9,-95.23 -144.23,-120.8 0.21,-0.53 0.53,-0.96 0.96,-1.5 l -0.96,-0.43 L 4201,3027 c 18.2,29.11 73.94,69.02 145.41,101.22 72.34,32.64 139.86,48.15 173.34,41.95 z" />
      <path
         id="path530"
         style="fill:#212122;fill-opacity:1;fill-rule:nonzero;stroke:none"
         d="m 4519.75,3170.17 c -33.48,6.2 -101,-9.31 -173.34,-41.95 C 4274.94,3096.02 4219.2,3056.11 4201,3027 l -60.03,140.71 c -39.48,92.66 3.22,198.38 92.99,229.72 17.01,5.99 34.35,8.89 51.57,8.89 61.53,0 120.48,-36.49 150.77,-95.56 l 83.45,-140.59" />
      <path
         id="path532"
         style="fill:#212122;fill-opacity:1;fill-rule:nonzero;stroke:none"
         d="m 3507.93,2961.89 c 91.17,-41.14 174.4,-53.82 185.9,-28.32 11.51,25.49 -53.07,79.51 -144.24,120.66 -91.18,41.13 -174.41,53.81 -185.91,28.32 -11.51,-25.5 53.07,-79.52 144.25,-120.66" />
      <path
         id="path534"
         style="fill:#f4f1fa;fill-opacity:1;fill-rule:nonzero;stroke:none"
         d="m 3547.97,2737.96 42.69,103.67 34.17,83.07 28.81,70.09 63.29,153.8 c 33.32,80.92 0.57,170.56 -71.31,195.18 -12.55,4.3 -25.4,6.24 -38.13,6.14 -1.19,-0.01 -2.36,-0.02 -3.54,-0.13 -55.73,-2.01 -109.57,-43.39 -131.15,-106.58 l -51.23,-149.75 -22.94,-67.14 -99.1,-290.18" />
      <path
         id="path536"
         style="fill:none;stroke:#212122;stroke-width:5.35;stroke-linecap:round;stroke-linejoin:round;stroke-miterlimit:10;stroke-dasharray:none;stroke-opacity:1"
         d="m 3547.97,2737.96 42.69,103.67 34.17,83.07 28.81,70.09 63.29,153.8 c 33.32,80.92 0.57,170.56 -71.31,195.18 -12.55,4.3 -25.4,6.24 -38.13,6.14 -1.19,-0.01 -2.36,-0.02 -3.54,-0.13 -55.73,-2.01 -109.57,-43.39 -131.15,-106.58 l -51.23,-149.75 -22.94,-67.14 -99.1,-290.18" />
      <path
         id="path538"
         style="fill:#f4f1fa;fill-opacity:1;fill-rule:nonzero;stroke:none"
         d="m 3365.69,3085.64 c 16.8,21.29 96.72,7.92 183.82,-31.36 91.27,-41.19 155.9,-95.23 144.24,-120.8 -0.22,-0.53 -0.54,-0.96 -0.97,-1.5 l 0.97,-0.43 40.77,95.45 c -18.2,29.11 -73.95,69.02 -145.42,101.22 -72.33,32.64 -139.85,48.15 -173.34,41.95 l -50.07,-84.53" />
      <path
         id="path540"
         style="fill:none;stroke:#212122;stroke-width:5.00624;stroke-linecap:round;stroke-linejoin:round;stroke-miterlimit:10;stroke-dasharray:none;stroke-opacity:1"
         d="m 3365.69,3085.64 c 16.8,21.29 96.72,7.92 183.82,-31.36 91.27,-41.19 155.9,-95.23 144.24,-120.8 -0.22,-0.53 -0.54,-0.96 -0.97,-1.5 l 0.97,-0.43 40.77,95.45 c -18.2,29.11 -73.95,69.02 -145.42,101.22 -72.33,32.64 -139.85,48.15 -173.34,41.95 z" />
      <path
         id="path542"
         style="fill:#212122;fill-opacity:1;fill-rule:nonzero;stroke:none"
         d="m 3415.76,3170.17 c 33.49,6.2 101.01,-9.31 173.34,-41.95 71.47,-32.2 127.22,-72.11 145.42,-101.22 l 60.02,140.71 c 39.48,92.66 -3.21,198.38 -92.98,229.72 -17.01,5.99 -34.35,8.89 -51.57,8.89 -61.53,0 -120.49,-36.49 -150.77,-95.56 l -83.46,-140.59" />
      <path
         id="path544"
         style="fill:#f4f1fa;fill-opacity:1;fill-rule:nonzero;stroke:none"
         d="m 4349.86,2732.93 h -763.01 l 3.96,111.82 2.78,80.68 3.53,99.08 11.34,319.93 1.71,47.61 24.61,8.88 143.06,51.69 27.61,9.95 13.7,5.02 35.73,19.23 h 10.81 206.51 4.28 l 40.13,-18.47 13.58,-4.93 27.61,-9.95 147.24,-53.18 22.67,-8.24 1.61,-47.72 6.1,-180.19 4.6,-137.71 3.32,-99.61 v -0.53 l 2.99,-89.99 3.53,-103.37" />
      <path
         id="path546"
         style="fill:none;stroke:#212122;stroke-width:5.35;stroke-linecap:round;stroke-linejoin:round;stroke-miterlimit:10;stroke-dasharray:none;stroke-opacity:1"
         d="m 4349.86,2732.93 h -763.01 l 3.96,111.82 2.78,80.68 3.53,99.08 11.34,319.93 1.71,47.61 24.61,8.88 143.06,51.69 27.61,9.95 13.7,5.02 35.73,19.23 h 10.81 206.51 4.28 l 40.13,-18.47 13.58,-4.93 27.61,-9.95 147.24,-53.18 22.67,-8.24 1.61,-47.72 6.1,-180.19 4.6,-137.71 3.32,-99.61 v -0.53 l 2.99,-89.99 z" />
      <path
         id="path548"
         style="fill:#f4f1fa;fill-opacity:1;fill-rule:nonzero;stroke:none"
         d="m 4083.63,3491.3 29.89,-20.62 13.03,-4.7 c -9.75,-77.72 -76.08,-137.7 -156.49,-137.7 -80.05,0 -146.26,59.63 -156.48,136.88 l 13.26,4.81 31.41,24.07" />
      <path
         id="path550"
         style="fill:none;stroke:#212122;stroke-width:5.15628;stroke-linecap:round;stroke-linejoin:round;stroke-miterlimit:10;stroke-dasharray:none;stroke-opacity:1"
         d="m 4083.63,3491.3 29.89,-20.62 13.03,-4.7 c -9.75,-77.72 -76.08,-137.7 -156.49,-137.7 -80.05,0 -146.26,59.63 -156.48,136.88 l 13.26,4.81 31.41,24.07" />
      <path
         id="path552"
         style="fill:none;stroke:#212122;stroke-width:4.62182;stroke-linecap:round;stroke-linejoin:round;stroke-miterlimit:10;stroke-dasharray:none;stroke-opacity:1"
         d="M 3713.39,3428.62 V 2736.27" />
      <path
         id="path554"
         style="fill:none;stroke:#212122;stroke-width:4.62182;stroke-linecap:round;stroke-linejoin:round;stroke-miterlimit:10;stroke-dasharray:none;stroke-opacity:1"
         d="M 3846.17,3387 V 2736.27" />
      <path
         id="path556"
         style="fill:none;stroke:#212122;stroke-width:4.62182;stroke-linecap:round;stroke-linejoin:round;stroke-miterlimit:10;stroke-dasharray:none;stroke-opacity:1"
         d="m 3969.5,3327.14 -0.04,-590.87" />
      <path
         id="path558"
         style="fill:none;stroke:#212122;stroke-width:4.62182;stroke-linecap:round;stroke-linejoin:round;stroke-miterlimit:10;stroke-dasharray:none;stroke-opacity:1"
         d="M 4102.24,3398.54 V 2736.27" />
      <path
         id="path560"
         style="fill:none;stroke:#212122;stroke-width:4.62182;stroke-linecap:round;stroke-linejoin:round;stroke-miterlimit:10;stroke-dasharray:none;stroke-opacity:1"
         d="M 4225.54,3428.62 V 2736.27" />
    </g>
  </g>
</svg>
