<?xml version="1.0" encoding="UTF-8" standalone="no"?>
<!-- Created with Inkscape (http://www.inkscape.org/) -->

<svg
   width="47.561504mm"
   height="54.88512mm"
   viewBox="0 0 47.561504 54.88512"
   version="1.1"
   id="svg3414"
   xmlns="http://www.w3.org/2000/svg"
   xmlnssvg="http://www.w3.org/2000/svg">
  <defs
     id="defs3411" />
  <g
     id="layer1"
     transform="translate(96.772282,-207.89219)">
    <g
       id="g1512"
       transform="matrix(0.03527778,0,0,-0.03527778,-161.27929,283.61508)">
      <path
         id="path216"
         style="fill:#3c58b0;fill-opacity:1;fill-rule:nonzero;stroke:none"
         d="m 1896.47,1518.56 c 0,334.79 271.39,606.18 606.17,606.18 334.79,0 606.18,-271.39 606.18,-606.18 0,-334.77 -271.39,-606.169 -606.18,-606.169 -334.78,0 -606.17,271.399 -606.17,606.169" />
      <path
         id="path218"
         style="fill:#212122;fill-opacity:1;fill-rule:nonzero;stroke:none"
         d="m 2963.43,817.531 c -91.17,-41.152 -174.4,-53.82 -185.91,-28.32 -11.51,25.488 53.08,79.508 144.24,120.648 91.18,41.129 174.42,53.821 185.92,28.321 11.51,-25.5 -53.07,-79.508 -144.25,-120.649" />
      <path
         id="path220"
         style="fill:#f4f1fa;fill-opacity:1;fill-rule:nonzero;stroke:none"
         d="m 2925.61,593.352 -43.44,103.367 -34.77,82.812 -29.32,69.867 -64.41,153.332 c -33.93,80.68 -1.83,170.56 69.86,195.7 12.52,4.39 25.36,6.43 38.1,6.43 1.18,0 2.35,0 3.53,-0.11 55.74,-1.61 109.89,-42.59 131.93,-105.61 l 52.32,-149.378 23.44,-66.981 101.22,-289.429" />
      <path
         id="path222"
         style="fill:none;stroke:#212122;stroke-width:5.35;stroke-linecap:round;stroke-linejoin:round;stroke-miterlimit:10;stroke-dasharray:none;stroke-opacity:1"
         d="m 2925.61,593.352 -43.44,103.367 -34.77,82.812 -29.32,69.867 -64.41,153.332 c -33.93,80.68 -1.83,170.56 69.86,195.7 12.52,4.39 25.36,6.43 38.1,6.43 1.18,0 2.35,0 3.53,-0.11 55.74,-1.61 109.89,-42.59 131.93,-105.61 l 52.32,-149.378 23.44,-66.981 101.22,-289.429" />
      <path
         id="path224"
         style="fill:#212122;fill-opacity:1;fill-rule:nonzero;stroke:none"
         d="m 3105.71,941.281 c -16.86,21.27 -96.72,7.867 -183.9,-31.371 -91.19,-41.172 -155.86,-95.199 -144.25,-120.762 0.28,-0.546 0.55,-0.968 0.97,-1.519 l -0.97,-0.418 -100.72,236.139 c -39.52,92.7 3.18,198.4 92.99,229.76 16.99,5.95 34.26,8.85 51.53,8.85 61.49,0 120.48,-36.47 150.75,-95.62 l 133.6,-225.059" />
      <path
         id="path226"
         style="fill:#212122;fill-opacity:1;fill-rule:nonzero;stroke:none"
         d="m 2041.84,817.531 c 91.17,-41.152 174.41,-53.82 185.92,-28.32 11.5,25.488 -53.08,79.508 -144.25,120.648 -91.17,41.129 -174.41,53.821 -185.92,28.321 -11.5,-25.5 53.08,-79.508 144.25,-120.649" />
      <path
         id="path228"
         style="fill:#f4f1fa;fill-opacity:1;fill-rule:nonzero;stroke:none"
         d="m 1831.22,593.352 101.22,289.328 23.43,67.082 52.32,149.378 c 22.48,64.3 78.44,105.72 135.36,105.72 h 0.75 c 12.52,-0.11 25.04,-2.15 37.34,-6.43 71.69,-25.14 103.9,-115.02 69.98,-195.7 l -64.41,-153.332 v -0.109 l -29.32,-69.758 -31.24,-74.371 -46.98,-111.808" />
      <path
         id="path230"
         style="fill:none;stroke:#212122;stroke-width:5.35;stroke-linecap:round;stroke-linejoin:round;stroke-miterlimit:10;stroke-dasharray:none;stroke-opacity:1"
         d="m 1831.22,593.352 101.22,289.328 23.43,67.082 52.32,149.378 c 22.48,64.3 78.44,105.72 135.36,105.72 h 0.75 c 12.52,-0.11 25.04,-2.15 37.34,-6.43 71.69,-25.14 103.9,-115.02 69.98,-195.7 l -64.41,-153.332 v -0.109 l -29.32,-69.758 -31.24,-74.371 -46.98,-111.808" />
      <path
         id="path232"
         style="fill:#212122;fill-opacity:1;fill-rule:nonzero;stroke:none"
         d="m 1899.57,941.281 c 16.85,21.27 96.71,7.867 183.89,-31.371 91.19,-41.172 155.86,-95.199 144.25,-120.762 -0.28,-0.546 -0.55,-0.968 -0.97,-1.519 l 0.97,-0.418 100.72,236.139 c 39.52,92.7 -3.17,198.4 -92.98,229.76 -17,5.95 -34.27,8.85 -51.54,8.85 -61.48,0 -120.48,-36.47 -150.73,-95.62 L 1899.57,941.281" />
      <path
         id="path234"
         style="fill:#f4f1fa;fill-opacity:1;fill-rule:nonzero;stroke:none"
         d="m 2663.92,1732.86 c -24.73,-39.73 -22.34,-86.79 5.34,-105.12 27.69,-18.32 70.18,-0.98 94.92,38.76 24.73,39.72 22.34,86.78 -5.35,105.11 -27.68,18.33 -70.17,0.97 -94.91,-38.75" />
      <path
         id="path236"
         style="fill:none;stroke:#212122;stroke-width:5.35;stroke-linecap:round;stroke-linejoin:round;stroke-miterlimit:10;stroke-dasharray:none;stroke-opacity:1"
         d="m 2663.92,1732.86 c -24.73,-39.73 -22.34,-86.79 5.34,-105.12 27.69,-18.32 70.18,-0.98 94.92,38.76 24.73,39.72 22.34,86.78 -5.35,105.11 -27.68,18.33 -70.17,0.97 -94.91,-38.75 z" />
      <path
         id="path238"
         style="fill:none;stroke:#212122;stroke-width:5.35;stroke-linecap:round;stroke-linejoin:round;stroke-miterlimit:10;stroke-dasharray:none;stroke-opacity:1"
         d="m 2738.01,1752.54 c 11.99,-4.68 21.1,-16.07 23.04,-28.79 1.94,-12.73 -3.36,-26.31 -13.41,-34.36" />
      <path
         id="path240"
         style="fill:#f4f1fa;fill-opacity:1;fill-rule:nonzero;stroke:none"
         d="m 2330,1732.86 c 24.74,-39.73 22.35,-86.79 -5.34,-105.12 -27.68,-18.32 -70.18,-0.98 -94.91,38.76 -24.74,39.72 -22.35,86.78 5.34,105.11 27.68,18.33 70.18,0.97 94.91,-38.75" />
      <path
         id="path242"
         style="fill:none;stroke:#212122;stroke-width:5.35;stroke-linecap:round;stroke-linejoin:round;stroke-miterlimit:10;stroke-dasharray:none;stroke-opacity:1"
         d="m 2330,1732.86 c 24.74,-39.73 22.35,-86.79 -5.34,-105.12 -27.68,-18.32 -70.18,-0.98 -94.91,38.76 -24.74,39.72 -22.35,86.78 5.34,105.11 27.68,18.33 70.18,0.97 94.91,-38.75 z" />
      <path
         id="path244"
         style="fill:none;stroke:#212122;stroke-width:5.35;stroke-linecap:round;stroke-linejoin:round;stroke-miterlimit:10;stroke-dasharray:none;stroke-opacity:1"
         d="m 2255.91,1752.54 c -11.99,-4.68 -21.1,-16.07 -23.04,-28.79 -1.94,-12.73 3.36,-26.31 13.41,-34.36" />
      <path
         id="path246"
         style="fill:#f4f1fa;fill-opacity:1;fill-rule:nonzero;stroke:none"
         d="m 2619.7,1287.64 c 2.24,-67.17 -51.53,-122.73 -118.71,-122.73 -65.83,0 -118.82,53.43 -118.82,118.71 0,1.34 0,2.69 0.12,4.02 l 13.19,177.05 3.35,44.83 6.59,87.97 h 191.03 l 10.51,-139.06 7.49,-101.15 5.25,-69.64" />
      <path
         id="path248"
         style="fill:none;stroke:#212122;stroke-width:5.58881;stroke-linecap:round;stroke-linejoin:round;stroke-miterlimit:10;stroke-dasharray:none;stroke-opacity:1"
         d="m 2619.7,1287.64 c 2.24,-67.17 -51.53,-122.73 -118.71,-122.73 -65.83,0 -118.82,53.43 -118.82,118.71 0,1.34 0,2.69 0.12,4.02 l 13.19,177.05 3.35,44.83 6.59,87.97 h 191.03 l 10.51,-139.06 7.49,-101.15 z" />
      <path
         id="path250"
         style="fill:#212122;fill-opacity:1;fill-rule:nonzero;stroke:none"
         d="m 2614.45,1357.28 c -62.71,-4.47 -131.79,26.71 -179.18,87.3 -15.99,20.34 -28.17,42.36 -36.44,64.94 l 6.59,87.97 h 191.03 l 10.51,-139.06 7.49,-101.15" />
      <path
         id="path252"
         style="fill:#f4f1fa;fill-opacity:1;fill-rule:nonzero;stroke:none"
         d="m 2706.17,1623.61 c -7.38,-19.15 -18.2,-39.05 -31.14,-58.42 -24.94,-37.13 -57.89,-72.01 -90.84,-94.16 -36.17,-24.29 -83.57,-32.2 -124.76,-18.08 -32.43,11.01 -59.18,34.23 -83.04,58.74 -29.85,30.6 -57.14,64.84 -72.44,104.86 -11.77,31.03 -16.9,65.59 -18.29,100.9 -0.65,18.51 -0.33,37.13 0.53,55.75 1.5,30.6 4.39,60.88 7.06,88.92 6.1,66.33 46.33,129.35 103.68,163.17 56.29,33.06 128.09,37.98 188.33,12.84 60.23,-25.14 107.31,-79.72 123.26,-142.96 10.7,-42.47 7.92,-86.45 8.03,-129.68 0,-2.67 0,-5.24 0.1,-7.91 0.21,-12.95 0.86,-25.9 1.07,-38.95 0.97,-32.31 0.32,-64.52 -11.55,-95.02" />
      <path
         id="path254"
         style="fill:none;stroke:#212122;stroke-width:5.35;stroke-linecap:round;stroke-linejoin:round;stroke-miterlimit:10;stroke-dasharray:none;stroke-opacity:1"
         d="m 2706.17,1623.61 c -7.38,-19.15 -18.2,-39.05 -31.14,-58.42 -24.94,-37.13 -57.89,-72.01 -90.84,-94.16 -36.17,-24.29 -83.57,-32.2 -124.76,-18.08 -32.43,11.01 -59.18,34.23 -83.04,58.74 -29.85,30.6 -57.14,64.84 -72.44,104.86 -11.77,31.03 -16.9,65.59 -18.29,100.9 -0.65,18.51 -0.33,37.13 0.53,55.75 1.5,30.6 4.39,60.88 7.06,88.92 6.1,66.33 46.33,129.35 103.68,163.17 56.29,33.06 128.09,37.98 188.33,12.84 60.23,-25.14 107.31,-79.72 123.26,-142.96 10.7,-42.47 7.92,-86.45 8.03,-129.68 0,-2.67 0,-5.24 0.1,-7.91 0.21,-12.95 0.86,-25.9 1.07,-38.95 0.97,-32.31 0.32,-64.52 -11.55,-95.02 z" />
      <path
         id="path256"
         style="fill:#212122;fill-opacity:1;fill-rule:nonzero;stroke:none"
         d="m 2468.27,1836.72 c 18.39,-0.86 37.37,1.75 53.44,10.63 16.06,8.87 28.83,24.64 31.03,42.73 12.13,-23.91 35.1,-42.19 61.29,-48.77 26.2,-6.59 55.16,-1.37 77.28,13.93 27.52,19.03 43.34,56.11 31.4,87.22 -13.19,34.31 -52.67,50.41 -88.91,58.28 -70.58,15.33 -144.78,13.37 -214.57,-4.75 -21.54,-5.59 -81.46,-16.58 -89.65,-39.94 -8.4,-23.96 25.89,-62.32 41.53,-76.98 26.22,-24.55 60.93,-40.66 97.16,-42.35" />
      <path
         id="path258"
         style="fill:#212122;fill-opacity:1;fill-rule:nonzero;stroke:none"
         d="m 2556.45,1812.16 c 9.31,5.6 19.5,9.43 30.23,12.31 10.74,2.75 22.14,4.34 33.91,3.92 11.71,-0.39 23.89,-3.08 34.57,-8.7 10.7,-5.53 19.52,-14.17 24.19,-24.54 -10.8,3.56 -20.53,5.43 -29.81,5.73 -9.29,0.3 -18.17,-0.9 -27.18,-2.52 -18.06,-3.22 -36.39,-9.48 -57.03,-12.04 -7.65,-0.96 -14.63,4.47 -15.58,12.12 -0.7,5.65 2.12,10.96 6.7,13.72" />
      <path
         id="path260"
         style="fill:#212122;fill-opacity:1;fill-rule:nonzero;stroke:none"
         d="m 2459.83,1786.32 c -20.64,2.56 -38.98,8.82 -57.04,12.04 -9.01,1.62 -17.89,2.82 -27.18,2.52 -9.29,-0.3 -19,-2.17 -29.8,-5.73 4.66,10.37 13.49,19.01 24.18,24.54 10.69,5.62 22.86,8.31 34.58,8.7 11.76,0.42 23.17,-1.17 33.91,-3.92 10.73,-2.88 20.92,-6.71 30.22,-12.31 6.63,-3.95 8.8,-12.51 4.85,-19.15 -2.92,-4.88 -8.42,-7.33 -13.72,-6.69" />
      <path
         id="path262"
         style="fill:#212122;fill-opacity:1;fill-rule:nonzero;stroke:none"
         d="m 2458.33,1717.05 c -4.14,3.32 -8.09,6.85 -12.1,10.27 -3.84,3.16 -7.74,6.18 -12.18,8.26 -8.51,4.8 -18.21,6.88 -27.73,7.19 -9.57,0.08 -19.08,-1.81 -27.82,-5.72 -4.42,-1.88 -8.49,-4.42 -12.51,-7.22 -4.2,-3.19 -8.36,-6.42 -14.13,-7.71 -1.32,-0.3 -2.63,0.53 -2.92,1.86 -0.12,0.52 -0.05,1.05 0.15,1.51 2.35,5.42 6.32,8.88 10.25,12.4 4.29,3.64 8.85,7.27 14.06,9.73 10.16,5.49 21.98,7.58 33.43,6.99 11.45,-0.85 22.74,-4.48 32.14,-10.87 4.77,-3.1 8.8,-7.14 12.57,-11.23 3.36,-4.12 6.71,-8.18 9.92,-12.43 0.73,-0.96 0.54,-2.34 -0.43,-3.07 -0.82,-0.62 -1.94,-0.57 -2.7,0.04" />
      <path
         id="path264"
         style="fill:#212122;fill-opacity:1;fill-rule:nonzero;stroke:none"
         d="m 2423.93,1733.41 c -1.47,10.05 -10.82,17.02 -20.88,15.54 -10.07,-1.47 -17.03,-10.82 -15.55,-20.89 1.47,-10.06 10.82,-17.02 20.88,-15.54 10.06,1.47 17.03,10.83 15.55,20.89" />
      <path
         id="path266"
         style="fill:none;stroke:#212122;stroke-width:5.00624;stroke-linecap:round;stroke-linejoin:round;stroke-miterlimit:10;stroke-dasharray:none;stroke-opacity:1"
         d="m 2457.78,1718.22 c -8.55,-5.36 -18.69,-8.41 -29.39,-8.81" />
      <path
         id="path268"
         style="fill:none;stroke:#212122;stroke-width:5.00624;stroke-linecap:round;stroke-linejoin:round;stroke-miterlimit:10;stroke-dasharray:none;stroke-opacity:1"
         d="m 2458.75,1740.57 c -11.2,13.33 -27.99,21.81 -45.36,22.91" />
      <path
         id="path270"
         style="fill:#212122;fill-opacity:1;fill-rule:nonzero;stroke:none"
         d="m 2552.2,1720.08 c 3.22,4.25 6.57,8.31 9.93,12.43 3.76,4.09 7.8,8.13 12.56,11.23 9.4,6.39 20.7,10.02 32.15,10.87 11.45,0.59 23.26,-1.5 33.43,-6.99 5.2,-2.46 9.77,-6.09 14.06,-9.73 3.93,-3.52 7.89,-6.98 10.25,-12.4 0.53,-1.25 -0.03,-2.69 -1.27,-3.23 -0.49,-0.21 -1.02,-0.25 -1.51,-0.14 -5.77,1.29 -9.93,4.52 -14.12,7.71 -4.02,2.8 -8.09,5.34 -12.52,7.22 -8.74,3.91 -18.24,5.8 -27.81,5.72 -9.52,-0.31 -19.22,-2.39 -27.73,-7.19 -4.44,-2.08 -8.34,-5.1 -12.18,-8.26 -4.02,-3.42 -7.96,-6.95 -12.1,-10.27 -0.94,-0.76 -2.33,-0.61 -3.09,0.33 -0.64,0.8 -0.63,1.92 -0.05,2.7" />
      <path
         id="path272"
         style="fill:#212122;fill-opacity:1;fill-rule:nonzero;stroke:none"
         d="m 2589.73,1733.41 c 1.48,10.05 10.83,17.02 20.89,15.54 10.06,-1.47 17.02,-10.82 15.55,-20.89 -1.48,-10.06 -10.82,-17.02 -20.88,-15.54 -10.07,1.47 -17.03,10.83 -15.56,20.89" />
      <path
         id="path274"
         style="fill:none;stroke:#212122;stroke-width:5.00624;stroke-linecap:round;stroke-linejoin:round;stroke-miterlimit:10;stroke-dasharray:none;stroke-opacity:1"
         d="m 2555.89,1718.22 c 8.54,-5.36 18.69,-8.41 29.39,-8.81" />
      <path
         id="path276"
         style="fill:none;stroke:#212122;stroke-width:5.00624;stroke-linecap:round;stroke-linejoin:round;stroke-miterlimit:10;stroke-dasharray:none;stroke-opacity:1"
         d="m 2554.91,1740.57 c 11.21,13.33 28,21.81 45.37,22.91" />
      <path
         id="path278"
         style="fill:none;stroke:#212122;stroke-width:4.45626;stroke-linecap:round;stroke-linejoin:round;stroke-miterlimit:10;stroke-dasharray:none;stroke-opacity:1"
         d="m 2494.25,1581.11 c 3.24,-3.12 7.7,-4.91 12.19,-4.91 4.49,0 8.95,1.8 12.18,4.92 5.05,4.88 14.16,1.88 21.11,0.88 6.96,-1.01 14.07,-2.41 20.93,-0.92 4.91,1.06 9.39,3.99 12.14,8.19" />
      <path
         id="path280"
         style="fill:none;stroke:#212122;stroke-width:4.45626;stroke-linecap:round;stroke-linejoin:round;stroke-miterlimit:10;stroke-dasharray:none;stroke-opacity:1"
         d="m 2494.25,1581.12 c -5.05,4.88 -14.16,1.88 -21.11,0.88 -6.96,-1.01 -14.07,-2.41 -20.93,-0.92 -5.5,1.19 -10.55,5.22 -12.16,10.61" />
      <path
         id="path282"
         style="fill:none;stroke:#212122;stroke-width:4.45626;stroke-linecap:round;stroke-linejoin:round;stroke-miterlimit:10;stroke-dasharray:none;stroke-opacity:1"
         d="m 2474.23,1561.28 c 17.85,-6.2 37.52,-7.04 55.83,-2.36" />
      <path
         id="path284"
         style="fill:none;stroke:#212122;stroke-width:5.35;stroke-linecap:round;stroke-linejoin:round;stroke-miterlimit:10;stroke-dasharray:none;stroke-opacity:1"
         d="m 2505.28,1500.75 v -33.13" />
      <path
         id="path286"
         style="fill:none;stroke:#212122;stroke-width:5.35;stroke-linecap:round;stroke-linejoin:round;stroke-miterlimit:10;stroke-dasharray:none;stroke-opacity:1"
         d="m 2506.78,1649.32 v 70.59" />
      <path
         id="path288"
         style="fill:none;stroke:#212122;stroke-width:5.73102;stroke-linecap:round;stroke-linejoin:round;stroke-miterlimit:10;stroke-dasharray:none;stroke-opacity:1"
         d="m 2483.12,1635.52 11.91,-8.15 v 0 c 7.71,-5.27 16.1,-5.27 23.81,0 v 0 l 11.91,8.15" />
      <path
         id="path290"
         style="fill:#212122;fill-opacity:1;fill-rule:nonzero;stroke:none"
         d="m 2716.55,1765.49 c -5.46,2.25 -10.27,5.99 -14.13,10.48 -6.42,7.4 -10.28,16.6 -13.48,25.9 -14.34,41.09 -14.98,89.56 -7.38,132.47 -48.69,-0.75 -95.77,29.53 -117.28,73.29 -56.17,-35.85 -121.01,-50.72 -187.46,-47.4 -2.46,-71.26 -36.81,-140.59 -90.63,-187.03 1.5,30.6 4.39,60.88 7.06,88.92 6.1,66.33 46.33,129.35 103.68,163.17 56.29,33.06 128.09,37.98 188.33,12.84 60.23,-25.14 107.31,-79.72 123.26,-142.96 10.7,-42.47 7.92,-86.45 8.03,-129.68" />
      <path
         id="path292"
         style="fill:#f4f1fa;fill-opacity:1;fill-rule:nonzero;stroke:none"
         d="m 2270.01,1935.79 c 15.04,86.73 97.43,193.13 196.75,206.37 99.32,13.26 207.52,-67.73 250.82,-146.67 -145.76,-45.84 -293.56,-72.33 -447.57,-59.7" />
      <path
         id="path294"
         style="fill:none;stroke:#212122;stroke-width:5.7562;stroke-linecap:round;stroke-linejoin:round;stroke-miterlimit:10;stroke-dasharray:none;stroke-opacity:1"
         d="m 2270.01,1935.79 c 15.04,86.73 97.43,193.13 196.75,206.37 99.32,13.26 207.52,-67.73 250.82,-146.67 -145.76,-45.84 -293.56,-72.33 -447.57,-59.7 z" />
      <path
         id="path296"
         style="fill:#f4f1fa;fill-opacity:1;fill-rule:nonzero;stroke:none"
         d="m 2738.73,1965.57 c -63.39,-48.14 -148.59,-69.82 -232.43,-79.95 -83.84,-10.12 -169.07,-10.08 -252.64,-21.79 -10.76,13.73 -15.28,26.5 -12.88,42.93 2.4,16.44 11.91,32.08 26.31,43.23 156.11,9.45 310.51,34.43 456.38,83.33 7.23,-0.1 29.16,-45.09 15.26,-67.75" />
      <path
         id="path298"
         style="fill:none;stroke:#212122;stroke-width:4.9954;stroke-linecap:round;stroke-linejoin:round;stroke-miterlimit:10;stroke-dasharray:none;stroke-opacity:1"
         d="m 2738.73,1965.57 c -63.39,-48.14 -148.59,-69.82 -232.43,-79.95 -83.84,-10.12 -169.07,-10.08 -252.64,-21.79 -10.76,13.73 -15.28,26.5 -12.88,42.93 2.4,16.44 11.91,32.08 26.31,43.23 156.11,9.45 310.51,34.43 456.38,83.33 7.23,-0.1 29.16,-45.09 15.26,-67.75 z" />
      <path
         id="path300"
         style="fill:none;stroke:#212122;stroke-width:5.35;stroke-linecap:round;stroke-linejoin:round;stroke-miterlimit:10;stroke-dasharray:none;stroke-opacity:1"
         d="m 2296.71,1869.71 c -8.02,20.6 -5.64,44.94 6.2,63.6" />
      <path
         id="path302"
         style="fill:none;stroke:#212122;stroke-width:5.35;stroke-linecap:round;stroke-linejoin:round;stroke-miterlimit:10;stroke-dasharray:none;stroke-opacity:1"
         d="m 2673.81,1996.93 c 12.95,-16.44 21.4,-36.41 24.16,-57.16" />
      <path
         id="path304"
         style="fill:none;stroke:#212122;stroke-width:5.35;stroke-linecap:round;stroke-linejoin:round;stroke-miterlimit:10;stroke-dasharray:none;stroke-opacity:1"
         d="m 2588.66,1968.85 c 12.14,-19.47 19.61,-41.83 21.6,-64.69" />
      <path
         id="path306"
         style="fill:none;stroke:#212122;stroke-width:5.35;stroke-linecap:round;stroke-linejoin:round;stroke-miterlimit:10;stroke-dasharray:none;stroke-opacity:1"
         d="m 2362.86,1935.5 c -5.1,-20.68 -0.6,-43.53 11.96,-60.75" />
      <path
         id="path308"
         style="fill:none;stroke:#212122;stroke-width:5.35;stroke-linecap:round;stroke-linejoin:round;stroke-miterlimit:10;stroke-dasharray:none;stroke-opacity:1"
         d="m 2477.04,1944.88 c 7.22,-19.54 10.96,-40.37 10.99,-61.21" />
      <path
         id="path310"
         style="fill:none;stroke:#212122;stroke-width:5.35;stroke-linecap:round;stroke-linejoin:round;stroke-miterlimit:10;stroke-dasharray:none;stroke-opacity:1"
         d="m 2427.36,1928.86 c -1.99,-18.53 5.08,-37.83 18.58,-50.69 0.32,1.11 0.63,2.23 0.95,3.34" />
      <path
         id="path312"
         style="fill:none;stroke:#212122;stroke-width:5.35;stroke-linecap:round;stroke-linejoin:round;stroke-miterlimit:10;stroke-dasharray:none;stroke-opacity:1"
         d="m 2545.13,1941.75 c 4.2,-15.01 4.91,-31.02 2.01,-46.35" />
      <path
         id="path314"
         style="fill:#212122;fill-opacity:1;fill-rule:nonzero;stroke:none"
         d="m 2885.7,593.352 h -763.01 l 3.96,111.808 2.78,80.692 3.53,99.078 11.34,319.93 1.71,47.61 24.61,8.88 143.06,51.68 27.61,9.96 13.69,5.02 35.74,12.85 10.81,3.95 h 206.5 l 4.29,-1.6 40.13,-14.45 13.58,-4.92 27.61,-9.95 147.23,-53.18 22.68,-8.24 1.61,-47.72 6.1,-180.19 4.6,-137.708 3.32,-99.622 v -0.531 l 2.99,-89.98 3.53,-103.367" />
    </g>
  </g>
</svg>
