<?xml version="1.0" encoding="UTF-8" standalone="no"?>
<!-- Created with Inkscape (http://www.inkscape.org/) -->

<svg
   width="47.482479mm"
   height="55.249237mm"
   viewBox="0 0 47.482479 55.249237"
   version="1.1"
   id="svg6719"
   xmlns="http://www.w3.org/2000/svg"
   xmlnssvg="http://www.w3.org/2000/svg">
  <defs
     id="defs6716" />
  <g
     id="layer1"
     transform="translate(12.296405,-102.76471)">
    <g
       id="g6041"
       transform="matrix(0.03527778,0,0,-0.03527778,-132.17965,252.15482)">
      <path
         id="path574"
         style="fill:#fbc325;fill-opacity:1;fill-rule:nonzero;stroke:none"
         d="m 3465.07,3628.5 c 0,334.79 271.4,606.18 606.18,606.18 334.78,0 606.18,-271.39 606.18,-606.18 0,-334.78 -271.4,-606.17 -606.18,-606.17 -334.78,0 -606.18,271.39 -606.18,606.17" />
      <path
         id="path576"
         style="fill:#f4f1fa;fill-opacity:1;fill-rule:nonzero;stroke:none"
         d="m 4238.21,3815.35 c -24.74,-39.72 -22.35,-86.78 5.34,-105.11 27.68,-18.32 70.18,-0.98 94.91,38.75 24.74,39.72 22.35,86.78 -5.34,105.11 -27.68,18.33 -70.17,0.98 -94.91,-38.75" />
      <path
         id="path578"
         style="fill:none;stroke:#212122;stroke-width:5.35;stroke-linecap:round;stroke-linejoin:round;stroke-miterlimit:10;stroke-dasharray:none;stroke-opacity:1"
         d="m 4238.21,3815.35 c -24.74,-39.72 -22.35,-86.78 5.34,-105.11 27.68,-18.32 70.18,-0.98 94.91,38.75 24.74,39.72 22.35,86.78 -5.34,105.11 -27.68,18.33 -70.17,0.98 -94.91,-38.75 z" />
      <path
         id="path580"
         style="fill:none;stroke:#212122;stroke-width:5.35;stroke-linecap:round;stroke-linejoin:round;stroke-miterlimit:10;stroke-dasharray:none;stroke-opacity:1"
         d="m 4312.3,3835.03 c 11.99,-4.68 21.1,-16.06 23.04,-28.79 1.94,-12.73 -3.36,-26.31 -13.41,-34.36" />
      <path
         id="path582"
         style="fill:#f4f1fa;fill-opacity:1;fill-rule:nonzero;stroke:none"
         d="m 3904.29,3815.35 c 24.73,-39.72 22.35,-86.78 -5.34,-105.11 -27.68,-18.32 -70.18,-0.98 -94.92,38.75 -24.73,39.72 -22.34,86.78 5.35,105.11 27.68,18.33 70.17,0.98 94.91,-38.75" />
      <path
         id="path584"
         style="fill:none;stroke:#212122;stroke-width:5.35;stroke-linecap:round;stroke-linejoin:round;stroke-miterlimit:10;stroke-dasharray:none;stroke-opacity:1"
         d="m 3904.29,3815.35 c 24.73,-39.72 22.35,-86.78 -5.34,-105.11 -27.68,-18.32 -70.18,-0.98 -94.92,38.75 -24.73,39.72 -22.34,86.78 5.35,105.11 27.68,18.33 70.17,0.98 94.91,-38.75 z" />
      <path
         id="path586"
         style="fill:none;stroke:#212122;stroke-width:5.35;stroke-linecap:round;stroke-linejoin:round;stroke-miterlimit:10;stroke-dasharray:none;stroke-opacity:1"
         d="m 3830.2,3835.03 c -11.99,-4.68 -21.1,-16.06 -23.05,-28.79 -1.93,-12.73 3.36,-26.31 13.41,-34.36" />
      <path
         id="path588"
         style="fill:#f4f1fa;fill-opacity:1;fill-rule:nonzero;stroke:none"
         d="m 4194.65,3355.51 c 2.24,-67.17 -51.52,-122.73 -118.7,-122.73 -65.84,0 -118.82,53.43 -118.82,118.71 0,1.34 0,2.68 0.11,4.02 l 13.19,177.06 3.36,44.82 6.59,87.96 h 191.03 l 10.5,-139.04 7.49,-101.16 5.25,-69.64" />
      <path
         id="path590"
         style="fill:none;stroke:#212122;stroke-width:5.58881;stroke-linecap:round;stroke-linejoin:round;stroke-miterlimit:10;stroke-dasharray:none;stroke-opacity:1"
         d="m 4194.65,3355.51 c 2.24,-67.17 -51.52,-122.73 -118.7,-122.73 -65.84,0 -118.82,53.43 -118.82,118.71 0,1.34 0,2.68 0.11,4.02 l 13.19,177.06 3.36,44.82 6.59,87.96 h 191.03 l 10.5,-139.04 7.49,-101.16 z" />
      <path
         id="path592"
         style="fill:#212122;fill-opacity:1;fill-rule:nonzero;stroke:none"
         d="m 4189.4,3425.15 c -62.7,-4.47 -131.78,26.71 -179.17,87.3 -15.99,20.34 -28.17,42.36 -36.44,64.94 l 6.59,87.96 h 191.03 l 10.5,-139.04 7.49,-101.16" />
      <path
         id="path594"
         style="fill:#f4f1fa;fill-opacity:1;fill-rule:nonzero;stroke:none"
         d="m 4282.1,3697.6 c -7.45,-19.07 -18.19,-39.03 -31.13,-58.35 -24.92,-37.2 -57.93,-72.1 -90.89,-94.25 -36.14,-24.22 -83.5,-32.13 -124.72,-18.07 -32.42,11.04 -59.18,34.25 -83.1,58.82 -29.82,30.59 -57.04,64.84 -72.34,104.76 -11.87,31.07 -16.95,65.61 -18.31,100.99 -1.89,49.02 3.37,99.57 7.56,144.63 6.14,66.38 46.36,129.39 103.71,163.17 56.22,33.08 128.09,38.04 188.33,12.88 60.18,-25.16 107.24,-79.73 123.19,-143.04 11.4,-45 7.5,-91.71 8.21,-137.6 0.17,-12.88 0.76,-25.86 1.06,-38.86 0.89,-32.3 0.24,-64.61 -11.57,-95.08" />
      <path
         id="path596"
         style="fill:none;stroke:#212122;stroke-width:5.35;stroke-linecap:round;stroke-linejoin:round;stroke-miterlimit:10;stroke-dasharray:none;stroke-opacity:1"
         d="m 4282.1,3697.6 c -7.45,-19.07 -18.19,-39.03 -31.13,-58.35 -24.92,-37.2 -57.93,-72.1 -90.89,-94.25 -36.14,-24.22 -83.5,-32.13 -124.72,-18.07 -32.42,11.04 -59.18,34.25 -83.1,58.82 -29.82,30.59 -57.04,64.84 -72.34,104.76 -11.87,31.07 -16.95,65.61 -18.31,100.99 -1.89,49.02 3.37,99.57 7.56,144.63 6.14,66.38 46.36,129.39 103.71,163.17 56.22,33.08 128.09,38.04 188.33,12.88 60.18,-25.16 107.24,-79.73 123.19,-143.04 11.4,-45 7.5,-91.71 8.21,-137.6 0.17,-12.88 0.76,-25.86 1.06,-38.86 0.89,-32.3 0.24,-64.61 -11.57,-95.08 z" />
      <path
         id="path598"
         style="fill:#212122;fill-opacity:1;fill-rule:nonzero;stroke:none"
         d="m 4130.08,3864.42 c 4.13,12.62 13.46,22.38 24.09,29.44 10.75,7 23.21,11.31 36.04,12.68 12.82,1.4 25.88,-0.22 37.85,-4.74 11.86,-4.61 23.02,-12.06 29.91,-23.43 l -34.34,-1.62 c -10.4,-0.58 -20.26,-1.36 -30.02,-2.36 -9.76,-1.03 -19.54,-2.32 -29.79,-3.97 -10.34,-1.6 -20.83,-3.57 -33.74,-6" />
      <path
         id="path600"
         style="fill:#212122;fill-opacity:1;fill-rule:nonzero;stroke:none"
         d="m 4032.41,3864.42 c -12.9,2.43 -23.39,4.4 -33.74,6 -10.24,1.65 -20.03,2.94 -29.78,3.97 -9.76,1 -19.63,1.78 -30.02,2.36 l -34.34,1.62 c 6.89,11.37 18.04,18.82 29.91,23.43 11.96,4.52 25.02,6.14 37.85,4.74 12.82,-1.37 25.29,-5.68 36.04,-12.68 10.63,-7.06 19.96,-16.82 24.08,-29.44" />
      <path
         id="path602"
         style="fill:#212122;fill-opacity:1;fill-rule:nonzero;stroke:none"
         d="m 4121.52,3778.52 c 1.82,5.01 3.88,9.89 5.81,14.83 l 0.18,0.31 c 5.28,9.47 12.32,18.57 21.9,24.9 9.44,6.41 20.81,10.24 32.18,10.8 11.31,0.65 22.77,-1.24 33.17,-5.64 5.19,-2.18 10.07,-4.95 14.66,-8.07 4.57,-3.03 8.87,-6.93 11.2,-12.09 l 0.04,-0.09 c 0.55,-1.24 0,-2.69 -1.24,-3.25 -0.53,-0.24 -1.12,-0.27 -1.65,-0.13 -5.67,1.56 -9.61,4.15 -13.94,6.6 -4.28,2.42 -8.77,4.38 -13.34,5.96 -9.08,3.2 -18.72,4.55 -28.29,4.29 -9.52,-0.29 -18.8,-2.74 -27.08,-7.44 -8.18,-4.84 -15.42,-11.66 -21.38,-19.76 l 0.18,0.31 c -2.8,-4.51 -5.47,-9.09 -8.39,-13.53 -0.68,-1.04 -2.08,-1.33 -3.12,-0.65 -0.9,0.58 -1.23,1.7 -0.89,2.65" />
      <path
         id="path604"
         style="fill:none;stroke:#212122;stroke-width:5.14208;stroke-linecap:round;stroke-linejoin:round;stroke-miterlimit:10;stroke-dasharray:none;stroke-opacity:1"
         d="m 4219.39,3790.61 c 7.02,2.25 13.48,6 18.75,10.86" />
      <path
         id="path606"
         style="fill:#212122;fill-opacity:1;fill-rule:nonzero;stroke:none"
         d="m 4155.28,3803.51 c 0,10.99 8.91,19.9 19.9,19.9 10.98,0 19.89,-8.91 19.89,-19.9 0,-10.99 -8.91,-19.9 -19.89,-19.9 -10.99,0 -19.9,8.91 -19.9,19.9" />
      <path
         id="path608"
         style="fill:none;stroke:#212122;stroke-width:5.14208;stroke-linecap:round;stroke-linejoin:round;stroke-miterlimit:10;stroke-dasharray:none;stroke-opacity:1"
         d="m 4117.43,3808.68 c 6.59,13.54 18.48,24.85 32.94,31.33 14.46,6.48 31.37,8.08 46.86,4.44" />
      <path
         id="path610"
         style="fill:#212122;fill-opacity:1;fill-rule:nonzero;stroke:none"
         d="m 4036.96,3788.16 c -2.92,4.45 -5.58,9.02 -8.38,13.54 l 0.18,-0.32 c -5.96,8.11 -13.2,14.93 -21.39,19.76 -8.27,4.7 -17.55,7.15 -27.08,7.44 -9.57,0.26 -19.2,-1.08 -28.29,-4.29 -4.57,-1.57 -9.05,-3.54 -13.33,-5.95 -4.34,-2.46 -8.27,-5.04 -13.94,-6.6 -1.31,-0.36 -2.66,0.41 -3.02,1.71 -0.16,0.58 -0.1,1.16 0.13,1.66 l 0.04,0.09 c 2.33,5.16 6.62,9.07 11.2,12.1 4.59,3.11 9.46,5.88 14.66,8.06 10.4,4.41 21.86,6.3 33.16,5.64 11.38,-0.55 22.75,-4.38 32.19,-10.79 9.57,-6.34 16.61,-15.44 21.9,-24.9 l 0.18,-0.32 c 1.93,-4.94 3.99,-9.82 5.8,-14.82 0.43,-1.17 -0.18,-2.47 -1.35,-2.89 -1,-0.36 -2.09,0.03 -2.66,0.88" />
      <path
         id="path612"
         style="fill:none;stroke:#212122;stroke-width:5.14208;stroke-linecap:round;stroke-linejoin:round;stroke-miterlimit:10;stroke-dasharray:none;stroke-opacity:1"
         d="m 3943.11,3802.25 c -7.03,2.25 -13.49,6 -18.75,10.87" />
      <path
         id="path614"
         style="fill:#212122;fill-opacity:1;fill-rule:nonzero;stroke:none"
         d="m 4007.22,3815.15 c 0,10.99 -8.91,19.9 -19.9,19.9 -10.99,0 -19.9,-8.91 -19.9,-19.9 0,-10.99 8.91,-19.89 19.9,-19.89 10.99,0 19.9,8.9 19.9,19.89" />
      <path
         id="path616"
         style="fill:none;stroke:#212122;stroke-width:5.14208;stroke-linecap:round;stroke-linejoin:round;stroke-miterlimit:10;stroke-dasharray:none;stroke-opacity:1"
         d="m 4045.06,3820.32 c -6.59,13.54 -18.47,24.85 -32.93,31.33 -14.46,6.49 -31.37,8.09 -46.86,4.44" />
      <path
         id="path618"
         style="fill:none;stroke:#212122;stroke-width:6.20565;stroke-linecap:round;stroke-linejoin:round;stroke-miterlimit:10;stroke-dasharray:none;stroke-opacity:1"
         d="m 4050.25,3713.17 c -10.6,-1.28 -16.65,10.21 -11.67,19.65" />
      <path
         id="path620"
         style="fill:none;stroke:#212122;stroke-width:6.20565;stroke-linecap:round;stroke-linejoin:round;stroke-miterlimit:10;stroke-dasharray:none;stroke-opacity:1"
         d="m 4112.25,3712.11 c 10.6,-1.29 16.65,10.21 11.67,19.65" />
      <path
         id="path622"
         style="fill:none;stroke:#212122;stroke-width:6.20565;stroke-linecap:round;stroke-linejoin:round;stroke-miterlimit:10;stroke-dasharray:none;stroke-opacity:1"
         d="m 4049.31,3714.73 c 17.06,-15.67 45.96,-16.13 63.52,-1.03" />
      <path
         id="path624"
         style="fill:none;stroke:#212122;stroke-width:5.26896;stroke-linecap:round;stroke-linejoin:round;stroke-miterlimit:10;stroke-dasharray:none;stroke-opacity:1"
         d="m 4066.84,3646.74 c 3.82,-3.69 9.1,-5.82 14.41,-5.82 5.31,0.01 10.58,2.14 14.41,5.83 5.97,5.77 16.74,2.23 24.96,1.04 8.22,-1.2 16.63,-2.85 24.75,-1.09" />
      <path
         id="path626"
         style="fill:none;stroke:#212122;stroke-width:5.26896;stroke-linecap:round;stroke-linejoin:round;stroke-miterlimit:10;stroke-dasharray:none;stroke-opacity:1"
         d="m 4066.84,3646.75 c -5.97,5.77 -16.75,2.23 -24.96,1.04 -8.23,-1.2 -16.63,-2.85 -24.75,-1.09" />
      <path
         id="path628"
         style="fill:none;stroke:#212122;stroke-width:5.26896;stroke-linecap:round;stroke-linejoin:round;stroke-miterlimit:10;stroke-dasharray:none;stroke-opacity:1"
         d="m 4043.17,3623.28 c 21.1,-7.33 44.37,-8.31 66.01,-2.78" />
      <path
         id="path630"
         style="fill:#212122;fill-opacity:1;fill-rule:nonzero;stroke:none"
         d="m 4081.19,3686.47 c 4.85,8.66 14.55,13.88 24.19,16.15 9.75,2.27 19.54,1.84 28.41,0.41 18.25,-3.47 31.33,-9.73 41.02,-13.19 l 11.47,-4.23 c 3,-1.16 6.11,-2.16 11.31,-2.37 10.31,-0.68 25.47,3.76 44.74,5.28 -1.87,-19.02 -8.63,-35.43 -25.49,-48.42 -8.26,-6.35 -19.98,-10.72 -31.79,-11.46 -11.84,-0.88 -22.77,1.67 -31.74,5.12 -18.08,7.08 -29.72,17.7 -38.57,26.23 -4.65,4.55 -8.98,9.05 -13.87,13.61 -4.97,4.64 -10.49,9.11 -19.68,12.87" />
      <path
         id="path632"
         style="fill:#212122;fill-opacity:1;fill-rule:nonzero;stroke:none"
         d="m 4081.3,3686.47 c -9.18,-3.76 -14.7,-8.23 -19.67,-12.87 -4.89,-4.56 -9.22,-9.06 -13.88,-13.61 -8.84,-8.53 -20.48,-19.15 -38.56,-26.23 -8.97,-3.45 -19.9,-6 -31.74,-5.12 -11.81,0.74 -23.54,5.11 -31.79,11.46 -16.86,12.99 -23.62,29.4 -25.49,48.42 19.27,-1.52 34.43,-5.96 44.74,-5.28 5.19,0.21 8.31,1.21 11.31,2.37 l 11.47,4.23 c 9.68,3.46 22.77,9.72 41.01,13.19 8.88,1.43 18.66,1.86 28.42,-0.41 9.64,-2.27 19.34,-7.49 24.18,-16.15" />
      <path
         id="path634"
         style="fill:#212122;fill-opacity:1;fill-rule:nonzero;stroke:none"
         d="m 4533.16,2900.02 c -91.17,-41.14 -174.41,-53.82 -185.91,-28.32 -11.51,25.49 53.07,79.51 144.25,120.65 91.17,41.14 174.4,53.82 185.9,28.33 11.51,-25.5 -53.07,-79.52 -144.24,-120.66" />
      <path
         id="path636"
         style="fill:#f4f1fa;fill-opacity:1;fill-rule:nonzero;stroke:none"
         d="m 4493.11,2676.08 -42.69,103.68 -34.17,83.07 -28.8,70.08 -63.29,153.8 c -33.33,80.92 -0.58,170.57 71.3,195.19 12.55,4.29 25.4,6.23 38.13,6.14 1.18,-0.01 2.36,-0.02 3.53,-0.13 55.74,-2.01 109.58,-43.39 131.16,-106.58 l 51.23,-149.75 22.94,-67.15 99.1,-290.17" />
      <path
         id="path638"
         style="fill:none;stroke:#212122;stroke-width:5.35;stroke-linecap:round;stroke-linejoin:round;stroke-miterlimit:10;stroke-dasharray:none;stroke-opacity:1"
         d="m 4493.11,2676.08 -42.69,103.68 -34.17,83.07 -28.8,70.08 -63.29,153.8 c -33.33,80.92 -0.58,170.57 71.3,195.19 12.55,4.29 25.4,6.23 38.13,6.14 1.18,-0.01 2.36,-0.02 3.53,-0.13 55.74,-2.01 109.58,-43.39 131.16,-106.58 l 51.23,-149.75 22.94,-67.15 99.1,-290.17" />
      <path
         id="path640"
         style="fill:#212122;fill-opacity:1;fill-rule:nonzero;stroke:none"
         d="m 4675.44,3023.77 c -16.86,21.28 -96.72,7.87 -183.9,-31.37 -91.19,-41.17 -155.86,-95.2 -144.25,-120.76 0.28,-0.55 0.55,-0.96 0.97,-1.52 l -0.97,-0.41 -100.72,236.13 c -39.52,92.71 3.17,198.4 92.98,229.77 17,5.94 34.27,8.84 51.54,8.84 61.48,0 120.48,-36.47 150.74,-95.61 l 133.61,-225.07" />
      <path
         id="path642"
         style="fill:#212122;fill-opacity:1;fill-rule:nonzero;stroke:none"
         d="m 3611.57,2900.02 c 91.17,-41.14 174.41,-53.82 185.91,-28.32 11.51,25.49 -53.07,79.51 -144.25,120.65 -91.17,41.14 -174.4,53.82 -185.9,28.33 -11.51,-25.5 53.07,-79.52 144.24,-120.66" />
      <path
         id="path644"
         style="fill:#f4f1fa;fill-opacity:1;fill-rule:nonzero;stroke:none"
         d="m 3400.94,2675.84 101.23,289.33 23.43,67.09 52.32,149.37 c 22.47,64.31 78.43,105.72 135.36,105.72 h 0.74 c 12.52,-0.11 25.04,-2.14 37.35,-6.42 71.69,-25.15 103.89,-115.02 69.98,-195.7 l -64.42,-153.33 v -0.11 l -29.32,-69.77 -31.24,-74.36 -46.97,-111.82" />
      <path
         id="path646"
         style="fill:none;stroke:#212122;stroke-width:5.35;stroke-linecap:round;stroke-linejoin:round;stroke-miterlimit:10;stroke-dasharray:none;stroke-opacity:1"
         d="m 3400.94,2675.84 101.23,289.33 23.43,67.09 52.32,149.37 c 22.47,64.31 78.43,105.72 135.36,105.72 h 0.74 c 12.52,-0.11 25.04,-2.14 37.35,-6.42 71.69,-25.15 103.89,-115.02 69.98,-195.7 l -64.42,-153.33 v -0.11 l -29.32,-69.77 -31.24,-74.36 -46.97,-111.82" />
      <path
         id="path648"
         style="fill:#212122;fill-opacity:1;fill-rule:nonzero;stroke:none"
         d="m 3469.29,3023.77 c 16.86,21.28 96.72,7.87 183.9,-31.37 91.19,-41.17 155.85,-95.2 144.25,-120.76 -0.28,-0.55 -0.55,-0.96 -0.97,-1.52 l 0.97,-0.41 100.72,236.13 c 39.52,92.71 -3.17,198.4 -92.98,229.77 -17,5.94 -34.27,8.84 -51.54,8.84 -61.49,0 -120.48,-36.47 -150.74,-95.61 l -133.61,-225.07" />
      <path
         id="path650"
         style="fill:#f4f1fa;fill-opacity:1;fill-rule:nonzero;stroke:none"
         d="m 4452.75,2671.06 h -763.01 l 3.96,111.82 2.78,80.68 3.53,99.08 11.34,319.93 1.72,47.61 24.61,8.88 143.05,51.68 27.61,9.96 13.7,5.02 35.73,19.23 h 10.81 206.51 4.28 l 40.13,-18.48 13.59,-4.92 27.6,-9.95 147.24,-53.18 22.68,-8.24 1.6,-47.72 6.1,-180.19 4.6,-137.71 3.32,-99.62 v -0.53 l 2.99,-89.98 3.53,-103.37" />
      <path
         id="path652"
         style="fill:none;stroke:#212122;stroke-width:5;stroke-linecap:round;stroke-linejoin:round;stroke-miterlimit:10;stroke-dasharray:none;stroke-opacity:1"
         d="m 4452.75,2671.06 h -763.01 l 3.96,111.82 2.78,80.68 3.53,99.08 11.34,319.93 1.72,47.61 24.61,8.88 143.05,51.68 27.61,9.96 13.7,5.02 35.73,19.23 h 10.81 206.51 4.28 l 40.13,-18.48 13.59,-4.92 27.6,-9.95 147.24,-53.18 22.68,-8.24 1.6,-47.72 6.1,-180.19 4.6,-137.71 3.32,-99.62 v -0.53 l 2.99,-89.98 z" />
      <path
         id="path654"
         style="fill:#f4f1fa;fill-opacity:1;fill-rule:nonzero;stroke:none"
         d="m 4287.86,2960.07 v 0 c -45.26,0 -81.96,36.69 -81.96,81.95 v 140.97 h 163.92 v -140.97 c 0,-45.26 -36.69,-81.95 -81.96,-81.95" />
      <path
         id="path656"
         style="fill:none;stroke:#212122;stroke-width:5;stroke-linecap:round;stroke-linejoin:round;stroke-miterlimit:10;stroke-dasharray:none;stroke-opacity:1"
         d="m 4287.86,2960.07 v 0 c -45.26,0 -81.96,36.69 -81.96,81.95 v 140.97 h 163.92 v -140.97 c 0,-45.26 -36.69,-81.95 -81.96,-81.95 z" />
      <path
         id="path658"
         style="fill:none;stroke:#212122;stroke-width:5;stroke-linecap:round;stroke-linejoin:round;stroke-miterlimit:10;stroke-dasharray:none;stroke-opacity:1"
         d="m 4205.74,3144.27 h 164.24" />
      <path
         id="path660"
         style="fill:#f4f1fa;fill-opacity:1;fill-rule:nonzero;stroke:none"
         d="m 4191.27,3427.96 22.87,-19.16 13.03,-4.69 c -9.74,-77.72 -76.07,-137.71 -156.48,-137.71 -80.06,0 -146.27,59.64 -156.48,136.88 l 13.26,4.82 37.12,22.41" />
      <path
         id="path662"
         style="fill:none;stroke:#212122;stroke-width:5;stroke-linecap:round;stroke-linejoin:round;stroke-miterlimit:10;stroke-dasharray:none;stroke-opacity:1"
         d="m 4191.27,3427.96 22.87,-19.16 13.03,-4.69 c -9.74,-77.72 -76.07,-137.71 -156.48,-137.71 -80.06,0 -146.27,59.64 -156.48,136.88 l 13.26,4.82 37.12,22.41" />
      <path
         id="path664"
         style="fill:none;stroke:#212122;stroke-width:5.5931;stroke-linecap:round;stroke-linejoin:round;stroke-miterlimit:10;stroke-dasharray:none;stroke-opacity:1"
         d="m 4245.73,3395.59 c -10.9,-86.93 -85.09,-154.04 -175.04,-154.04 -89.56,0 -163.62,66.71 -175.05,153.12" />
      <path
         id="path666"
         style="fill:none;stroke:#212122;stroke-width:5;stroke-linecap:round;stroke-linejoin:round;stroke-miterlimit:10;stroke-dasharray:none;stroke-opacity:1"
         d="m 3814.46,3144.93 26.09,30.83" />
      <path
         id="path668"
         style="fill:none;stroke:#212122;stroke-width:5;stroke-linecap:round;stroke-linejoin:round;stroke-miterlimit:10;stroke-dasharray:none;stroke-opacity:1"
         d="m 3800.24,3239.79 16.6,-16.6" />
      <path
         id="path670"
         style="fill:none;stroke:#212122;stroke-width:5;stroke-linecap:round;stroke-linejoin:round;stroke-miterlimit:10;stroke-dasharray:none;stroke-opacity:1"
         d="m 3854.78,3256.39 23.71,18.97" />
      <path
         id="path672"
         style="fill:none;stroke:#212122;stroke-width:5;stroke-linecap:round;stroke-linejoin:round;stroke-miterlimit:10;stroke-dasharray:none;stroke-opacity:1"
         d="m 3814.46,3315.68 26.09,-18.97" />
      <path
         id="path674"
         style="fill:none;stroke:#212122;stroke-width:5;stroke-linecap:round;stroke-linejoin:round;stroke-miterlimit:10;stroke-dasharray:none;stroke-opacity:1"
         d="m 3736.2,3189.99 21.35,16.6" />
      <path
         id="path676"
         style="fill:none;stroke:#212122;stroke-width:5;stroke-linecap:round;stroke-linejoin:round;stroke-miterlimit:10;stroke-dasharray:none;stroke-opacity:1"
         d="m 3748.06,3287.22 23.72,-28.45" />
      <path
         id="path678"
         style="fill:none;stroke:#212122;stroke-width:5;stroke-linecap:round;stroke-linejoin:round;stroke-miterlimit:10;stroke-dasharray:none;stroke-opacity:1"
         d="m 3755.18,3045.33 37.94,26.09" />
      <path
         id="path680"
         style="fill:none;stroke:#212122;stroke-width:5;stroke-linecap:round;stroke-linejoin:round;stroke-miterlimit:10;stroke-dasharray:none;stroke-opacity:1"
         d="m 3757.55,3121.22 18.97,-18.97" />
      <path
         id="path682"
         style="fill:none;stroke:#212122;stroke-width:5;stroke-linecap:round;stroke-linejoin:round;stroke-miterlimit:10;stroke-dasharray:none;stroke-opacity:1"
         d="m 3876.12,3104.62 23.71,18.97" />
      <path
         id="path684"
         style="fill:none;stroke:#212122;stroke-width:5;stroke-linecap:round;stroke-linejoin:round;stroke-miterlimit:10;stroke-dasharray:none;stroke-opacity:1"
         d="m 3916.44,3213.71 23.71,-35.57" />
      <path
         id="path686"
         style="fill:none;stroke:#212122;stroke-width:5;stroke-linecap:round;stroke-linejoin:round;stroke-miterlimit:10;stroke-dasharray:none;stroke-opacity:1"
         d="m 3982.84,3118.85 21.34,18.97" />
      <path
         id="path688"
         style="fill:none;stroke:#212122;stroke-width:5;stroke-linecap:round;stroke-linejoin:round;stroke-miterlimit:10;stroke-dasharray:none;stroke-opacity:1"
         d="m 3885.61,3028.73 23.71,-28.45" />
      <path
         id="path690"
         style="fill:none;stroke:#212122;stroke-width:5;stroke-linecap:round;stroke-linejoin:round;stroke-miterlimit:10;stroke-dasharray:none;stroke-opacity:1"
         d="m 3788.37,2967.07 26.09,26.09" />
      <path
         id="path692"
         style="fill:none;stroke:#212122;stroke-width:5;stroke-linecap:round;stroke-linejoin:round;stroke-miterlimit:10;stroke-dasharray:none;stroke-opacity:1"
         d="m 3840.55,2900.67 18.97,14.23" />
      <path
         id="path694"
         style="fill:none;stroke:#212122;stroke-width:5;stroke-linecap:round;stroke-linejoin:round;stroke-miterlimit:10;stroke-dasharray:none;stroke-opacity:1"
         d="m 3743.32,2879.33 23.71,-23.72" />
      <path
         id="path696"
         style="fill:none;stroke:#212122;stroke-width:5;stroke-linecap:round;stroke-linejoin:round;stroke-miterlimit:10;stroke-dasharray:none;stroke-opacity:1"
         d="m 3738.58,2950.47 18.97,16.6" />
      <path
         id="path698"
         style="fill:none;stroke:#212122;stroke-width:5;stroke-linecap:round;stroke-linejoin:round;stroke-miterlimit:10;stroke-dasharray:none;stroke-opacity:1"
         d="m 3823.95,2855.61 28.46,-26.08" />
      <path
         id="path700"
         style="fill:none;stroke:#212122;stroke-width:5;stroke-linecap:round;stroke-linejoin:round;stroke-miterlimit:10;stroke-dasharray:none;stroke-opacity:1"
         d="m 3748.06,2770.24 30.83,16.6" />
      <path
         id="path702"
         style="fill:none;stroke:#212122;stroke-width:5;stroke-linecap:round;stroke-linejoin:round;stroke-miterlimit:10;stroke-dasharray:none;stroke-opacity:1"
         d="m 3833.43,2760.75 26.09,-23.71" />
      <path
         id="path704"
         style="fill:none;stroke:#212122;stroke-width:5;stroke-linecap:round;stroke-linejoin:round;stroke-miterlimit:10;stroke-dasharray:none;stroke-opacity:1"
         d="m 3781.26,2703.84 18.98,16.6" />
      <path
         id="path706"
         style="fill:none;stroke:#212122;stroke-width:5;stroke-linecap:round;stroke-linejoin:round;stroke-miterlimit:10;stroke-dasharray:none;stroke-opacity:1"
         d="m 3949.64,2727.56 21.34,-18.98" />
      <path
         id="path708"
         style="fill:none;stroke:#212122;stroke-width:5;stroke-linecap:round;stroke-linejoin:round;stroke-miterlimit:10;stroke-dasharray:none;stroke-opacity:1"
         d="m 3928.29,2796.33 26.09,30.83" />
      <path
         id="path710"
         style="fill:none;stroke:#212122;stroke-width:5;stroke-linecap:round;stroke-linejoin:round;stroke-miterlimit:10;stroke-dasharray:none;stroke-opacity:1"
         d="m 3921.18,2907.79 21.35,-18.97" />
      <path
         id="path712"
         style="fill:none;stroke:#212122;stroke-width:5;stroke-linecap:round;stroke-linejoin:round;stroke-miterlimit:10;stroke-dasharray:none;stroke-opacity:1"
         d="m 3989.95,2952.84 23.72,23.72" />
      <path
         id="path714"
         style="fill:none;stroke:#212122;stroke-width:5;stroke-linecap:round;stroke-linejoin:round;stroke-miterlimit:10;stroke-dasharray:none;stroke-opacity:1"
         d="m 4004.18,3052.45 16.6,-11.86" />
      <path
         id="path716"
         style="fill:none;stroke:#212122;stroke-width:5;stroke-linecap:round;stroke-linejoin:round;stroke-miterlimit:10;stroke-dasharray:none;stroke-opacity:1"
         d="m 4075.32,3099.87 30.83,23.72" />
      <path
         id="path718"
         style="fill:none;stroke:#212122;stroke-width:5;stroke-linecap:round;stroke-linejoin:round;stroke-miterlimit:10;stroke-dasharray:none;stroke-opacity:1"
         d="m 4051.61,3180.5 23.71,-23.71" />
      <path
         id="path720"
         style="fill:none;stroke:#212122;stroke-width:5;stroke-linecap:round;stroke-linejoin:round;stroke-miterlimit:10;stroke-dasharray:none;stroke-opacity:1"
         d="m 3980.46,3216.08 16.61,-16.6" />
      <path
         id="path722"
         style="fill:none;stroke:#212122;stroke-width:5;stroke-linecap:round;stroke-linejoin:round;stroke-miterlimit:10;stroke-dasharray:none;stroke-opacity:1"
         d="m 4122.75,3194.73 18.97,18.98" />
      <path
         id="path724"
         style="fill:none;stroke:#212122;stroke-width:5;stroke-linecap:round;stroke-linejoin:round;stroke-miterlimit:10;stroke-dasharray:none;stroke-opacity:1"
         d="m 4210.5,3254.02 18.97,-18.97" />
      <path
         id="path726"
         style="fill:none;stroke:#212122;stroke-width:5;stroke-linecap:round;stroke-linejoin:round;stroke-miterlimit:10;stroke-dasharray:none;stroke-opacity:1"
         d="m 4284.01,3251.65 26.09,28.46" />
      <path
         id="path728"
         style="fill:none;stroke:#212122;stroke-width:5;stroke-linecap:round;stroke-linejoin:round;stroke-miterlimit:10;stroke-dasharray:none;stroke-opacity:1"
         d="m 4269.79,3329.91 18.97,-23.72" />
      <path
         id="path730"
         style="fill:none;stroke:#212122;stroke-width:5;stroke-linecap:round;stroke-linejoin:round;stroke-miterlimit:10;stroke-dasharray:none;stroke-opacity:1"
         d="m 4362.28,3258.77 26.08,14.22" />
      <path
         id="path732"
         style="fill:none;stroke:#212122;stroke-width:5;stroke-linecap:round;stroke-linejoin:round;stroke-miterlimit:10;stroke-dasharray:none;stroke-opacity:1"
         d="m 4352.79,3318.05 14.23,-18.97" />
      <path
         id="path734"
         style="fill:none;stroke:#212122;stroke-width:5;stroke-linecap:round;stroke-linejoin:round;stroke-miterlimit:10;stroke-dasharray:none;stroke-opacity:1"
         d="m 4141.72,3057.19 23.72,18.97" />
      <path
         id="path736"
         style="fill:none;stroke:#212122;stroke-width:5;stroke-linecap:round;stroke-linejoin:round;stroke-miterlimit:10;stroke-dasharray:none;stroke-opacity:1"
         d="m 4163.07,3128.33 16.6,-14.23" />
      <path
         id="path738"
         style="fill:none;stroke:#212122;stroke-width:5;stroke-linecap:round;stroke-linejoin:round;stroke-miterlimit:10;stroke-dasharray:none;stroke-opacity:1"
         d="m 4082.44,2978.93 14.23,11.86" />
      <path
         id="path740"
         style="fill:none;stroke:#212122;stroke-width:5;stroke-linecap:round;stroke-linejoin:round;stroke-miterlimit:10;stroke-dasharray:none;stroke-opacity:1"
         d="m 4039.75,2893.56 21.34,16.6" />
      <path
         id="path742"
         style="fill:none;stroke:#212122;stroke-width:5;stroke-linecap:round;stroke-linejoin:round;stroke-miterlimit:10;stroke-dasharray:none;stroke-opacity:1"
         d="m 4172.55,2940.99 16.61,-21.34" />
      <path
         id="path744"
         style="fill:none;stroke:#212122;stroke-width:5;stroke-linecap:round;stroke-linejoin:round;stroke-miterlimit:10;stroke-dasharray:none;stroke-opacity:1"
         d="m 4115.64,2867.47 26.08,11.86" />
      <path
         id="path746"
         style="fill:none;stroke:#212122;stroke-width:5;stroke-linecap:round;stroke-linejoin:round;stroke-miterlimit:10;stroke-dasharray:none;stroke-opacity:1"
         d="m 4042.12,2824.78 26.09,-16.59" />
      <path
         id="path748"
         style="fill:none;stroke:#212122;stroke-width:5;stroke-linecap:round;stroke-linejoin:round;stroke-miterlimit:10;stroke-dasharray:none;stroke-opacity:1"
         d="m 4091.92,2737.04 23.72,26.09" />
      <path
         id="path750"
         style="fill:none;stroke:#212122;stroke-width:5;stroke-linecap:round;stroke-linejoin:round;stroke-miterlimit:10;stroke-dasharray:none;stroke-opacity:1"
         d="m 4011.29,2770.24 18.98,-16.6" />
      <path
         id="path752"
         style="fill:none;stroke:#212122;stroke-width:5;stroke-linecap:round;stroke-linejoin:round;stroke-miterlimit:10;stroke-dasharray:none;stroke-opacity:1"
         d="m 4032.64,2713.33 18.97,16.59" />
      <path
         id="path754"
         style="fill:none;stroke:#212122;stroke-width:5;stroke-linecap:round;stroke-linejoin:round;stroke-miterlimit:10;stroke-dasharray:none;stroke-opacity:1"
         d="m 4153.58,2786.84 21.35,16.6" />
      <path
         id="path756"
         style="fill:none;stroke:#212122;stroke-width:5;stroke-linecap:round;stroke-linejoin:round;stroke-miterlimit:10;stroke-dasharray:none;stroke-opacity:1"
         d="m 4227.1,2841.38 18.97,-18.97" />
      <path
         id="path758"
         style="fill:none;stroke:#212122;stroke-width:5;stroke-linecap:round;stroke-linejoin:round;stroke-miterlimit:10;stroke-dasharray:none;stroke-opacity:1"
         d="m 4267.41,2876.95 21.35,14.23" />
      <path
         id="path760"
         style="fill:none;stroke:#212122;stroke-width:5;stroke-linecap:round;stroke-linejoin:round;stroke-miterlimit:10;stroke-dasharray:none;stroke-opacity:1"
         d="m 4238.96,2929.13 14.22,-11.86" />
      <path
         id="path762"
         style="fill:none;stroke:#212122;stroke-width:5;stroke-linecap:round;stroke-linejoin:round;stroke-miterlimit:10;stroke-dasharray:none;stroke-opacity:1"
         d="m 4203.38,2753.64 21.35,14.23" />
      <path
         id="path764"
         style="fill:none;stroke:#212122;stroke-width:5;stroke-linecap:round;stroke-linejoin:round;stroke-miterlimit:10;stroke-dasharray:none;stroke-opacity:1"
         d="m 4274.53,2722.81 21.34,18.97" />
      <path
         id="path766"
         style="fill:none;stroke:#212122;stroke-width:5;stroke-linecap:round;stroke-linejoin:round;stroke-miterlimit:10;stroke-dasharray:none;stroke-opacity:1"
         d="m 4333.81,2803.44 18.98,16.6" />
      <path
         id="path768"
         style="fill:none;stroke:#212122;stroke-width:5;stroke-linecap:round;stroke-linejoin:round;stroke-miterlimit:10;stroke-dasharray:none;stroke-opacity:1"
         d="m 4293.5,2848.5 16.6,-14.23" />
      <path
         id="path770"
         style="fill:none;stroke:#212122;stroke-width:5;stroke-linecap:round;stroke-linejoin:round;stroke-miterlimit:10;stroke-dasharray:none;stroke-opacity:1"
         d="m 4369.39,2879.33 26.08,23.71" />
      <path
         id="path772"
         style="fill:none;stroke:#212122;stroke-width:5;stroke-linecap:round;stroke-linejoin:round;stroke-miterlimit:10;stroke-dasharray:none;stroke-opacity:1"
         d="m 4345.67,2940.99 18.97,-18.98" />
      <path
         id="path774"
         style="fill:none;stroke:#212122;stroke-width:5;stroke-linecap:round;stroke-linejoin:round;stroke-miterlimit:10;stroke-dasharray:none;stroke-opacity:1"
         d="m 4393.1,2964.7 16.6,16.6" />
      <path
         id="path776"
         style="fill:none;stroke:#212122;stroke-width:5;stroke-linecap:round;stroke-linejoin:round;stroke-miterlimit:10;stroke-dasharray:none;stroke-opacity:1"
         d="m 4402.59,3080.91 11.86,-18.98" />
      <path
         id="path778"
         style="fill:none;stroke:#212122;stroke-width:5;stroke-linecap:round;stroke-linejoin:round;stroke-miterlimit:10;stroke-dasharray:none;stroke-opacity:1"
         d="m 4390.73,3140.19 18.97,18.97" />
      <path
         id="path780"
         style="fill:none;stroke:#212122;stroke-width:5;stroke-linecap:round;stroke-linejoin:round;stroke-miterlimit:10;stroke-dasharray:none;stroke-opacity:1"
         d="m 4388.36,3218.45 11.86,-18.97" />
      <path
         id="path782"
         style="fill:none;stroke:#212122;stroke-width:5;stroke-linecap:round;stroke-linejoin:round;stroke-miterlimit:10;stroke-dasharray:none;stroke-opacity:1"
         d="m 4331.45,3227.94 7.11,-11.86" />
      <path
         id="path784"
         style="fill:none;stroke:#212122;stroke-width:5;stroke-linecap:round;stroke-linejoin:round;stroke-miterlimit:10;stroke-dasharray:none;stroke-opacity:1"
         d="m 4367.02,2727.56 18.97,16.59" />
      <path
         id="path786"
         style="fill:none;stroke:#212122;stroke-width:5;stroke-linecap:round;stroke-linejoin:round;stroke-miterlimit:10;stroke-dasharray:none;stroke-opacity:1"
         d="m 4378.87,2793.96 14.23,-14.23" />
      <path
         id="path788"
         style="fill:none;stroke:#212122;stroke-width:5;stroke-linecap:round;stroke-linejoin:round;stroke-miterlimit:10;stroke-dasharray:none;stroke-opacity:1"
         d="m 4412.08,2831.9 14.22,-18.97" />
      <path
         id="path790"
         style="fill:none;stroke:#212122;stroke-width:5;stroke-linecap:round;stroke-linejoin:round;stroke-miterlimit:10;stroke-dasharray:none;stroke-opacity:1"
         d="m 4160.7,2691.98 28.46,16.6" />
      <path
         id="path792"
         style="fill:none;stroke:#212122;stroke-width:5;stroke-linecap:round;stroke-linejoin:round;stroke-miterlimit:10;stroke-dasharray:none;stroke-opacity:1"
         d="m 4151.21,2744.15 18.98,-9.48" />
      <path
         id="path794"
         style="fill:none;stroke:#212122;stroke-width:5;stroke-linecap:round;stroke-linejoin:round;stroke-miterlimit:10;stroke-dasharray:none;stroke-opacity:1"
         d="m 4404.96,2710.95 18.97,-16.6" />
    </g>
  </g>
</svg>
