<?xml version="1.0" encoding="UTF-8" standalone="no"?>
<!-- Created with Inkscape (http://www.inkscape.org/) -->

<svg
   width="47.48262mm"
   height="55.249237mm"
   viewBox="0 0 47.48262 55.249237"
   version="1.1"
   id="svg7463"
   xmlns="http://www.w3.org/2000/svg"
   xmlnsSvg="http://www.w3.org/2000/svg">
  <defs
     id="defs7460" />
  <g
     inkscapeLabel="Layer 1"
     id="layer1"
     transform="translate(97.991314,2.4551294)">
    <g
       id="g6086"
       transform="matrix(0.03527778,0,0,-0.03527778,-110.37632,146.93498)">
      <path
         id="path488"
         style="fill:#fbc325;fill-opacity:1;fill-rule:nonzero;stroke:none"
         d="m 417.879,3628.5 c 0,334.79 271.391,606.18 606.171,606.18 334.78,0 606.18,-271.39 606.18,-606.18 0,-334.78 -271.4,-606.17 -606.18,-606.17 -334.78,0 -606.171,271.39 -606.171,606.17" />
      <path
         id="path490"
         style="fill:#212122;fill-opacity:1;fill-rule:nonzero;stroke:none"
         d="M 1123.01,3580.95 H 926.656 c -57.793,0 -106.933,64.57 -115.691,152.01 l -17.996,179.64 c -10.867,108.5 43.98,206.31 115.687,206.31 h 233.914 c 72.32,0 127.34,-99.41 115.45,-208.61 l -19.56,-179.64 c -9.41,-86.39 -58.23,-149.71 -115.45,-149.71" />
      <path
         id="path492"
         style="fill:#f4f1fa;fill-opacity:1;fill-rule:nonzero;stroke:none"
         d="m 1192.57,3812.82 c -24.73,-39.73 -22.34,-86.79 5.35,-105.11 27.68,-18.33 70.17,-0.98 94.91,38.75 24.73,39.72 22.35,86.78 -5.34,105.11 -27.68,18.33 -70.18,0.98 -94.92,-38.75" />
      <path
         id="path494"
         style="fill:none;stroke:#212122;stroke-width:5.35;stroke-linecap:round;stroke-linejoin:round;stroke-miterlimit:10;stroke-dasharray:none;stroke-opacity:1"
         d="m 1192.57,3812.82 c -24.73,-39.73 -22.34,-86.79 5.35,-105.11 27.68,-18.33 70.17,-0.98 94.91,38.75 24.73,39.72 22.35,86.78 -5.34,105.11 -27.68,18.33 -70.18,0.98 -94.92,-38.75 z" />
      <path
         id="path496"
         style="fill:none;stroke:#212122;stroke-width:5.35;stroke-linecap:round;stroke-linejoin:round;stroke-miterlimit:10;stroke-dasharray:none;stroke-opacity:1"
         d="m 1266.67,3832.5 c 11.98,-4.68 21.09,-16.07 23.04,-28.79 1.94,-12.73 -3.36,-26.31 -13.41,-34.36" />
      <path
         id="path498"
         style="fill:#f4f1fa;fill-opacity:1;fill-rule:nonzero;stroke:none"
         d="m 858.656,3812.82 c 24.735,-39.73 22.348,-86.79 -5.34,-105.11 -27.683,-18.33 -70.175,-0.98 -94.914,38.75 -24.734,39.72 -22.347,86.78 5.34,105.11 27.684,18.33 70.18,0.98 94.914,-38.75" />
      <path
         id="path500"
         style="fill:none;stroke:#212122;stroke-width:5.35;stroke-linecap:round;stroke-linejoin:round;stroke-miterlimit:10;stroke-dasharray:none;stroke-opacity:1"
         d="m 858.656,3812.82 c 24.735,-39.73 22.348,-86.79 -5.34,-105.11 -27.683,-18.33 -70.175,-0.98 -94.914,38.75 -24.734,39.72 -22.347,86.78 5.34,105.11 27.684,18.33 70.18,0.98 94.914,-38.75 z" />
      <path
         id="path502"
         style="fill:none;stroke:#212122;stroke-width:5.35;stroke-linecap:round;stroke-linejoin:round;stroke-miterlimit:10;stroke-dasharray:none;stroke-opacity:1"
         d="m 784.57,3832.5 c -11.992,-4.68 -21.101,-16.07 -23.047,-28.79 -1.941,-12.73 3.36,-26.31 13.411,-34.36" />
      <path
         id="path504"
         style="fill:#f4f1fa;fill-opacity:1;fill-rule:nonzero;stroke:none"
         d="m 1144.35,3352.98 c 2.23,-67.18 -51.54,-122.73 -118.71,-122.73 -65.839,0 -118.82,53.43 -118.82,118.71 0,1.34 0,2.68 0.11,4.02 l 13.191,177.06 3.352,44.82 6.597,87.96 h 191.02 l 10.51,-139.04 7.49,-101.16 5.26,-69.64" />
      <path
         id="path506"
         style="fill:none;stroke:#212122;stroke-width:5.58881;stroke-linecap:round;stroke-linejoin:round;stroke-miterlimit:10;stroke-dasharray:none;stroke-opacity:1"
         d="m 1144.35,3352.98 c 2.23,-67.18 -51.54,-122.73 -118.71,-122.73 -65.839,0 -118.82,53.43 -118.82,118.71 0,1.34 0,2.68 0.11,4.02 l 13.191,177.06 3.352,44.82 6.597,87.96 h 191.02 l 10.51,-139.04 7.49,-101.16 z" />
      <path
         id="path508"
         style="fill:#212122;fill-opacity:1;fill-rule:nonzero;stroke:none"
         d="m 1139.09,3422.62 c -62.71,-4.47 -131.78,26.71 -179.176,87.29 -15.98,20.35 -28.164,42.37 -36.441,64.95 l 6.597,87.96 h 191.02 l 10.51,-139.04 7.49,-101.16" />
      <path
         id="path510"
         style="fill:#f4f1fa;fill-opacity:1;fill-rule:nonzero;stroke:none"
         d="m 1230.13,3695.07 c -7.44,-19.08 -18.19,-39.04 -31.13,-58.35 -24.91,-37.21 -57.92,-72.11 -90.88,-94.25 -36.14,-24.22 -83.5,-32.13 -124.725,-18.07 -32.426,11.04 -59.176,34.25 -83.094,58.81 -29.824,30.6 -57.047,64.85 -72.348,104.77 -11.867,31.06 -16.945,65.62 -18.305,100.99 -1.894,49.02 3.368,99.57 7.559,144.63 6.145,66.38 46.359,129.39 103.703,163.17 56.227,33.08 128.09,38.04 188.33,12.87 60.18,-25.15 107.25,-79.72 123.19,-143.03 11.4,-45 7.5,-91.72 8.22,-137.6 0.17,-12.88 0.76,-25.87 1.06,-38.86 0.88,-32.3 0.23,-64.61 -11.58,-95.08" />
      <path
         id="path512"
         style="fill:none;stroke:#212122;stroke-width:5.35;stroke-linecap:round;stroke-linejoin:round;stroke-miterlimit:10;stroke-dasharray:none;stroke-opacity:1"
         d="m 1230.13,3695.07 c -7.44,-19.08 -18.19,-39.04 -31.13,-58.35 -24.91,-37.21 -57.92,-72.11 -90.88,-94.25 -36.14,-24.22 -83.5,-32.13 -124.725,-18.07 -32.426,11.04 -59.176,34.25 -83.094,58.81 -29.824,30.6 -57.047,64.85 -72.348,104.77 -11.867,31.06 -16.945,65.62 -18.305,100.99 -1.894,49.02 3.368,99.57 7.559,144.63 6.145,66.38 46.359,129.39 103.703,163.17 56.227,33.08 128.09,38.04 188.33,12.87 60.18,-25.15 107.25,-79.72 123.19,-143.03 11.4,-45 7.5,-91.72 8.22,-137.6 0.17,-12.88 0.76,-25.87 1.06,-38.86 0.88,-32.3 0.23,-64.61 -11.58,-95.08 z" />
      <path
         id="path514"
         style="fill:#212122;fill-opacity:1;fill-rule:nonzero;stroke:none"
         d="m 1242.58,3788.09 v -1.6 l -1.17,1.07 c -14.88,12.94 -23.97,31.67 -24.93,51.25 l -7.81,148.19 c -7.81,3.1 -15.3,6.32 -22.9,9.85 -11.35,5.45 -22.37,11.34 -32.63,17.65 -22.37,13.38 -41.84,28.68 -56.61,44.41 -21.19,-5.14 -45.37,-7.81 -69.98,-7.81 -28.671,0 -56.39,3.63 -80.144,10.59 -13.797,-15.41 -31.992,-30.28 -52.965,-43.55 -11.98,-7.7 -24.929,-14.87 -38.625,-21.29 -2.996,-1.39 -6.312,-2.89 -10.269,-4.61 l -7.813,-153.43 c -1.07,-20.44 -10.699,-39.49 -26.429,-52.43 l -1.176,-0.96 -0.109,1.49 c -1.707,45.58 2.785,93.09 6.636,134.93 l 0.961,9.73 c 3.961,42.91 21.723,84 49.434,117.07 15.41,18.5 33.922,34.45 54.679,46.75 56.282,33.07 128.72,38.09 188.96,12.84 29.64,-12.3 56.28,-31.99 77.47,-56.39 21.83,-24.92 37.98,-54.99 46.12,-87.09 8.77,-34.67 8.56,-70.84 8.23,-105.83 -0.1,-10.48 -0.1,-21.4 0,-31.99 0.11,-7.38 0.33,-14.98 0.65,-22.36 0.11,-5.46 0.32,-10.92 0.42,-16.48" />
      <path
         id="path516"
         style="fill:#212122;fill-opacity:1;fill-rule:nonzero;stroke:none"
         d="m 1058.08,3869.16 c 5.05,12.28 15.08,21.33 26.2,27.58 11.24,6.18 23.99,9.55 36.88,9.98 12.9,0.44 25.8,-2.14 37.4,-7.54 11.49,-5.47 22.06,-13.73 28.09,-25.58 l -34.36,0.93 c -10.42,0.19 -20.31,0.14 -30.12,-0.14 -9.81,-0.3 -19.66,-0.86 -30,-1.74 -10.44,-0.84 -21.04,-2.02 -34.09,-3.49" />
      <path
         id="path518"
         style="fill:#212122;fill-opacity:1;fill-rule:nonzero;stroke:none"
         d="m 993.148,3869.16 c -13.05,1.47 -23.652,2.65 -34.089,3.49 -10.34,0.88 -20.192,1.44 -29.996,1.74 -9.809,0.28 -19.704,0.33 -30.118,0.14 l -34.359,-0.93 c 6.019,11.85 16.598,20.11 28.09,25.58 11.597,5.4 24.5,7.98 37.394,7.54 12.895,-0.43 25.641,-3.8 36.883,-9.98 11.125,-6.25 21.149,-15.3 26.195,-27.58" />
      <path
         id="path520"
         style="fill:#212122;fill-opacity:1;fill-rule:nonzero;stroke:none"
         d="m 1064.08,3782.52 c 2.33,5.15 4.92,10.15 7.36,15.24 l 0.21,0.3 c 6.11,9.18 13.77,18.05 24.01,23.85 10.04,5.97 22.14,8.99 33.87,8.26 11.65,-0.58 23.13,-4.07 33.02,-10.1 4.95,-2.97 9.45,-6.54 13.61,-10.38 4.15,-3.78 7.87,-8.38 9.39,-13.97 l 0.03,-0.1 c 0.37,-1.36 -0.43,-2.77 -1.8,-3.14 -0.59,-0.16 -1.18,-0.1 -1.7,0.12 -5.51,2.42 -9.09,5.61 -13.07,8.75 -3.94,3.08 -8.14,5.74 -12.51,7.97 -8.63,4.54 -18.12,7.16 -27.74,7.92 -9.56,0.77 -19.1,-0.94 -27.77,-5.16 -8.63,-4.3 -16.41,-10.85 -23.09,-18.64 l 0.2,0.31 c -3.34,-4.54 -6.55,-9.17 -10.02,-13.64 -0.79,-1.02 -2.27,-1.21 -3.29,-0.41 -0.88,0.68 -1.14,1.85 -0.71,2.82" />
      <path
         id="path522"
         style="fill:#212122;fill-opacity:1;fill-rule:nonzero;stroke:none"
         d="m 1103.51,3802.33 c 0.78,10.84 10.2,18.99 21.04,18.21 10.84,-0.78 18.99,-10.2 18.21,-21.04 -0.78,-10.84 -10.2,-18.99 -21.04,-18.21 -10.84,0.78 -18.99,10.21 -18.21,21.04" />
      <path
         id="path524"
         style="fill:none;stroke:#212122;stroke-width:5.35;stroke-linecap:round;stroke-linejoin:round;stroke-miterlimit:10;stroke-dasharray:none;stroke-opacity:1"
         d="m 1162.84,3784.37 c 7.24,1.62 14.09,4.9 19.88,9.53" />
      <path
         id="path526"
         style="fill:none;stroke:#212122;stroke-width:5.35;stroke-linecap:round;stroke-linejoin:round;stroke-miterlimit:10;stroke-dasharray:none;stroke-opacity:1"
         d="m 1063.63,3815.54 c 8.11,13.82 21.23,24.62 36.34,29.93 15.11,5.31 32.11,5.09 47.08,-0.61" />
      <path
         id="path528"
         style="fill:#212122;fill-opacity:1;fill-rule:nonzero;stroke:none"
         d="m 983.148,3780.11 c -3.464,4.47 -6.671,9.1 -10.015,13.64 l 0.199,-0.31 c -6.676,7.79 -14.465,14.34 -23.086,18.64 -8.672,4.22 -18.215,5.93 -27.773,5.16 -9.614,-0.76 -19.11,-3.38 -27.746,-7.92 -4.36,-2.23 -8.563,-4.89 -12.508,-7.97 -3.981,-3.14 -7.559,-6.33 -13.067,-8.75 -1.293,-0.56 -2.804,0.03 -3.375,1.32 -0.246,0.56 -0.273,1.15 -0.121,1.7 l 0.024,0.1 c 1.523,5.59 5.246,10.19 9.39,13.97 4.16,3.84 8.664,7.41 13.61,10.38 9.89,6.03 21.371,9.52 33.023,10.1 11.727,0.73 23.824,-2.29 33.863,-8.26 10.247,-5.8 17.907,-14.67 24.02,-23.85 l 0.207,-0.3 c 2.445,-5.09 5.031,-10.09 7.352,-15.24 0.531,-1.19 0.007,-2.58 -1.176,-3.11 -1.008,-0.45 -2.168,-0.14 -2.821,0.7" />
      <path
         id="path530"
         style="fill:#212122;fill-opacity:1;fill-rule:nonzero;stroke:none"
         d="m 947.723,3802.33 c -0.782,10.84 -10.203,18.99 -21.043,18.21 -10.832,-0.78 -18.989,-10.2 -18.207,-21.04 0.781,-10.84 10.199,-18.99 21.039,-18.21 10.836,0.78 18.992,10.21 18.211,21.04" />
      <path
         id="path532"
         style="fill:none;stroke:#212122;stroke-width:5.35;stroke-linecap:round;stroke-linejoin:round;stroke-miterlimit:10;stroke-dasharray:none;stroke-opacity:1"
         d="m 888.391,3784.37 c -7.239,1.62 -14.094,4.9 -19.883,9.53" />
      <path
         id="path534"
         style="fill:none;stroke:#212122;stroke-width:5.35;stroke-linecap:round;stroke-linejoin:round;stroke-miterlimit:10;stroke-dasharray:none;stroke-opacity:1"
         d="m 987.605,3815.54 c -8.117,13.82 -21.234,24.62 -36.343,29.93 -15.114,5.31 -32.106,5.09 -47.074,-0.61" />
      <path
         id="path536"
         style="fill:none;stroke:#212122;stroke-width:5.26896;stroke-linecap:round;stroke-linejoin:round;stroke-miterlimit:10;stroke-dasharray:none;stroke-opacity:1"
         d="m 1011.21,3644.21 c 3.83,-3.69 9.1,-5.82 14.41,-5.81 5.3,0 10.58,2.13 14.4,5.82 5.98,5.77 16.75,2.23 24.97,1.04 8.22,-1.2 21.95,-5.31 36.96,5.19" />
      <path
         id="path538"
         style="fill:none;stroke:#212122;stroke-width:5.26896;stroke-linecap:round;stroke-linejoin:round;stroke-miterlimit:10;stroke-dasharray:none;stroke-opacity:1"
         d="m 1011.21,3644.22 c -5.97,5.77 -16.745,2.23 -24.968,1.04 -8.219,-1.2 -21.578,-6.06 -34.332,3.69" />
      <path
         id="path540"
         style="fill:none;stroke:#212122;stroke-width:5.26896;stroke-linecap:round;stroke-linejoin:round;stroke-miterlimit:10;stroke-dasharray:none;stroke-opacity:1"
         d="m 987.547,3620.75 c 21.093,-7.34 44.353,-8.32 65.993,-2.78" />
      <path
         id="path542"
         style="fill:none;stroke:#212122;stroke-width:5.35;stroke-linecap:round;stroke-linejoin:round;stroke-miterlimit:10;stroke-dasharray:none;stroke-opacity:1"
         d="m 1025.02,3707.65 v 70.58" />
      <path
         id="path544"
         style="fill:none;stroke:#212122;stroke-width:5.73101;stroke-linecap:round;stroke-linejoin:round;stroke-miterlimit:10;stroke-dasharray:none;stroke-opacity:1"
         d="m 1001.36,3693.85 11.9,-8.15 v 0 c 7.71,-5.28 16.11,-5.28 23.82,0 v 0 l 11.91,8.15" />
      <path
         id="path546"
         style="fill:#212122;fill-opacity:1;fill-rule:nonzero;stroke:none"
         d="m 1092.03,4091.19 c 0,0 -22.79,23.98 -52.51,5.64 -29.71,-18.34 -45.137,-48.42 -64.098,-77.74 -26.328,-40.75 -56.731,-78.86 -90.594,-113.59 -20.144,-20.66 -42.41,-40.67 -69.805,-49.74 -27.394,-9.07 -61.113,-4.6 -79.519,17.63 21.051,73.06 42.523,152.7 93.121,209.47 60.773,68.18 162.934,103.18 251.855,76.95 6.1,-1.8 12.26,-3.99 17.13,-8.06 10.8,-9.02 7.81,-22.83 4.23,-34.61 -0.71,-2.34 -10.55,-25.17 -9.81,-25.95" />
      <path
         id="path548"
         style="fill:#212122;fill-opacity:1;fill-rule:nonzero;stroke:none"
         d="m 1088.15,4123.43 c 2.05,-66.36 36.51,-130.12 76.99,-176.82 21.02,-24.25 45.91,-43.36 65.86,-68.89 5.71,-7.31 10.82,-12.16 15.06,-16.15 9.13,-8.58 22.46,-3.79 25.04,9.44 8.71,44.6 2.85,82.06 -19.18,133.53 -29.38,68.63 -102.15,100.65 -163.77,118.89" />
      <path
         id="path550"
         style="fill:#212122;fill-opacity:1;fill-rule:nonzero;stroke:none"
         d="m 1485.96,2897.49 c -91.17,-41.14 -174.41,-53.82 -185.91,-28.32 -11.5,25.49 53.08,79.51 144.25,120.65 91.17,41.14 174.41,53.82 185.91,28.32 11.5,-25.5 -53.08,-79.52 -144.25,-120.65" />
      <path
         id="path552"
         style="fill:#f4f1fa;fill-opacity:1;fill-rule:nonzero;stroke:none"
         d="m 1445.91,2673.55 -42.69,103.68 -34.17,83.07 -28.8,70.08 -63.29,153.8 c -33.33,80.92 -0.57,170.57 71.3,195.19 12.55,4.29 25.41,6.23 38.14,6.14 1.17,-0.01 2.35,-0.02 3.53,-0.13 55.73,-2.02 109.57,-43.4 131.16,-106.57 l 51.22,-149.76 22.94,-67.15 99.11,-290.16" />
      <path
         id="path554"
         style="fill:none;stroke:#212122;stroke-width:5.35;stroke-linecap:round;stroke-linejoin:round;stroke-miterlimit:10;stroke-dasharray:none;stroke-opacity:1"
         d="m 1445.91,2673.55 -42.69,103.68 -34.17,83.07 -28.8,70.08 -63.29,153.8 c -33.33,80.92 -0.57,170.57 71.3,195.19 12.55,4.29 25.41,6.23 38.14,6.14 1.17,-0.01 2.35,-0.02 3.53,-0.13 55.73,-2.02 109.57,-43.4 131.16,-106.57 l 51.22,-149.76 22.94,-67.15 99.11,-290.16" />
      <path
         id="path556"
         style="fill:#212122;fill-opacity:1;fill-rule:nonzero;stroke:none"
         d="m 1628.24,3021.23 c -16.86,21.28 -96.72,7.88 -183.9,-31.36 -91.19,-41.17 -155.85,-95.2 -144.25,-120.76 0.28,-0.55 0.56,-0.96 0.97,-1.52 l -0.97,-0.41 -100.72,236.13 c -39.52,92.71 3.18,198.41 92.99,229.77 16.99,5.94 34.26,8.84 51.53,8.84 61.49,0 120.49,-36.47 150.74,-95.61 l 133.61,-225.08" />
      <path
         id="path558"
         style="fill:#212122;fill-opacity:1;fill-rule:nonzero;stroke:none"
         d="m 564.375,2895.91 c 91.172,-41.14 174.406,-53.82 185.91,-28.33 11.504,25.5 -53.078,79.52 -144.25,120.66 -91.168,41.14 -174.402,53.82 -185.906,28.32 -11.512,-25.49 53.074,-79.51 144.246,-120.65" />
      <path
         id="path560"
         style="fill:#f4f1fa;fill-opacity:1;fill-rule:nonzero;stroke:none"
         d="m 353.746,2671.74 101.227,289.32 23.429,67.09 52.328,149.37 c 22.465,64.31 78.426,105.72 135.348,105.72 h 0.754 c 12.52,-0.11 25.035,-2.14 37.344,-6.42 71.687,-25.15 103.894,-115.03 69.976,-195.7 l -64.414,-153.33 v -0.11 l -29.316,-69.77 -31.246,-74.36 -46.973,-111.81" />
      <path
         id="path562"
         style="fill:none;stroke:#212122;stroke-width:5.35;stroke-linecap:round;stroke-linejoin:round;stroke-miterlimit:10;stroke-dasharray:none;stroke-opacity:1"
         d="m 353.746,2671.74 101.227,289.32 23.429,67.09 52.328,149.37 c 22.465,64.31 78.426,105.72 135.348,105.72 h 0.754 c 12.52,-0.11 25.035,-2.14 37.344,-6.42 71.687,-25.15 103.894,-115.03 69.976,-195.7 l -64.414,-153.33 v -0.11 l -29.316,-69.77 -31.246,-74.36 -46.973,-111.81" />
      <path
         id="path564"
         style="fill:#212122;fill-opacity:1;fill-rule:nonzero;stroke:none"
         d="m 422.098,3019.66 c 16.851,21.27 96.718,7.87 183.898,-31.37 91.192,-41.17 155.852,-95.2 144.242,-120.75 -0.269,-0.56 -0.55,-0.98 -0.965,-1.53 l 0.965,-0.41 100.731,236.13 c 39.511,92.71 -3.18,198.4 -92.989,229.77 -16.996,5.94 -34.269,8.84 -51.535,8.84 -61.488,0 -120.48,-36.48 -150.742,-95.61 L 422.098,3019.66" />
      <path
         id="path566"
         style="fill:#212122;fill-opacity:1;fill-rule:nonzero;stroke:none"
         d="M 1405.56,2668.56 H 642.547 l 3.957,111.82 2.777,80.68 3.532,99.08 11.343,319.93 1.715,47.61 24.609,8.88 143.063,51.68 11.875,4.28 15.727,5.68 13.695,5.02 35.738,19.15 h 221.592 l 40.13,-18.4 13.59,-4.92 17.33,-6.21 10.28,-3.74 147.23,-53.18 22.68,-8.24 1.61,-47.72 6.09,-180.19 4.61,-137.71 3.31,-99.62 v -0.53 l 3,-89.98 3.53,-103.37" />
      <path
         id="path568"
         style="fill:#f4f1fa;fill-opacity:1;fill-rule:nonzero;stroke:none"
         d="m 1203.22,3392.84 c -72.86,-53.18 -134.39,-121.76 -179.11,-200.19 -44.622,78.22 -106.044,146.69 -178.692,199.87 l 15.727,5.68 13.695,5.02 35.738,19.15 h 221.592 l 40.13,-18.4 13.59,-4.92 17.33,-6.21" />
      <path
         id="path570"
         style="fill:#f4f1fa;fill-opacity:1;fill-rule:nonzero;stroke:none"
         d="m 1139.09,3422.62 33.21,-18.65 13.59,-4.92 17.33,-6.21 c -72.86,-53.18 -134.39,-121.76 -179.11,-200.19 -44.622,78.22 -106.044,146.69 -178.692,199.87 l 15.727,5.68 13.695,5.02 37.758,19.91" />
      <path
         id="path572"
         style="fill:none;stroke:#212122;stroke-width:5.58881;stroke-linecap:round;stroke-linejoin:round;stroke-miterlimit:10;stroke-dasharray:none;stroke-opacity:1"
         d="m 1139.09,3422.62 33.21,-18.65 13.59,-4.92 17.33,-6.21 c -72.86,-53.18 -134.39,-121.76 -179.11,-200.19 -44.622,78.22 -106.044,146.69 -178.692,199.87 l 15.727,5.68 13.695,5.02 37.758,19.91" />
    </g>
  </g>
</svg>
