<?xml version="1.0" encoding="UTF-8" standalone="no"?>
<!-- Created with Inkscape (http://www.inkscape.org/) -->

<svg
   width="48.944744mm"
   height="54.766991mm"
   viewBox="0 0 48.944744 54.766991"
   version="1.1"
   id="svg7837"
   xmlns="http://www.w3.org/2000/svg"
   xmlnsSvg="http://www.w3.org/2000/svg">
  <defs
     id="defs7834" />
  <g
     inkscapeLabel="Layer 1"
     id="layer1"
     transform="translate(-14.54034,-181.52329)">
    <g
       id="g6121"
       transform="matrix(0.03527778,0,0,-0.03527778,-50.979317,258.94743)">
      <path
         id="path422"
         style="fill:#fbc325;fill-opacity:1;fill-rule:nonzero;stroke:none"
         d="m 1944.78,1588.52 c 0,334.79 271.39,606.18 606.17,606.18 334.79,0 606.18,-271.39 606.18,-606.18 0,-334.77 -271.39,-606.168 -606.18,-606.168 -334.78,0 -606.17,271.398 -606.17,606.168" />
      <path
         id="path424"
         style="fill:#212122;fill-opacity:1;fill-rule:nonzero;stroke:none"
         d="m 2734.11,1497.04 c -53.75,-33.62 -123.07,-27.68 -184.54,-12.19 -61.48,15.5 -122.16,39.53 -185.56,38.51 -63.38,-1.02 -132.47,-36.29 -146.49,-98.12 -11.94,-52.69 19.8,-106.47 60.82,-141.63 41.02,-35.16 91.28,-57.69 134.82,-89.68 56.73,-41.7 113.65,-103.06 183.06,-91.31 40.19,6.81 71.55,37.39 100.12,66.46 38.94,39.63 77.87,79.25 116.82,118.88 36.33,36.97 75.19,80.03 73.74,131.85 -1.05,37.23 -25.69,72.76 -60.19,86.78 -34.51,14.03 -76.95,5.77 -103.68,-20.17" />
      <path
         id="path426"
         style="fill:#f4f1fa;fill-opacity:1;fill-rule:nonzero;stroke:none"
         d="m 2707.19,1790.09 c -23.15,-37.17 -20.91,-81.21 4.99,-98.35 25.91,-17.15 65.67,-0.92 88.82,36.25 23.15,37.18 20.91,81.22 -5,98.36 -25.9,17.15 -65.67,0.92 -88.81,-36.26" />
      <path
         id="path428"
         style="fill:none;stroke:#212122;stroke-width:5.00624;stroke-linecap:round;stroke-linejoin:round;stroke-miterlimit:10;stroke-dasharray:none;stroke-opacity:1"
         d="m 2707.19,1790.09 c -23.15,-37.17 -20.91,-81.21 4.99,-98.35 25.91,-17.15 65.67,-0.92 88.82,36.25 23.15,37.18 20.91,81.22 -5,98.36 -25.9,17.15 -65.67,0.92 -88.81,-36.26 z" />
      <path
         id="path430"
         style="fill:none;stroke:#212122;stroke-width:5.00624;stroke-linecap:round;stroke-linejoin:round;stroke-miterlimit:10;stroke-dasharray:none;stroke-opacity:1"
         d="m 2776.51,1808.51 c 11.23,-4.38 19.75,-15.04 21.57,-26.94 1.81,-11.91 -3.14,-24.62 -12.55,-32.15" />
      <path
         id="path432"
         style="fill:#f4f1fa;fill-opacity:1;fill-rule:nonzero;stroke:none"
         d="m 2394.72,1790.09 c 23.15,-37.17 20.92,-81.21 -4.99,-98.35 -25.91,-17.15 -65.67,-0.92 -88.82,36.25 -23.15,37.18 -20.91,81.22 5,98.36 25.9,17.15 65.67,0.92 88.81,-36.26" />
      <path
         id="path434"
         style="fill:none;stroke:#212122;stroke-width:5.00624;stroke-linecap:round;stroke-linejoin:round;stroke-miterlimit:10;stroke-dasharray:none;stroke-opacity:1"
         d="m 2394.72,1790.09 c 23.15,-37.17 20.92,-81.21 -4.99,-98.35 -25.91,-17.15 -65.67,-0.92 -88.82,36.25 -23.15,37.18 -20.91,81.22 5,98.36 25.9,17.15 65.67,0.92 88.81,-36.26 z" />
      <path
         id="path436"
         style="fill:none;stroke:#212122;stroke-width:5.00624;stroke-linecap:round;stroke-linejoin:round;stroke-miterlimit:10;stroke-dasharray:none;stroke-opacity:1"
         d="m 2325.4,1808.51 c -11.22,-4.38 -19.75,-15.04 -21.57,-26.94 -1.81,-11.91 3.15,-24.62 12.55,-32.15" />
      <path
         id="path438"
         style="fill:#f4f1fa;fill-opacity:1;fill-rule:nonzero;stroke:none"
         d="m 2669.68,1341.33 c 2.24,-67.18 -51.52,-122.74 -118.7,-122.74 -65.84,0 -118.82,53.43 -118.82,118.71 0,1.34 0,2.68 0.11,4.03 l 13.19,177.05 3.35,44.82 6.6,87.97 h 191.03 l 10.5,-139.05 7.49,-101.16 5.25,-69.63" />
      <path
         id="path440"
         style="fill:none;stroke:#212122;stroke-width:5.58881;stroke-linecap:round;stroke-linejoin:round;stroke-miterlimit:10;stroke-dasharray:none;stroke-opacity:1"
         d="m 2669.68,1341.33 c 2.24,-67.18 -51.52,-122.74 -118.7,-122.74 -65.84,0 -118.82,53.43 -118.82,118.71 0,1.34 0,2.68 0.11,4.03 l 13.19,177.05 3.35,44.82 6.6,87.97 h 191.03 l 10.5,-139.05 7.49,-101.16 z" />
      <path
         id="path442"
         style="fill:#212122;fill-opacity:1;fill-rule:nonzero;stroke:none"
         d="m 2664.43,1410.96 c -62.71,-4.47 -131.78,26.71 -179.18,87.3 -15.98,20.34 -28.16,42.36 -36.44,64.94 l 6.6,87.97 h 191.03 l 10.5,-139.05 7.49,-101.16" />
      <path
         id="path444"
         style="fill:#f4f1fa;fill-opacity:1;fill-rule:nonzero;stroke:none"
         d="m 2760.46,1730.02 c 0,-51.47 -21.02,-100.73 -58.27,-136.27 l -56.77,-50.97 c -17.22,-18.82 -41.55,-29.53 -67.08,-29.53 h -52.87 c -25.33,0 -49.36,10.51 -66.68,28.93 l -57.97,51.47 c -37.95,35.64 -59.37,85.3 -59.37,137.26 l 0.89,15.73 5.21,90.11 3.91,66.78 c 0,111.05 89.31,201.06 199.44,201.06 55.18,0 105.04,-22.53 141.08,-58.88 36.15,-36.35 58.48,-86.6 58.48,-142.18 l 4.4,-75.99 4.31,-74.99 1.29,-22.53" />
      <path
         id="path446"
         style="fill:none;stroke:#212122;stroke-width:5.00624;stroke-linecap:round;stroke-linejoin:round;stroke-miterlimit:10;stroke-dasharray:none;stroke-opacity:1"
         d="m 2760.46,1730.02 c 0,-51.47 -21.02,-100.73 -58.27,-136.27 l -56.77,-50.97 c -17.22,-18.82 -41.55,-29.53 -67.08,-29.53 h -52.87 c -25.33,0 -49.36,10.51 -66.68,28.93 l -57.97,51.47 c -37.95,35.64 -59.37,85.3 -59.37,137.26 l 0.89,15.73 5.21,90.11 3.91,66.78 c 0,111.05 89.31,201.06 199.44,201.06 55.18,0 105.04,-22.53 141.08,-58.88 36.15,-36.35 58.48,-86.6 58.48,-142.18 l 4.4,-75.99 4.31,-74.99 z" />
      <path
         id="path448"
         style="fill:#212122;fill-opacity:1;fill-rule:nonzero;stroke:none"
         d="m 2754.86,1827.54 h -6.21 c -29.24,42.86 -48.06,92.82 -54.26,144.28 -3.91,32.14 -49.56,42.95 -81.81,39.45 -14.52,-21.93 -40.04,-36.24 -66.38,-37.04 -26.33,-0.81 -52.17,16.81 -67.99,37.93 -32.13,3.51 -77.99,-7.3 -81.9,-39.44 -5.81,-48.16 -22.63,-95.02 -48.76,-135.97 l 3.91,66.78 c 0,111.05 89.31,201.06 199.44,201.06 55.18,0 105.04,-22.53 141.08,-58.88 36.15,-36.35 58.48,-86.6 58.48,-142.18 l 4.4,-75.99" />
      <path
         id="path450"
         style="fill:#212122;fill-opacity:1;fill-rule:nonzero;stroke:none"
         d="m 2594.83,1865.85 c 9.32,5.56 19.49,9.47 30.23,12.25 10.72,2.85 22.15,4.37 33.91,3.97 11.71,-0.38 23.89,-3.08 34.57,-8.69 10.69,-5.54 19.52,-14.17 24.19,-24.55 -10.81,3.56 -20.52,5.43 -29.81,5.72 -9.29,0.31 -18.17,-0.89 -27.18,-2.51 -9.02,-1.65 -18.12,-4.01 -27.57,-6.19 -9.42,-2.31 -19.1,-4.69 -29.46,-5.85 l -0.15,-0.02 c -7.67,-0.86 -14.58,4.66 -15.44,12.32 -0.63,5.61 2.17,10.81 6.71,13.55" />
      <path
         id="path452"
         style="fill:#212122;fill-opacity:1;fill-rule:nonzero;stroke:none"
         d="m 2498.2,1840 c -10.36,1.16 -20.04,3.54 -29.46,5.85 -9.45,2.18 -18.55,4.54 -27.57,6.19 -9.01,1.62 -17.89,2.82 -27.18,2.51 -9.29,-0.29 -19,-2.16 -29.8,-5.72 4.66,10.38 13.49,19.01 24.18,24.55 10.68,5.61 22.86,8.31 34.58,8.69 11.75,0.4 23.18,-1.12 33.9,-3.97 10.75,-2.78 20.91,-6.69 30.23,-12.25 6.62,-3.97 8.78,-12.54 4.82,-19.16 -2.9,-4.85 -8.27,-7.3 -13.53,-6.72 l -0.17,0.03" />
      <path
         id="path454"
         style="fill:#212122;fill-opacity:1;fill-rule:nonzero;stroke:none"
         d="m 2599.49,1780.3 c 2.88,4.46 5.93,8.75 8.98,13.11 3.46,4.36 7.18,8.69 11.71,12.12 8.9,7.07 19.9,11.52 31.26,13.21 11.38,1.43 23.31,0.21 33.85,-4.51 5.37,-2.07 10.19,-5.37 14.74,-8.68 4.18,-3.22 8.39,-6.38 11.13,-11.62 0.63,-1.2 0.17,-2.67 -1.03,-3.31 -0.48,-0.24 -1,-0.32 -1.49,-0.25 -5.85,0.86 -10.24,3.78 -14.65,6.66 -4.21,2.5 -8.46,4.72 -13.01,6.28 -9,3.26 -18.63,4.44 -28.17,3.66 -9.46,-1.02 -18.99,-3.8 -27.12,-9.2 -4.27,-2.4 -7.95,-5.71 -11.54,-9.14 -3.75,-3.7 -7.43,-7.51 -11.31,-11.13 -0.89,-0.82 -2.28,-0.78 -3.11,0.1 -0.7,0.76 -0.77,1.87 -0.24,2.7" />
      <path
         id="path456"
         style="fill:#212122;fill-opacity:1;fill-rule:nonzero;stroke:none"
         d="m 2635.94,1796.33 c 0.73,10.15 9.54,17.78 19.69,17.05 10.14,-0.74 17.77,-9.55 17.04,-19.69 -0.74,-10.15 -9.55,-17.78 -19.69,-17.04 -10.14,0.73 -17.77,9.54 -17.04,19.68" />
      <path
         id="path458"
         style="fill:none;stroke:#212122;stroke-width:5.00624;stroke-linecap:round;stroke-linejoin:round;stroke-miterlimit:10;stroke-dasharray:none;stroke-opacity:1"
         d="m 2603.29,1778.71 c 8.92,-4.73 19.26,-7.01 29.97,-6.63" />
      <path
         id="path460"
         style="fill:none;stroke:#212122;stroke-width:5.00624;stroke-linecap:round;stroke-linejoin:round;stroke-miterlimit:10;stroke-dasharray:none;stroke-opacity:1"
         d="m 2600.68,1800.93 c 10.2,14.12 26.32,23.79 43.56,26.17" />
      <path
         id="path462"
         style="fill:#212122;fill-opacity:1;fill-rule:nonzero;stroke:none"
         d="m 2499.07,1777.5 c -3.88,3.62 -7.56,7.43 -11.31,11.13 -3.59,3.43 -7.27,6.74 -11.54,9.14 -8.13,5.4 -17.66,8.18 -27.12,9.2 -9.54,0.78 -19.16,-0.4 -28.17,-3.66 -4.55,-1.56 -8.8,-3.78 -13,-6.28 -4.42,-2.88 -8.81,-5.8 -14.66,-6.66 -1.34,-0.2 -2.58,0.73 -2.78,2.07 -0.07,0.53 0.02,1.04 0.26,1.49 2.74,5.24 6.96,8.4 11.13,11.62 4.55,3.31 9.37,6.61 14.74,8.68 10.54,4.72 22.47,5.94 33.85,4.51 11.36,-1.69 22.36,-6.14 31.26,-13.21 4.53,-3.43 8.26,-7.76 11.71,-12.12 3.05,-4.36 6.1,-8.65 8.98,-13.11 0.66,-1.02 0.36,-2.38 -0.65,-3.04 -0.87,-0.55 -1.98,-0.43 -2.7,0.24" />
      <path
         id="path464"
         style="fill:#212122;fill-opacity:1;fill-rule:nonzero;stroke:none"
         d="m 2465.97,1796.33 c -0.73,10.15 -9.54,17.78 -19.68,17.05 -10.15,-0.74 -17.78,-9.55 -17.05,-19.69 0.74,-10.15 9.55,-17.78 19.69,-17.04 10.14,0.73 17.78,9.54 17.04,19.68" />
      <path
         id="path466"
         style="fill:none;stroke:#212122;stroke-width:5.00624;stroke-linecap:round;stroke-linejoin:round;stroke-miterlimit:10;stroke-dasharray:none;stroke-opacity:1"
         d="m 2498.62,1778.71 c -8.92,-4.73 -19.26,-7.01 -29.97,-6.63" />
      <path
         id="path468"
         style="fill:none;stroke:#212122;stroke-width:5.00624;stroke-linecap:round;stroke-linejoin:round;stroke-miterlimit:10;stroke-dasharray:none;stroke-opacity:1"
         d="m 2501.23,1800.93 c -10.2,14.12 -26.32,23.79 -43.56,26.17" />
      <path
         id="path470"
         style="fill:none;stroke:#212122;stroke-width:5.26896;stroke-linecap:round;stroke-linejoin:round;stroke-miterlimit:10;stroke-dasharray:none;stroke-opacity:1"
         d="m 2536.55,1639.32 c 3.82,-3.68 9.1,-5.81 14.41,-5.81 5.31,0 10.58,2.14 14.4,5.82 5.97,5.77 16.75,2.24 24.97,1.05 8.22,-1.19 16.63,-2.85 24.74,-1.1" />
      <path
         id="path472"
         style="fill:none;stroke:#212122;stroke-width:5.26896;stroke-linecap:round;stroke-linejoin:round;stroke-miterlimit:10;stroke-dasharray:none;stroke-opacity:1"
         d="m 2536.55,1639.33 c -5.97,5.77 -16.75,2.24 -24.97,1.05 -8.22,-1.19 -16.63,-2.85 -24.74,-1.1" />
      <path
         id="path474"
         style="fill:none;stroke:#212122;stroke-width:5.26896;stroke-linecap:round;stroke-linejoin:round;stroke-miterlimit:10;stroke-dasharray:none;stroke-opacity:1"
         d="m 2512.88,1615.87 c 21.1,-7.34 44.36,-8.31 66,-2.78" />
      <path
         id="path476"
         style="fill:none;stroke:#212122;stroke-width:4.62182;stroke-linecap:round;stroke-linejoin:round;stroke-miterlimit:10;stroke-dasharray:none;stroke-opacity:1"
         d="m 2520.22,1696.24 15.37,-6.48 v 0 c 9.85,-4.14 20.89,-4.14 30.73,0 v 0 l 15.37,6.48" />
      <path
         id="path478"
         style="fill:#212122;fill-opacity:1;fill-rule:nonzero;stroke:none"
         d="m 2976.96,647.16 -45.99,111.711 -36.81,89.52 -31.04,75.5 -68.2,165.729 c -35.91,87.18 -0.61,183.78 76.83,210.3 13.52,4.63 27.37,6.72 41.09,6.62 1.27,-0.01 2.54,-0.02 3.81,-0.15 60.05,-2.16 118.06,-46.74 141.31,-114.82 l 55.2,-161.36 24.72,-72.351 106.78,-312.66" />
      <path
         id="path480"
         style="fill:#212122;fill-opacity:1;fill-rule:nonzero;stroke:none"
         d="m 2124.95,647.16 45.99,111.711 36.81,89.52 31.04,75.5 68.2,165.729 c 35.91,87.18 0.61,183.78 -76.83,210.3 -13.52,4.63 -27.37,6.72 -41.09,6.62 -1.27,-0.01 -2.54,-0.02 -3.81,-0.15 -60.05,-2.16 -118.06,-46.74 -141.31,-114.82 l -55.2,-161.36 -24.72,-72.351 -106.78,-312.66" />
      <path
         id="path482"
         style="fill:#212122;fill-opacity:1;fill-rule:nonzero;stroke:none"
         d="m 2932.46,642.25 h -763.01 l 3.95,111.82 2.79,80.672 3.53,99.09 11.34,319.928 1.71,47.61 24.61,8.88 143.06,51.68 27.61,9.95 13.69,5.03 35.74,19.23 h 10.81 206.51 4.28 l 40.13,-18.48 13.58,-4.92 27.61,-9.95 147.23,-53.18 22.68,-8.24 1.61,-47.72 6.1,-180.19 4.6,-137.71 3.32,-99.621 v -0.527 l 2.99,-89.993 3.53,-103.359" />
      <path
         id="path484"
         style="fill:none;stroke:#f4f1fa;stroke-width:10.7;stroke-linecap:butt;stroke-linejoin:miter;stroke-miterlimit:10;stroke-dasharray:none;stroke-opacity:1"
         d="m 2469.59,1271.04 c -27.8,-42.58 -25.73,-98.34 -12.76,-147.5 12.97,-49.17 35.63,-95.51 46.54,-145.161 10.92,-49.66 8.12,-106.258 -24.75,-145.047" />
      <path
         id="path486"
         style="fill:none;stroke:#f4f1fa;stroke-width:9.85985;stroke-linecap:butt;stroke-linejoin:miter;stroke-miterlimit:10;stroke-dasharray:none;stroke-opacity:1"
         d="m 2632.75,1271.48 c 27.8,-36.15 25.72,-83.49 12.75,-125.24 -12.96,-41.75 -35.63,-81.1 -46.54,-123.26 -10.92,-42.171 -8.12,-90.23 24.75,-123.179" />
    </g>
  </g>
</svg>
