<?xml version="1.0" encoding="UTF-8" standalone="no"?>
<!-- Created with Inkscape (http://www.inkscape.org/) -->

<svg
   width="44.731636mm"
   height="54.766991mm"
   viewBox="0 0 44.731636 54.766991"
   version="1.1"
   id="svg8269"
   xmlns="http://www.w3.org/2000/svg"
   xmlnssvg="http://www.w3.org/2000/svg">
  <defs
     id="defs8266">
    <clipPath
       clipPathUnits="userSpaceOnUse"
       id="clipPath6149">
      <g
         id="g6153">
        <path
           id="path6151"
           d="m 1371.03,987.461 c -1.48,4.019 -2.92,8.07 -4.67,11.969 l -0.02,-0.098 c -0.03,0.066 -0.05,0.148 -0.08,0.219 l 11.58,55.409 -11.54,-55.358 c 0.02,-0.063 0.04,-0.122 0.06,-0.172 l 19.42,93.45 6.08,29.07 c 11.1,47.29 12.1,93.6 -2.01,128.1 -10.99,27.3 -31.49,47.2 -63.69,54.19 -8.41,1.81 -17.6,2.81 -27.6,2.81 H 761.156 c -10.101,0 -19.5,-1 -28.097,-2.81 -34.004,-7.29 -57.403,-27.9 -70.907,-56.29 -16.394,-34.2 -18.496,-79.6 -7.593,-126 l 25.398,-125.899 c -2.019,-4.903 -3.777,-9.942 -5.398,-15.039 -0.594,-1.84 -1.094,-3.731 -1.629,-5.602 -0.551,-1.93 -1.18,-3.808 -1.672,-5.762 -0.473,-1.867 -0.832,-3.769 -1.242,-5.668 -0.27,-1.218 -0.567,-2.429 -0.805,-3.671 -1.02,-5.18 -1.805,-10.43 -2.391,-15.75 -0.093,-0.868 -0.168,-1.758 -0.254,-2.637 -0.539,-5.692 -0.91,-11.442 -0.91,-17.274 0,-6.16 0.387,-12.199 0.981,-18.187 0.043,-0.43 0.078,-0.871 0.121,-1.301 0.625,-5.859 1.527,-11.621 2.687,-17.281 0.102,-0.5 0.219,-1 0.321,-1.5 0.425,-1.981 0.804,-3.969 1.289,-5.93 0.804,-3.269 1.808,-6.437 2.789,-9.629 0.183,-0.601 0.332,-1.199 0.523,-1.8 1.774,-5.551 3.789,-10.989 6.071,-16.29 0.195,-0.46 0.425,-0.898 0.628,-1.359 1.997,-4.539 4.188,-8.98 6.539,-13.332 0.704,-1.297 1.434,-2.59 2.172,-3.879 0.871,-1.531 1.664,-3.109 2.578,-4.609 1.59,-2.602 3.29,-5.129 5,-7.653 0.262,-0.386 0.504,-0.789 0.766,-1.168 3.027,-4.378 6.266,-8.582 9.645,-12.671 0.742,-0.899 1.492,-1.77 2.25,-2.649 3.109,-3.621 6.324,-7.129 9.699,-10.469 0.39,-0.39 0.73,-0.832 1.125,-1.222 l -0.008,0.062 c 0.004,-0.011 0.016,-0.019 0.023,-0.031 l 30.102,-149 h 541.703 l 30.09,144.898 c 0.01,0.012 0.02,0.012 0.03,0.024 l -0.01,-0.031 c 0.83,0.75 1.55,1.609 2.36,2.379 3.38,3.191 6.67,6.472 9.79,9.91 1.51,1.672 2.88,3.449 4.33,5.179 2.25,2.661 4.48,5.34 6.57,8.141 1.66,2.211 3.19,4.512 4.75,6.801 1.67,2.449 3.3,4.91 4.85,7.449 1.54,2.5 2.99,5.051 4.41,7.641 0.65,1.191 1.4,2.308 2.03,3.507 0.6,1.153 1.04,2.403 1.62,3.571 1.71,3.472 3.31,7 4.8,10.582 1.02,2.449 1.99,4.91 2.9,7.41 1.44,3.969 2.72,7.988 3.89,12.07 0.32,1.149 0.79,2.219 1.09,3.371 0.39,1.45 0.68,2.938 1.04,4.418 0.44,1.809 0.92,3.621 1.3,5.469 1.08,5.121 1.91,10.34 2.54,15.609 0.16,1.403 0.28,2.813 0.41,4.223 0.5,5.328 0.84,10.711 0.87,16.16 0,0.379 0.06,0.75 0.06,1.141 0,13.469 -1.49,26.578 -4.26,39.219 -0.03,0.121 -0.04,0.238 -0.06,0.351 -0.94,4.297 -2.24,8.438 -3.49,12.61 -0.52,1.73 -0.88,3.527 -1.45,5.238 -0.61,1.832 -1.42,3.558 -2.09,5.371 z" />
      </g>
    </clipPath>
    <clipPath
       clipPathUnits="userSpaceOnUse"
       id="clipPath6143">
      <g
         id="g6147">
        <path
           id="path6145"
           d="m 1371.03,987.461 c -1.48,4.019 -2.92,8.07 -4.67,11.969 l -0.02,-0.098 c -0.03,0.066 -0.05,0.148 -0.08,0.219 l 11.58,55.409 -11.54,-55.358 c 0.02,-0.063 0.04,-0.122 0.06,-0.172 l 19.42,93.45 6.08,29.07 c 11.1,47.29 12.1,93.6 -2.01,128.1 -10.99,27.3 -31.49,47.2 -63.69,54.19 -8.41,1.81 -17.6,2.81 -27.6,2.81 H 761.156 c -10.101,0 -19.5,-1 -28.097,-2.81 -34.004,-7.29 -57.403,-27.9 -70.907,-56.29 -16.394,-34.2 -18.496,-79.6 -7.593,-126 l 25.398,-125.899 c -2.019,-4.903 -3.777,-9.942 -5.398,-15.039 -0.594,-1.84 -1.094,-3.731 -1.629,-5.602 -0.551,-1.93 -1.18,-3.808 -1.672,-5.762 -0.473,-1.867 -0.832,-3.769 -1.242,-5.668 -0.27,-1.218 -0.567,-2.429 -0.805,-3.671 -1.02,-5.18 -1.805,-10.43 -2.391,-15.75 -0.093,-0.868 -0.168,-1.758 -0.254,-2.637 -0.539,-5.692 -0.91,-11.442 -0.91,-17.274 0,-6.16 0.387,-12.199 0.981,-18.187 0.043,-0.43 0.078,-0.871 0.121,-1.301 0.625,-5.859 1.527,-11.621 2.687,-17.281 0.102,-0.5 0.219,-1 0.321,-1.5 0.425,-1.981 0.804,-3.969 1.289,-5.93 0.804,-3.269 1.808,-6.437 2.789,-9.629 0.183,-0.601 0.332,-1.199 0.523,-1.8 1.774,-5.551 3.789,-10.989 6.071,-16.29 0.195,-0.46 0.425,-0.898 0.628,-1.359 1.997,-4.539 4.188,-8.98 6.539,-13.332 0.704,-1.297 1.434,-2.59 2.172,-3.879 0.871,-1.531 1.664,-3.109 2.578,-4.609 1.59,-2.602 3.29,-5.129 5,-7.653 0.262,-0.386 0.504,-0.789 0.766,-1.168 3.027,-4.378 6.266,-8.582 9.645,-12.671 0.742,-0.899 1.492,-1.77 2.25,-2.649 3.109,-3.621 6.324,-7.129 9.699,-10.469 0.39,-0.39 0.73,-0.832 1.125,-1.222 l -0.008,0.062 c 0.004,-0.011 0.016,-0.019 0.023,-0.031 l 30.102,-149 h 541.703 l 30.09,144.898 c 0.01,0.012 0.02,0.012 0.03,0.024 l -0.01,-0.031 c 0.83,0.75 1.55,1.609 2.36,2.379 3.38,3.191 6.67,6.472 9.79,9.91 1.51,1.672 2.88,3.449 4.33,5.179 2.25,2.661 4.48,5.34 6.57,8.141 1.66,2.211 3.19,4.512 4.75,6.801 1.67,2.449 3.3,4.91 4.85,7.449 1.54,2.5 2.99,5.051 4.41,7.641 0.65,1.191 1.4,2.308 2.03,3.507 0.6,1.153 1.04,2.403 1.62,3.571 1.71,3.472 3.31,7 4.8,10.582 1.02,2.449 1.99,4.91 2.9,7.41 1.44,3.969 2.72,7.988 3.89,12.07 0.32,1.149 0.79,2.219 1.09,3.371 0.39,1.45 0.68,2.938 1.04,4.418 0.44,1.809 0.92,3.621 1.3,5.469 1.08,5.121 1.91,10.34 2.54,15.609 0.16,1.403 0.28,2.813 0.41,4.223 0.5,5.328 0.84,10.711 0.87,16.16 0,0.379 0.06,0.75 0.06,1.141 0,13.469 -1.49,26.578 -4.26,39.219 -0.03,0.121 -0.04,0.238 -0.06,0.351 -0.94,4.297 -2.24,8.438 -3.49,12.61 -0.52,1.73 -0.88,3.527 -1.45,5.238 -0.61,1.832 -1.42,3.558 -2.09,5.371 z" />
      </g>
    </clipPath>
    <clipPath
       clipPathUnits="userSpaceOnUse"
       id="clipPath6137">
      <g
         id="g6141">
        <path
           id="path6139"
           d="m 1371.03,987.461 c -1.48,4.019 -2.92,8.07 -4.67,11.969 l -0.02,-0.098 c -0.03,0.066 -0.05,0.148 -0.08,0.219 l 11.58,55.409 -11.54,-55.358 c 0.02,-0.063 0.04,-0.122 0.06,-0.172 l 19.42,93.45 6.08,29.07 c 11.1,47.29 12.1,93.6 -2.01,128.1 -10.99,27.3 -31.49,47.2 -63.69,54.19 -8.41,1.81 -17.6,2.81 -27.6,2.81 H 761.156 c -10.101,0 -19.5,-1 -28.097,-2.81 -34.004,-7.29 -57.403,-27.9 -70.907,-56.29 -16.394,-34.2 -18.496,-79.6 -7.593,-126 l 25.398,-125.899 c -2.019,-4.903 -3.777,-9.942 -5.398,-15.039 -0.594,-1.84 -1.094,-3.731 -1.629,-5.602 -0.551,-1.93 -1.18,-3.808 -1.672,-5.762 -0.473,-1.867 -0.832,-3.769 -1.242,-5.668 -0.27,-1.218 -0.567,-2.429 -0.805,-3.671 -1.02,-5.18 -1.805,-10.43 -2.391,-15.75 -0.093,-0.868 -0.168,-1.758 -0.254,-2.637 -0.539,-5.692 -0.91,-11.442 -0.91,-17.274 0,-6.16 0.387,-12.199 0.981,-18.187 0.043,-0.43 0.078,-0.871 0.121,-1.301 0.625,-5.859 1.527,-11.621 2.687,-17.281 0.102,-0.5 0.219,-1 0.321,-1.5 0.425,-1.981 0.804,-3.969 1.289,-5.93 0.804,-3.269 1.808,-6.437 2.789,-9.629 0.183,-0.601 0.332,-1.199 0.523,-1.8 1.774,-5.551 3.789,-10.989 6.071,-16.29 0.195,-0.46 0.425,-0.898 0.628,-1.359 1.997,-4.539 4.188,-8.98 6.539,-13.332 0.704,-1.297 1.434,-2.59 2.172,-3.879 0.871,-1.531 1.664,-3.109 2.578,-4.609 1.59,-2.602 3.29,-5.129 5,-7.653 0.262,-0.386 0.504,-0.789 0.766,-1.168 3.027,-4.378 6.266,-8.582 9.645,-12.671 0.742,-0.899 1.492,-1.77 2.25,-2.649 3.109,-3.621 6.324,-7.129 9.699,-10.469 0.39,-0.39 0.73,-0.832 1.125,-1.222 l -0.008,0.062 c 0.004,-0.011 0.016,-0.019 0.023,-0.031 l 30.102,-149 h 541.703 l 30.09,144.898 c 0.01,0.012 0.02,0.012 0.03,0.024 l -0.01,-0.031 c 0.83,0.75 1.55,1.609 2.36,2.379 3.38,3.191 6.67,6.472 9.79,9.91 1.51,1.672 2.88,3.449 4.33,5.179 2.25,2.661 4.48,5.34 6.57,8.141 1.66,2.211 3.19,4.512 4.75,6.801 1.67,2.449 3.3,4.91 4.85,7.449 1.54,2.5 2.99,5.051 4.41,7.641 0.65,1.191 1.4,2.308 2.03,3.507 0.6,1.153 1.04,2.403 1.62,3.571 1.71,3.472 3.31,7 4.8,10.582 1.02,2.449 1.99,4.91 2.9,7.41 1.44,3.969 2.72,7.988 3.89,12.07 0.32,1.149 0.79,2.219 1.09,3.371 0.39,1.45 0.68,2.938 1.04,4.418 0.44,1.809 0.92,3.621 1.3,5.469 1.08,5.121 1.91,10.34 2.54,15.609 0.16,1.403 0.28,2.813 0.41,4.223 0.5,5.328 0.84,10.711 0.87,16.16 0,0.379 0.06,0.75 0.06,1.141 0,13.469 -1.49,26.578 -4.26,39.219 -0.03,0.121 -0.04,0.238 -0.06,0.351 -0.94,4.297 -2.24,8.438 -3.49,12.61 -0.52,1.73 -0.88,3.527 -1.45,5.238 -0.61,1.832 -1.42,3.558 -2.09,5.371 z" />
      </g>
    </clipPath>
    <clipPath
       clipPathUnits="userSpaceOnUse"
       id="clipPath6131">
      <g
         id="g6135">
        <path
           id="path6133"
           d="m 1371.03,987.461 c -1.48,4.019 -2.92,8.07 -4.67,11.969 l -0.02,-0.098 c -0.03,0.066 -0.05,0.148 -0.08,0.219 l 11.58,55.409 -11.54,-55.358 c 0.02,-0.063 0.04,-0.122 0.06,-0.172 l 19.42,93.45 6.08,29.07 c 11.1,47.29 12.1,93.6 -2.01,128.1 -10.99,27.3 -31.49,47.2 -63.69,54.19 -8.41,1.81 -17.6,2.81 -27.6,2.81 H 761.156 c -10.101,0 -19.5,-1 -28.097,-2.81 -34.004,-7.29 -57.403,-27.9 -70.907,-56.29 -16.394,-34.2 -18.496,-79.6 -7.593,-126 l 25.398,-125.899 c -2.019,-4.903 -3.777,-9.942 -5.398,-15.039 -0.594,-1.84 -1.094,-3.731 -1.629,-5.602 -0.551,-1.93 -1.18,-3.808 -1.672,-5.762 -0.473,-1.867 -0.832,-3.769 -1.242,-5.668 -0.27,-1.218 -0.567,-2.429 -0.805,-3.671 -1.02,-5.18 -1.805,-10.43 -2.391,-15.75 -0.093,-0.868 -0.168,-1.758 -0.254,-2.637 -0.539,-5.692 -0.91,-11.442 -0.91,-17.274 0,-6.16 0.387,-12.199 0.981,-18.187 0.043,-0.43 0.078,-0.871 0.121,-1.301 0.625,-5.859 1.527,-11.621 2.687,-17.281 0.102,-0.5 0.219,-1 0.321,-1.5 0.425,-1.981 0.804,-3.969 1.289,-5.93 0.804,-3.269 1.808,-6.437 2.789,-9.629 0.183,-0.601 0.332,-1.199 0.523,-1.8 1.774,-5.551 3.789,-10.989 6.071,-16.29 0.195,-0.46 0.425,-0.898 0.628,-1.359 1.997,-4.539 4.188,-8.98 6.539,-13.332 0.704,-1.297 1.434,-2.59 2.172,-3.879 0.871,-1.531 1.664,-3.109 2.578,-4.609 1.59,-2.602 3.29,-5.129 5,-7.653 0.262,-0.386 0.504,-0.789 0.766,-1.168 3.027,-4.378 6.266,-8.582 9.645,-12.671 0.742,-0.899 1.492,-1.77 2.25,-2.649 3.109,-3.621 6.324,-7.129 9.699,-10.469 0.39,-0.39 0.73,-0.832 1.125,-1.222 l -0.008,0.062 c 0.004,-0.011 0.016,-0.019 0.023,-0.031 l 30.102,-149 h 541.703 l 30.09,144.898 c 0.01,0.012 0.02,0.012 0.03,0.024 l -0.01,-0.031 c 0.83,0.75 1.55,1.609 2.36,2.379 3.38,3.191 6.67,6.472 9.79,9.91 1.51,1.672 2.88,3.449 4.33,5.179 2.25,2.661 4.48,5.34 6.57,8.141 1.66,2.211 3.19,4.512 4.75,6.801 1.67,2.449 3.3,4.91 4.85,7.449 1.54,2.5 2.99,5.051 4.41,7.641 0.65,1.191 1.4,2.308 2.03,3.507 0.6,1.153 1.04,2.403 1.62,3.571 1.71,3.472 3.31,7 4.8,10.582 1.02,2.449 1.99,4.91 2.9,7.41 1.44,3.969 2.72,7.988 3.89,12.07 0.32,1.149 0.79,2.219 1.09,3.371 0.39,1.45 0.68,2.938 1.04,4.418 0.44,1.809 0.92,3.621 1.3,5.469 1.08,5.121 1.91,10.34 2.54,15.609 0.16,1.403 0.28,2.813 0.41,4.223 0.5,5.328 0.84,10.711 0.87,16.16 0,0.379 0.06,0.75 0.06,1.141 0,13.469 -1.49,26.578 -4.26,39.219 -0.03,0.121 -0.04,0.238 -0.06,0.351 -0.94,4.297 -2.24,8.438 -3.49,12.61 -0.52,1.73 -0.88,3.527 -1.45,5.238 -0.61,1.832 -1.42,3.558 -2.09,5.371 z" />
      </g>
    </clipPath>
  </defs>
  <g
     id="layer1"
     transform="translate(149.47175,-78.328366)">
    <g
       id="g6216"
       transform="matrix(0.03527778,0,0,-0.03527778,-163.23216,155.75251)">
      <path
         id="path300"
         style="fill:#3c58b0;fill-opacity:1;fill-rule:nonzero;stroke:none"
         d="m 417.879,1588.52 c 0,334.79 271.391,606.18 606.171,606.18 334.78,0 606.18,-271.39 606.18,-606.18 0,-334.77 -271.4,-606.168 -606.18,-606.168 -334.78,0 -606.171,271.398 -606.171,606.168" />
      <path
         id="path302"
         style="fill:#212122;fill-opacity:1;fill-rule:nonzero;stroke:none"
         d="m 796.184,1921.81 c 49.879,104.5 151.781,137.17 243.456,131.94 74.54,-4.26 155.01,-33.27 200.33,-115.21 17.63,-31.87 20.33,-123.56 17.83,-216.08 -3.57,-132.24 -102.48,-237.8 -224.61,-240.72 v 0 c -115.436,-2.75 -215.018,87.45 -233.522,210.95 -14.004,93.52 -21.957,190.44 -3.484,229.12" />
      <path
         id="path304"
         style="fill:#f4f1fa;fill-opacity:1;fill-rule:nonzero;stroke:none"
         d="m 1134.19,1263.9 c 2.2,-66.09 -49.7,-120.99 -114.4,-120.99 -63.395,0 -114.399,52.59 -114.399,117.1 0,1.3 0,2.69 0.097,3.89 l 12.703,174.71 1.602,22.5 2.801,38.1 5.195,70.49 h 184.001 l 8.2,-112.59 1.9,-24.6 6.1,-84.3 6.2,-84.31" />
      <path
         id="path306"
         style="fill:none;stroke:#212122;stroke-width:5;stroke-linecap:butt;stroke-linejoin:miter;stroke-miterlimit:10;stroke-dasharray:none;stroke-opacity:1"
         d="m 1134.19,1263.9 c 2.2,-66.09 -49.7,-120.99 -114.4,-120.99 -63.395,0 -114.399,52.59 -114.399,117.1 0,1.3 0,2.69 0.097,3.89 l 12.703,174.71 1.602,22.5 2.801,38.1 5.195,70.49 h 184.001 l 8.2,-112.59 1.9,-24.6 6.1,-84.3 z" />
      <path
         id="path308"
         style="fill:#212122;fill-opacity:1;fill-rule:nonzero;stroke:none"
         d="m 1127.99,1348.21 c -58,-7.1 -123.4,20.8 -167.701,77.39 -17.996,22.9 -30.496,48.11 -37.695,73.61 l 5.195,70.49 h 184.001 l 8.2,-112.59 1.9,-24.6 6.1,-84.3" />
      <path
         id="path310"
         style="fill:#f4f1fa;fill-opacity:1;fill-rule:nonzero;stroke:none"
         d="m 1180.09,1744.84 c -23.12,-37.13 -20.88,-81.11 4.99,-98.23 25.87,-17.13 65.59,-0.92 88.71,36.21 23.11,37.13 20.88,81.11 -4.99,98.23 -25.88,17.13 -65.59,0.92 -88.71,-36.21" />
      <path
         id="path312"
         style="fill:none;stroke:#212122;stroke-width:5;stroke-linecap:butt;stroke-linejoin:miter;stroke-miterlimit:10;stroke-dasharray:none;stroke-opacity:1"
         d="m 1180.09,1744.84 c -23.12,-37.13 -20.88,-81.11 4.99,-98.23 25.87,-17.13 65.59,-0.92 88.71,36.21 23.11,37.13 20.88,81.11 -4.99,98.23 -25.88,17.13 -65.59,0.92 -88.71,-36.21 z" />
      <path
         id="path314"
         style="fill:none;stroke:#212122;stroke-width:5;stroke-linecap:round;stroke-linejoin:round;stroke-miterlimit:10;stroke-dasharray:none;stroke-opacity:1"
         d="m 1249.33,1763.24 c 11.21,-4.39 19.72,-15.02 21.54,-26.91 1.81,-11.9 -3.14,-24.59 -12.53,-32.11" />
      <path
         id="path316"
         style="fill:#f4f1fa;fill-opacity:1;fill-rule:nonzero;stroke:none"
         d="m 868.016,1744.84 c 23.117,-37.13 20.882,-81.11 -4.993,-98.23 -25.875,-17.13 -65.585,-0.92 -88.707,36.21 -23.113,37.13 -20.882,81.11 4.993,98.23 25.875,17.13 65.589,0.92 88.707,-36.21" />
      <path
         id="path318"
         style="fill:none;stroke:#212122;stroke-width:5;stroke-linecap:butt;stroke-linejoin:miter;stroke-miterlimit:10;stroke-dasharray:none;stroke-opacity:1"
         d="m 868.016,1744.84 c 23.117,-37.13 20.882,-81.11 -4.993,-98.23 -25.875,-17.13 -65.585,-0.92 -88.707,36.21 -23.113,37.13 -20.882,81.11 4.993,98.23 25.875,17.13 65.589,0.92 88.707,-36.21 z" />
      <path
         id="path320"
         style="fill:none;stroke:#212122;stroke-width:5;stroke-linecap:round;stroke-linejoin:round;stroke-miterlimit:10;stroke-dasharray:none;stroke-opacity:1"
         d="m 798.773,1763.24 c -11.203,-4.39 -19.718,-15.02 -21.535,-26.91 -1.816,-11.9 3.141,-24.59 12.528,-32.11" />
      <path
         id="path322"
         style="fill:#f4f1fa;fill-opacity:1;fill-rule:nonzero;stroke:none"
         d="m 1239.81,1796.2 c 0,-3.53 0,-6.94 -0.24,-10.17 -0.36,-10.04 -1.19,-20.08 -2.48,-29.88 l -1.36,-14.06 -0.65,-7.61 -1,-11.02 c -0.59,-6.7 -1.01,-13.27 -1.42,-19.84 -0.23,-4.2 -0.47,-8.34 -0.71,-12.48 -0.94,-16.68 -1.83,-33.12 -4.07,-49.55 0,-0.25 -0.12,-0.55 -0.12,-0.79 -0.47,-3.11 -0.94,-6.27 -1.53,-9.38 -0.59,-3.41 -1.18,-6.76 -2.07,-10.04 -1.06,-4.93 -2.36,-9.92 -3.9,-14.98 -0.47,-1.82 -1.06,-3.52 -1.71,-5.35 -1.18,-3.65 -2.6,-7.3 -4.01,-11.08 -3.96,-9.61 -8.62,-19.06 -13.99,-28.43 -22.38,-39.07 -56.62,-74.8 -90.98,-98.55 -0.12,-0.24 -0.36,-0.37 -0.47,-0.37 -4.2,-2.97 -8.39,-5.71 -12.52,-8.21 -41.86,-25.57 -91.39,-26.96 -134.783,-4.93 -8.969,4.57 -17.649,9.74 -26.035,15.89 -0.117,0 -0.235,0 -0.352,0.24 -33.234,23.74 -61.754,58.14 -83.242,95.93 -1.531,2.63 -2.953,5.24 -4.43,7.98 -0.707,1.39 -1.414,2.86 -2.121,4.26 -1.183,2.37 -2.363,4.87 -3.605,7.3 -3.422,6.51 -6.434,13.33 -9.149,19.97 -0.711,1.83 -1.535,3.65 -2.187,5.6 -10.094,26.6 -13.692,56.31 -16.055,85.52 -0.418,4.57 -0.766,9.19 -1.125,13.76 -0.41,5.11 -0.824,10.23 -1.18,15.28 l -1.175,13.7 c -0.301,1.51 -0.536,2.98 -0.774,4.44 -0.351,1.64 -0.59,3.28 -0.765,4.93 -1.067,6.27 -1.887,12.54 -2.539,19.06 -1.059,10.52 -1.653,21.6 -1.653,32.86 0,0.92 0,1.95 0.117,2.86 0,7.06 0.293,14 0.828,20.88 0.473,5.85 1.18,11.63 2.071,17.29 4.953,34.7 16.054,66.96 32.113,95.27 4.012,7.12 8.32,13.93 12.93,20.5 15.469,22.1 34.301,41.16 55.433,56.01 1.536,1.21 3.071,2.25 4.606,3.28 1.89,1.28 3.777,2.62 5.726,3.78 7.438,4.69 15.172,8.89 23.082,12.48 33.579,15.25 73.544,22.23 110.104,15.28 1.77,-0.25 3.6,-0.67 5.37,-0.91 15.06,-2.86 29.46,-7.43 43.22,-13.7 10.63,-4.63 20.9,-10.36 30.64,-16.93 0.47,-0.3 1,-0.66 1.48,-1.03 6.14,-4.14 12.1,-8.59 17.82,-13.45 21.49,-18.09 39.92,-40.61 54.37,-66.53 0.95,-1.47 1.72,-2.99 2.66,-4.63 14.05,-26.72 24.09,-56.67 28.75,-88.75 0,-0.25 0.12,-0.42 0.12,-0.67 0.83,-5.66 1.48,-11.44 1.95,-17.29 0.59,-6.88 0.89,-13.82 0.89,-20.88 0.12,-0.91 0.12,-1.94 0.12,-2.86" />
      <path
         id="path324"
         style="fill:none;stroke:#212122;stroke-width:5;stroke-linecap:butt;stroke-linejoin:miter;stroke-miterlimit:10;stroke-dasharray:none;stroke-opacity:1"
         d="m 1239.81,1796.2 c 0,-3.53 0,-6.94 -0.24,-10.17 -0.36,-10.04 -1.19,-20.08 -2.48,-29.88 l -1.36,-14.06 -0.65,-7.61 -1,-11.02 c -0.59,-6.7 -1.01,-13.27 -1.42,-19.84 -0.23,-4.2 -0.47,-8.34 -0.71,-12.48 -0.94,-16.68 -1.83,-33.12 -4.07,-49.55 0,-0.25 -0.12,-0.55 -0.12,-0.79 -0.47,-3.11 -0.94,-6.27 -1.53,-9.38 -0.59,-3.41 -1.18,-6.76 -2.07,-10.04 -1.06,-4.93 -2.36,-9.92 -3.9,-14.98 -0.47,-1.82 -1.06,-3.52 -1.71,-5.35 -1.18,-3.65 -2.6,-7.3 -4.01,-11.08 -3.96,-9.61 -8.62,-19.06 -13.99,-28.43 -22.38,-39.07 -56.62,-74.8 -90.98,-98.55 -0.12,-0.24 -0.36,-0.37 -0.47,-0.37 -4.2,-2.97 -8.39,-5.71 -12.52,-8.21 -41.86,-25.57 -91.39,-26.96 -134.783,-4.93 -8.969,4.57 -17.649,9.74 -26.035,15.89 -0.117,0 -0.235,0 -0.352,0.24 -33.234,23.74 -61.754,58.14 -83.242,95.93 -1.531,2.63 -2.953,5.24 -4.43,7.98 -0.707,1.39 -1.414,2.86 -2.121,4.26 -1.183,2.37 -2.363,4.87 -3.605,7.3 -3.422,6.51 -6.434,13.33 -9.149,19.97 -0.711,1.83 -1.535,3.65 -2.187,5.6 -10.094,26.6 -13.692,56.31 -16.055,85.52 -0.418,4.57 -0.766,9.19 -1.125,13.76 -0.41,5.11 -0.824,10.23 -1.18,15.28 l -1.175,13.7 c -0.301,1.51 -0.536,2.98 -0.774,4.44 -0.351,1.64 -0.59,3.28 -0.765,4.93 -1.067,6.27 -1.887,12.54 -2.539,19.06 -1.059,10.52 -1.653,21.6 -1.653,32.86 0,0.92 0,1.95 0.117,2.86 0,7.06 0.293,14 0.828,20.88 0.473,5.85 1.18,11.63 2.071,17.29 4.953,34.7 16.054,66.96 32.113,95.27 4.012,7.12 8.32,13.93 12.93,20.5 15.469,22.1 34.301,41.16 55.433,56.01 1.536,1.21 3.071,2.25 4.606,3.28 1.89,1.28 3.777,2.62 5.726,3.78 7.438,4.69 15.172,8.89 23.082,12.48 33.579,15.25 73.544,22.23 110.104,15.28 1.77,-0.25 3.6,-0.67 5.37,-0.91 15.06,-2.86 29.46,-7.43 43.22,-13.7 10.63,-4.63 20.9,-10.36 30.64,-16.93 0.47,-0.3 1,-0.66 1.48,-1.03 6.14,-4.14 12.1,-8.59 17.82,-13.45 21.49,-18.09 39.92,-40.61 54.37,-66.53 0.95,-1.47 1.72,-2.99 2.66,-4.63 14.05,-26.72 24.09,-56.67 28.75,-88.75 0,-0.25 0.12,-0.42 0.12,-0.67 0.83,-5.66 1.48,-11.44 1.95,-17.29 0.59,-6.88 0.89,-13.82 0.89,-20.88 0.12,-0.91 0.12,-1.94 0.12,-2.86 z" />
      <path
         id="path326"
         style="fill:none;stroke:#ffffff;stroke-width:4.41191;stroke-linecap:round;stroke-linejoin:round;stroke-miterlimit:10;stroke-dasharray:none;stroke-opacity:1"
         d="m 804.781,1666.36 v -98.34" />
      <path
         id="path328"
         style="fill:none;stroke:#ffffff;stroke-width:4.41191;stroke-linecap:round;stroke-linejoin:round;stroke-miterlimit:10;stroke-dasharray:none;stroke-opacity:1"
         d="m 786.898,1585.91 h 33.528" />
      <path
         id="path330"
         style="fill:none;stroke:#ffffff;stroke-width:4.41191;stroke-linecap:round;stroke-linejoin:round;stroke-miterlimit:10;stroke-dasharray:none;stroke-opacity:1"
         d="m 1242.95,1666.36 v -98.34" />
      <path
         id="path332"
         style="fill:none;stroke:#ffffff;stroke-width:4.41191;stroke-linecap:round;stroke-linejoin:round;stroke-miterlimit:10;stroke-dasharray:none;stroke-opacity:1"
         d="m 1225.06,1585.91 h 33.53" />
      <path
         id="path334"
         style="fill:#212122;fill-opacity:1;fill-rule:nonzero;stroke:none"
         d="m 834.359,1952.67 c 21.555,25.88 63.246,3.46 53.942,-28.91 -7.11,-24.75 -24.403,-49.06 -36.047,-67.01 -22.246,-34.29 -36.672,-73.12 -40.91,-113.87 -25.297,62.2 -20.629,135.84 12.308,194.35 2.684,4.77 6.356,10.21 10.707,15.44" />
      <path
         id="path336"
         style="fill:#212122;fill-opacity:1;fill-rule:nonzero;stroke:none"
         d="m 1214.42,1952.67 c -21.56,25.88 -63.25,3.46 -53.95,-28.91 7.11,-24.75 24.41,-49.06 36.05,-67.01 22.25,-34.29 36.67,-73.12 40.92,-113.87 25.29,62.2 20.62,135.84 -12.32,194.35 -2.68,4.77 -6.35,10.21 -10.7,15.44" />
      <path
         id="path338"
         style="fill:#212122;fill-opacity:1;fill-rule:nonzero;stroke:none"
         d="m 1211.08,2093.98 c -5.05,-15.29 -15.57,-28.72 -29.21,-37.28 3.88,21.99 6.93,55.32 -3.6,75.75 -14.16,-17.99 -26.82,-32.42 -48.7,-41.74 -20.59,-8.76 -43.01,-12.17 -65.21,-14.85 7.78,13.25 14.61,27.07 20.42,41.3 -19.25,-14.67 -40.21,-27.08 -62.34,-36.87 -8.51,-3.76 -17.39,-7.19 -26.682,-7.62 -10.215,-0.46 -20.195,2.73 -30.238,4.66 -42.934,8.26 -88.684,-7.28 -121.153,-36.56 -32.472,-29.28 -52.238,-71.05 -59.422,-114.18 6.516,13.36 19.641,23.29 34.266,25.92 1.867,-26.84 35.762,-32.28 56.82,-32.5 21.11,-0.22 46.043,11.39 64.199,-1.96 31.274,-23 67.83,-40.41 106.57,-42.96 63.14,-4.16 131.16,27.98 160.78,85.09 20.91,40.32 22.32,92.39 3.5,133.8" />
      <path
         id="path340"
         style="fill:none;stroke:#212122;stroke-width:5;stroke-linecap:round;stroke-linejoin:round;stroke-miterlimit:10;stroke-dasharray:none;stroke-opacity:1"
         d="m 1106.95,1884.16 c -31.22,-21.47 -73.1,-26.51 -108.52,-13.05 -35.414,13.47 -63.391,45.04 -72.473,81.83 -1.945,-22.92 1.551,-40.41 14.879,-59.15 13.332,-18.75 33.457,-32.56 55.742,-38.25" />
      <path
         id="path342"
         style="fill:none;stroke:#212122;stroke-width:5;stroke-linecap:round;stroke-linejoin:round;stroke-miterlimit:10;stroke-dasharray:none;stroke-opacity:1"
         d="m 1019.12,2070.74 c 29.92,-0.83 60.69,-1.53 88.82,8.71 28.14,10.24 53.41,34.13 56.11,63.95" />
      <path
         id="path344"
         style="fill:none;stroke:#212122;stroke-width:5;stroke-linecap:round;stroke-linejoin:round;stroke-miterlimit:10;stroke-dasharray:none;stroke-opacity:1"
         d="m 916.734,2071.8 c 45.832,-11.69 96.966,-0.18 133.376,29.99 14.16,11.74 26.98,29.06 23.11,47.04" />
      <path
         id="path346"
         style="fill:#212122;fill-opacity:1;fill-rule:nonzero;stroke:none"
         d="m 1069.95,1774.85 c 5.56,12.59 13.33,22.88 23.97,31.37 10.33,8.32 25.1,14.95 41.42,13.63 15.18,-1.32 27.36,-6.81 38.46,-13.64 10.91,-7.06 20.74,-15.73 27.92,-27.22 -13.37,1.33 -25.18,3.71 -36.67,5.84 -11.3,2.17 -22.43,4.49 -31.49,4.83 -8.1,0.43 -17.01,-1.89 -27.74,-5.1 -10.6,-3.21 -22.14,-7.7 -35.87,-9.71" />
      <path
         id="path348"
         style="fill:#212122;fill-opacity:1;fill-rule:nonzero;stroke:none"
         d="m 976.359,1774.85 c -13.73,2.01 -25.269,6.5 -35.871,9.71 -10.73,3.21 -19.636,5.53 -27.734,5.1 -9.07,-0.34 -20.195,-2.66 -31.492,-4.83 -11.489,-2.13 -23.301,-4.51 -36.676,-5.84 7.184,11.49 17.016,20.16 27.926,27.22 11.097,6.83 23.281,12.32 38.457,13.65 16.316,1.31 31.094,-5.32 41.422,-13.64 10.636,-8.49 18.41,-18.78 23.968,-31.37" />
      <path
         id="path350"
         style="fill:#212122;fill-opacity:1;fill-rule:nonzero;stroke:none"
         d="m 1069.19,1710.79 c 2.91,4.42 6,8.67 9.05,13.03 3.45,4.34 7.2,8.61 11.72,12.02 8.8,7.18 19.86,11.34 31.13,13.22 11.35,1.32 23.19,0.2 33.85,-4.24 5.37,-2.07 10.31,-5.16 14.97,-8.38 4.14,-3.24 8.38,-6.36 12.45,-9.72 l -2.9,0.91 v 0.01 c -0.19,-0.28 1.41,-0.11 2.63,0.33 1.32,0.43 2.72,1.02 4.11,1.69 2.76,1.35 5.59,2.99 8.06,4.75 l 0.11,0.08 c 0.99,0.7 2.35,0.47 3.06,-0.52 0.57,-0.81 0.52,-1.87 -0.06,-2.62 -2.19,-2.8 -4.5,-5.22 -7.08,-7.6 -1.3,-1.18 -2.66,-2.34 -4.23,-3.42 -1.67,-1.03 -3.12,-2.27 -6.59,-2.72 h -0.01 c -0.82,-0.06 -1.6,0.14 -2.25,0.53 l -0.65,0.39 c -4.52,2.73 -8.86,5.7 -13.3,8.53 -4.09,2.59 -8.21,5.01 -12.74,6.56 -8.86,3.54 -18.56,4.81 -28.09,3.93 -9.53,-0.83 -18.97,-3.9 -27.18,-9.16 -4.28,-2.44 -7.91,-5.79 -11.51,-9.21 -3.74,-3.69 -7.37,-7.55 -11.21,-11.19 -0.88,-0.83 -2.27,-0.8 -3.1,0.08 -0.71,0.76 -0.79,1.89 -0.24,2.72" />
      <path
         id="path352"
         style="fill:#212122;fill-opacity:1;fill-rule:nonzero;stroke:none"
         d="m 1105.59,1726.8 c 0.73,10.13 9.53,17.75 19.66,17.03 10.13,-0.74 17.75,-9.54 17.02,-19.67 -0.73,-10.13 -9.53,-17.75 -19.66,-17.02 -10.13,0.73 -17.75,9.54 -17.02,19.66" />
      <path
         id="path354"
         style="fill:none;stroke:#212122;stroke-width:5;stroke-linecap:round;stroke-linejoin:round;stroke-miterlimit:10;stroke-dasharray:none;stroke-opacity:1"
         d="m 1161.29,1712.25 c 6.76,1.51 13.17,4.58 18.58,8.91" />
      <path
         id="path356"
         style="fill:none;stroke:#212122;stroke-width:5;stroke-linecap:round;stroke-linejoin:round;stroke-miterlimit:10;stroke-dasharray:none;stroke-opacity:1"
         d="m 1070.38,1731.39 c 10.18,14.1 26.28,23.77 43.5,26.15" />
      <path
         id="path358"
         style="fill:#212122;fill-opacity:1;fill-rule:nonzero;stroke:none"
         d="m 973.781,1707.99 c -3.843,3.64 -7.472,7.5 -11.211,11.19 -3.593,3.42 -7.238,6.77 -11.504,9.21 -8.214,5.26 -17.656,8.33 -27.183,9.16 -9.535,0.88 -19.235,-0.39 -28.09,-3.93 -4.535,-1.55 -8.648,-3.97 -12.738,-6.56 -4.442,-2.83 -8.785,-5.8 -13.301,-8.53 l -0.652,-0.39 c -0.704,-0.42 -1.493,-0.59 -2.254,-0.53 h -0.004 c -3.469,0.45 -4.918,1.69 -6.594,2.72 -1.566,1.08 -2.926,2.24 -4.227,3.42 -2.582,2.38 -4.89,4.8 -7.082,7.6 -0.742,0.95 -0.578,2.33 0.375,3.08 0.782,0.61 1.852,0.61 2.625,0.06 l 0.106,-0.08 c 2.473,-1.76 5.305,-3.4 8.066,-4.75 1.387,-0.67 2.789,-1.26 4.114,-1.69 1.214,-0.44 2.808,-0.61 2.625,-0.33 v -0.01 l -2.903,-0.91 c 4.071,3.36 8.305,6.48 12.449,9.72 4.665,3.22 9.606,6.31 14.973,8.38 10.66,4.44 22.496,5.56 33.856,4.24 11.269,-1.88 22.324,-6.04 31.121,-13.22 4.527,-3.41 8.277,-7.68 11.722,-12.02 3.047,-4.36 6.141,-8.61 9.055,-13.03 0.664,-1.02 0.383,-2.38 -0.629,-3.04 -0.863,-0.57 -1.992,-0.44 -2.715,0.24" />
      <path
         id="path360"
         style="fill:#212122;fill-opacity:1;fill-rule:nonzero;stroke:none"
         d="m 940.719,1726.8 c -0.727,10.13 -9.531,17.75 -19.664,17.03 -10.125,-0.74 -17.746,-9.54 -17.016,-19.67 0.727,-10.13 9.531,-17.75 19.664,-17.02 10.125,0.73 17.746,9.54 17.016,19.66" />
      <path
         id="path362"
         style="fill:none;stroke:#212122;stroke-width:5;stroke-linecap:round;stroke-linejoin:round;stroke-miterlimit:10;stroke-dasharray:none;stroke-opacity:1"
         d="m 885.02,1712.25 c -6.762,1.51 -13.168,4.58 -18.579,8.91" />
      <path
         id="path364"
         style="fill:none;stroke:#212122;stroke-width:5;stroke-linecap:round;stroke-linejoin:round;stroke-miterlimit:10;stroke-dasharray:none;stroke-opacity:1"
         d="m 975.934,1731.39 c -10.188,14.1 -26.286,23.77 -43.512,26.15" />
      <path
         id="path366"
         style="fill:#212122;fill-opacity:1;fill-rule:nonzero;stroke:none"
         d="m 1022.79,1549.2 c 8.98,0.42 17.93,1.49 27,2.66 2.14,0.29 30.83,3.61 30.58,5.4 l -0.84,6.06 c -6.79,-0.43 -13.44,3.84 -18.4,7.65 l -2.21,1.78 c -5.32,4.3 -10.82,8.75 -17.69,10.94 -6.72,2.05 -15.66,0.99 -20.75,-4.51 -5.09,5.5 -14.01,6.56 -20.777,4.5 -6.836,-2.18 -12.336,-6.63 -17.656,-10.93 l -2.18,-1.76 c -4.969,-3.8 -11.609,-7.99 -18.426,-7.67 l -0.839,-6.06 c 11.558,-4.36 26.273,-5.74 38.496,-7.28 7.982,-1.01 15.842,-1.15 23.692,-0.78" />
      <path
         id="path368"
         style="fill:none;stroke:#212122;stroke-width:5.77826;stroke-linecap:round;stroke-linejoin:round;stroke-miterlimit:10;stroke-dasharray:none;stroke-opacity:1"
         d="m 1051.93,1557.05 c 14.92,-1.28 30.21,2.36 42.94,10.23" />
      <path
         id="path370"
         style="fill:none;stroke:#212122;stroke-width:5.77826;stroke-linecap:round;stroke-linejoin:round;stroke-miterlimit:10;stroke-dasharray:none;stroke-opacity:1"
         d="m 1106.48,1582.23 c 4.53,-5.52 4.61,-14.24 0.17,-19.84" />
      <path
         id="path372"
         style="fill:none;stroke:#212122;stroke-width:5;stroke-linecap:round;stroke-linejoin:round;stroke-miterlimit:10;stroke-dasharray:none;stroke-opacity:1"
         d="m 987.777,1532.52 c 21.703,-5.13 44.473,-5.69 66.403,-1.63" />
      <path
         id="path374"
         style="fill:none;stroke:#212122;stroke-width:5;stroke-linecap:round;stroke-linejoin:round;stroke-miterlimit:10;stroke-dasharray:none;stroke-opacity:1"
         d="m 1031.78,1618.68 c 4.99,2.23 9.42,5.73 12.75,10.07" />
      <path
         id="path376"
         style="fill:none;stroke:#212122;stroke-width:5;stroke-linecap:round;stroke-linejoin:round;stroke-miterlimit:10;stroke-dasharray:none;stroke-opacity:1"
         d="m 1014.53,1618.68 c -4.99,2.23 -9.42,5.73 -12.75,10.07" />
      <path
         id="path378"
         style="fill:#f4f1fa;fill-opacity:1;fill-rule:nonzero;stroke:none"
         d="m 1021.36,1706.85 v -65.73" />
      <path
         id="path380"
         style="fill:none;stroke:#212122;stroke-width:5;stroke-linecap:butt;stroke-linejoin:miter;stroke-miterlimit:10;stroke-dasharray:none;stroke-opacity:1"
         d="m 1021.36,1706.85 v -65.73" />
      <path
         id="path382"
         style="fill:#212122;fill-opacity:1;fill-rule:nonzero;stroke:none"
         d="m 585.332,913.66 c 81.211,-36.64 155.359,-47.941 165.606,-25.23 10.25,22.711 -47.282,70.832 -128.493,107.48 -81.215,36.65 -155.359,47.93 -165.601,25.23 -10.25,-22.718 47.273,-70.831 128.488,-107.48" />
      <path
         id="path384"
         style="fill:#f4f1fa;fill-opacity:1;fill-rule:nonzero;stroke:none"
         d="m 392.453,649.141 c 0.297,0.988 0.695,1.89 1,2.898 l 108.199,309.102 23.598,67.389 47.602,136.01 c 15.097,43.3 47.199,74.9 83.902,87.8 11.898,4.2 24.297,6.4 36.699,6.4 11.402,0 22.797,-1.91 34,-5.8 63.797,-22.41 92.402,-102.41 62.301,-174.3 L 727.75,931.031 705.25,877.539 686.953,833.93 609.254,649.141" />
      <path
         id="path386"
         style="fill:none;stroke:#212122;stroke-width:5;stroke-linecap:butt;stroke-linejoin:miter;stroke-miterlimit:10;stroke-dasharray:none;stroke-opacity:1"
         d="m 392.453,649.141 c 0.297,0.988 0.695,1.89 1,2.898 l 108.199,309.102 23.598,67.389 47.602,136.01 c 15.097,43.3 47.199,74.9 83.902,87.8 11.898,4.2 24.297,6.4 36.699,6.4 11.402,0 22.797,-1.91 34,-5.8 63.797,-22.41 92.402,-102.41 62.301,-174.3 L 727.75,931.031 705.25,877.539 686.953,833.93 609.254,649.141" />
      <path
         id="path388"
         style="fill:#212122;fill-opacity:1;fill-rule:nonzero;stroke:none"
         d="m 458.594,1023.89 c 15.015,18.96 86.152,7.02 163.812,-27.941 81.227,-36.679 138.828,-84.801 128.492,-107.558 -0.25,-0.5 -0.492,-0.86 -0.863,-1.36 l 0.863,-0.359 89.723,210.328 c 35.199,82.59 -2.832,176.74 -82.832,204.68 -15.137,5.29 -30.523,7.87 -45.906,7.87 -54.77,0 -107.32,-32.49 -134.274,-85.17 L 458.594,1023.89" />
      <path
         id="path390"
         style="fill:#212122;fill-opacity:1;fill-rule:nonzero;stroke:none"
         d="m 1462.75,913.66 c -81.21,-36.64 -155.36,-47.941 -165.61,-25.23 -10.24,22.711 47.28,70.832 128.5,107.48 81.21,36.65 155.35,47.93 165.6,25.23 10.25,-22.718 -47.28,-70.831 -128.49,-107.48" />
      <path
         id="path392"
         style="fill:#f4f1fa;fill-opacity:1;fill-rule:nonzero;stroke:none"
         d="m 1438.85,649.141 -82.4,195.898 -13.6,32.5 -22.5,53.492 -14.9,35.399 -25.3,60.4 -21.8,51.81 c -30.2,71.89 -1.5,151.89 62.3,174.3 11.1,3.89 22.6,5.8 33.9,5.8 10.1,0 20.1,-1.51 29.9,-4.3 39.5,-11.1 74.7,-44 90.8,-89.9 l 47.6,-136.01 23.6,-67.389 108.2,-309.102 c 0.3,-1.008 0.7,-1.91 1,-2.898" />
      <path
         id="path394"
         style="fill:none;stroke:#212122;stroke-width:5;stroke-linecap:butt;stroke-linejoin:miter;stroke-miterlimit:10;stroke-dasharray:none;stroke-opacity:1"
         d="m 1438.85,649.141 -82.4,195.898 -13.6,32.5 -22.5,53.492 -14.9,35.399 -25.3,60.4 -21.8,51.81 c -30.2,71.89 -1.5,151.89 62.3,174.3 11.1,3.89 22.6,5.8 33.9,5.8 10.1,0 20.1,-1.51 29.9,-4.3 39.5,-11.1 74.7,-44 90.8,-89.9 l 47.6,-136.01 23.6,-67.389 108.2,-309.102 c 0.3,-1.008 0.7,-1.91 1,-2.898" />
      <path
         id="path396"
         style="fill:#212122;fill-opacity:1;fill-rule:nonzero;stroke:none"
         d="m 1589.49,1023.89 c -15.02,18.96 -86.15,7.02 -163.82,-27.941 -81.23,-36.679 -138.82,-84.801 -128.49,-107.558 0.25,-0.5 0.5,-0.86 0.86,-1.36 l -0.86,-0.359 -89.72,210.328 c -35.2,82.59 2.83,176.74 82.83,204.68 15.14,5.29 30.52,7.87 45.91,7.87 54.77,0 107.32,-32.49 134.27,-85.17 l 119.02,-200.49" />
      <path
         id="path398"
         style="fill:#f4f1fa;fill-opacity:1;fill-rule:nonzero;stroke:none"
         d="m 1391.86,1121.95 -25.6,-122.399 c 5.1,-11.199 9.1,-23 11.8,-35.309 2.8,-12.793 4.29,-25.992 4.29,-39.594 0,-16.199 -2.1,-31.996 -6.19,-46.996 -3.41,-13.004 -8.2,-25.402 -14.3,-37.004 -10,-19.199 -23.2,-36.5 -39.11,-51 L 1292.66,644.75 H 750.957 l -30.102,149 c -10.898,10.602 -20.496,22.699 -28.5,35.801 -9.496,15.601 -16.796,32.699 -21.3,50.898 -3.5,14.102 -5.399,28.903 -5.399,44.199 0,15.5 2,30.602 5.602,45 2.297,9.102 5.199,17.903 8.699,26.403 l -25.398,125.899 c -10.903,46.4 -8.801,91.8 7.593,126 13.504,28.39 36.903,49 70.907,56.29 8.597,1.81 17.996,2.81 28.097,2.81 h 537.404 c 10,0 19.19,-1 27.6,-2.81 32.2,-6.99 52.7,-26.89 63.69,-54.19 14.11,-34.5 13.11,-80.81 2.01,-128.1" />
      <path
         id="path400"
         style="fill:none;stroke:#212122;stroke-width:5;stroke-linecap:round;stroke-linejoin:round;stroke-miterlimit:10;stroke-dasharray:none;stroke-opacity:1"
         d="m 1391.86,1121.95 -25.6,-122.399 c 5.1,-11.199 9.1,-23 11.8,-35.309 2.8,-12.793 4.29,-25.992 4.29,-39.594 0,-16.199 -2.1,-31.996 -6.19,-46.996 -3.41,-13.004 -8.2,-25.402 -14.3,-37.004 -10,-19.199 -23.2,-36.5 -39.11,-51 L 1292.66,644.75 H 750.957 l -30.102,149 c -10.898,10.602 -20.496,22.699 -28.5,35.801 -9.496,15.601 -16.796,32.699 -21.3,50.898 -3.5,14.102 -5.399,28.903 -5.399,44.199 0,15.5 2,30.602 5.602,45 2.297,9.102 5.199,17.903 8.699,26.403 l -25.398,125.899 c -10.903,46.4 -8.801,91.8 7.593,126 13.504,28.39 36.903,49 70.907,56.29 8.597,1.81 17.996,2.81 28.097,2.81 h 537.404 c 10,0 19.19,-1 27.6,-2.81 32.2,-6.99 52.7,-26.89 63.69,-54.19 14.11,-34.5 13.11,-80.81 2.01,-128.1 z" />
      <path
         id="path410"
         style="fill:#212122;fill-opacity:1;fill-rule:nonzero;stroke:none"
         d="M 1434.43,1179.19 H 611.141 v -53.37 h 823.289 v 53.37"
         clip-path="url(#clipPath6149)" />
      <path
         id="path412"
         style="fill:#212122;fill-opacity:1;fill-rule:nonzero;stroke:none"
         d="M 1434.43,1035.61 H 611.141 v -53.36 h 823.289 v 53.36"
         clip-path="url(#clipPath6143)" />
      <path
         id="path414"
         style="fill:#212122;fill-opacity:1;fill-rule:nonzero;stroke:none"
         d="M 1434.43,892.051 H 611.141 V 838.68 h 823.289 v 53.371"
         clip-path="url(#clipPath6137)" />
      <path
         id="path416"
         style="fill:#212122;fill-opacity:1;fill-rule:nonzero;stroke:none"
         d="M 1434.43,748.469 H 611.141 v -53.36 h 823.289 v 53.36"
         clip-path="url(#clipPath6131)" />
      <path
         id="path418"
         style="fill:#f4f1fa;fill-opacity:1;fill-rule:nonzero;stroke:none"
         d="m 1129.74,1314.62 56.01,-7.57 c -24.2,-62.81 -86.3,-111.3 -154.1,-114.2 -72.795,-3.2 -143.595,46.6 -169.295,114.2 l 47.04,4.9" />
      <path
         id="path420"
         style="fill:none;stroke:#212122;stroke-width:5;stroke-linecap:round;stroke-linejoin:round;stroke-miterlimit:10;stroke-dasharray:none;stroke-opacity:1"
         d="m 1129.74,1314.62 56.01,-7.57 c -24.2,-62.81 -86.3,-111.3 -154.1,-114.2 -72.795,-3.2 -143.595,46.6 -169.295,114.2 l 47.04,4.9" />
    </g>
  </g>
</svg>
