<?xml version="1.0" encoding="UTF-8" standalone="no"?>
<!-- Created with Inkscape (http://www.inkscape.org/) -->

<svg
   width="42.769016mm"
   height="55.249237mm"
   viewBox="0 0 42.769016 55.249237"
   version="1.1"
   id="svg8836"
   xmlns="http://www.w3.org/2000/svg"
   xmlnsSvg="http://www.w3.org/2000/svg">
  <defs
     id="defs8833" />
  <g
     inkscapeLabel="Layer 1"
     id="layer1"
     transform="translate(284.4057,-103.25674)">
    <g
       id="g6276"
       transform="matrix(0.03527778,0,0,-0.03527778,-353.01322,252.64685)">
      <path
         id="path184"
         style="fill:#3c58b0;fill-opacity:1;fill-rule:nonzero;stroke:none"
         d="m 1944.78,3628.5 c 0,334.79 271.39,606.18 606.18,606.18 334.78,0 606.17,-271.39 606.17,-606.18 0,-334.78 -271.39,-606.17 -606.17,-606.17 -334.79,0 -606.18,271.39 -606.18,606.17" />
      <path
         id="path186"
         style="fill:#212122;fill-opacity:1;fill-rule:nonzero;stroke:none"
         d="m 2555.9,3990.55 c 2.52,7.36 0.99,22.8 -6.64,24.31 5.42,13.32 6.74,29.08 -0.03,41.78 -5.04,9.45 -15.95,15.77 -26.67,16.09 -1.63,2.92 -3.36,5.76 -5.17,8.56 2.4,7.79 1.85,16.52 -2.04,23.71 -5.79,10.7 -18.74,17.7 -30.81,16.2 0.09,10.04 -5.64,19.92 -14.41,24.81 -8.76,4.88 -20.16,6.88 -28.65,1.53 -0.95,7.62 -6.02,14.6 -12.98,17.84 -6.95,3.24 -15.26,2.58 -21.7,-1.58 -4.86,8.18 -14.14,13.57 -23.67,13.7 -9.53,0.14 -19.46,-4.05 -24.55,-12.11 -7.08,7.36 -16.41,12.79 -26.53,14.15 -10.12,1.35 -20.98,-1.7 -28.16,-8.96 -3.61,-3.66 -6.13,-8.4 -7.23,-13.42 -0.59,-0.18 -1.19,-0.31 -1.77,-0.49 -5.21,9.13 -16.12,14.94 -26.63,13.57 -12.09,-1.58 -22.48,-8.86 -23.22,-21.03 -14.45,4.45 -31.22,0.21 -41.83,-10.56 -4.64,-4.71 -11.52,-10.04 -8.36,-15.85 -11.2,-3.5 -20.6,-12.34 -24.77,-23.31 -4.18,-10.97 -2.73,-26.15 3.32,-36.21 -14.24,-4.34 -26.01,-16.07 -30.4,-30.3 -4.4,-14.22 -2.82,-30.17 6.49,-41.79 -7.47,-9.62 -9.91,-22.93 -6.33,-34.57 3.58,-11.63 8.79,-22.82 20.38,-26.58 -4.1,-8.96 -4.5,-19.54 -1.11,-28.79 3.4,-9.25 10.96,-19.66 19.88,-23.85 -1.01,-9.34 2.78,-19.06 9.83,-25.27 7.05,-6.21 18.83,-8.47 27.96,-6.28 -3.77,-9.15 -1.23,-20.54 6.07,-27.22 7.31,-6.67 20.35,-7.74 29.12,-3.16 3.92,-8.75 8.66,-17.77 16.86,-22.74 8.2,-4.97 25.43,-4.12 29.95,4.34 4.16,-8.54 12.28,-15.05 21.52,-17.23 9.24,-2.19 24.08,1.08 31.62,6.85 8.11,-4.54 17.99,-5.8 26.98,-3.43 8.99,2.37 21.01,8.19 25.83,16.14 18.37,-1.4 39.12,11.2 46.01,28.29 7.99,-1.4 16.61,1.45 22.19,7.34 5.58,5.89 11.55,16.77 9.72,24.68 7.95,-1.03 16.29,1.48 22.35,6.71 6.07,5.24 13.14,12.44 13.29,20.45 7.96,0.27 15.51,5.72 18.26,13.2 2.75,7.48 1.82,23.21 -4.08,28.57 6.19,5.98 12.32,12.71 14.17,21.12 1.71,7.74 -1.25,20.27 -8.27,23.78 0.08,0.67 0.09,1.35 0.16,2.02 6.08,3.64 11.78,8.36 14.05,14.99" />
      <path
         id="path188"
         style="fill:#212122;fill-opacity:1;fill-rule:nonzero;stroke:none"
         d="m 2573.5,3864.01 c 1.6,-7.61 10.81,-20.09 18.14,-17.48 2.16,-14.22 9.1,-28.43 21.41,-35.87 9.17,-5.54 21.78,-5.39 31.15,-0.18 2.9,-1.67 5.84,-3.22 8.82,-4.7 1.93,-7.92 6.87,-15.15 13.89,-19.33 10.45,-6.22 25.16,-5.61 34.77,1.86 5.05,-8.67 15.04,-14.22 25.07,-13.94 10.03,0.29 20.84,4.41 25.4,13.35 4.72,-6.05 12.64,-9.45 20.28,-8.68 7.63,0.78 14.43,5.6 17.83,12.48 8.37,-4.56 19.1,-4.42 27.35,0.34 8.26,4.75 14.64,13.44 14.9,22.97 9.84,-2.69 20.63,-2.59 30.02,1.43 9.38,4.02 17.16,12.19 19.6,22.1 1.24,5 0.97,10.36 -0.65,15.24 0.41,0.45 0.86,0.87 1.27,1.32 9.15,-5.17 21.5,-4.58 29.82,1.97 9.58,7.55 14.78,19.12 9.18,29.96 14.7,3.58 26.93,15.8 30.53,30.48 1.58,6.43 4.76,14.53 -0.94,17.9 7.84,8.74 11.39,21.15 9.36,32.7 -2.03,11.56 -11.05,23.86 -21.39,29.41 10.01,11.02 14.11,27.12 10.61,41.59 -3.51,14.46 -13.03,27.36 -26.97,32.58 1.49,12.08 -3.23,24.77 -12.26,32.93 -9.03,8.17 -19.24,15.11 -31.11,12.41 -1.07,9.79 -6.14,19.08 -13.79,25.29 -7.65,6.21 -19.48,11.29 -29.29,10.32 -3.92,8.53 -12.14,14.95 -21.38,16.67 -9.23,1.72 -20.51,-2.36 -27.24,-8.91 -1.44,9.79 -9.45,18.27 -19.14,20.26 -9.7,2 -21.45,-3.75 -26.64,-12.19 -7.85,5.51 -16.53,10.84 -26.12,10.91 -9.59,0.07 -23.95,-9.48 -23.51,-19.06 -7.94,5.21 -18.25,6.64 -27.3,3.79 -9.06,-2.85 -20.13,-13.25 -23.66,-22.07 -9.29,-0.25 -18.43,-4.23 -24.93,-10.87 -6.51,-6.63 -13.86,-17.79 -13.93,-27.09 -16.5,-8.19 -27.87,-29.65 -25.04,-47.85 -7.58,-2.89 -13.53,-9.75 -15.3,-17.66 -1.78,-7.93 -1.34,-20.33 4.28,-26.18 -7.36,-3.19 -13.23,-9.6 -15.76,-17.21 -2.54,-7.61 -4.93,-17.41 -0.95,-24.37 -6.71,-4.3 -10.4,-12.85 -8.94,-20.69 1.47,-7.83 10.33,-20.86 18.14,-22.45 -2.26,-8.3 -4.07,-17.22 -1.36,-25.39 2.5,-7.53 11.45,-16.78 19.27,-16.2 0.28,-0.62 0.62,-1.21 0.9,-1.82 -3.36,-6.23 -5.84,-13.21 -4.39,-20.07" />
      <path
         id="path190"
         style="fill:#212122;fill-opacity:1;fill-rule:nonzero;stroke:none"
         d="m 2617.61,4069.33 c 3.97,-1.49 7.89,-3.12 11.75,-4.9 4.4,-1.9 8.7,-4 12.9,-6.3 6.1,-3.2 11.99,-6.7 17.79,-10.6 0.41,-0.3 1.01,-0.7 1.41,-1 6.2,-4.2 12.1,-8.6 17.9,-13.49 17.1,-14.4 32.3,-31.71 45,-51.21 3.3,-5 6.4,-10.1 9.29,-15.3 1,-1.5 1.71,-3 2.7,-4.7 14.01,-26.7 24.11,-56.6 28.7,-88.7 0,-0.2 0.2,-0.4 0.2,-0.7 0.81,-5.6 1.41,-11.4 1.9,-17.3 0.6,-6.8 0.91,-13.8 0.91,-20.8 0.1,-1 0.1,-2 0.1,-2.9 0,-3.5 0,-6.9 -0.2,-10.2 -0.41,-10 -1.21,-20.1 -2.5,-29.9 l -1.41,-14 -0.59,-7.6 -0.4,-4.5 -0.6,-6.5 c -0.6,-6.7 -1,-13.3 -1.4,-19.9 -0.1,-1.7 -0.2,-3.3 -0.3,-5 -23.41,55.8 -34.1,116.9 -30.8,177.3 -17,31.4 -42.5,53.7 -75,68.7 -21.9,10.1 -45.71,15.3 -69.71,15.3 -11.49,0 -22.99,-1.2 -34.29,-3.6 -35,7.5 -71.6,3.3 -104.1,-11.7 -32.41,-15 -57.9,-37.3 -74.91,-68.7 3.3,-59.5 -7.1,-119.7 -29.8,-174.8 0,1.6 -0.2,3.2 -0.29,4.8 -0.4,5.1 -0.8,10.3 -1.2,15.3 l -1.21,13.7 c -0.29,1.5 -0.49,3 -0.69,4.4 -0.4,1.7 -0.6,3.3 -0.8,5 -1.1,6.2 -1.9,12.5 -2.5,19 -0.3,2.9 -0.61,5.9 -0.81,8.9 -0.6,7.8 -0.89,15.8 -0.89,24 0,0.9 0,1.9 0.09,2.9 0,7 0.31,14 0.91,20.8 0.4,5.9 1.1,11.7 1.99,17.3 5,34.7 16.11,67 32.1,95.3 4.11,7.1 8.41,13.9 13.01,20.5 15.4,22.11 34.29,41.1 55.4,56 1.5,1.2 3.1,2.3 4.6,3.3 1.9,1.3 3.8,2.6 5.69,3.8 7.5,4.6 15.2,8.8 23.11,12.4 7.08,3.23 14.44,6.08 22,8.52" />
      <path
         id="path192"
         style="fill:#f4f1fa;fill-opacity:1;fill-rule:nonzero;stroke:none"
         d="m 2665.32,3299.13 c 2.2,-66.1 -49.7,-121 -114.4,-121 -63.4,0 -114.4,52.6 -114.4,117.1 0,1.3 0,2.7 0.1,3.9 l 12.7,174.7 1.6,22.5 2.8,38.1 5.2,70.5 h 184 l 8.2,-112.6 1.9,-24.6 6.1,-84.3 6.2,-84.3" />
      <path
         id="path194"
         style="fill:none;stroke:#212122;stroke-width:5;stroke-linecap:butt;stroke-linejoin:miter;stroke-miterlimit:10;stroke-dasharray:none;stroke-opacity:1"
         d="m 2665.32,3299.13 c 2.2,-66.1 -49.7,-121 -114.4,-121 -63.4,0 -114.4,52.6 -114.4,117.1 0,1.3 0,2.7 0.1,3.9 l 12.7,174.7 1.6,22.5 2.8,38.1 5.2,70.5 h 184 l 8.2,-112.6 1.9,-24.6 6.1,-84.3 z" />
      <path
         id="path196"
         style="fill:#212122;fill-opacity:1;fill-rule:nonzero;stroke:none"
         d="m 2659.12,3383.43 c -58,-7.1 -123.4,20.8 -167.7,77.4 -18,22.9 -30.5,48.1 -37.7,73.6 l 5.2,70.5 h 184 l 8.2,-112.6 1.9,-24.6 6.1,-84.3" />
      <path
         id="path198"
         style="fill:#f4f1fa;fill-opacity:1;fill-rule:nonzero;stroke:none"
         d="m 2706.99,3780.07 c -23.11,-37.13 -20.88,-81.11 4.99,-98.24 25.88,-17.13 65.59,-0.91 88.71,36.22 23.11,37.12 20.88,81.11 -4.99,98.23 -25.87,17.13 -65.59,0.91 -88.71,-36.21" />
      <path
         id="path200"
         style="fill:none;stroke:#212122;stroke-width:5;stroke-linecap:butt;stroke-linejoin:miter;stroke-miterlimit:10;stroke-dasharray:none;stroke-opacity:1"
         d="m 2706.99,3780.07 c -23.11,-37.13 -20.88,-81.11 4.99,-98.24 25.88,-17.13 65.59,-0.91 88.71,36.22 23.11,37.12 20.88,81.11 -4.99,98.23 -25.87,17.13 -65.59,0.91 -88.71,-36.21 z" />
      <path
         id="path202"
         style="fill:none;stroke:#212122;stroke-width:5;stroke-linecap:round;stroke-linejoin:round;stroke-miterlimit:10;stroke-dasharray:none;stroke-opacity:1"
         d="m 2776.23,3798.46 c 11.21,-4.38 19.72,-15.02 21.54,-26.91 1.82,-11.89 -3.14,-24.59 -12.53,-32.11" />
      <path
         id="path204"
         style="fill:#f4f1fa;fill-opacity:1;fill-rule:nonzero;stroke:none"
         d="m 2394.92,3780.07 c 23.11,-37.13 20.88,-81.11 -4.99,-98.24 -25.88,-17.13 -65.59,-0.91 -88.71,36.22 -23.11,37.12 -20.88,81.11 4.99,98.23 25.88,17.13 65.59,0.91 88.71,-36.21" />
      <path
         id="path206"
         style="fill:none;stroke:#212122;stroke-width:5;stroke-linecap:butt;stroke-linejoin:miter;stroke-miterlimit:10;stroke-dasharray:none;stroke-opacity:1"
         d="m 2394.92,3780.07 c 23.11,-37.13 20.88,-81.11 -4.99,-98.24 -25.88,-17.13 -65.59,-0.91 -88.71,36.22 -23.11,37.12 -20.88,81.11 4.99,98.23 25.88,17.13 65.59,0.91 88.71,-36.21 z" />
      <path
         id="path208"
         style="fill:none;stroke:#212122;stroke-width:5;stroke-linecap:round;stroke-linejoin:round;stroke-miterlimit:10;stroke-dasharray:none;stroke-opacity:1"
         d="m 2325.68,3798.46 c -11.21,-4.38 -19.72,-15.02 -21.54,-26.91 -1.81,-11.89 3.14,-24.59 12.53,-32.11" />
      <path
         id="path210"
         style="fill:none;stroke:#ffffff;stroke-width:4.41191;stroke-linecap:round;stroke-linejoin:round;stroke-miterlimit:10;stroke-dasharray:none;stroke-opacity:1"
         d="m 2321.02,3608.89 c 0,-44.57 5.49,-80.71 12.26,-80.71 6.77,0 12.26,36.14 12.26,80.71 0,44.58 -5.49,80.73 -12.26,80.73 -6.77,0 -12.26,-36.15 -12.26,-80.73 z" />
      <path
         id="path212"
         style="fill:none;stroke:#ffffff;stroke-width:4.41191;stroke-linecap:round;stroke-linejoin:round;stroke-miterlimit:10;stroke-dasharray:none;stroke-opacity:1"
         d="m 2746.56,3608.89 c 0,-44.57 5.49,-80.71 12.26,-80.71 6.78,0 12.26,36.14 12.26,80.71 0,44.58 -5.48,80.73 -12.26,80.73 -6.77,0 -12.26,-36.15 -12.26,-80.73 z" />
      <path
         id="path214"
         style="fill:#f4f1fa;fill-opacity:1;fill-rule:nonzero;stroke:none"
         d="m 2768.16,3831.43 c 0,-3.5 0,-6.9 -0.2,-10.2 -0.41,-10 -1.21,-20.1 -2.5,-29.9 l -1.41,-14 -0.59,-7.6 -0.4,-4.5 -0.6,-6.5 c -0.6,-6.7 -1,-13.3 -1.4,-19.9 -0.1,-1.7 -0.2,-3.3 -0.3,-5 -0.2,-2.5 -0.3,-5 -0.4,-7.5 -1,-16.6 -1.9,-33.1 -4.1,-49.5 0,-0.3 -0.11,-0.6 -0.11,-0.8 -0.49,-3.1 -0.99,-6.3 -1.59,-9.4 -0.6,-3.4 -1.1,-6.7 -2.01,-10 -1.09,-5 -2.39,-9.9 -3.9,-15 -0.49,-1.8 -1.1,-3.5 -1.7,-5.4 -1.19,-3.6 -2.59,-7.3 -4.09,-11 -3.9,-9.7 -8.61,-19.1 -13.9,-28.5 -22.41,-39 -56.7,-74.8 -91,-98.5 -0.1,-0.3 -0.41,-0.4 -0.5,-0.4 -4.2,-3 -8.41,-5.7 -12.5,-8.2 -41.9,-25.6 -91.4,-27 -134.8,-4.9 -9.01,4.5 -17.61,9.7 -26,15.9 -0.11,0 -0.31,0 -0.4,0.2 -33.2,23.7 -61.7,58.1 -83.2,95.9 -1.6,2.7 -3.01,5.3 -4.5,8 -0.7,1.4 -1.41,2.9 -2.1,4.3 -1.21,2.3 -2.3,4.8 -3.6,7.3 -3.41,6.5 -6.4,13.3 -9.1,19.9 -0.7,1.9 -1.61,3.7 -2.21,5.6 -10.09,26.6 -13.69,56.3 -16.09,85.6 -0.3,2.9 -0.5,5.9 -0.81,8.9 0,1.6 -0.2,3.2 -0.29,4.8 -0.4,5.1 -0.8,10.3 -1.2,15.3 l -1.21,13.7 c -0.29,1.5 -0.49,3 -0.69,4.4 -0.4,1.7 -0.6,3.3 -0.8,5 -1.1,6.2 -1.9,12.5 -2.5,19 -0.3,2.9 -0.61,5.9 -0.81,8.9 -0.6,7.8 -0.89,15.8 -0.89,24 0,0.9 0,1.9 0.09,2.9 0,7 0.31,14 0.91,20.8 0.4,5.9 1.1,11.7 1.99,17.3 5,34.7 16.11,67 32.1,95.3 4.11,7.1 8.41,13.9 13.01,20.5 15.4,22.11 34.29,41.1 55.4,56 1.5,1.2 3.1,2.3 4.6,3.3 1.9,1.3 3.8,2.6 5.69,3.8 7.5,4.6 15.2,8.8 23.11,12.4 33.59,15.3 73.59,22.3 110.1,15.3 1.79,-0.2 3.6,-0.6 5.39,-0.9 15.11,-2.9 29.51,-7.4 43.21,-13.7 4.4,-1.9 8.7,-4 12.9,-6.3 6.1,-3.2 11.99,-6.7 17.79,-10.6 0.41,-0.3 1.01,-0.7 1.41,-1 6.2,-4.2 12.1,-8.6 17.9,-13.49 17.1,-14.4 32.3,-31.71 45,-51.21 3.3,-5 6.4,-10.1 9.29,-15.3 1,-1.5 1.71,-3 2.7,-4.7 14.01,-26.7 24.11,-56.6 28.7,-88.7 0,-0.2 0.2,-0.4 0.2,-0.7 0.81,-5.6 1.41,-11.4 1.9,-17.3 0.6,-6.8 0.91,-13.8 0.91,-20.8 0.1,-1 0.1,-2 0.1,-2.9" />
      <path
         id="path216"
         style="fill:none;stroke:#212122;stroke-width:5;stroke-linecap:butt;stroke-linejoin:miter;stroke-miterlimit:10;stroke-dasharray:none;stroke-opacity:1"
         d="m 2768.16,3831.43 c 0,-3.5 0,-6.9 -0.2,-10.2 -0.41,-10 -1.21,-20.1 -2.5,-29.9 l -1.41,-14 -0.59,-7.6 -0.4,-4.5 -0.6,-6.5 c -0.6,-6.7 -1,-13.3 -1.4,-19.9 -0.1,-1.7 -0.2,-3.3 -0.3,-5 -0.2,-2.5 -0.3,-5 -0.4,-7.5 -1,-16.6 -1.9,-33.1 -4.1,-49.5 0,-0.3 -0.11,-0.6 -0.11,-0.8 -0.49,-3.1 -0.99,-6.3 -1.59,-9.4 -0.6,-3.4 -1.1,-6.7 -2.01,-10 -1.09,-5 -2.39,-9.9 -3.9,-15 -0.49,-1.8 -1.1,-3.5 -1.7,-5.4 -1.19,-3.6 -2.59,-7.3 -4.09,-11 -3.9,-9.7 -8.61,-19.1 -13.9,-28.5 -22.41,-39 -56.7,-74.8 -91,-98.5 -0.1,-0.3 -0.41,-0.4 -0.5,-0.4 -4.2,-3 -8.41,-5.7 -12.5,-8.2 -41.9,-25.6 -91.4,-27 -134.8,-4.9 -9.01,4.5 -17.61,9.7 -26,15.9 -0.11,0 -0.31,0 -0.4,0.2 -33.2,23.7 -61.7,58.1 -83.2,95.9 -1.6,2.7 -3.01,5.3 -4.5,8 -0.7,1.4 -1.41,2.9 -2.1,4.3 -1.21,2.3 -2.3,4.8 -3.6,7.3 -3.41,6.5 -6.4,13.3 -9.1,19.9 -0.7,1.9 -1.61,3.7 -2.21,5.6 -10.09,26.6 -13.69,56.3 -16.09,85.6 -0.3,2.9 -0.5,5.9 -0.81,8.9 0,1.6 -0.2,3.2 -0.29,4.8 -0.4,5.1 -0.8,10.3 -1.2,15.3 l -1.21,13.7 c -0.29,1.5 -0.49,3 -0.69,4.4 -0.4,1.7 -0.6,3.3 -0.8,5 -1.1,6.2 -1.9,12.5 -2.5,19 -0.3,2.9 -0.61,5.9 -0.81,8.9 -0.6,7.8 -0.89,15.8 -0.89,24 0,0.9 0,1.9 0.09,2.9 0,7 0.31,14 0.91,20.8 0.4,5.9 1.1,11.7 1.99,17.3 5,34.7 16.11,67 32.1,95.3 4.11,7.1 8.41,13.9 13.01,20.5 15.4,22.11 34.29,41.1 55.4,56 1.5,1.2 3.1,2.3 4.6,3.3 1.9,1.3 3.8,2.6 5.69,3.8 7.5,4.6 15.2,8.8 23.11,12.4 33.59,15.3 73.59,22.3 110.1,15.3 1.79,-0.2 3.6,-0.6 5.39,-0.9 15.11,-2.9 29.51,-7.4 43.21,-13.7 4.4,-1.9 8.7,-4 12.9,-6.3 6.1,-3.2 11.99,-6.7 17.79,-10.6 0.41,-0.3 1.01,-0.7 1.41,-1 6.2,-4.2 12.1,-8.6 17.9,-13.49 17.1,-14.4 32.3,-31.71 45,-51.21 3.3,-5 6.4,-10.1 9.29,-15.3 1,-1.5 1.71,-3 2.7,-4.7 14.01,-26.7 24.11,-56.6 28.7,-88.7 0,-0.2 0.2,-0.4 0.2,-0.7 0.81,-5.6 1.41,-11.4 1.9,-17.3 0.6,-6.8 0.91,-13.8 0.91,-20.8 0.1,-1 0.1,-2 0.1,-2.9 z" />
      <path
         id="path218"
         style="fill:#212122;fill-opacity:1;fill-rule:nonzero;stroke:none"
         d="m 2768.16,3831.43 c 0,-3.5 0,-6.9 -0.2,-10.2 -0.41,-10 -1.21,-20.1 -2.5,-29.9 l -1.41,-14 -0.59,-7.6 -0.4,-4.5 -0.6,-6.5 c -0.6,-6.7 -1,-13.3 -1.4,-19.9 -0.1,-1.7 -0.2,-3.3 -0.3,-5 -23.41,55.8 -34.1,116.9 -30.8,177.3 -17,31.4 -42.5,53.7 -75,68.7 -21.9,10.1 -45.71,15.3 -69.71,15.3 -11.49,0 -22.99,-1.2 -34.29,-3.6 -35,7.5 -71.6,3.3 -104.1,-11.7 -32.41,-15 -57.9,-37.3 -74.91,-68.7 3.3,-59.5 -7.1,-119.7 -29.8,-174.8 0,1.6 -0.2,3.2 -0.29,4.8 -0.4,5.1 -0.8,10.3 -1.2,15.3 l -1.21,13.7 c -0.29,1.5 -0.49,3 -0.69,4.4 -0.4,1.7 -0.6,3.3 -0.8,5 -1.1,6.2 -1.9,12.5 -2.5,19 -0.3,2.9 -0.61,5.9 -0.81,8.9 -0.6,7.8 -0.89,15.8 -0.89,24 0,0.9 0,1.9 0.09,2.9 0,7 0.31,14 0.91,20.8 0.4,5.9 1.1,11.7 1.99,17.3 5,34.7 16.11,67 32.1,95.3 4.11,7.1 8.41,13.9 13.01,20.5 15.4,22.11 34.29,41.1 55.4,56 1.5,1.2 3.1,2.3 4.6,3.3 1.9,1.3 3.8,2.6 5.69,3.8 7.5,4.6 15.2,8.8 23.11,12.4 33.59,15.3 73.59,22.3 110.1,15.3 1.79,-0.2 3.6,-0.6 5.39,-0.9 15.11,-2.9 29.51,-7.4 43.21,-13.7 4.4,-1.9 8.7,-4 12.9,-6.3 6.1,-3.2 11.99,-6.7 17.79,-10.6 0.41,-0.3 1.01,-0.7 1.41,-1 6.2,-4.2 12.1,-8.6 17.9,-13.49 17.1,-14.4 32.3,-31.71 45,-51.21 3.3,-5 6.4,-10.1 9.29,-15.3 1,-1.5 1.71,-3 2.7,-4.7 14.01,-26.7 24.11,-56.6 28.7,-88.7 0,-0.2 0.2,-0.4 0.2,-0.7 0.81,-5.6 1.41,-11.4 1.9,-17.3 0.6,-6.8 0.91,-13.8 0.91,-20.8 0.1,-1 0.1,-2 0.1,-2.9" />
      <path
         id="path220"
         style="fill:#f4f1fa;fill-opacity:1;fill-rule:nonzero;stroke:none"
         d="m 1964.71,2671.34 140.93,361.21 23.66,67.59 47.74,136.4 c 15.14,43.42 47.34,75.11 84.14,88.05 11.94,4.21 24.37,6.42 36.8,6.42 11.44,0 22.87,-1.91 34.1,-5.82 63.99,-22.46 92.67,-102.69 62.48,-174.8 l -62.18,-148.02 -22.56,-53.66 -18.35,-43.72 -95.95,-233.65" />
      <path
         id="path222"
         style="fill:none;stroke:#212122;stroke-width:5.01435;stroke-linecap:butt;stroke-linejoin:miter;stroke-miterlimit:10;stroke-dasharray:none;stroke-opacity:1"
         d="m 1964.71,2671.34 140.93,361.21 23.66,67.59 47.74,136.4 c 15.14,43.42 47.34,75.11 84.14,88.05 11.94,4.21 24.37,6.42 36.8,6.42 11.44,0 22.87,-1.91 34.1,-5.82 63.99,-22.46 92.67,-102.69 62.48,-174.8 l -62.18,-148.02 -22.56,-53.66 -18.35,-43.72 -95.95,-233.65" />
      <path
         id="path224"
         style="fill:#f4f1fa;fill-opacity:1;fill-rule:nonzero;stroke:none"
         d="m 3137.2,2671.34 -140.92,361.21 -23.67,67.59 -47.74,136.4 c -15.14,43.42 -47.33,75.11 -84.14,88.05 -11.94,4.21 -24.37,6.42 -36.8,6.42 -11.44,0 -22.87,-1.91 -34.1,-5.82 -63.98,-22.46 -92.67,-102.69 -62.48,-174.8 l 62.18,-148.02 22.56,-53.66 18.36,-43.72 95.94,-233.65" />
      <path
         id="path226"
         style="fill:none;stroke:#212122;stroke-width:5.01435;stroke-linecap:butt;stroke-linejoin:miter;stroke-miterlimit:10;stroke-dasharray:none;stroke-opacity:1"
         d="m 3137.2,2671.34 -140.92,361.21 -23.67,67.59 -47.74,136.4 c -15.14,43.42 -47.33,75.11 -84.14,88.05 -11.94,4.21 -24.37,6.42 -36.8,6.42 -11.44,0 -22.87,-1.91 -34.1,-5.82 -63.98,-22.46 -92.67,-102.69 -62.48,-174.8 l 62.18,-148.02 22.56,-53.66 18.36,-43.72 95.94,-233.65" />
      <path
         id="path228"
         style="fill:none;stroke:#212122;stroke-width:4.82157;stroke-linecap:round;stroke-linejoin:round;stroke-miterlimit:10;stroke-dasharray:none;stroke-opacity:1"
         d="m 2674.88,3982.03 c 3.95,-28.62 27.72,-52.83 54.91,-55.92" />
      <path
         id="path230"
         style="fill:none;stroke:#212122;stroke-width:4.82157;stroke-linecap:round;stroke-linejoin:round;stroke-miterlimit:10;stroke-dasharray:none;stroke-opacity:1"
         d="m 2666.73,3998.79 c 1.07,-24.94 10.87,-49.36 27.1,-67.49 16.23,-18.13 38.74,-29.82 62.23,-32.3" />
      <path
         id="path232"
         style="fill:none;stroke:#212122;stroke-width:4.82157;stroke-linecap:round;stroke-linejoin:round;stroke-miterlimit:10;stroke-dasharray:none;stroke-opacity:1"
         d="m 2668,3984.11 c 1.06,-24.94 10.86,-49.36 27.09,-67.49 16.23,-18.13 38.74,-29.82 62.23,-32.31" />
      <path
         id="path234"
         style="fill:none;stroke:#212122;stroke-width:4.82157;stroke-linecap:round;stroke-linejoin:round;stroke-miterlimit:10;stroke-dasharray:none;stroke-opacity:1"
         d="m 2427.03,3982.03 c -3.95,-28.62 -27.72,-52.83 -54.91,-55.92" />
      <path
         id="path236"
         style="fill:none;stroke:#212122;stroke-width:4.82157;stroke-linecap:round;stroke-linejoin:round;stroke-miterlimit:10;stroke-dasharray:none;stroke-opacity:1"
         d="m 2435.18,3998.79 c -1.07,-24.94 -10.87,-49.36 -27.1,-67.49 -16.22,-18.13 -38.74,-29.82 -62.22,-32.3" />
      <path
         id="path238"
         style="fill:none;stroke:#212122;stroke-width:4.82157;stroke-linecap:round;stroke-linejoin:round;stroke-miterlimit:10;stroke-dasharray:none;stroke-opacity:1"
         d="m 2433.91,3984.11 c -1.06,-24.94 -10.87,-49.36 -27.09,-67.49 -16.23,-18.13 -38.74,-29.82 -62.23,-32.31" />
      <path
         id="path240"
         style="fill:#f4f1fa;fill-opacity:1;fill-rule:nonzero;stroke:none"
         d="m 2909.31,2948.46 c 0,-16.2 -2.1,-32 -6.2,-47 -3.4,-13 -8.21,-25.4 -14.31,-37 -10,-19.2 -23.19,-36.5 -39.09,-51 l -30.1,-144.9 h -541.7 l -30.11,149 c -10.89,10.6 -20.49,22.7 -28.49,35.8 -9.5,15.6 -16.8,32.7 -21.31,50.9 -3.49,14.1 -5.4,28.9 -5.4,44.2 0,15.5 2.01,30.6 5.6,45 2.3,9.1 5.2,17.9 8.71,26.4 0,0 93.1,205.5 102,311 h 484.2 c 8.7,-104.4 100.09,-307.5 100.09,-307.5 5.11,-11.2 9.11,-23 11.81,-35.3 2.79,-12.8 4.3,-26 4.3,-39.6" />
      <path
         id="path242"
         style="fill:none;stroke:#212122;stroke-width:5.79967;stroke-linecap:round;stroke-linejoin:round;stroke-miterlimit:10;stroke-dasharray:none;stroke-opacity:1"
         d="M 2811.04,3330.83 H 2662.69" />
      <path
         id="path244"
         style="fill:none;stroke:#212122;stroke-width:5.79967;stroke-linecap:round;stroke-linejoin:round;stroke-miterlimit:10;stroke-dasharray:none;stroke-opacity:1"
         d="m 2303.58,3330.83 h 134.81" />
      <path
         id="path246"
         style="fill:#212122;fill-opacity:1;fill-rule:nonzero;stroke:none"
         d="m 2909.31,2948.46 c 0,-16.2 -2.1,-32 -6.2,-47 -3.4,-13 -8.21,-25.4 -14.31,-37 -10,-19.2 -23.19,-36.5 -39.09,-51 l -30.1,-144.9 h -541.7 l -30.11,149 c -10.89,10.6 -20.49,22.7 -28.49,35.8 -9.5,15.6 -16.8,32.7 -21.31,50.9 -3.49,14.1 -5.4,28.9 -5.4,44.2 0,15.5 2.01,30.6 5.6,45 2.3,9.1 5.2,17.9 8.71,26.4 0,0 93.1,205.5 102,311 h 36.1 c -10.8,-89.7 -29.11,-260.8 25.09,-260.8 h 361.71 c 54.2,0 35.9,171.2 25.1,260.8 h 36.2 c 8.7,-104.4 100.09,-307.5 100.09,-307.5 5.11,-11.2 9.11,-23 11.81,-35.3 2.79,-12.8 4.3,-26 4.3,-39.6" />
      <path
         id="path248"
         style="fill:none;stroke:#212122;stroke-width:10;stroke-linecap:round;stroke-linejoin:round;stroke-miterlimit:10;stroke-dasharray:none;stroke-opacity:1"
         d="m 2756.41,3905.18 c -15.08,-48.4 -30.1,-101.18 -12.26,-148.63 10.06,-26.75 29.83,-49.14 38.92,-76.24 13.4,-39.99 -0.3,-87.6 -32.91,-114.34" />
      <path
         id="path250"
         style="fill:none;stroke:#212122;stroke-width:10;stroke-linecap:round;stroke-linejoin:round;stroke-miterlimit:10;stroke-dasharray:none;stroke-opacity:1"
         d="m 2345.5,3905.18 c 15.08,-48.4 30.1,-101.18 12.26,-148.63 -10.06,-26.75 -29.83,-49.14 -38.92,-76.24 -13.4,-39.99 0.3,-87.6 32.91,-114.34" />
      <path
         id="path252"
         style="fill:#212122;fill-opacity:1;fill-rule:nonzero;stroke:none"
         d="m 2604.07,3810.78 c 3.54,11.89 12.19,21.33 22.37,27.95 10.28,6.58 22.36,10.34 34.58,11.09 12.22,0.77 24.67,-1.52 35.67,-6.83 10.92,-5.34 20.64,-13.68 25.55,-25.1 -12.25,1.22 -22.15,2.08 -31.78,2.35 -9.56,0.33 -18.59,0.15 -27.64,-0.36 -9.04,-0.54 -18.04,-1.45 -27.49,-2.92 -9.54,-1.42 -19.26,-3.47 -31.26,-6.18" />
      <path
         id="path254"
         style="fill:#212122;fill-opacity:1;fill-rule:nonzero;stroke:none"
         d="m 2497.84,3810.78 c -11.99,2.71 -21.72,4.76 -31.26,6.18 -9.45,1.47 -18.45,2.38 -27.49,2.92 -9.05,0.51 -18.08,0.69 -27.64,0.36 -9.63,-0.27 -19.53,-1.13 -31.78,-2.35 4.92,11.42 14.63,19.76 25.55,25.1 11,5.31 23.45,7.6 35.67,6.83 12.22,-0.75 24.3,-4.51 34.58,-11.09 10.19,-6.62 18.83,-16.06 22.37,-27.95" />
      <path
         id="path256"
         style="fill:#212122;fill-opacity:1;fill-rule:nonzero;stroke:none"
         d="m 2596.99,3746.01 c 2.91,4.43 6,8.68 9.05,13.03 3.45,4.35 7.2,8.62 11.72,12.03 8.8,7.18 19.86,11.34 31.12,13.21 11.37,1.32 23.2,0.21 33.86,-4.23 5.37,-2.07 10.31,-5.16 14.97,-8.38 4.15,-3.25 8.38,-6.37 12.45,-9.73 l -2.9,0.92 v 0 c -0.18,-0.28 1.41,-0.1 2.63,0.34 1.32,0.42 2.72,1.02 4.11,1.69 2.76,1.35 5.6,2.99 8.07,4.75 l 0.1,0.07 c 0.99,0.71 2.36,0.48 3.06,-0.51 0.57,-0.81 0.52,-1.88 -0.06,-2.62 -2.2,-2.8 -4.5,-5.23 -7.08,-7.61 -1.3,-1.18 -2.66,-2.33 -4.23,-3.42 -1.67,-1.02 -3.12,-2.26 -6.59,-2.71 l -0.01,-0.01 c -0.82,-0.06 -1.6,0.15 -2.25,0.54 l -0.65,0.39 c -4.52,2.73 -8.87,5.69 -13.3,8.52 -4.1,2.59 -8.21,5.02 -12.74,6.57 -8.86,3.53 -18.55,4.81 -28.09,3.93 -9.53,-0.83 -18.97,-3.91 -27.19,-9.16 -4.26,-2.44 -7.91,-5.79 -11.5,-9.22 -3.74,-3.69 -7.36,-7.54 -11.21,-11.18 -0.88,-0.84 -2.26,-0.8 -3.1,0.08 -0.72,0.75 -0.79,1.88 -0.24,2.71" />
      <path
         id="path258"
         style="fill:#212122;fill-opacity:1;fill-rule:nonzero;stroke:none"
         d="m 2633.39,3762.03 c 0.73,10.13 9.53,17.75 19.66,17.02 10.13,-0.73 17.75,-9.54 17.02,-19.66 -0.73,-10.14 -9.53,-17.75 -19.66,-17.02 -10.13,0.73 -17.75,9.53 -17.02,19.66" />
      <path
         id="path260"
         style="fill:none;stroke:#212122;stroke-width:5;stroke-linecap:round;stroke-linejoin:round;stroke-miterlimit:10;stroke-dasharray:none;stroke-opacity:1"
         d="m 2689.09,3747.48 c 6.77,1.51 13.17,4.58 18.58,8.9" />
      <path
         id="path262"
         style="fill:none;stroke:#212122;stroke-width:5;stroke-linecap:round;stroke-linejoin:round;stroke-miterlimit:10;stroke-dasharray:none;stroke-opacity:1"
         d="m 2598.18,3766.62 c 10.18,14.09 26.28,23.77 43.51,26.14" />
      <path
         id="path264"
         style="fill:#212122;fill-opacity:1;fill-rule:nonzero;stroke:none"
         d="m 2501.58,3743.22 c -3.84,3.64 -7.47,7.49 -11.21,11.18 -3.59,3.43 -7.23,6.78 -11.5,9.22 -8.22,5.25 -17.66,8.33 -27.19,9.16 -9.53,0.88 -19.23,-0.4 -28.09,-3.93 -4.53,-1.55 -8.64,-3.98 -12.73,-6.57 -4.44,-2.83 -8.79,-5.79 -13.31,-8.52 l -0.64,-0.39 c -0.71,-0.42 -1.5,-0.59 -2.26,-0.54 l -0.01,0.01 c -3.46,0.45 -4.92,1.69 -6.59,2.71 -1.56,1.09 -2.93,2.24 -4.23,3.42 -2.57,2.38 -4.88,4.81 -7.08,7.61 -0.74,0.95 -0.57,2.33 0.38,3.08 0.78,0.61 1.85,0.6 2.62,0.05 l 0.1,-0.07 c 2.48,-1.76 5.31,-3.4 8.07,-4.75 1.39,-0.67 2.79,-1.27 4.11,-1.69 1.22,-0.44 2.81,-0.62 2.63,-0.34 v 0 l -2.9,-0.92 c 4.07,3.36 8.3,6.48 12.45,9.73 4.66,3.22 9.6,6.31 14.98,8.38 10.65,4.44 22.49,5.55 33.85,4.23 11.27,-1.87 22.32,-6.03 31.12,-13.21 4.52,-3.41 8.27,-7.68 11.72,-12.03 3.05,-4.35 6.14,-8.6 9.05,-13.03 0.67,-1.01 0.39,-2.37 -0.62,-3.03 -0.87,-0.58 -2,-0.44 -2.72,0.24" />
      <path
         id="path266"
         style="fill:#212122;fill-opacity:1;fill-rule:nonzero;stroke:none"
         d="m 2468.52,3762.03 c -0.73,10.13 -9.53,17.75 -19.66,17.02 -10.13,-0.73 -17.75,-9.54 -17.02,-19.66 0.73,-10.14 9.53,-17.75 19.66,-17.02 10.13,0.73 17.75,9.53 17.02,19.66" />
      <path
         id="path268"
         style="fill:none;stroke:#212122;stroke-width:5;stroke-linecap:round;stroke-linejoin:round;stroke-miterlimit:10;stroke-dasharray:none;stroke-opacity:1"
         d="m 2412.82,3747.48 c -6.76,1.51 -13.17,4.58 -18.58,8.9" />
      <path
         id="path270"
         style="fill:none;stroke:#212122;stroke-width:5;stroke-linecap:round;stroke-linejoin:round;stroke-miterlimit:10;stroke-dasharray:none;stroke-opacity:1"
         d="m 2503.73,3766.62 c -10.18,14.09 -26.28,23.77 -43.5,26.14" />
      <path
         id="path272"
         style="fill:none;stroke:#212122;stroke-width:5.79967;stroke-linecap:round;stroke-linejoin:round;stroke-miterlimit:10;stroke-dasharray:none;stroke-opacity:1"
         d="m 2521.98,3660.86 c -9.9,-1.2 -15.55,9.54 -10.9,18.37" />
      <path
         id="path274"
         style="fill:none;stroke:#212122;stroke-width:5.79967;stroke-linecap:round;stroke-linejoin:round;stroke-miterlimit:10;stroke-dasharray:none;stroke-opacity:1"
         d="m 2579.93,3659.87 c 9.9,-1.2 15.55,9.54 10.91,18.36" />
      <path
         id="path276"
         style="fill:none;stroke:#212122;stroke-width:5.79967;stroke-linecap:round;stroke-linejoin:round;stroke-miterlimit:10;stroke-dasharray:none;stroke-opacity:1"
         d="m 2521.11,3662.32 c 15.94,-14.64 42.95,-15.08 59.36,-0.96" />
      <path
         id="path278"
         style="fill:#212122;fill-opacity:1;fill-rule:nonzero;stroke:none"
         d="m 2611.26,3593.94 c -13.1,-8.3 -30.4,-9.3 -44.8,-2.7 -9.6,-4.2 -20.9,-4.1 -30.5,0.1 -14.3,-6.4 -31.7,-5.6 -44.9,2.4 6.69,-0.2 15.29,5.5 20.1,9.2 l 2.2,1.7 c 5.3,4.3 10.8,8.8 17.7,11 6.69,2 15.7,1 20.8,-4.5 5,5.5 14,6.5 20.69,4.5 6.9,-2.2 12.41,-6.7 17.7,-11 l 2.21,-1.7 c 4.8,-3.7 12.19,-8.9 18.8,-9" />
      <path
         id="path280"
         style="fill:none;stroke:#212122;stroke-width:5.77826;stroke-linecap:round;stroke-linejoin:round;stroke-miterlimit:10;stroke-dasharray:none;stroke-opacity:1"
         d="m 2611.26,3593.94 c -13.1,-8.3 -30.4,-9.3 -44.8,-2.7 -9.6,-4.2 -20.9,-4.1 -30.5,0.1 -14.3,-6.4 -31.7,-5.6 -44.9,2.4 6.69,-0.2 15.29,5.5 20.1,9.2 l 2.2,1.7 c 5.3,4.3 10.8,8.8 17.7,11 6.69,2 15.7,1 20.8,-4.5 5,5.5 14,6.5 20.69,4.5 6.9,-2.2 12.41,-6.7 17.7,-11 l 2.21,-1.7 c 4.8,-3.7 12.19,-8.9 18.8,-9 z" />
      <path
         id="path282"
         style="fill:#212122;fill-opacity:1;fill-rule:nonzero;stroke:none"
         d="m 2491.06,3593.74 c -0.1,0 -0.2,0 -0.3,0" />
      <path
         id="path284"
         style="fill:none;stroke:#212122;stroke-width:5.77826;stroke-linecap:round;stroke-linejoin:round;stroke-miterlimit:10;stroke-dasharray:none;stroke-opacity:1"
         d="m 2491.06,3593.74 c -0.1,0 -0.2,0 -0.3,0" />
      <path
         id="path286"
         style="fill:#212122;fill-opacity:1;fill-rule:nonzero;stroke:none"
         d="m 2611.26,3593.94 c 0.29,0 0.49,0 0.8,0" />
      <path
         id="path288"
         style="fill:none;stroke:#212122;stroke-width:5.77826;stroke-linecap:round;stroke-linejoin:round;stroke-miterlimit:10;stroke-dasharray:none;stroke-opacity:1"
         d="m 2611.26,3593.94 c 0.29,0 0.49,0 0.8,0" />
      <path
         id="path290"
         style="fill:#212122;fill-opacity:1;fill-rule:nonzero;stroke:none"
         d="m 2620.56,3601.74 c -2.7,-3.1 -5.91,-5.7 -9.3,-7.8" />
      <path
         id="path292"
         style="fill:none;stroke:#212122;stroke-width:5.77826;stroke-linecap:round;stroke-linejoin:round;stroke-miterlimit:10;stroke-dasharray:none;stroke-opacity:1"
         d="m 2620.56,3601.74 c -2.7,-3.1 -5.91,-5.7 -9.3,-7.8" />
      <path
         id="path294"
         style="fill:#212122;fill-opacity:1;fill-rule:nonzero;stroke:none"
         d="m 2491.06,3593.74 c -3.6,2.1 -6.9,4.8 -9.71,8" />
      <path
         id="path296"
         style="fill:none;stroke:#212122;stroke-width:5.77826;stroke-linecap:round;stroke-linejoin:round;stroke-miterlimit:10;stroke-dasharray:none;stroke-opacity:1"
         d="m 2491.06,3593.74 c -3.6,2.1 -6.9,4.8 -9.71,8" />
      <path
         id="path298"
         style="fill:none;stroke:#212122;stroke-width:5;stroke-linecap:round;stroke-linejoin:round;stroke-miterlimit:10;stroke-dasharray:none;stroke-opacity:1"
         d="m 2519.1,3566.69 c 21.71,-5.13 44.48,-5.69 66.41,-1.62" />
    </g>
  </g>
</svg>
