<?xml version="1.0" encoding="UTF-8" standalone="no"?>
<!-- Created with Inkscape (http://www.inkscape.org/) -->

<svg
   width="43.293949mm"
   height="54.766991mm"
   viewBox="0 0 43.293949 54.766991"
   version="1.1"
   id="svg9438"
   xmlns="http://www.w3.org/2000/svg"
   xmlnsSvg="http://www.w3.org/2000/svg">
  <defs
     id="defs9435" />
  <g
     inkscapeLabel="Layer 1"
     id="layer1"
     transform="translate(163.8546,-68.260576)">
    <g
       id="g6362"
       transform="matrix(0.03527778,0,0,-0.03527778,-285.57,145.68472)">
      <path
         id="path16"
         style="fill:#3c58b0;fill-opacity:1;fill-rule:nonzero;stroke:none"
         d="m 3465.07,1588.52 c 0,334.79 271.4,606.18 606.18,606.18 334.78,0 606.18,-271.39 606.18,-606.18 0,-334.77 -271.4,-606.168 -606.18,-606.168 -334.78,0 -606.18,271.398 -606.18,606.168" />
      <path
         id="path18"
         style="fill:#212122;fill-opacity:1;fill-rule:nonzero;stroke:none"
         d="m 4320.57,1720.85 c -0.82,23.81 -2.07,47.6 -3.85,71.37 -5.4,72.35 -13.2,141.86 -61.23,198.89 -93.75,111.3 -270.66,105.65 -360.13,-8.35 -65.81,-83.87 -51.91,-205.64 -69.64,-306.66 -20.48,-116.77 -64.08,-228.04 -106.27,-338.27 -14.57,-38.06 -30.42,-76.76 -31.59,-117.61 -0.75,-26.27 5.77,-53.96 20.84,-75.44 36.76,-52.38 123.5,-53.99 179.39,-63.23 78,-12.91 157.18,-21.82 236.3,-15.97 100.36,7.43 151.87,77.63 168.09,175.5 17.52,105.71 25.78,213.45 28.37,320.33 1.28,53.13 1.56,106.33 -0.28,159.44" />
      <path
         id="path20"
         style="fill:none;stroke:#ffffff;stroke-width:4.43675;stroke-linecap:round;stroke-linejoin:round;stroke-miterlimit:10;stroke-dasharray:none;stroke-opacity:1"
         d="m 4079.01,2039.05 c -34.09,0.3 -67.19,-12.7 -95.49,-34.1 -15.4,-11.5 -29.4,-25.5 -41.4,-41.1 -34.1,-44.2 -53.6,-100.3 -64.5,-157.2 -11,-57 -13.9,-115.3 -18.61,-173.3 -10.29,-128.2 -29.6,-256.8 -71.69,-376.8 -14.4,-41.1 -32,-81.8 -60.2,-112.9 -3,-3.3 -6.21,-6.6 -9.5,-9.6" />
      <path
         id="path22"
         style="fill:none;stroke:#ffffff;stroke-width:4.43675;stroke-linecap:round;stroke-linejoin:round;stroke-miterlimit:10;stroke-dasharray:none;stroke-opacity:1"
         d="m 4189.01,2009.55 c 65.71,-101.1 76.81,-227 84.91,-347.3 8.4,-122.5 15.7,-246.7 -7.5,-367.3 -14.8,-77.2 -43.6,-153.7 -88.2,-217.9" />
      <path
         id="path24"
         style="fill:none;stroke:#ffffff;stroke-width:4.43675;stroke-linecap:round;stroke-linejoin:round;stroke-miterlimit:10;stroke-dasharray:none;stroke-opacity:1"
         d="m 3773.92,1101.75 c 36.2,44.6 61.3,98.9 76.3,154.8 23.5,87.3 24.5,178.9 23.59,269.3 -0.79,90.5 -3.39,181.7 13.51,270.5 14.59,76 44.8,151.3 96.2,208.6" />
      <path
         id="path26"
         style="fill:none;stroke:#ffffff;stroke-width:4.43675;stroke-linecap:round;stroke-linejoin:round;stroke-miterlimit:10;stroke-dasharray:none;stroke-opacity:1"
         d="m 4010.95,2032.16 c -9.76,-8.54 -19.01,-17.59 -27.46,-27.24" />
      <path
         id="path28"
         style="fill:none;stroke:#ffffff;stroke-width:4.43675;stroke-linecap:round;stroke-linejoin:round;stroke-miterlimit:10;stroke-dasharray:none;stroke-opacity:1"
         d="m 4165.91,1991.35 c 47.41,-59.1 63.71,-136.9 72.41,-212 19,-163.4 8.9,-330.1 -29.91,-489.9 -19.2,-79.4 -45.99,-158.2 -93.59,-224.5" />
      <path
         id="path30"
         style="fill:none;stroke:#ffffff;stroke-width:4.43675;stroke-linecap:round;stroke-linejoin:round;stroke-miterlimit:10;stroke-dasharray:none;stroke-opacity:1"
         d="m 3950.22,1779.35 c 18.99,-163.4 8.9,-330.1 -29.9,-490 -17,-70.3 -40,-140.4 -78.1,-201.5" />
      <path
         id="path32"
         style="fill:#f4f1fa;fill-opacity:1;fill-rule:nonzero;stroke:none"
         d="m 4193.59,1275.37 c 2.17,-66.16 -49.71,-121.03 -114.43,-121.03 -63.36,0 -114.43,52.6 -114.43,117.14 0,1.26 0,2.62 0.09,3.89 l 12.74,174.71 1.63,22.5 7.95,108.56 h 184.03 l 8.23,-112.62 1.81,-24.59 12.38,-168.56" />
      <path
         id="path34"
         style="fill:none;stroke:#212122;stroke-width:5;stroke-linecap:round;stroke-linejoin:round;stroke-miterlimit:10;stroke-dasharray:none;stroke-opacity:1"
         d="m 4193.59,1275.37 c 2.17,-66.16 -49.71,-121.03 -114.43,-121.03 -63.36,0 -114.43,52.6 -114.43,117.14 0,1.26 0,2.62 0.09,3.89 l 12.74,174.71 1.63,22.5 7.95,108.56 h 184.03 l 8.23,-112.62 1.81,-24.59 z" />
      <path
         id="path36"
         style="fill:#212122;fill-opacity:1;fill-rule:nonzero;stroke:none"
         d="m 4187.19,1360.78 c -57.99,-7.1 -123.4,20.8 -167.7,77.4 -17.99,22.9 -30.49,48.1 -37.7,73.6 l 5.2,70.5 h 184 l 8.21,-112.61 1.89,-24.59 6.1,-84.3" />
      <path
         id="path38"
         style="fill:#f4f1fa;fill-opacity:1;fill-rule:nonzero;stroke:none"
         d="m 4235.23,1756.29 c -23.11,-37.13 -20.88,-81.12 4.99,-98.25 25.87,-17.12 65.59,-0.9 88.71,36.22 23.11,37.13 20.88,81.11 -4.99,98.24 -25.88,17.13 -65.59,0.91 -88.71,-36.21" />
      <path
         id="path40"
         style="fill:none;stroke:#212122;stroke-width:5;stroke-linecap:round;stroke-linejoin:round;stroke-miterlimit:10;stroke-dasharray:none;stroke-opacity:1"
         d="m 4235.23,1756.29 c -23.11,-37.13 -20.88,-81.12 4.99,-98.25 25.87,-17.12 65.59,-0.9 88.71,36.22 23.11,37.13 20.88,81.11 -4.99,98.24 -25.88,17.13 -65.59,0.91 -88.71,-36.21 z" />
      <path
         id="path42"
         style="fill:none;stroke:#212122;stroke-width:5;stroke-linecap:round;stroke-linejoin:round;stroke-miterlimit:10;stroke-dasharray:none;stroke-opacity:1"
         d="m 4304.47,1774.67 c 11.21,-4.37 19.73,-15.01 21.54,-26.9 1.81,-11.89 -3.14,-24.59 -12.53,-32.11" />
      <path
         id="path44"
         style="fill:#f4f1fa;fill-opacity:1;fill-rule:nonzero;stroke:none"
         d="m 3923.16,1756.29 c 23.12,-37.13 20.88,-81.12 -5,-98.25 -25.87,-17.12 -65.58,-0.9 -88.7,36.22 -23.12,37.13 -20.88,81.11 4.99,98.24 25.87,17.13 65.59,0.91 88.71,-36.21" />
      <path
         id="path46"
         style="fill:none;stroke:#212122;stroke-width:5;stroke-linecap:round;stroke-linejoin:round;stroke-miterlimit:10;stroke-dasharray:none;stroke-opacity:1"
         d="m 3923.16,1756.29 c 23.12,-37.13 20.88,-81.12 -5,-98.25 -25.87,-17.12 -65.58,-0.9 -88.7,36.22 -23.12,37.13 -20.88,81.11 4.99,98.24 25.87,17.13 65.59,0.91 88.71,-36.21 z" />
      <path
         id="path48"
         style="fill:none;stroke:#212122;stroke-width:5;stroke-linecap:round;stroke-linejoin:round;stroke-miterlimit:10;stroke-dasharray:none;stroke-opacity:1"
         d="m 3853.92,1774.67 c -11.21,-4.37 -19.72,-15.01 -21.54,-26.9 -1.82,-11.89 3.14,-24.59 12.53,-32.11" />
      <path
         id="path50"
         style="fill:#f4f1fa;fill-opacity:1;fill-rule:nonzero;stroke:none"
         d="m 4296.39,1817.65 c 0,-3.5 0,-6.9 -0.2,-10.2 -0.4,-10 -1.2,-20.1 -2.5,-29.9 l -1.39,-14 -0.6,-7.6 -1.01,-11 c -0.6,-6.7 -1,-13.3 -1.49,-19.9 -0.2,-4.2 -0.41,-8.31 -0.71,-12.5 -0.9,-16.6 -1.79,-33.1 -4,-49.5 0,-0.3 -0.2,-0.6 -0.2,-0.8 -0.4,-3.1 -0.9,-6.3 -1.5,-9.3 0,-0.1 0,-0.1 0,-0.1 -0.6,-3.4 -1.2,-6.7 -2.1,-10 -1,-5 -2.3,-9.9 -3.9,-14.9 v -0.1 c -0.4,-1.8 -1,-3.5 -1.7,-5.4 -1.09,-3.61 -2.6,-7.3 -4,-11 -3.9,-9.71 -8.6,-19.1 -13.99,-28.5 -22.3,-39 -56.61,-74.8 -90.91,-98.5 -0.2,-0.3 -0.4,-0.4 -0.5,-0.4 -4.19,-3 -8.39,-5.7 -12.5,-8.2 -41.9,-25.6 -91.4,-27.01 -134.8,-4.9 -8.99,4.5 -17.7,9.7 -26.09,15.9 -0.11,0 -0.2,0 -0.31,0.2 -33.2,23.7 -61.8,58.1 -83.2,95.9 -1.6,2.7 -3,5.3 -4.5,8 -0.7,1.4 -1.4,2.89 -2.1,4.3 -1.2,2.3 -2.39,4.8 -3.6,7.3 -3.4,6.5 -6.4,13.3 -9.19,19.9 -0.71,1.9 -1.51,3.7 -2.1,5.6 -10.11,26.6 -13.71,56.3 -16.11,85.6 -0.4,4.5 -0.8,9.2 -1.1,13.7 -0.4,5.1 -0.8,10.3 -1.2,15.3 l -1.2,13.69 c -0.3,1.51 -0.5,3.01 -0.7,4.41 -0.4,1.7 -0.6,3.3 -0.8,5 -1.1,6.2 -1.9,12.5 -2.6,19 -1,10.6 -1.6,21.59 -1.6,32.9 0,0.9 0,1.9 0.11,2.9 v 1.1 c 0,4.8 0.2,9.6 0.49,14.3 0.1,1.8 0.2,3.6 0.3,5.39 0.5,5.91 1.2,11.71 2.1,17.31 5,34.7 16.1,67 32.11,95.3 3.99,7.1 8.29,13.9 12.99,20.5 15.4,22.1 34.31,41.1 55.4,56 1.5,1.2 3.1,2.3 4.6,3.3 1.9,1.3 3.8,2.59 5.7,3.8 7.5,4.6 15.2,8.79 23.1,12.4 23.1,10.6 48.21,16.7 74.6,17.4 0.1,0.2 0.2,0.2 0.3,0 v 0.2 c 1.3,0.1 2.71,0.1 4,0.1 h 1.3 c 3.3,0 6.9,-0.1 10.2,-0.4 4.4,-0.2 8.6,-0.51 12.9,-1.1 2.3,-0.2 4.6,-0.5 6.81,-0.9 1.79,-0.2 3.59,-0.6 5.4,-0.9 15,-2.9 29.39,-7.4 43.19,-13.7 10.6,-4.6 20.9,-10.3 30.6,-16.9 0.5,-0.3 1.01,-0.7 1.5,-1 6.2,-4.2 12.1,-8.6 17.8,-13.51 21.51,-18.09 39.9,-40.59 54.41,-66.39 v -0.1 c 0.99,-1.5 1.69,-3 2.59,-4.5 0.11,0 0.11,-0.2 0.11,-0.2 13.99,-26.71 24.09,-56.6 28.69,-88.7 0,-0.2 0.1,-0.4 0.1,-0.7 0.9,-5.6 1.5,-11.4 2,-17.31 0.1,-0.99 0.2,-1.99 0.2,-2.99 0.3,-3.8 0.5,-7.6 0.6,-11.5 0.1,-2.1 0.1,-4.2 0.1,-6.3 0.1,-1 0.1,-2 0.1,-2.9" />
      <path
         id="path52"
         style="fill:none;stroke:#212122;stroke-width:5;stroke-linecap:round;stroke-linejoin:round;stroke-miterlimit:10;stroke-dasharray:none;stroke-opacity:1"
         d="m 4296.39,1817.65 c 0,-3.5 0,-6.9 -0.2,-10.2 -0.4,-10 -1.2,-20.1 -2.5,-29.9 l -1.39,-14 -0.6,-7.6 -1.01,-11 c -0.6,-6.7 -1,-13.3 -1.49,-19.9 -0.2,-4.2 -0.41,-8.31 -0.71,-12.5 -0.9,-16.6 -1.79,-33.1 -4,-49.5 0,-0.3 -0.2,-0.6 -0.2,-0.8 -0.4,-3.1 -0.9,-6.3 -1.5,-9.3 0,-0.1 0,-0.1 0,-0.1 -0.6,-3.4 -1.2,-6.7 -2.1,-10 -1,-5 -2.3,-9.9 -3.9,-14.9 v -0.1 c -0.4,-1.8 -1,-3.5 -1.7,-5.4 -1.09,-3.61 -2.6,-7.3 -4,-11 -3.9,-9.71 -8.6,-19.1 -13.99,-28.5 -22.3,-39 -56.61,-74.8 -90.91,-98.5 -0.2,-0.3 -0.4,-0.4 -0.5,-0.4 -4.19,-3 -8.39,-5.7 -12.5,-8.2 -41.9,-25.6 -91.4,-27.01 -134.8,-4.9 -8.99,4.5 -17.7,9.7 -26.09,15.9 -0.11,0 -0.2,0 -0.31,0.2 -33.2,23.7 -61.8,58.1 -83.2,95.9 -1.6,2.7 -3,5.3 -4.5,8 -0.7,1.4 -1.4,2.89 -2.1,4.3 -1.2,2.3 -2.39,4.8 -3.6,7.3 -3.4,6.5 -6.4,13.3 -9.19,19.9 -0.71,1.9 -1.51,3.7 -2.1,5.6 -10.11,26.6 -13.71,56.3 -16.11,85.6 -0.4,4.5 -0.8,9.2 -1.1,13.7 -0.4,5.1 -0.8,10.3 -1.2,15.3 l -1.2,13.69 c -0.3,1.51 -0.5,3.01 -0.7,4.41 -0.4,1.7 -0.6,3.3 -0.8,5 -1.1,6.2 -1.9,12.5 -2.6,19 -1,10.6 -1.6,21.59 -1.6,32.9 0,0.9 0,1.9 0.11,2.9 v 1.1 c 0,4.8 0.2,9.6 0.49,14.3 0.1,1.8 0.2,3.6 0.3,5.39 0.5,5.91 1.2,11.71 2.1,17.31 5,34.7 16.1,67 32.11,95.3 3.99,7.1 8.29,13.9 12.99,20.5 15.4,22.1 34.31,41.1 55.4,56 1.5,1.2 3.1,2.3 4.6,3.3 1.9,1.3 3.8,2.59 5.7,3.8 7.5,4.6 15.2,8.79 23.1,12.4 23.1,10.6 48.21,16.7 74.6,17.4 0.1,0.2 0.2,0.2 0.3,0 v 0.2 c 1.3,0.1 2.71,0.1 4,0.1 h 1.3 c 3.3,0 6.9,-0.1 10.2,-0.4 4.4,-0.2 8.6,-0.51 12.9,-1.1 2.3,-0.2 4.6,-0.5 6.81,-0.9 1.79,-0.2 3.59,-0.6 5.4,-0.9 15,-2.9 29.39,-7.4 43.19,-13.7 10.6,-4.6 20.9,-10.3 30.6,-16.9 0.5,-0.3 1.01,-0.7 1.5,-1 6.2,-4.2 12.1,-8.6 17.8,-13.51 21.51,-18.09 39.9,-40.59 54.41,-66.39 v -0.1 c 0.99,-1.5 1.69,-3 2.59,-4.5 0.11,0 0.11,-0.2 0.11,-0.2 13.99,-26.71 24.09,-56.6 28.69,-88.7 0,-0.2 0.1,-0.4 0.1,-0.7 0.9,-5.6 1.5,-11.4 2,-17.31 0.1,-0.99 0.2,-1.99 0.2,-2.99 0.3,-3.8 0.5,-7.6 0.6,-11.5 0.1,-2.1 0.1,-4.2 0.1,-6.3 0.1,-1 0.1,-2 0.1,-2.9 z" />
      <path
         id="path54"
         style="fill:#212122;fill-opacity:1;fill-rule:nonzero;stroke:none"
         d="m 4034.78,1792.62 c -7,9.02 -16.95,14.2 -26.8,17.76 -9.98,3.41 -20.32,4.92 -30.58,4.94 -10.26,0.01 -20.48,-1.53 -30.36,-4.66 -9.81,-3.28 -19.53,-7.83 -27.63,-15.79 10.77,-2.76 20.33,-3.91 29.9,-4.84 9.5,-0.82 18.79,-1.16 28.04,-1.13 9.25,0.01 18.43,0.37 27.76,0.98 9.43,0.7 18.67,1.48 29.67,2.74" />
      <path
         id="path56"
         style="fill:#212122;fill-opacity:1;fill-rule:nonzero;stroke:none"
         d="m 4123.6,1792.62 c 7.01,9.02 16.96,14.2 26.81,17.76 9.98,3.41 20.32,4.92 30.57,4.94 10.26,0.01 20.48,-1.53 30.36,-4.66 9.82,-3.28 19.54,-7.83 27.64,-15.79 -10.77,-2.76 -20.34,-3.91 -29.9,-4.84 -9.5,-0.82 -18.8,-1.16 -28.04,-1.13 -9.25,0.01 -18.43,0.37 -27.76,0.98 -9.43,0.7 -18.67,1.48 -29.68,2.74" />
      <path
         id="path58"
         style="fill:#212122;fill-opacity:1;fill-rule:nonzero;stroke:none"
         d="m 4031.32,1710.01 c -3.31,4.13 -6.37,8.43 -9.57,12.6 -3.09,3.9 -6.24,7.72 -10.14,10.71 -7.41,6.34 -16.35,10.66 -25.67,12.79 -9.32,2.19 -19.11,2.25 -28.37,-0.05 -4.7,-0.91 -9.1,-2.75 -13.51,-4.75 -4.79,-2.2 -9.5,-4.55 -14.35,-6.63 l -0.69,-0.3 c -0.76,-0.32 -1.56,-0.38 -2.31,-0.21 v 0 c -3.37,0.92 -4.64,2.34 -6.16,3.59 -1.4,1.29 -2.59,2.62 -3.72,3.96 -2.23,2.72 -4.18,5.43 -5.97,8.51 -0.61,1.05 -0.25,2.38 0.79,2.99 0.86,0.5 1.92,0.35 2.6,-0.29 l 0.1,-0.1 c 2.21,-2.08 4.79,-4.09 7.34,-5.81 1.28,-0.85 2.59,-1.63 3.84,-2.24 1.15,-0.59 2.7,-0.98 2.56,-0.68 v 0 l -3,-0.52 c 4.49,2.77 9.11,5.28 13.66,7.94 5.06,2.55 10.38,4.93 15.98,6.24 11.17,2.94 23.04,2.43 34.11,-0.43 10.91,-3.4 21.29,-9.03 29.03,-17.35 4.01,-4 7.14,-8.74 9.97,-13.53 2.41,-4.71 4.9,-9.34 7.18,-14.13 0.52,-1.09 0.05,-2.4 -1.04,-2.93 -0.94,-0.45 -2.04,-0.16 -2.66,0.62" />
      <path
         id="path60"
         style="fill:#212122;fill-opacity:1;fill-rule:nonzero;stroke:none"
         d="m 4001.15,1733.16 c 0.66,10.14 -7.01,18.89 -17.15,19.55 -10.13,0.67 -18.89,-7.01 -19.55,-17.15 -0.66,-10.13 7.02,-18.88 17.15,-19.55 10.13,-0.66 18.88,7.01 19.55,17.15" />
      <path
         id="path62"
         style="fill:none;stroke:#212122;stroke-width:5;stroke-linecap:round;stroke-linejoin:round;stroke-miterlimit:10;stroke-dasharray:none;stroke-opacity:1"
         d="m 3943.98,1726.36 c -6.49,2.43 -12.42,6.34 -17.19,11.37" />
      <path
         id="path64"
         style="fill:none;stroke:#212122;stroke-width:5;stroke-linecap:round;stroke-linejoin:round;stroke-miterlimit:10;stroke-dasharray:none;stroke-opacity:1"
         d="m 4036.66,1732.89 c -8.16,15.36 -22.79,27.14 -39.53,31.84" />
      <path
         id="path66"
         style="fill:#212122;fill-opacity:1;fill-rule:nonzero;stroke:none"
         d="m 4123.37,1712.32 c 2.28,4.79 4.76,9.42 7.18,14.13 2.82,4.79 5.95,9.53 9.97,13.53 7.74,8.32 18.12,13.95 29.02,17.35 11.08,2.86 22.95,3.37 34.12,0.43 5.6,-1.31 10.92,-3.69 15.97,-6.24 4.56,-2.66 9.18,-5.17 13.67,-7.94 l -3,0.52 v 0 c -0.14,-0.3 1.41,0.09 2.56,0.68 1.25,0.61 2.56,1.39 3.84,2.24 2.55,1.72 5.13,3.73 7.34,5.81 l 0.09,0.1 c 0.89,0.82 2.27,0.78 3.1,-0.1 0.68,-0.72 0.77,-1.79 0.3,-2.6 -1.79,-3.08 -3.74,-5.79 -5.97,-8.51 -1.13,-1.34 -2.32,-2.67 -3.72,-3.96 -1.52,-1.25 -2.79,-2.67 -6.16,-3.59 v 0 c -0.81,-0.18 -1.61,-0.09 -2.31,0.21 l -0.7,0.3 c -4.85,2.08 -9.56,4.43 -14.34,6.63 -4.41,2 -8.81,3.84 -13.52,4.75 -9.26,2.3 -19.04,2.24 -28.36,0.05 -9.32,-2.13 -18.26,-6.45 -25.68,-12.79 -3.89,-2.99 -7.04,-6.81 -10.13,-10.71 -3.2,-4.17 -6.27,-8.47 -9.57,-12.6 -0.76,-0.95 -2.14,-1.11 -3.08,-0.35 -0.82,0.65 -1.04,1.75 -0.62,2.66" />
      <path
         id="path68"
         style="fill:#212122;fill-opacity:1;fill-rule:nonzero;stroke:none"
         d="m 4157.24,1733.16 c -0.66,10.14 7.01,18.89 17.15,19.55 10.13,0.67 18.89,-7.01 19.55,-17.15 0.66,-10.13 -7.02,-18.88 -17.15,-19.55 -10.13,-0.66 -18.89,7.01 -19.55,17.15" />
      <path
         id="path70"
         style="fill:none;stroke:#212122;stroke-width:5;stroke-linecap:round;stroke-linejoin:round;stroke-miterlimit:10;stroke-dasharray:none;stroke-opacity:1"
         d="m 4214.41,1726.36 c 6.49,2.43 12.42,6.34 17.18,11.37" />
      <path
         id="path72"
         style="fill:none;stroke:#212122;stroke-width:5;stroke-linecap:round;stroke-linejoin:round;stroke-miterlimit:10;stroke-dasharray:none;stroke-opacity:1"
         d="m 4121.73,1732.89 c 8.16,15.36 22.78,27.14 39.52,31.84" />
      <path
         id="path74"
         style="fill:none;stroke:#212122;stroke-width:5;stroke-linecap:round;stroke-linejoin:round;stroke-miterlimit:10;stroke-dasharray:none;stroke-opacity:1"
         d="m 4087.82,1616.9 c 4.99,2.25 9.41,5.74 12.75,10.08" />
      <path
         id="path76"
         style="fill:none;stroke:#212122;stroke-width:5;stroke-linecap:round;stroke-linejoin:round;stroke-miterlimit:10;stroke-dasharray:none;stroke-opacity:1"
         d="m 4070.57,1616.9 c -5,2.25 -9.42,5.74 -12.75,10.08" />
      <path
         id="path78"
         style="fill:none;stroke:#212122;stroke-width:5;stroke-linecap:round;stroke-linejoin:round;stroke-miterlimit:10;stroke-dasharray:none;stroke-opacity:1"
         d="m 4079.34,1710.55 v -66.43" />
      <path
         id="path80"
         style="fill:#212122;fill-opacity:1;fill-rule:nonzero;stroke:none"
         d="m 4139.49,1556.65 c -13.1,-8.3 -30.4,-9.3 -44.8,-2.7 -9.6,-4.2 -20.9,-4.1 -30.49,0.1 -14.31,-6.4 -31.71,-5.6 -44.91,2.4 6.7,-0.2 15.31,5.5 20.11,9.2 l 2.19,1.7 c 5.31,4.3 10.8,8.8 17.7,11 6.7,2 15.7,1 20.8,-4.51 5,5.51 14,6.51 20.7,4.51 6.9,-2.2 12.4,-6.7 17.7,-11 l 2.2,-1.7 c 4.8,-3.7 12.2,-8.91 18.8,-9" />
      <path
         id="path82"
         style="fill:none;stroke:#212122;stroke-width:5.77826;stroke-linecap:round;stroke-linejoin:round;stroke-miterlimit:10;stroke-dasharray:none;stroke-opacity:1"
         d="m 4139.49,1556.65 c -13.1,-8.3 -30.4,-9.3 -44.8,-2.7 -9.6,-4.2 -20.9,-4.1 -30.49,0.1 -14.31,-6.4 -31.71,-5.6 -44.91,2.4 6.7,-0.2 15.31,5.5 20.11,9.2 l 2.19,1.7 c 5.31,4.3 10.8,8.8 17.7,11 6.7,2 15.7,1 20.8,-4.51 5,5.51 14,6.51 20.7,4.51 6.9,-2.2 12.4,-6.7 17.7,-11 l 2.2,-1.7 c 4.8,-3.7 12.2,-8.91 18.8,-9 z" />
      <path
         id="path84"
         style="fill:#212122;fill-opacity:1;fill-rule:nonzero;stroke:none"
         d="m 4019.29,1556.45 c -0.09,0 -0.2,0 -0.29,0" />
      <path
         id="path86"
         style="fill:none;stroke:#212122;stroke-width:5.77826;stroke-linecap:round;stroke-linejoin:round;stroke-miterlimit:10;stroke-dasharray:none;stroke-opacity:1"
         d="m 4019.29,1556.45 c -0.09,0 -0.2,0 -0.29,0" />
      <path
         id="path88"
         style="fill:#212122;fill-opacity:1;fill-rule:nonzero;stroke:none"
         d="m 4139.49,1556.65 c 0.31,0 0.5,0 0.8,0" />
      <path
         id="path90"
         style="fill:none;stroke:#212122;stroke-width:5.77826;stroke-linecap:round;stroke-linejoin:round;stroke-miterlimit:10;stroke-dasharray:none;stroke-opacity:1"
         d="m 4139.49,1556.65 c 0.31,0 0.5,0 0.8,0" />
      <path
         id="path92"
         style="fill:#212122;fill-opacity:1;fill-rule:nonzero;stroke:none"
         d="m 4148.79,1564.45 c -2.7,-3.11 -5.9,-5.7 -9.3,-7.8" />
      <path
         id="path94"
         style="fill:none;stroke:#212122;stroke-width:5.77826;stroke-linecap:round;stroke-linejoin:round;stroke-miterlimit:10;stroke-dasharray:none;stroke-opacity:1"
         d="m 4148.79,1564.45 c -2.7,-3.11 -5.9,-5.7 -9.3,-7.8" />
      <path
         id="path96"
         style="fill:#212122;fill-opacity:1;fill-rule:nonzero;stroke:none"
         d="m 4019.29,1556.45 c -3.6,2.1 -6.9,4.8 -9.69,8" />
      <path
         id="path98"
         style="fill:none;stroke:#212122;stroke-width:5.77826;stroke-linecap:round;stroke-linejoin:round;stroke-miterlimit:10;stroke-dasharray:none;stroke-opacity:1"
         d="m 4019.29,1556.45 c -3.6,2.1 -6.9,4.8 -9.69,8" />
      <path
         id="path100"
         style="fill:none;stroke:#212122;stroke-width:5;stroke-linecap:round;stroke-linejoin:round;stroke-miterlimit:10;stroke-dasharray:none;stroke-opacity:1"
         d="m 4047.34,1529.4 c 21.7,-5.13 44.48,-5.68 66.4,-1.62" />
      <path
         id="path102"
         style="fill:#212122;fill-opacity:1;fill-rule:nonzero;stroke:none"
         d="m 4144.62,1681.97 c 0,0.42 0,0.84 0,1.26 0.01,0.34 -0.06,0.66 -0.22,0.96 -0.1,0.31 -0.27,0.57 -0.52,0.81 -0.22,0.24 -0.49,0.41 -0.8,0.51 -0.3,0.16 -0.62,0.23 -0.96,0.22 -0.22,-0.03 -0.45,-0.07 -0.67,-0.1 -0.42,-0.12 -0.79,-0.33 -1.1,-0.63 -0.13,-0.18 -0.26,-0.34 -0.39,-0.51 -0.23,-0.39 -0.34,-0.81 -0.34,-1.26 0,-0.42 0,-0.84 0,-1.26 -0.02,-0.35 0.05,-0.66 0.21,-0.97 0.1,-0.31 0.27,-0.57 0.52,-0.8 0.22,-0.24 0.49,-0.42 0.8,-0.52 0.3,-0.15 0.62,-0.23 0.97,-0.21 0.21,0.03 0.44,0.06 0.66,0.09 0.42,0.11 0.79,0.33 1.1,0.64 0.13,0.17 0.26,0.33 0.39,0.5 0.23,0.39 0.35,0.81 0.35,1.27 v 0" />
      <path
         id="path104"
         style="fill:#212122;fill-opacity:1;fill-rule:nonzero;stroke:none"
         d="m 4189.94,1674.43 c 3.22,0 3.22,5 0,5 -3.22,0 -3.23,-5 0,-5 v 0" />
      <path
         id="path106"
         style="fill:#212122;fill-opacity:1;fill-rule:nonzero;stroke:none"
         d="m 4169.8,1665.62 c 3.22,0 3.22,5 0,5 -3.22,0 -3.22,-5 0,-5 v 0" />
      <path
         id="path108"
         style="fill:#212122;fill-opacity:1;fill-rule:nonzero;stroke:none"
         d="m 4174.83,1687.02 c 3.22,0 3.23,5 0,5 -3.21,0 -3.22,-5 0,-5 v 0" />
      <path
         id="path110"
         style="fill:#212122;fill-opacity:1;fill-rule:nonzero;stroke:none"
         d="m 4226.43,1685.76 c 3.22,0 3.22,5 0,5 -3.22,0 -3.22,-5 0,-5 v 0" />
      <path
         id="path112"
         style="fill:#212122;fill-opacity:1;fill-rule:nonzero;stroke:none"
         d="m 4206.29,1692.05 c 3.22,0 3.23,5 0,5 -3.21,0 -3.22,-5 0,-5 v 0" />
      <path
         id="path114"
         style="fill:#212122;fill-opacity:1;fill-rule:nonzero;stroke:none"
         d="m 4210.07,1671.91 c 3.22,0 3.22,5 0,5 -3.22,0 -3.22,-5 0,-5 v 0" />
      <path
         id="path116"
         style="fill:#212122;fill-opacity:1;fill-rule:nonzero;stroke:none"
         d="m 4128.26,1660.57 c 0,0.42 0,0.84 0,1.26 0.01,0.34 -0.06,0.67 -0.22,0.96 -0.1,0.31 -0.27,0.59 -0.51,0.81 -0.23,0.24 -0.5,0.41 -0.81,0.52 -0.3,0.15 -0.62,0.22 -0.96,0.21 -0.23,-0.03 -0.45,-0.06 -0.67,-0.09 -0.42,-0.11 -0.79,-0.33 -1.1,-0.64 -0.13,-0.17 -0.26,-0.34 -0.39,-0.51 -0.23,-0.39 -0.34,-0.81 -0.34,-1.26 0,-0.42 0,-0.84 0,-1.26 -0.02,-0.34 0.06,-0.66 0.21,-0.96 0.1,-0.31 0.28,-0.58 0.52,-0.8 0.22,-0.25 0.49,-0.42 0.8,-0.52 0.3,-0.16 0.62,-0.23 0.97,-0.22 0.22,0.03 0.44,0.06 0.66,0.09 0.42,0.12 0.79,0.33 1.11,0.65 0.12,0.16 0.25,0.34 0.39,0.5 0.22,0.39 0.33,0.81 0.34,1.26 v 0" />
      <path
         id="path118"
         style="fill:#212122;fill-opacity:1;fill-rule:nonzero;stroke:none"
         d="m 4127.01,1681.95 c -0.42,0 -0.83,0 -1.25,0 -0.35,0.01 -0.67,-0.06 -0.97,-0.21 -0.31,-0.1 -0.58,-0.28 -0.8,-0.52 -0.24,-0.23 -0.42,-0.5 -0.52,-0.8 -0.15,-0.31 -0.23,-0.63 -0.21,-0.97 0.03,-0.22 0.06,-0.44 0.09,-0.66 0.11,-0.43 0.33,-0.8 0.64,-1.11 0.17,-0.12 0.34,-0.26 0.5,-0.39 0.39,-0.22 0.81,-0.34 1.27,-0.34 0.42,0 0.83,0 1.25,0 0.35,-0.01 0.67,0.06 0.97,0.21 0.31,0.1 0.58,0.28 0.8,0.52 0.24,0.23 0.42,0.5 0.52,0.8 0.15,0.31 0.23,0.63 0.21,0.97 -0.03,0.22 -0.06,0.44 -0.09,0.66 -0.11,0.42 -0.33,0.8 -0.64,1.11 -0.17,0.12 -0.34,0.26 -0.5,0.39 -0.39,0.22 -0.81,0.34 -1.27,0.34 v 0" />
      <path
         id="path120"
         style="fill:#212122;fill-opacity:1;fill-rule:nonzero;stroke:none"
         d="m 4237.75,1693.31 c 3.22,0 3.23,5 0,5 -3.21,0 -3.22,-5 0,-5 v 0" />
      <path
         id="path122"
         style="fill:#212122;fill-opacity:1;fill-rule:nonzero;stroke:none"
         d="m 4109.38,1650.5 c 0,0.42 0,0.84 0,1.26 0.01,0.35 -0.06,0.67 -0.21,0.97 -0.11,0.3 -0.28,0.58 -0.52,0.8 -0.23,0.25 -0.5,0.42 -0.81,0.52 -0.3,0.16 -0.62,0.22 -0.96,0.21 -0.22,-0.02 -0.44,-0.05 -0.66,-0.08 -0.43,-0.12 -0.8,-0.34 -1.11,-0.65 -0.13,-0.16 -0.26,-0.34 -0.39,-0.51 -0.23,-0.39 -0.34,-0.81 -0.34,-1.26 0,-0.42 0,-0.84 0,-1.26 -0.01,-0.34 0.06,-0.66 0.22,-0.96 0.09,-0.3 0.27,-0.58 0.51,-0.8 0.23,-0.25 0.5,-0.42 0.8,-0.52 0.3,-0.16 0.62,-0.23 0.97,-0.22 0.22,0.03 0.44,0.06 0.66,0.09 0.42,0.12 0.8,0.33 1.11,0.65 0.13,0.16 0.26,0.34 0.39,0.5 0.22,0.4 0.34,0.82 0.34,1.26 v 0" />
      <path
         id="path124"
         style="fill:#212122;fill-opacity:1;fill-rule:nonzero;stroke:none"
         d="m 4045.22,1680.73 c 3.21,0 3.22,5 0,5 -3.22,0 -3.23,-5 0,-5 v 0" />
      <path
         id="path126"
         style="fill:#212122;fill-opacity:1;fill-rule:nonzero;stroke:none"
         d="m 4050.25,1661.85 c 3.22,0 3.22,5 0,5 -3.22,0 -3.22,-5 0,-5 v 0" />
      <path
         id="path128"
         style="fill:#212122;fill-opacity:1;fill-rule:nonzero;stroke:none"
         d="m 4025.08,1684.5 c 3.22,0 3.22,5 0,5 -3.22,0 -3.22,-5 0,-5 v 0" />
      <path
         id="path130"
         style="fill:#212122;fill-opacity:1;fill-rule:nonzero;stroke:none"
         d="m 3998.65,1688.28 c 3.22,0 3.23,5 0,5 -3.21,0 -3.22,-5 0,-5 v 0" />
      <path
         id="path132"
         style="fill:#212122;fill-opacity:1;fill-rule:nonzero;stroke:none"
         d="m 4020.04,1670.66 c 3.22,0 3.23,5 0,5 -3.21,0 -3.22,-5 0,-5 v 0" />
      <path
         id="path134"
         style="fill:#212122;fill-opacity:1;fill-rule:nonzero;stroke:none"
         d="m 3977.26,1685.76 c 3.22,0 3.22,5 0,5 -3.22,0 -3.22,-5 0,-5 v 0" />
      <path
         id="path136"
         style="fill:#212122;fill-opacity:1;fill-rule:nonzero;stroke:none"
         d="m 3939.51,1684.5 c 3.22,0 3.22,5 0,5 -3.22,0 -3.22,-5 0,-5 v 0" />
      <path
         id="path138"
         style="fill:#212122;fill-opacity:1;fill-rule:nonzero;stroke:none"
         d="m 3920.63,1697.09 c 3.22,0 3.22,5 0,5 -3.22,0 -3.22,-5 0,-5 v 0" />
      <path
         id="path140"
         style="fill:#212122;fill-opacity:1;fill-rule:nonzero;stroke:none"
         d="m 3953.35,1687.02 c 3.22,0 3.22,5 0,5 -3.22,0 -3.22,-5 0,-5 v 0" />
      <path
         id="path142"
         style="fill:#212122;fill-opacity:1;fill-rule:nonzero;stroke:none"
         d="m 3994.88,1674.43 c 3.22,0 3.22,5 0,5 -3.22,0 -3.22,-5 0,-5 v 0" />
      <path
         id="path144"
         style="fill:#212122;fill-opacity:1;fill-rule:nonzero;stroke:none"
         d="m 3964.67,1679.43 c -0.42,0 -0.84,0 -1.25,0 -0.35,0.01 -0.67,-0.06 -0.97,-0.21 -0.31,-0.1 -0.57,-0.28 -0.8,-0.52 -0.24,-0.23 -0.42,-0.49 -0.52,-0.8 -0.15,-0.31 -0.23,-0.63 -0.21,-0.97 0.03,-0.22 0.06,-0.44 0.09,-0.66 0.11,-0.42 0.33,-0.79 0.64,-1.11 0.17,-0.12 0.34,-0.26 0.5,-0.39 0.39,-0.22 0.81,-0.34 1.27,-0.34 0.41,0 0.83,0 1.25,0 0.35,-0.01 0.67,0.06 0.97,0.22 0.31,0.1 0.58,0.27 0.8,0.51 0.25,0.23 0.42,0.5 0.52,0.81 0.16,0.3 0.23,0.62 0.21,0.96 -0.03,0.23 -0.05,0.45 -0.08,0.66 -0.12,0.43 -0.34,0.8 -0.65,1.11 -0.16,0.13 -0.34,0.26 -0.5,0.39 -0.39,0.22 -0.81,0.34 -1.27,0.34 v 0" />
      <path
         id="path146"
         style="fill:#212122;fill-opacity:1;fill-rule:nonzero;stroke:none"
         d="m 3923.15,1678.21 c 3.21,0 3.22,5 0,5 -3.22,0 -3.23,-5 0,-5 v 0" />
      <path
         id="path148"
         style="fill:#212122;fill-opacity:1;fill-rule:nonzero;stroke:none"
         d="m 3944.54,1666.88 c 3.22,0 3.22,5 0,5 -3.22,0 -3.22,-5 0,-5 v 0" />
      <path
         id="path150"
         style="fill:#212122;fill-opacity:1;fill-rule:nonzero;stroke:none"
         d="m 3978.52,1656.81 c 3.21,0 3.22,5 0,5 -3.22,0 -3.23,-5 0,-5 v 0" />
      <path
         id="path152"
         style="fill:#212122;fill-opacity:1;fill-rule:nonzero;stroke:none"
         d="m 4235.43,1947.66 c 10.93,-10.61 20.37,-22.77 28.88,-35.63 8.08,-13.1 15.15,-26.91 20.91,-41.28 5.78,-14.36 9.95,-29.29 13.64,-44.31 3.26,-15.11 5.47,-30.41 7.07,-45.75 1.09,-15.37 1.66,-30.76 1.3,-46.12 -0.73,-15.35 -1.58,-30.64 -3.79,-45.74 -3.94,-30.28 -10.45,-60 -19.49,-89.06 0.83,30.44 2.97,60.46 3.94,90.32 0.94,29.87 0.8,59.46 -1.87,88.84 -2.43,29.4 -7.57,58.41 -15.51,86.78 -4.25,14.08 -9.04,28.06 -14.84,41.75 -5.84,13.66 -12.79,26.88 -20.24,40.2" />
      <path
         id="path154"
         style="fill:#212122;fill-opacity:1;fill-rule:nonzero;stroke:none"
         d="m 3944.42,2013.32 c -19.42,-28.6 -34.03,-59.13 -44.08,-91.15 -9.84,-32.04 -16.18,-65.08 -18.96,-98.58 -3.29,-33.42 -3.14,-67.29 -2.4,-101.35 0.86,-34.05 2.78,-68.34 2.65,-102.91 -8.14,33.58 -14.4,67.44 -18.22,101.85 -3.94,34.36 -5.02,69.32 -1.94,104.25 3.3,34.82 10.85,69.54 24.27,102.07 13.26,32.47 32.95,62.67 58.68,85.82" />
      <path
         id="path156"
         style="fill:#212122;fill-opacity:1;fill-rule:nonzero;stroke:none"
         d="m 4188.85,2036.21 c -67.02,40.95 -168.17,40.38 -232.69,-4.41 -61.88,-42.95 -85.1,-118.47 -105.11,-191.09 7.68,-0.04 34.01,0.06 70.44,0.08 0.64,2.08 1.46,4.25 2.65,6.58 12.43,24.36 24.86,48.71 37.29,73.07 -12.18,-23.88 -14.46,-51.33 -19.47,-77.1 -0.18,-0.92 -0.42,-1.69 -0.63,-2.55 12.3,0 25.38,-0.02 39.09,-0.06 12.89,-0.03 48.45,73.76 48.45,73.76 0,0 30.66,-74.16 50.52,-74.36 13.58,-0.13 27.15,-0.3 40.57,-0.49 -8.66,19.01 -17.32,38.03 -25.97,57.05 13.89,-19.11 27.77,-38.21 41.66,-57.3 15.7,-0.26 31.06,-0.57 45.75,-0.94 -0.65,1.67 -1.31,3.32 -2.02,4.91 -11.81,26.18 -23.37,52.47 -35.06,78.71 21.71,-28.14 43.42,-56.27 65.13,-84.42 39.78,-1.28 72.3,-3.07 89.91,-5.57 10.42,77.85 -43.49,163.17 -110.51,204.13" />
      <path
         id="path158"
         style="fill:none;stroke:#212122;stroke-width:10;stroke-linecap:round;stroke-linejoin:round;stroke-miterlimit:10;stroke-dasharray:none;stroke-opacity:1"
         d="m 4020.2,1951.52 c -4.95,-40.11 8.92,-82.13 36.75,-111.42" />
      <path
         id="path160"
         style="fill:#212122;fill-opacity:1;fill-rule:nonzero;stroke:none"
         d="m 3696.97,1009.38 c 77.56,-35.001 148.37,-45.778 158.16,-24.091 9.78,21.691 -45.15,67.641 -122.71,102.641 -77.56,35 -148.37,45.78 -158.16,24.09 -9.78,-21.69 45.15,-67.65 122.71,-102.64" />
      <path
         id="path162"
         style="fill:#f4f1fa;fill-opacity:1;fill-rule:nonzero;stroke:none"
         d="m 3452.7,644.75 c 0.3,1 0.7,1.898 1,2.902 l 108.21,309.09 23.59,67.408 47.6,136 c 15.1,43.3 47.2,74.9 83.9,87.8 11.9,4.2 24.3,6.4 36.7,6.4 11.4,0 22.8,-1.9 34,-5.8 63.8,-22.4 92.4,-102.4 62.31,-174.31 L 3788,926.648 l -22.5,-53.5 -18.3,-43.597 -77.7,-184.801" />
      <path
         id="path164"
         style="fill:none;stroke:#212122;stroke-width:5;stroke-linecap:round;stroke-linejoin:round;stroke-miterlimit:10;stroke-dasharray:none;stroke-opacity:1"
         d="m 3452.7,644.75 c 0.3,1 0.7,1.898 1,2.902 l 108.21,309.09 23.59,67.408 47.6,136 c 15.1,43.3 47.2,74.9 83.9,87.8 11.9,4.2 24.3,6.4 36.7,6.4 11.4,0 22.8,-1.9 34,-5.8 63.8,-22.4 92.4,-102.4 62.31,-174.31 L 3788,926.648 l -22.5,-53.5 -18.3,-43.597 -77.7,-184.801" />
      <path
         id="path166"
         style="fill:#212122;fill-opacity:1;fill-rule:nonzero;stroke:none"
         d="m 3900.9,1092.65 -46.1,-108.201 c -20.4,27.101 -71,62.101 -134.6,90.801 -56,25.2 -108.9,39.7 -143.9,41 l 61.6,103.7 c 18.5,36.3 49.3,63 84.5,76.2 55.2,-32.1 114.9,-56.7 176.8,-73 18.4,-38.91 20.5,-86.41 1.7,-130.5" />
      <path
         id="path168"
         style="fill:#212122;fill-opacity:1;fill-rule:nonzero;stroke:none"
         d="m 4425.52,1009.38 c -77.56,-35.001 -148.37,-45.778 -158.15,-24.091 -9.79,21.691 45.15,67.641 122.71,102.641 77.56,35 148.37,45.78 158.15,24.09 9.79,-21.69 -45.15,-67.65 -122.71,-102.64" />
      <path
         id="path170"
         style="fill:#f4f1fa;fill-opacity:1;fill-rule:nonzero;stroke:none"
         d="m 4669.79,644.75 c -0.3,1 -0.7,1.898 -1,2.902 l -108.2,309.09 -23.6,67.408 -47.59,136 c -15.11,43.3 -47.21,74.9 -83.91,87.8 -11.9,4.2 -24.3,6.4 -36.7,6.4 -11.4,0 -22.8,-1.9 -34,-5.8 -63.8,-22.4 -92.4,-102.4 -62.3,-174.31 l 62,-147.592 22.5,-53.5 18.3,-43.597 77.7,-184.801" />
      <path
         id="path172"
         style="fill:none;stroke:#212122;stroke-width:5;stroke-linecap:round;stroke-linejoin:round;stroke-miterlimit:10;stroke-dasharray:none;stroke-opacity:1"
         d="m 4669.79,644.75 c -0.3,1 -0.7,1.898 -1,2.902 l -108.2,309.09 -23.6,67.408 -47.59,136 c -15.11,43.3 -47.21,74.9 -83.91,87.8 -11.9,4.2 -24.3,6.4 -36.7,6.4 -11.4,0 -22.8,-1.9 -34,-5.8 -63.8,-22.4 -92.4,-102.4 -62.3,-174.31 l 62,-147.592 22.5,-53.5 18.3,-43.597 77.7,-184.801" />
      <path
         id="path174"
         style="fill:#212122;fill-opacity:1;fill-rule:nonzero;stroke:none"
         d="m 4221.6,1092.65 46.1,-108.201 c 20.4,27.101 71,62.101 134.6,90.801 56,25.2 108.9,39.7 143.9,41 l -61.6,103.7 c -18.51,36.3 -49.3,63 -84.5,76.2 -55.2,-32.1 -114.9,-56.7 -176.8,-73 -18.4,-38.91 -20.5,-86.41 -1.7,-130.5" />
      <path
         id="path176"
         style="fill:#f4f1fa;fill-opacity:1;fill-rule:nonzero;stroke:none"
         d="m 4419.6,1285.75 c -90.5,-49.01 -191.5,-78.6 -294.2,-85.1 -131.4,-8.3 -264.8,21.2 -380.9,83.19 11.8,9.71 26.3,16.71 43.4,20.4 8.6,1.81 18,2.81 28.1,2.81 h 537.4 c 10,0 19.2,-1 27.6,-2.81 15.5,-3.39 28.3,-9.69 38.6,-18.49" />
      <path
         id="path178"
         style="fill:#212122;fill-opacity:1;fill-rule:nonzero;stroke:none"
         d="m 4446.7,1121.95 -25.6,-122.399 c 5.1,-11.199 9.1,-23 11.8,-35.309 2.8,-12.793 4.3,-25.992 4.3,-39.594 0,-16.199 -2.1,-31.996 -6.2,-46.996 -3.4,-13.004 -8.2,-25.402 -14.3,-37.004 -10,-19.199 -23.2,-36.5 -39.1,-51 L 4347.5,644.75 h -541.7 l -30.1,149 c -10.9,10.602 -20.5,22.699 -28.5,35.801 -9.5,15.601 -16.8,32.699 -21.3,50.898 -3.5,14.102 -5.4,28.903 -5.4,44.199 0,15.5 2,30.602 5.6,45 2.3,9.102 5.2,17.903 8.7,26.403 l -25.4,125.899 c -10.9,46.4 -8.8,91.8 7.6,126 6.7,14.1 15.8,26.2 27.5,35.89 116.1,-61.99 249.5,-91.49 380.9,-83.19 102.7,6.5 203.7,36.09 294.2,85.1 11.1,-9.41 19.4,-21.6 25.1,-35.7 14.1,-34.5 13.1,-80.81 2,-128.1" />
      <path
         id="path180"
         style="fill:#ffffff;fill-opacity:1;fill-rule:nonzero;stroke:none"
         d="m 4446.67,1122 c -3.76,-20.51 -7.22,-41.08 -11.28,-61.51 -3.93,-20.47 -7.82,-40.94 -12.06,-61.349 l -0.15,1.359 c 8,-17.57 13.35,-36.43 15.43,-55.68 2.02,-19.261 0.89,-38.781 -3.07,-57.691 -3.93,-18.938 -11.35,-37.039 -21.08,-53.617 -9.75,-16.621 -22.51,-31.282 -36.84,-43.871 13.73,13.308 25.17,28.73 34.35,45.3 9.18,16.59 15.48,34.618 19.3,53.071 7.42,37.008 3.14,76.179 -12.16,110.668 -0.2,0.441 -0.24,0.929 -0.15,1.37 4.27,20.4 8.9,40.72 13.47,61.05 4.45,20.36 9.49,40.6 14.24,60.9" />
      <path
         id="path182"
         style="fill:#ffffff;fill-opacity:1;fill-rule:nonzero;stroke:none"
         d="m 3775.69,793.719 c -13.3,12.5 -25.09,26.832 -34.14,42.89 -8.99,16.043 -15.8,33.43 -19.52,51.539 -3.66,18.114 -4.79,36.762 -3,55.192 1.71,18.43 6.54,36.531 13.72,53.551 l -0.13,-1.321 c -8.38,42.01 -15.98,84.18 -23.18,126.43 9.74,-41.74 19.07,-83.56 27.63,-125.531 0.09,-0.457 0.03,-0.93 -0.14,-1.328 -13.65,-33.371 -17.58,-70.692 -10.66,-106.141 3.49,-17.691 9.31,-34.988 17.76,-51.039 8.44,-16.039 18.97,-31.07 31.66,-44.242" />
    </g>
  </g>
</svg>
