<?xml version="1.0" encoding="UTF-8" standalone="no"?>
<!-- Created with Inkscape (http://www.inkscape.org/) -->

<svg
   width="111.23117mm"
   height="99.507713mm"
   viewBox="0 0 111.23117 99.507713"
   version="1.1"
   id="svg12946"
   xmlns="http://www.w3.org/2000/svg"
   xmlnsSvg="http://www.w3.org/2000/svg">
  <defs
     id="defs12943" />
  <g
     inkscapeLabel="Layer 1"
     id="layer1"
     transform="translate(-49.467043,-98.746141)">
    <g
       id="g10703"
       transform="matrix(0.35277777,0,0,-0.35277777,47.599409,465.57586)">
      <path
         id="path14"
         style="fill:#231f20;fill-opacity:1;fill-rule:nonzero;stroke:none;stroke-width:0.1"
         d="m 233.36,770.402 c -25.59,-7.966 -54.189,-8.881 -80.8,-6.966 -24.737,1.779 -49.855,7.288 -71.5702,19.658 -23.1722,13.2 -42.1015,34.557 -47.4929,61.138 -6.2313,30.722 -5.3211,63.499 0.4875,94.196 6.5961,34.861 20.1152,68.152 39.8043,97.662 -1.4391,0 -2.8782,0 -4.3172,0 4.2734,-7.53 8.5473,-15.07 12.8211,-22.61 3.664,-6.46 6.9211,-13.491 11.3562,-19.466 3.8832,-5.23 8.8042,-7.194 15.1842,-7.742 8.734,-0.75 17.516,-1.136 26.264,-1.7 17.386,-1.12 34.772,-2.24 52.158,-3.359 8.857,-0.571 17.714,-1.142 26.571,-1.712 6.87,-0.442 14.723,-2.024 21.46,-0.051 7.094,2.077 9.913,8.847 13.063,14.878 4.532,8.682 9.064,17.352 13.596,26.032 -1.309,-0.17 -2.617,-0.34 -3.926,-0.5 25.762,-33.172 41.544,-73.85 45.184,-115.677 3.108,-35.71 -0.739,-76.496 -24.961,-104.827 -11.872,-13.887 -27.61,-23.342 -44.882,-28.954 -3.047,-0.991 -1.743,-5.82 1.329,-4.822 33.11,10.759 57.463,35.167 67.625,68.557 12.138,39.882 7.764,85.682 -5.699,124.63 -8.068,23.34 -19.917,45.123 -35.061,64.623 -0.976,1.26 -3.247,0.79 -3.926,-0.51 -4.386,-8.39 -8.772,-16.79 -13.158,-25.189 -1.958,-3.748 -3.765,-8.821 -7.087,-11.611 -3.537,-2.969 -8.438,-2.516 -12.732,-2.276 -20.018,1.116 -40.023,2.578 -60.03,3.867 -9.841,0.634 -19.683,1.267 -29.524,1.901 -4.92,0.317 -9.841,0.634 -14.761,0.951 -4.875,0.314 -10.192,0.107 -14.958,1.223 -8.8518,2.073 -12.8225,13.774 -16.869,20.904 -4.9067,8.66 -9.8133,17.31 -14.7203,25.97 -0.9707,1.71 -3.3043,1.52 -4.3172,0 C 33.3742,984.504 17.9324,917.476 26.9789,853.035 c 2.2152,-15.781 6.7316,-29.871 16.1402,-42.857 7.1981,-9.934 16.0258,-18.515 26.0731,-25.546 20.9394,-14.652 46.1648,-21.904 71.2878,-25.02 14.453,-1.792 29.064,-2.19 43.608,-1.585 17.081,0.71 34.218,2.453 50.601,7.553 3.062,0.954 1.755,5.782 -1.329,4.822"
         inkscapeLabel="path116" />
      <path
         id="path16"
         style="fill:#231f20;fill-opacity:1;fill-rule:nonzero;stroke:none;stroke-width:0.1"
         d="m 259.009,994.121 c -1.392,-5.066 -2.275,-10.206 -2.711,-15.441 -0.098,-1.182 0.866,-2.015 1.836,-2.41 4.351,-1.771 8.761,-2.142 13.386,-1.48 1.266,0.181 2.168,1.926 1.746,3.075 -2.102,5.724 -4.843,11.093 -8.339,16.093 -1.081,1.546 -4.214,1.733 -4.57,-0.597 -0.881,-5.768 -0.583,-11.34 1.105,-16.938 0.467,-1.547 2.247,-2.314 3.673,-1.494 2.148,1.235 4.215,3.093 3.692,5.835 -0.408,2.144 -2.693,3.926 -4.894,3.207 -4.621,-1.51 -0.977,-9.029 3.335,-5.671 2.536,1.974 -1.025,5.49 -3.535,3.535 -0.115,-0.089 -0.231,-0.179 -0.346,-0.269 0.811,0.215 1.622,0.429 2.433,0.643 0.31,-0.327 0.62,-0.655 0.931,-0.983 -0.244,-0.589 -0.488,-1.179 -0.732,-1.768 0.115,0.112 0.231,0.223 0.347,0.335 -0.589,-0.245 -1.179,-0.489 -1.768,-0.732 -0.679,0.781 -1.341,0.843 -1.987,0.185 1.224,-0.498 2.448,-0.996 3.673,-1.494 -1.412,4.681 -1.846,9.434 -1.105,14.28 -1.523,-0.199 -3.047,-0.398 -4.57,-0.598 3.246,-4.641 5.882,-9.577 7.836,-14.898 0.582,1.025 1.164,2.05 1.746,3.075 -3.712,-0.531 -7.281,0.078 -10.728,1.48 0.612,-0.803 1.224,-1.607 1.835,-2.411 0.4,4.796 1.258,9.474 2.532,14.112 0.853,3.108 -3.969,4.433 -4.821,1.329 v 0"
         inkscapeLabel="path115" />
      <path
         id="path18"
         style="fill:#231f20;fill-opacity:1;fill-rule:nonzero;stroke:none;stroke-width:0.1"
         d="m 66.0266,1006.64 c -2.4856,-3.87 -4.9711,-7.749 -7.4567,-11.625 -0.6676,-1.041 -0.309,-2.894 0.8969,-3.42 5.0117,-2.187 10.1133,-2.807 15.4984,-1.815 1.3442,0.248 2.0606,1.858 1.7461,3.075 -1.1558,4.481 -2.8867,8.745 -5.1648,12.765 -0.8168,1.45 -2.7688,1.59 -3.9266,0.51 -1.8902,-1.76 -3.7676,-4.04 -3.216,-6.812 0.4668,-2.349 2.5809,-4.304 5.0414,-3.984 3.1785,0.414 3.2438,4.642 0,4.996 -3.4305,0.38 -6.5316,-1.352 -8.2711,-4.279 -0.5847,-0.983 -0.3621,-2.215 0.391,-3.03 1.3672,-1.478 3.0926,-2.197 5.1102,-2.054 3.1914,0.227 3.2164,5.229 0,5 -0.6625,-0.202 -1.1875,-0.006 -1.5746,0.59 0.1301,-1.01 0.2605,-2.019 0.3906,-3.03 0.9102,1.532 2.2215,1.999 3.9539,1.807 0,1.667 0,3.334 0,4.996 -0.2301,-0.03 1.525,2.09 1.7102,2.26 -1.3086,0.17 -2.6176,0.34 -3.9262,0.51 2.075,-3.668 3.6086,-7.495 4.6609,-11.573 0.5821,1.025 1.1641,2.05 1.7461,3.075 -3.9371,-0.726 -7.9695,-0.294 -11.6461,1.31 0.2993,-1.141 0.5981,-2.28 0.8969,-3.421 2.4856,3.876 4.9715,7.749 7.457,11.629 1.7418,2.72 -2.5839,5.23 -4.3175,2.52 v 0"
         inkscapeLabel="path114" />
      <path
         id="path20"
         style="fill:#231f20;fill-opacity:1;fill-rule:nonzero;stroke:none;stroke-width:0.1"
         d="m 237.469,916.883 c -1.72,-5.233 0.231,-10.249 4.765,-13.259 0.878,-0.584 2.321,-0.394 3.029,0.391 5.992,6.633 6.032,16.282 0.174,23.006 -1.17,1.343 -3.027,0.673 -3.926,-0.506 -6.58,-8.626 -7.139,-20.299 -1.747,-29.652 0.84,-1.458 2.743,-1.563 3.926,-0.505 7.412,6.622 7.424,18.74 0.036,25.385 -1.167,1.049 -3.106,0.963 -3.927,-0.506 -3.567,-6.386 -2.633,-13.819 2.357,-19.154 0.885,-0.946 2.657,-0.985 3.535,0 3.004,3.369 3.54,7.596 1.085,11.475 -0.908,1.434 -2.685,1.576 -3.926,0.506 -4.012,-3.458 -4.776,-8.614 -2.454,-13.277 1.068,-2.144 3.832,-1.195 4.569,0.598 1.372,3.336 1.566,6.278 1.062,9.821 -0.401,2.82 -4.95,2.097 -4.91,-0.664 0.02,-1.386 0.04,-2.771 0.06,-4.156 0.046,-3.214 5.046,-3.224 5,0 -0.02,1.385 -0.04,2.77 -0.06,4.156 -1.637,-0.222 -3.274,-0.443 -4.911,-0.665 0.375,-2.638 -0.073,-4.757 -1.062,-7.163 1.523,0.199 3.046,0.398 4.569,0.597 -1.376,2.763 -0.576,5.28 1.672,7.218 -1.309,0.168 -2.617,0.337 -3.926,0.505 1.373,-1.822 1.272,-3.627 -0.303,-5.415 1.178,0 2.357,0 3.535,0 -3.448,3.687 -4.026,8.704 -1.574,13.094 -1.309,-0.168 -2.618,-0.337 -3.927,-0.506 5.463,-4.913 5.448,-13.414 -0.035,-18.314 1.308,-0.169 2.617,-0.337 3.926,-0.506 -4.584,7.951 -3.784,17.352 1.747,24.605 -1.309,-0.169 -2.618,-0.338 -3.926,-0.506 4.007,-4.599 3.9,-11.425 -0.174,-15.936 1.01,0.13 2.019,0.261 3.029,0.391 -2.754,1.829 -3.467,4.571 -2.467,7.613 1.007,3.064 -3.82,4.377 -4.821,1.329 v 0"
         inkscapeLabel="path113" />
      <path
         id="path22"
         style="fill:#231f20;fill-opacity:1;fill-rule:nonzero;stroke:none;stroke-width:0.1"
         d="m 88.0352,916.883 c -1.7196,-5.233 0.2316,-10.249 4.7652,-13.259 0.8781,-0.584 2.3211,-0.394 3.0293,0.391 5.9923,6.633 6.0323,16.282 0.1742,23.006 -1.1699,1.343 -3.0277,0.673 -3.9266,-0.506 -6.5793,-8.626 -7.139,-20.299 -1.7472,-29.652 0.841,-1.458 2.7433,-1.563 3.9265,-0.505 7.4124,6.622 7.4244,18.74 0.0356,25.385 -1.1668,1.049 -3.1063,0.963 -3.9266,-0.506 -3.5668,-6.386 -2.6332,-13.819 2.3567,-19.154 0.8847,-0.946 2.6574,-0.985 3.5355,0 3.0039,3.369 3.5399,7.596 1.0848,11.475 -0.9078,1.434 -2.6848,1.576 -3.9266,0.506 -4.0113,-3.458 -4.7758,-8.614 -2.4535,-13.277 1.068,-2.144 3.8324,-1.195 4.5691,0.598 1.3719,3.336 1.5661,6.278 1.0622,9.821 -0.4008,2.82 -4.9504,2.097 -4.9106,-0.664 0.0199,-1.386 0.0398,-2.771 0.0598,-4.156 0.0465,-3.214 5.0465,-3.224 5,0 -0.02,1.385 -0.0399,2.77 -0.0598,4.156 -1.6367,-0.222 -3.2738,-0.443 -4.9105,-0.665 0.375,-2.638 -0.0731,-4.757 -1.0622,-7.163 1.5231,0.199 3.0461,0.398 4.5692,0.597 -1.3762,2.763 -0.5758,5.28 1.6719,7.218 -1.3086,0.168 -2.6176,0.337 -3.9262,0.505 1.3726,-1.822 1.2719,-3.627 -0.3031,-5.415 1.1785,0 2.357,0 3.5355,0 -3.4484,3.687 -4.0265,8.704 -1.5746,13.094 -1.309,-0.168 -2.6176,-0.337 -3.9266,-0.506 5.4629,-4.913 5.4481,-13.414 -0.0355,-18.314 1.309,-0.169 2.6176,-0.337 3.9266,-0.506 -4.5836,7.951 -3.7844,17.352 1.7468,24.605 -1.3086,-0.169 -2.6175,-0.338 -3.9261,-0.506 4.007,-4.599 3.9,-11.425 -0.1743,-15.936 1.0102,0.13 2.02,0.261 3.0297,0.391 -2.7539,1.829 -3.4672,4.571 -2.4672,7.613 1.0071,3.064 -3.8199,4.377 -4.8214,1.329 v 0"
         inkscapeLabel="path112" />
      <path
         id="path24"
         style="fill:#231f20;fill-opacity:1;fill-rule:nonzero;stroke:none;stroke-width:0.1"
         d="m 165.82,887.721 c -5.287,4.266 -11.053,-3.184 -6.573,-7.96 4.997,-5.327 14.437,-2.704 18.439,2.459 4.485,5.787 -3.974,11.032 -9.436,10.453 -6.239,-0.66 -9.338,-7.088 -6.928,-12.657 2.428,-5.611 9.412,-6.758 13.227,-1.86 3.854,4.947 1.318,13.385 -5.88,12.361 -5.903,-0.84 -6.456,-10.413 -0.116,-10.522 5.648,-0.097 6.088,8.525 1.247,10.245 -7.823,2.78 -12.202,-10.463 -4.57,-13.481 6.406,-2.534 9.723,8.025 3.324,9.329 -1.182,0.24 -2.14,-0.187 -2.823,-1.149 -1.574,-2.216 -1.56,-4.765 -0.092,-7.022 0.666,-1.023 1.668,-1.332 2.823,-1.149 8.38,1.332 3.262,16.103 -5.179,10.171 -3.799,-2.669 -4.041,-7.702 -1.554,-11.341 2.757,-4.036 8.027,-5.802 12.732,-5.11 9.024,1.327 14.269,13.946 5.679,19.605 -7.265,4.786 -18.977,-0.57 -20.865,-8.842 -1.165,-5.107 2.887,-9.103 7.886,-8.823 5.676,0.318 8.558,5.68 10.026,10.488 0.427,1.398 -0.52,2.584 -1.746,3.076 -4.603,1.846 -12.587,-2.392 -9.386,-7.915 1.129,-1.95 3.834,-4.465 6.284,-3.974 3.157,0.634 6.04,5 7.342,7.586 1.443,2.867 -2.869,5.402 -4.317,2.524 -1.188,-2.361 -2.709,-4.128 -4.952,-5.54 0.841,0 1.683,0 2.524,0 -1.103,0.48 -2.91,1.052 -2.084,2.242 0.617,0.888 2.498,0.561 3.26,0.255 -0.582,1.025 -1.164,2.05 -1.746,3.076 -0.642,-2.101 -1.524,-4.98 -3.561,-6.167 -1.493,-0.87 -2.714,-0.978 -3.882,0.392 -1.254,1.47 -0.631,2.584 0.359,4.048 2.07,3.058 6.806,5.117 10.438,4.124 5.403,-1.476 4.374,-8.473 0.049,-10.589 -2.381,-1.164 -5.386,-0.934 -7.664,0.385 -1.003,0.58 -2.166,1.504 -2.654,2.618 -0.121,0.776 -0.242,1.552 -0.363,2.328 2.871,1.401 3.553,1.469 2.045,0.205 0.941,-0.383 1.882,-0.766 2.824,-1.149 0.03,0.658 0.061,1.316 0.091,1.974 -0.941,-0.383 -1.882,-0.766 -2.823,-1.149 -2.346,0.478 -0.51,3.922 1.282,4.216 2.002,0.328 3.087,-0.679 2.884,-2.584 -0.327,-3.055 -3.969,-3.864 -5.385,-1.163 -3.209,6.122 6.026,7.885 8.623,2.385 0,0.842 0,1.683 0,2.524 -1.246,-2.128 -3.056,-3.718 -5.459,-4.4 -0.868,-0.246 -1.818,-0.384 -2.721,-0.341 -2.503,0.119 -2.388,0.848 -4.165,2.282 2.482,-2.003 6.041,1.514 3.536,3.536 v 0"
         inkscapeLabel="path111" />
      <path
         id="path26"
         style="fill:#231f20;fill-opacity:1;fill-rule:nonzero;stroke:none;stroke-width:0.1"
         d="m 134.974,864.062 c -3.689,-14.759 8.792,-28.544 23.94,-25.29 15.766,3.387 18.187,21.617 18.748,34.948 0.14,3.305 -4.588,3.082 -5,0 -1.668,-12.493 -2.019,-36.278 12.58,-42.07 6.23,-2.471 13.206,0.137 17.653,4.826 5.451,5.75 6.807,13.818 7.728,21.376 0.388,3.187 -4.615,3.159 -5,0 -0.75,-6.155 -1.822,-13.15 -6.264,-17.84 -4.365,-4.61 -11.278,-6.039 -15.976,-1.103 -7.911,8.312 -7.111,24.397 -5.721,34.811 -1.666,0 -3.333,0 -5,0 -0.406,-9.648 -1.08,-22.645 -10.346,-28.277 -11.985,-7.284 -25.773,4.276 -22.521,17.29 0.781,3.122 -4.04,4.454 -4.821,1.329 v 0"
         inkscapeLabel="path110" />
      <path
         id="path28"
         style="fill:#231f20;fill-opacity:1;fill-rule:nonzero;stroke:none;stroke-width:0.1"
         d="m 129.264,983.43 c -2.287,-10.446 -2.613,-21.213 -0.438,-31.716 1.285,-6.203 4.982,-14.322 12.62,-13.482 7.502,0.825 10.277,9.726 11.643,15.891 2.423,10.936 2.428,22.112 0.442,33.111 -0.272,1.509 -2.426,2.38 -3.672,1.495 -4.945,-3.513 -10.203,-6.111 -16.026,-7.836 0.811,-1.393 1.622,-2.786 2.433,-4.179 1.776,1.69 3.75,2.296 6.154,2.14 -0.589,1.423 -1.179,2.846 -1.768,4.268 -4.592,-5.02 -7.714,-10.786 -9.304,-17.41 -0.559,-2.332 2.411,-4.33 4.179,-2.432 4.984,5.348 9.967,10.695 14.951,16.043 -1.179,1.179 -2.357,2.357 -3.536,3.536 -6.561,-7.664 -10.754,-16.684 -12.102,-26.703 -0.348,-2.588 3.054,-4.626 4.569,-1.926 3.603,6.418 7.206,12.836 10.809,19.253 -1.523,0.642 -3.046,1.285 -4.569,1.927 -3.248,-8.386 -6.496,-16.772 -9.745,-25.157 -1.02,-2.634 3.306,-4.447 4.57,-1.927 3.438,6.853 6.876,13.706 10.314,20.56 -1.553,0.42 -3.106,0.841 -4.659,1.261 -0.667,-10.048 -3.734,-19.426 -9.023,-27.986 1.309,0.168 2.617,0.337 3.926,0.505 -9.263,11.987 -5.872,28.608 -2.824,42.184 -1.637,0.221 -3.274,0.443 -4.911,0.665 -0.032,-5.271 -0.48,-10.733 -0.043,-15.986 0.237,-2.86 1.417,-5.841 4.471,-6.563 7.987,-1.887 11.773,13.87 13.272,18.961 -1.636,0.221 -3.273,0.443 -4.91,0.664 1.365,-11.642 -0.66,-23.034 -6.155,-33.405 1.14,0.299 2.28,0.598 3.421,0.897 -1.379,0.842 -2.08,1.997 -2.105,3.465 -0.519,3.168 -5.338,1.824 -4.822,-1.329 0.478,-2.917 1.952,-4.876 4.403,-6.453 1.102,-0.71 2.808,-0.26 3.42,0.897 5.888,11.112 8.305,23.423 6.838,35.928 -0.313,2.664 -4.059,3.556 -4.911,0.664 -0.596,-2.022 -5.253,-16.639 -7.816,-14.382 -0.888,0.783 -0.126,6.255 -0.119,7.472 0.019,3.057 0.037,6.113 0.056,9.17 0.017,2.766 -4.282,3.464 -4.911,0.664 -3.526,-15.706 -6.464,-33.365 4.111,-47.048 1.026,-1.328 3.172,-0.715 3.926,0.506 5.753,9.312 8.981,19.595 9.706,30.51 0.163,2.446 -3.562,3.447 -4.658,1.262 -3.439,-6.853 -6.877,-13.706 -10.315,-20.559 1.523,-0.642 3.047,-1.284 4.57,-1.927 3.248,8.386 6.496,16.772 9.744,25.157 1.035,2.671 -3.207,4.354 -4.569,1.927 -3.603,-6.418 -7.206,-12.836 -10.809,-19.254 1.523,-0.642 3.046,-1.284 4.569,-1.926 1.231,9.146 4.802,17.47 10.817,24.496 2.069,2.417 -1.317,5.916 -3.536,3.536 -4.983,-5.348 -9.967,-10.696 -14.951,-16.044 1.393,-0.811 2.786,-1.621 4.179,-2.432 1.389,5.788 3.995,10.806 8.018,15.203 1.51,1.652 0.408,4.127 -1.768,4.268 -3.819,0.247 -6.933,-0.983 -9.69,-3.604 -1.805,-1.716 0.055,-4.883 2.433,-4.179 6.216,1.843 11.928,4.583 17.219,8.34 -1.224,0.498 -2.448,0.996 -3.672,1.494 1.395,-7.726 1.706,-15.562 0.762,-23.363 -0.633,-5.224 -1.553,-16.054 -7.062,-18.86 -7.357,-3.747 -9.238,11.16 -9.672,15.113 -0.859,7.817 -0.332,15.635 1.348,23.306 0.687,3.137 -4.132,4.476 -4.822,1.329 v 0"
         inkscapeLabel="path19" />
      <path
         id="path30"
         style="fill:#231f20;fill-opacity:1;fill-rule:nonzero;stroke:none;stroke-width:0.1"
         d="m 170.222,981.749 c -3.297,-10.359 -4.629,-22.412 -1.605,-33.02 1.847,-6.479 6.843,-13.754 14.534,-12.25 8.026,1.568 10.7,11.202 12.527,17.964 2.639,9.769 4.176,19.81 -0.284,29.269 -0.94,1.993 -4.048,1.365 -4.57,-0.598 -3.013,-11.334 -6.797,-22.418 -11.424,-33.197 1.524,-0.642 3.047,-1.284 4.57,-1.926 2.154,10.413 4.309,20.826 6.463,31.239 0.57,2.754 -3.004,4.375 -4.569,1.927 -4.181,-6.54 -8.362,-13.08 -12.543,-19.62 1.439,-0.841 2.878,-1.683 4.317,-2.524 2.739,5.162 4.262,10.479 4.724,16.301 0.116,1.466 -1.25,2.343 -2.5,2.5 -2.781,0.351 -4.732,-0.457 -6.725,-2.382 1.309,-1.01 2.618,-2.019 3.927,-3.029 1.612,3.486 2.025,6.723 1.307,10.493 -0.502,2.636 -4.055,2.099 -4.822,0 -4.894,-13.405 -9.243,-32.333 6.038,-40.922 1.288,-0.724 3.39,-0.146 3.672,1.494 2.052,11.921 3.33,23.929 3.795,36.018 0.087,2.253 -2.748,3.181 -4.268,1.768 -8.818,-8.204 -9.839,-20.557 -10.245,-31.912 -0.073,-2.058 2.863,-3.443 4.268,-1.768 6.748,8.048 9.467,17.903 7.886,28.275 -0.271,1.783 -3.061,2.494 -4.178,1.103 -4.39,-5.464 -7.306,-11.474 -8.629,-18.377 1.608,0 3.215,0 4.822,0 -1.693,7.176 0.016,14.385 4.844,19.981 -1.422,0.589 -2.845,1.178 -4.267,1.767 0.158,-5.596 -0.118,-11.135 -0.832,-16.688 -0.371,-2.878 4.124,-3.255 4.91,-0.664 1.324,4.365 3.357,7.942 6.449,11.297 -1.393,0.368 -2.785,0.736 -4.178,1.103 4.425,-11.104 3.611,-23.158 -2.48,-33.478 -1.416,-2.398 1.986,-5.174 3.926,-3.029 9.066,10.02 12.566,23.511 9.479,36.673 -0.686,2.928 -4.644,1.976 -4.91,-0.664 -1.155,-11.445 -4.796,-22.236 -10.68,-32.111 1.439,0 2.878,0 4.317,0 -6.619,11.219 -0.278,24.478 5.135,34.842 -0.941,-0.384 -1.882,-0.766 -2.823,-1.149 1.051,-0.416 2.103,-0.832 3.155,-1.248 0.443,1.607 0.886,3.214 1.329,4.821 -1.414,0.255 -2.828,0.51 -4.241,0.765 -3.147,0.568 -4.496,-4.25 -1.33,-4.821 1.414,-0.255 2.828,-0.51 4.242,-0.765 3.198,-0.577 4.314,3.641 1.329,4.821 -1.052,0.416 -2.104,0.832 -3.155,1.248 -0.975,0.385 -2.353,-0.248 -2.824,-1.149 -6.315,-12.091 -12.782,-26.927 -5.134,-39.889 0.959,-1.626 3.355,-1.614 4.317,0 6.351,10.658 10.118,22.297 11.363,34.635 -1.637,-0.222 -3.274,-0.443 -4.911,-0.665 2.665,-11.364 -0.359,-23.149 -8.194,-31.809 1.309,-1.01 2.618,-2.019 3.927,-3.029 6.707,11.363 7.878,25.049 2.984,37.331 -0.651,1.633 -2.783,2.617 -4.178,1.103 -3.64,-3.95 -6.176,-8.362 -7.735,-13.504 1.637,-0.221 3.274,-0.443 4.911,-0.665 0.714,5.554 0.99,11.093 0.832,16.688 -0.058,2.021 -2.786,3.486 -4.268,1.768 -6.03,-6.988 -8.253,-15.846 -6.131,-24.845 0.548,-2.323 4.353,-2.446 4.822,0 1.148,5.994 3.509,11.399 7.342,16.171 -1.392,0.368 -2.785,0.735 -4.178,1.103 1.289,-8.459 -1.108,-16.859 -6.601,-23.411 1.423,-0.589 2.846,-1.178 4.268,-1.767 0.358,10.013 0.974,21.114 8.781,28.376 -1.423,0.589 -2.845,1.178 -4.268,1.768 -0.448,-11.644 -1.64,-23.205 -3.616,-34.689 1.224,0.498 2.448,0.996 3.672,1.494 -13.051,7.336 -7.777,24.216 -3.739,35.275 -1.607,0 -3.214,0 -4.822,0 0.455,-2.388 0.22,-4.429 -0.802,-6.64 -1.148,-2.482 1.773,-5.11 3.926,-3.03 1.063,0.307 2.126,0.613 3.189,0.918 -0.833,0.834 -1.667,1.667 -2.5,2.5 -0.394,-4.967 -1.707,-9.378 -4.041,-13.777 -1.511,-2.849 2.582,-5.238 4.317,-2.524 4.181,6.54 8.362,13.08 12.543,19.62 -1.523,0.642 -3.046,1.285 -4.569,1.927 -2.155,-10.414 -4.309,-20.827 -6.464,-31.24 -0.535,-2.586 3.387,-4.682 4.57,-1.926 4.8,11.183 8.8,22.628 11.928,34.391 -1.523,-0.199 -3.047,-0.398 -4.57,-0.597 3.332,-7.065 2.385,-14.792 0.622,-22.151 -1.269,-5.301 -2.899,-15.615 -9.014,-17.419 -7.609,-2.245 -9.849,9.808 -10.349,14.864 -0.804,8.134 0.236,16.169 2.708,23.938 0.978,3.073 -3.848,4.389 -4.821,1.329 v 0"
         inkscapeLabel="path18" />
      <path
         id="path32"
         style="fill:#231f20;fill-opacity:1;fill-rule:nonzero;stroke:none;stroke-width:0.1"
         d="m 210.055,978.968 c -3.278,-10.463 -4.416,-21.439 -2.996,-32.333 0.984,-7.545 3.788,-16.884 13.293,-15.698 8.524,1.064 12.16,9.815 13.946,17.126 2.591,10.605 2.297,21.589 -0.455,32.122 -0.741,2.836 -4.723,2.065 -4.911,-0.664 -0.949,-13.752 -4.165,-27.068 -9.47,-39.784 1.637,-0.221 3.274,-0.443 4.911,-0.664 -0.682,11.708 1.256,23.061 5.738,33.895 -1.607,0.443 -3.214,0.886 -4.821,1.329 -2.628,-7.887 -5.257,-15.774 -7.885,-23.661 1.607,-0.443 3.214,-0.886 4.821,-1.329 2.427,9.472 4.855,18.943 7.282,28.415 0.637,2.488 -2.346,4.081 -4.179,2.432 -6.442,-5.798 -10.718,-13.274 -12.424,-21.774 -0.537,-2.674 3.1,-4.505 4.569,-1.926 3.639,6.384 6.223,13.123 7.738,20.316 0.372,1.767 -1.154,3.69 -3.076,3.075 -4.972,-1.594 -8.43,-5.24 -9.416,-10.413 -0.511,-2.678 3.069,-4.496 4.569,-1.926 2.269,3.888 2.274,7.917 0.04,11.822 -1.119,1.958 -3.895,1.376 -4.569,-0.597 -4.759,-13.935 -3.789,-28.788 2.444,-42.092 0.884,-1.885 4.2,-1.469 4.57,0.597 1.514,8.47 1.864,16.898 0.919,25.459 -0.294,2.665 -4.083,3.557 -4.911,0.664 -2.565,-8.965 -1.858,-17.902 1.806,-26.445 1.027,-2.394 4.635,-1.024 4.659,1.262 0.043,4.038 0.88,7.612 2.712,11.228 -1.523,0.642 -3.046,1.284 -4.569,1.926 -1.385,-4.413 -2.771,-8.826 -4.156,-13.24 -0.651,-2.074 1.843,-3.95 3.672,-2.823 11.651,7.174 17.065,21.757 12.63,34.761 -1.032,3.029 -5.864,1.728 -4.821,-1.329 3.71,-10.877 -0.496,-23.058 -10.332,-29.115 1.224,-0.941 2.448,-1.882 3.672,-2.823 1.386,4.413 2.771,8.827 4.156,13.24 0.838,2.671 -3.278,4.475 -4.569,1.927 -2.217,-4.375 -3.343,-8.843 -3.395,-13.752 1.553,0.421 3.106,0.841 4.659,1.262 -3.121,7.275 -3.471,15.011 -1.302,22.592 -1.637,0.222 -3.274,0.443 -4.911,0.665 0.894,-8.098 0.694,-16.102 -0.741,-24.129 1.523,0.199 3.046,0.398 4.569,0.597 -5.67,12.103 -6.248,25.623 -1.94,38.239 -1.523,-0.199 -3.046,-0.398 -4.569,-0.598 1.305,-2.28 1.282,-4.509 -0.04,-6.774 1.523,-0.642 3.046,-1.285 4.569,-1.926 0.655,3.433 2.561,5.841 5.925,6.919 -1.026,1.025 -2.051,2.05 -3.076,3.075 -1.429,-6.783 -3.798,-13.093 -7.233,-19.12 1.523,-0.642 3.046,-1.285 4.569,-1.927 1.555,7.745 5.261,14.278 11.139,19.568 -1.393,0.81 -2.786,1.621 -4.179,2.432 -2.427,-9.472 -4.854,-18.943 -7.281,-28.415 -0.804,-3.138 3.809,-4.368 4.821,-1.329 2.629,7.887 5.257,15.774 7.885,23.661 1.041,3.125 -3.627,4.216 -4.821,1.329 -4.637,-11.209 -6.622,-23.117 -5.917,-35.224 0.173,-2.962 3.849,-3.21 4.911,-0.665 5.48,13.136 8.668,26.919 9.648,41.113 -1.637,-0.222 -3.274,-0.443 -4.911,-0.665 1.904,-7.286 2.58,-14.751 1.754,-22.251 -0.713,-6.473 -2.394,-17.99 -9.656,-20.402 -9.415,-3.128 -9.569,13.018 -9.675,18.462 -0.154,7.839 1.092,15.505 3.433,22.974 0.964,3.078 -3.861,4.394 -4.822,1.329 v 0"
         inkscapeLabel="path17" />
      <path
         id="path34"
         style="fill:#231f20;fill-opacity:1;fill-rule:nonzero;stroke:none;stroke-width:0.1"
         d="m 289.568,862.085 c 9.33,3.267 18.853,3.029 28.028,-0.637 2.988,-1.194 4.285,3.64 1.329,4.821 -9.899,3.956 -20.629,4.159 -30.686,0.637 -3.018,-1.056 -1.719,-5.888 1.329,-4.821 v 0"
         inkscapeLabel="path16" />
      <path
         id="path36"
         style="fill:#231f20;fill-opacity:1;fill-rule:nonzero;stroke:none;stroke-width:0.1"
         d="m 288.909,843.429 c 9.737,-0.226 18.682,-3.814 25.856,-10.412 2.365,-2.176 5.909,1.351 3.535,3.535 -8.148,7.495 -18.317,11.619 -29.391,11.877 -3.219,0.075 -3.218,-4.925 0,-5 v 0"
         inkscapeLabel="path15" />
      <path
         id="path38"
         style="fill:#231f20;fill-opacity:1;fill-rule:nonzero;stroke:none;stroke-width:0.1"
         d="m 285.422,826.942 c 7.231,-2.581 12.982,-7.676 16.604,-14.418 1.523,-2.836 5.841,-0.314 4.317,2.523 -4.252,7.916 -11.151,13.703 -19.592,16.716 -3.036,1.084 -4.343,-3.745 -1.329,-4.821 v 0"
         inkscapeLabel="path14" />
      <path
         id="path40"
         style="fill:#231f20;fill-opacity:1;fill-rule:nonzero;stroke:none;stroke-width:0.1"
         d="m 8.28789,871.291 c 10.94341,4.427 22.91291,4.57 33.82261,-0.085 2.927,-1.249 5.4774,3.057 2.5239,4.318 -12.1317,5.176 -25.3981,5.555 -37.67542,0.589 -2.94492,-1.191 -1.65781,-6.03 1.32891,-4.822 v 0"
         inkscapeLabel="path13" />
      <path
         id="path42"
         style="fill:#231f20;fill-opacity:1;fill-rule:nonzero;stroke:none;stroke-width:0.1"
         d="m 20.8676,853.607 c 6.8043,4.045 14.1351,5.947 22.0426,5.749 3.2191,-0.081 3.2171,4.919 0,5 -8.734,0.219 -17.059,-1.969 -24.5664,-6.431 -2.7637,-1.643 -0.2516,-5.967 2.5238,-4.318 v 0"
         inkscapeLabel="path12" />
      <path
         id="path44"
         style="fill:#231f20;fill-opacity:1;fill-rule:nonzero;stroke:none;stroke-width:0.1"
         d="m 23.2254,832.857 c 7.9738,6.375 17.1281,10.695 27.0625,12.994 3.1336,0.725 1.807,5.547 -1.3293,4.821 -10.8215,-2.503 -20.6012,-7.35 -29.2688,-14.28 -2.5125,-2.009 1.0457,-5.526 3.5356,-3.535 v 0"
         inkscapeLabel="path11" />
    </g>
  </g>
</svg>
