<?xml version="1.0" encoding="UTF-8" standalone="no"?>
<!-- Created with Inkscape (http://www.inkscape.org/) -->

<svg
   width="120.84368mm"
   height="90.532661mm"
   viewBox="0 0 120.84368 90.532661"
   version="1.1"
   id="svg11657"
   xmlns="http://www.w3.org/2000/svg"
   xmlnssvg="http://www.w3.org/2000/svg">
  <defs
     id="defs11654" />
  <g
     inkscapeLabel="Layer 1"
     id="layer1"
     transform="translate(-770.17138,-203.91163)">
    <g
       id="g10768"
       transform="matrix(0.35277777,0,0,-0.35277777,770.17138,431.00068)">
      <path
         id="path64"
         style="fill:#231f20;fill-opacity:1;fill-rule:nonzero;stroke:none;stroke-width:0.1"
         d="m 49.548,431.769 c -33.7464,30.336 -50.60152,73.538 -26.05,125.038 1.8958,3.976 27.018,35.9 27.3004,35.15 -6.298,16.721 -10.8476,34.099 -13.5507,51.76 20.9703,-2.6 36.5929,-21.823 57.3015,-26.025 8.6938,-1.764 17.6758,-0.738 26.5158,0.01 34.55,2.924 69.468,1.474 103.657,-4.304 9.808,-1.658 19.64,-3.678 29.587,-3.524 23.711,0.368 45.309,12.88 65.676,25.026 -0.783,-16.965 -7.387,-33.608 -18.445,-46.491 3.529,4.084 31.438,-67.713 31.442,-77.748 C 333.044,370.71 132.247,357.429 49.548,431.769"
         />
      <path
         id="path266"
         style="fill:#ffffff;fill-opacity:1;fill-rule:nonzero;stroke:none;stroke-width:0.1"
         d="m 241.178,547.135 c 13.099,0.72 26.174,0.366 39.215,-1.06 -0.804,0.612 -1.607,1.224 -2.411,1.835 3.828,-11.191 -3.302,-23.489 -15.546,-24.072 -13.241,-0.63 -19.52,11.681 -21.002,23.084 -0.409,3.146 -5.414,3.187 -5,0 1.898,-14.61 10.574,-29.697 27.437,-27.977 14.654,1.496 23.644,16.52 18.933,30.295 -0.394,1.149 -1.245,1.708 -2.411,1.835 -13.041,1.426 -26.116,1.78 -39.215,1.06 -3.2,-0.175 -3.22,-5.176 0,-5 v 0"
         />
      <path
         id="path268"
         style="fill:#ffffff;fill-opacity:1;fill-rule:nonzero;stroke:none;stroke-width:0.1"
         d="m 79.2074,547.754 c 12.593,-0.737 25.1856,-1.474 37.7786,-2.21 -0.834,0.833 -1.667,1.666 -2.5,2.5 -0.588,-11.521 -9.821,-22.868 -21.9067,-23.165 -11.498,-0.283 -21.802,11.313 -19.552,22.668 0.6231,3.143 -4.1953,4.488 -4.821,1.329 -2.7946,-14.1 8.6488,-28.295 23.0289,-28.976 15.4388,-0.731 27.5078,13.582 28.2508,28.144 0.071,1.406 -1.207,2.424 -2.5,2.5 -12.593,0.736 -25.1856,1.473 -37.7786,2.21 -3.214,0.188 -3.2035,-4.813 0,-5 v 0"
         />
      <path
         id="path270"
         style="fill:#ffffff;fill-opacity:1;fill-rule:nonzero;stroke:none;stroke-width:0.1"
         d="m 68.0566,547.698 c 4.4797,-0.64 8.9594,-1.281 13.4391,-1.921 3.1473,-0.45 4.5066,4.367 1.3289,4.821 -4.4797,0.641 -8.959,1.281 -13.4387,1.922 -3.1472,0.45 -4.507,-4.367 -1.3293,-4.822 v 0"
         />
      <path
         id="path272"
         style="fill:#ffffff;fill-opacity:1;fill-rule:nonzero;stroke:none;stroke-width:0.1"
         d="m 84.2168,548.516 c -5.9992,-4.212 -3.5699,-13.482 3.366,-15.055 9.0152,-2.044 14.4422,6.863 16.2142,14.269 0.413,1.724 -0.782,2.974 -2.411,3.165 -4.7247,0.553 -11.4508,0.405 -13.1489,-5.143 -1.209,-3.951 0.9293,-8.615 5.3883,-8.693 2.1898,-0.039 3.2664,2.748 1.7676,4.267 -2.3422,2.375 -5.8063,1.83 -7.627,-0.84 -1.8172,-2.665 2.5133,-5.169 4.3176,-2.523 -0.0754,-0.058 -0.1508,-0.115 -0.2262,-0.172 0.5891,1.422 1.1785,2.845 1.768,4.268 -1.8231,0.032 -0.127,3.046 0.6449,3.469 2.068,1.134 4.8848,0.628 7.1157,0.367 -0.803,1.055 -1.6067,2.11 -2.4102,3.164 -0.9738,-4.069 -2.6531,-9.086 -7.1016,-10.484 -1.7422,-0.548 -4.0304,-0.585 -5.3043,0.949 -1.0328,1.244 -1.2812,3.656 0.1703,4.675 2.6137,1.835 0.118,6.172 -2.5234,4.317 v 0"
         />
      <path
         id="path274"
         style="fill:#ffffff;fill-opacity:1;fill-rule:nonzero;stroke:none;stroke-width:0.1"
         d="m 253.161,548.227 c -5.911,-5.034 -1.592,-14.56 5.591,-15.123 9.231,-0.724 13.788,8.667 13.162,16.623 -1.667,0 -3.334,0 -5,0 0.269,-3.204 -1.242,-6.337 -4.354,-7.567 1.025,-0.582 2.05,-1.164 3.075,-1.746 -0.695,2.22 -1.39,4.439 -2.085,6.659 -0.407,1.3 -1.728,2.1 -3.075,1.746 -4.36,-1.145 -5.523,-6.173 -2.896,-9.516 1.987,-2.528 5.503,1.032 3.536,3.535 -0.381,0.486 0.356,1.072 0.689,1.16 -1.025,0.582 -2.05,1.164 -3.075,1.746 0.695,-2.22 1.39,-4.44 2.085,-6.659 0.37,-1.185 1.78,-2.258 3.075,-1.747 5.091,2.012 8.495,6.805 8.025,12.389 -0.268,3.179 -5.254,3.218 -5,0 0.35,-4.459 -0.721,-10.152 -5.758,-11.451 -3.798,-0.981 -8.134,3.286 -4.46,6.416 2.454,2.089 -1.098,5.611 -3.535,3.535 v 0"
         />
      <path
         id="path276"
         style="fill:#ffffff;fill-opacity:1;fill-rule:nonzero;stroke:none;stroke-width:0.1"
         d="m 172.77,513.35 c -3.672,2.209 -8.63,1.003 -10.735,-2.869 -2.508,-4.61 0.491,-10.204 4.875,-12.3 9.52,-4.554 23.319,5.479 17.219,15.818 -5.369,9.101 -18.966,3.867 -17.632,-6.367 1.271,-9.755 15.133,-9.168 18.051,-0.852 0.283,0.806 -0.032,1.86 -0.643,2.433 -4.646,4.355 -12.634,2.223 -14.034,-4.163 -0.287,-1.31 0.384,-2.713 1.746,-3.075 4.631,-1.232 7.661,4.197 4.609,7.683 -1.394,1.591 -4.409,0.355 -4.268,-1.768 1.09,-16.378 2.892,-32.923 2.228,-49.35 -0.48,-11.882 -3.307,-26.029 -15.069,-31.684 1.01,-1.309 2.019,-2.618 3.029,-3.927 5.75,5.304 11.499,10.608 17.248,15.912 -1.393,0.368 -2.785,0.736 -4.178,1.103 1.805,-6.534 5.321,-12.056 10.581,-16.357 2.471,-2.021 6.028,1.496 3.535,3.535 -4.611,3.771 -7.704,8.392 -9.295,14.151 -0.516,1.869 -2.811,2.365 -4.178,1.104 -5.75,-5.304 -11.499,-10.608 -17.248,-15.912 -2.198,-2.028 0.592,-5.099 3.029,-3.927 11.549,5.553 15.82,18.385 17.139,30.31 2.003,18.115 -0.617,36.941 -1.821,55.042 -1.422,-0.589 -2.845,-1.179 -4.267,-1.768 0.085,0.225 0.17,0.45 0.255,0.674 0.582,-1.025 1.165,-2.05 1.747,-3.075 0.56,2.558 3.575,3.926 5.677,1.956 -0.215,0.811 -0.429,1.622 -0.643,2.433 -0.95,-2.706 -5.394,-3.988 -7.46,-1.675 -3.326,3.725 2.595,9.635 6.402,6.394 3.759,-3.2 1.707,-7.497 -2.057,-9.448 -2.439,-1.264 -4.589,-1.533 -7.148,-0.476 -2.033,0.352 -3.148,1.666 -3.345,3.943 0.731,2.479 2.107,3.207 4.128,2.184 2.764,-1.663 5.28,2.659 2.523,4.318 v 0"
         />
      <path
         id="path278"
         style="fill:#ffffff;fill-opacity:1;fill-rule:nonzero;stroke:none;stroke-width:0.1"
         d="m 144.261,603.21 c 5.721,1.226 11.39,1.478 17.199,0.878 -0.834,0.833 -1.667,1.666 -2.5,2.5 0.377,-5.111 0.319,-10.218 -0.459,-15.293 -0.33,-2.155 -0.553,-4.965 -1.477,-6.955 -0.141,-2.013 -1.356,-3.182 -3.646,-3.507 -0.742,0.831 -1.359,1.743 -1.852,2.737 -2.433,4.058 -5.605,9.193 -7.059,13.687 -1.061,3.28 -0.754,2.732 2.722,1.61 2.09,-0.675 3.28,-1.203 5.475,-0.973 -0.833,0.833 -1.667,1.666 -2.5,2.5 -0.321,-5.407 -0.643,-10.814 -0.964,-16.22 -0.144,-2.417 3.589,-3.489 4.659,-1.262 2.776,5.781 3.612,11.554 2.689,17.886 -0.409,2.812 -4.971,2.105 -4.91,-0.665 0.116,-5.321 -0.539,-10.401 -2.01,-15.52 -0.759,-2.641 3.427,-4.583 4.569,-1.926 2.526,5.876 3.852,11.814 3.905,18.218 0.015,1.829 -2.16,3.205 -3.762,2.158 -4.081,-2.664 -8.162,-5.329 -12.243,-7.993 1.01,-1.309 2.02,-2.618 3.029,-3.927 4.108,3.399 8.629,5.697 13.762,7.131 -1.025,1.025 -2.05,2.05 -3.075,3.075 -0.873,-5.458 -1.745,-10.917 -2.618,-16.376 -0.503,-3.148 4.314,-4.503 4.821,-1.329 0.873,5.459 1.745,10.917 2.618,16.376 0.29,1.812 -1.083,3.632 -3.075,3.075 -5.975,-1.669 -11.19,-4.462 -15.968,-8.416 -2.184,-1.807 0.664,-5.471 3.029,-3.927 4.081,2.665 8.162,5.33 12.243,7.994 -1.254,0.72 -2.508,1.439 -3.761,2.159 -0.046,-5.482 -1.055,-10.653 -3.222,-15.694 1.523,-0.642 3.046,-1.285 4.569,-1.927 1.591,5.535 2.315,11.09 2.189,16.849 -1.637,-0.221 -3.274,-0.443 -4.911,-0.664 0.715,-4.909 -0.042,-9.571 -2.186,-14.034 1.553,-0.42 3.106,-0.841 4.659,-1.261 0.321,5.406 0.643,10.813 0.964,16.22 0.074,1.25 -1.21,2.635 -2.5,2.5 -3.736,-0.392 -13.866,5.612 -14.445,-2.679 -0.249,-3.558 3.046,-7.643 4.578,-10.614 1.912,-3.709 3.521,-8.055 6.19,-11.297 3.858,-4.688 9.565,-4.144 11.909,1.651 3.289,8.127 3.7,18.014 3.064,26.633 -0.108,1.456 -1.066,2.351 -2.5,2.5 -6.269,0.648 -12.373,0.263 -18.528,-1.057 -3.145,-0.674 -1.814,-5.495 1.329,-4.821 v 0"
         />
      <path
         id="path280"
         style="fill:#ffffff;fill-opacity:1;fill-rule:nonzero;stroke:none;stroke-width:0.1"
         d="m 181.457,604.57 c -2.989,-8.386 -7.865,-33.209 5.967,-35.396 15.015,-2.373 16.352,22.142 18.355,31.425 0.293,1.359 -0.397,2.649 -1.746,3.076 -6.202,1.96 -12.483,1.776 -18.527,-0.647 -2.336,-0.937 -2.387,-3.898 0,-4.822 3.207,-1.24 6.333,-1.821 9.759,-1.912 -0.72,1.254 -1.439,2.508 -2.159,3.762 -5.46,-7.539 -9.433,-15.853 -11.929,-24.816 -0.533,-1.913 1.864,-4.209 3.672,-2.823 7.626,5.84 11.756,14.773 10.545,24.412 -0.244,1.947 -2.662,3.552 -4.268,1.768 -4.917,-5.464 -6.549,-12.705 -4.105,-19.687 0.481,-1.375 2.276,-2.514 3.672,-1.494 6.52,4.764 9.439,12.464 7.373,20.334 -0.37,1.408 -1.753,1.961 -3.076,1.746 -7.273,-1.182 -12.422,-7.867 -11.784,-15.193 0.276,-3.181 5.279,-3.21 5,0 -0.462,5.298 2.904,9.525 8.114,10.372 -1.025,0.582 -2.051,1.164 -3.076,1.746 1.454,-5.535 -0.4,-11.272 -5.074,-14.687 1.224,-0.498 2.448,-0.996 3.672,-1.495 -1.843,5.267 -0.941,10.643 2.82,14.822 -1.423,0.589 -2.845,1.178 -4.268,1.768 0.975,-7.761 -1.769,-15.27 -8.068,-20.095 1.224,-0.941 2.448,-1.882 3.672,-2.823 2.393,8.591 6.197,16.404 11.426,23.621 1.167,1.612 -0.424,3.716 -2.159,3.762 -3,0.08 -5.655,0.66 -8.43,1.734 0,-1.607 0,-3.215 0,-4.822 5.267,2.112 10.458,2.358 15.869,0.647 -0.582,1.025 -1.164,2.05 -1.746,3.075 -1.12,-5.187 -2.199,-10.386 -3.36,-15.565 -0.967,-4.316 -2.243,-11.443 -7.705,-12.215 -10.977,-1.551 -5.374,24.158 -3.615,29.093 1.082,3.037 -3.747,4.343 -4.821,1.329 v 0"
         />
      <path
         id="path282"
         style="fill:#efee0e;fill-opacity:1;fill-rule:nonzero;stroke:none;stroke-width:0.1"
         d="m 277.834,479.878 c 20.563,4.397 41.354,7.441 62.315,9.109 3.186,0.253 3.214,5.256 0,5 -21.401,-1.703 -42.649,-4.798 -63.644,-9.288 -3.145,-0.672 -1.814,-5.493 1.329,-4.821 v 0"
         />
      <path
         id="path284"
         style="fill:#efee0e;fill-opacity:1;fill-rule:nonzero;stroke:none;stroke-width:0.1"
         d="m 277.877,460.127 c 16.602,2.683 33.412,1.714 49.627,-2.718 3.108,-0.849 4.434,3.973 1.329,4.821 -17.126,4.682 -34.767,5.55 -52.286,2.718 -3.168,-0.512 -1.823,-5.331 1.33,-4.821 v 0"
         />
      <path
         id="path286"
         style="fill:#efee0e;fill-opacity:1;fill-rule:nonzero;stroke:none;stroke-width:0.1"
         d="m 275.042,439.541 c 9.468,-2.617 18.935,-5.234 28.402,-7.851 3.106,-0.858 4.431,3.964 1.329,4.822 -9.467,2.617 -18.934,5.233 -28.401,7.85 -3.106,0.859 -4.432,-3.964 -1.33,-4.821 v 0"
         />
      <path
         id="path288"
         style="fill:#efee0e;fill-opacity:1;fill-rule:nonzero;stroke:none;stroke-width:0.1"
         d="m 3.02578,474.738 c 17.71832,6.561 36.30352,9.517 55.18402,8.745 3.2175,-0.131 3.2117,4.869 0,5 -19.2825,0.788 -38.4141,-2.222 -56.51332,-8.923 -2.99179,-1.108 -1.69765188,-5.943 1.3293,-4.822 v 0"
         />
      <path
         id="path290"
         style="fill:#efee0e;fill-opacity:1;fill-rule:nonzero;stroke:none;stroke-width:0.1"
         d="m 11.7773,451.131 c 13.0387,8.354 27.3098,14.098 42.4954,17.126 3.1531,0.628 1.8183,5.449 -1.3293,4.821 -15.5774,-3.106 -30.3161,-9.061 -43.68988,-17.63 -2.70079,-1.73 -0.19649,-6.06 2.52378,-4.317 v 0"
         />
      <path
         id="path292"
         style="fill:#efee0e;fill-opacity:1;fill-rule:nonzero;stroke:none;stroke-width:0.1"
         d="m 25.7031,427.766 c 9.6742,8.978 20.4594,16.429 32.2469,22.359 2.875,1.446 0.3465,5.761 -2.5234,4.317 -12.1594,-6.116 -23.284,-13.883 -33.259,-23.14 -2.3637,-2.194 1.1781,-5.723 3.5355,-3.536 v 0"
         />
    </g>
  </g>
</svg>
