<?xml version="1.0" encoding="UTF-8" standalone="no"?>
<!-- Created with Inkscape (http://www.inkscape.org/) -->

<svg
   width="92.532372mm"
   height="96.548073mm"
   viewBox="0 0 92.532372 96.548073"
   version="1.1"
   id="svg12083"
   xmlns="http://www.w3.org/2000/svg"
   xmlnssvg="http://www.w3.org/2000/svg">
  <defs
     id="defs12080" />
  <g
     inkscapeLabel="Layer 1"
     id="layer1"
     transform="translate(-58.816439,-100.22596)">
    <g
       id="g10833"
       transform="matrix(0.35277777,0,0,-0.35277777,-222.80693,467.06274)">
      <path
         id="path72"
         style="fill:#231f20;fill-opacity:1;fill-rule:nonzero;stroke:none;stroke-width:0.1"
         d="m 807.855,1035.88 c -1.095,-27.04 -2.19,-54.071 -3.285,-81.105 -0.965,-23.84 -2.615,-47.766 -2.461,-71.633 0.127,-19.588 1.826,-39.835 9.352,-58.12 7.419,-18.026 20.685,-32.071 38.453,-40.193 20.46,-9.353 43.922,-12.588 66.005,-15.764 23.428,-3.369 47.55,-4.702 70.719,1.08 20.152,5.03 39.162,15.409 52.112,31.932 12.94,16.506 19.2,37.304 20.98,57.982 2.42,28.249 -3.48,56.441 -8.67,84.054 -5.66,30.06 -11.31,60.117 -16.96,90.177 -0.42,2.25 -3.49,2.26 -4.57,0.6 -8.1,-12.41 -16.83,-25.65 -29.826,-33.43 -15.676,-9.376 -36.385,-6.416 -53.886,-6.361 -19.016,0.06 -38.033,0.24 -57.047,0.539 -9.128,0.142 -18.371,-0.07 -27.476,0.631 -8.41,0.648 -15.378,3.508 -20.84,10.021 -8.947,10.67 -12.834,24.67 -24.515,33.1 -2.614,1.88 -5.113,-2.46 -2.523,-4.32 11.25,-8.11 15.033,-22.59 23.907,-32.78 11.357,-13.043 28.801,-11.269 44.562,-11.54 20.653,-0.355 41.309,-0.57 61.965,-0.644 10.329,-0.037 20.689,-0.24 31.016,0.048 8.142,0.227 16.111,1.378 23.519,4.923 15.814,7.573 26.174,23.063 35.464,37.293 -1.52,0.19 -3.05,0.39 -4.57,0.59 4.67,-24.83 9.34,-49.661 14.01,-74.493 4.62,-24.602 10.22,-49.33 11.65,-74.383 1.25,-21.838 -1.09,-44.413 -10.92,-64.24 -9.53,-19.237 -25.8,-33.224 -45.782,-40.84 -21.16,-8.067 -44.041,-8.967 -66.375,-6.87 -22.373,2.101 -45.842,5.648 -67.327,12.436 -19.523,6.167 -36.032,17.559 -45.567,36.035 -8.697,16.852 -11.118,36.334 -11.719,55.048 -0.805,25.017 1.148,50.178 2.16,75.166 1.148,28.352 2.297,56.701 3.445,85.061 0.13,3.21 -4.87,3.21 -5,0 v 0"
         />
      <path
         id="path132"
         style="fill:#231f20;fill-opacity:1;fill-rule:nonzero;stroke:none;stroke-width:0.1"
         d="m 1009.87,951.814 c -19.847,4.655 -38.726,-8.585 -50.329,-23.658 -5.944,-7.722 -10.595,-17.26 -9.495,-27.252 1.028,-9.347 7.107,-17.301 14.245,-23.04 14.28,-11.481 34.694,-15.334 51.539,-7.322 15.9,7.565 26.84,25.045 24.29,42.803 -2.84,19.724 -20.12,35.095 -39.09,39.054 -3.142,0.655 -4.485,-4.163 -1.332,-4.821 14.672,-3.061 28.272,-13.26 33.592,-27.571 5.49,-14.801 -0.14,-30.761 -12.31,-40.384 -13.17,-10.416 -31.442,-10.604 -45.976,-2.874 -7.035,3.741 -13.698,9.345 -17.426,16.502 -4.54,8.717 -2.641,18.193 2.16,26.354 9.406,15.992 29.203,31.984 48.802,27.387 3.13,-0.734 4.47,4.086 1.33,4.822 v 0"
         />
      <path
         id="path134"
         style="fill:#231f20;fill-opacity:1;fill-rule:nonzero;stroke:none;stroke-width:0.1"
         d="m 879.099,951.814 c -19.849,4.655 -38.728,-8.585 -50.33,-23.658 -5.944,-7.722 -10.595,-17.26 -9.496,-27.252 1.029,-9.347 7.108,-17.301 14.245,-23.04 14.28,-11.481 34.695,-15.334 51.539,-7.322 15.904,7.565 26.836,25.045 24.287,42.803 -2.832,19.724 -20.113,35.095 -39.089,39.054 -3.14,0.655 -4.482,-4.163 -1.329,-4.821 14.668,-3.061 28.275,-13.26 33.589,-27.571 5.496,-14.801 -0.134,-30.761 -12.305,-40.384 -13.175,-10.416 -31.444,-10.604 -45.979,-2.874 -7.034,3.741 -13.698,9.345 -17.425,16.502 -4.54,8.717 -2.641,18.193 2.159,26.354 9.407,15.992 29.204,31.984 48.805,27.387 3.13,-0.734 4.466,4.086 1.329,4.822 v 0"
         />
      <path
         id="path136"
         style="fill:#231f20;fill-opacity:1;fill-rule:nonzero;stroke:none;stroke-width:0.1"
         d="m 989.237,921.317 c -4.247,-5.671 -4.409,-13.17 -0.599,-19.106 0.868,-1.354 2.742,-1.673 3.926,-0.506 5.734,5.649 5.977,14.208 1.113,20.457 -0.992,1.274 -3.224,0.773 -3.927,-0.506 -2.584,-4.71 -4.161,-10.8 -2.436,-16.104 1.259,-3.873 4.932,-5.262 8.367,-2.949 8.159,5.492 4.294,18.899 -1.45,24.463 -0.925,0.897 -2.628,1.028 -3.536,0 -3.956,-4.479 -5.948,-10.21 -5.083,-16.189 0.605,-4.181 2.998,-10.627 8.384,-9.613 4.827,0.909 6.574,6.938 6.864,11.113 0.35,5.218 -1.003,10.576 -5.827,13.283 -0.901,0.506 -2.313,0.455 -3.029,-0.391 -6.035,-7.132 -7.197,-16.615 -2.976,-24.971 0.913,-1.807 3.318,-1.424 4.318,0 3.66,5.212 5.295,11.158 4.831,17.507 -0.115,1.575 -1.51,2.897 -3.165,2.411 -4.673,-1.375 -6.285,-7.309 -2.613,-10.68 2.367,-2.172 5.912,1.354 3.535,3.536 0.136,0.774 0.272,1.548 0.407,2.322 -1.054,0.804 -2.109,1.607 -3.164,2.411 0.405,-5.545 -0.962,-10.446 -4.149,-14.983 1.439,0 2.879,0 4.318,0 -3.142,6.218 -2.32,13.577 2.193,18.911 -1.01,-0.13 -2.019,-0.26 -3.029,-0.391 2.665,-1.495 3.349,-4.223 3.399,-7.118 0.025,-1.481 -0.287,-7.775 -2.601,-7.959 -2.525,-0.202 -2.957,6.554 -2.902,7.987 0.134,3.491 1.526,6.676 3.825,9.279 -1.179,0 -2.357,0 -3.536,0 3.379,-3.272 5.337,-8.153 4.232,-12.881 -0.18,-0.771 -0.697,-3.006 -1.405,-3.326 -1.807,-0.816 -1.8,1.595 -1.834,2.635 -0.108,3.3 0.811,6.315 2.38,9.173 -1.309,-0.169 -2.618,-0.337 -3.927,-0.506 3.199,-4.109 2.493,-9.833 -1.112,-13.386 1.308,-0.169 2.617,-0.337 3.926,-0.506 -2.935,4.574 -2.633,9.744 0.599,14.06 1.93,2.576 -2.409,5.071 -4.317,2.523 v 0"
         />
      <path
         id="path138"
         style="fill:#231f20;fill-opacity:1;fill-rule:nonzero;stroke:none;stroke-width:0.1"
         d="m 858.723,922.318 c -1.629,-6.82 -2.212,-13.656 -1.685,-20.654 0.154,-2.04 1.973,-2.914 3.762,-2.158 10.37,4.377 11.119,19.752 2.084,25.835 -1.112,0.749 -2.784,0.219 -3.42,-0.897 -2.769,-4.855 -6.013,-12.754 -3.935,-18.424 1.529,-4.173 6.535,-4.611 9.601,-1.844 2.225,2.008 2.666,5.071 3.06,7.886 0.466,3.336 1.374,6.946 1.219,10.319 -0.174,3.794 -4.52,9.321 -8.598,5.696 -2.139,-1.903 -2.78,-6.21 -3.897,-8.872 -1.115,-2.656 -2.027,-5.405 -1.95,-8.321 0.127,-4.801 2.894,-9.584 8.005,-10.169 4.78,-0.547 9.329,3.027 11.052,7.327 2.276,5.679 0.479,13.84 -2.519,18.943 -3.197,5.441 -8.402,4.456 -10.828,-0.851 -3.191,-6.978 -3.184,-14.95 -0.549,-22.081 0.608,-1.643 2.824,-2.615 4.179,-1.103 5.047,5.632 6.043,13.054 2.732,19.84 -0.813,1.665 -3.485,1.597 -4.318,0 -2.277,-4.366 -2.285,-8.575 -0.057,-12.964 1.456,-2.87 5.771,-0.342 4.317,2.524 -1.335,2.63 -1.304,5.305 0.058,7.916 -1.439,0 -2.879,0 -4.318,0 2.287,-4.686 1.517,-9.911 -1.95,-13.78 1.393,-0.368 2.786,-0.736 4.179,-1.103 -1.804,4.88 -2.331,9.981 -0.995,15.067 0.271,1.031 0.555,2.591 1.212,3.439 0.213,1.481 0.742,1.558 1.585,0.229 0.792,-0.366 1.244,-0.96 1.357,-1.78 1.247,-2.337 1.963,-6.379 1.901,-8.929 -0.069,-2.832 -1.284,-6.014 -4.061,-7.259 -3.512,-1.575 -5.825,1.559 -5.982,4.734 -0.248,5 3.371,9.848 4.773,14.565 -0.582,-0.582 -1.164,-1.164 -1.746,-1.746 2.146,0.872 0.811,-7.096 0.7,-7.924 -0.162,-1.198 -0.075,-5.299 -0.98,-6.145 -4.048,-3.781 -2.123,4.247 -1.847,5.348 0.621,2.475 1.656,4.727 2.917,6.938 -1.14,-0.299 -2.28,-0.598 -3.42,-0.897 6.272,-4.223 4.535,-14.406 -2.085,-17.2 1.254,-0.719 2.508,-1.439 3.762,-2.159 -0.493,6.557 -0.023,12.923 1.506,19.325 0.747,3.128 -4.073,4.463 -4.821,1.329 v 0"
         />
      <path
         id="path140"
         style="fill:#231f20;fill-opacity:1;fill-rule:nonzero;stroke:none;stroke-width:0.1"
         d="m 933.889,879.725 c -3.307,6.759 -11.652,0.086 -14.394,-3.576 -3.944,-5.27 -4.942,-13.473 3.035,-15.355 6.458,-1.523 15.278,0.776 18.445,7.043 2.579,5.103 0.85,12.66 -5.115,14.384 -6.579,1.902 -14.216,-3.788 -16.54,-9.752 -1.031,-2.644 -1.115,-5.788 0.907,-8.002 2.482,-2.715 6.676,-2.606 10.027,-2.239 6.184,0.678 12.867,5.362 10.64,12.434 -2.041,6.483 -11.571,6.059 -15.006,1.068 -3.964,-5.758 3.679,-14.507 8.652,-8.391 1.689,2.077 2.098,6.215 -0.778,7.63 -3.162,1.556 -7.026,-1.907 -8.564,-4.334 -1.003,-1.583 0.297,-3.82 2.158,-3.762 3.073,0.095 5.337,1.398 7.045,3.94 0.945,1.407 -0.054,3.199 -1.494,3.672 -3.703,1.216 -7.373,-1.602 -7.251,-5.469 0.038,-1.2 0.769,-1.996 1.835,-2.41 2.715,-1.055 5.144,-0.364 7.36,1.373 2.53,1.983 -1.03,5.499 -3.535,3.535 -0.866,-0.548 -1.698,-0.577 -2.495,-0.087 0.611,-0.803 1.223,-1.607 1.835,-2.411 0.307,0.216 0.614,0.432 0.921,0.648 -0.498,1.224 -0.996,2.448 -1.494,3.673 -0.612,-1.046 -1.521,-1.534 -2.727,-1.464 0.72,-1.254 1.44,-2.508 2.159,-3.762 0.908,1.433 2.018,2.005 3.65,2.289 -0.811,0.214 -1.622,0.428 -2.432,0.643 -0.248,-0.1 -0.495,-0.199 -0.743,-0.299 -0.448,0.593 -0.476,1.172 -0.083,1.739 0.303,0.885 0.92,1.264 1.752,1.62 1.777,0.759 4.261,0.58 4.603,-1.615 0.626,-4.016 -4.667,-5.22 -7.579,-5.383 -1.419,-0.079 -4.254,-0.423 -5.034,1.191 -0.637,1.32 0.768,3.437 1.524,4.463 1.867,2.531 6.675,6.341 9.99,4.382 2.451,-1.449 2.446,-5.341 1.1,-7.512 -1.827,-2.95 -5.754,-4.017 -8.999,-4.174 -1.69,-0.082 -4.817,-0.233 -5.764,1.547 -0.739,1.388 0.252,3.354 0.911,4.526 0.365,0.651 6.056,7.932 7.161,5.674 1.414,-2.89 5.727,-0.359 4.317,2.523 v 0"
         />
      <path
         id="path142"
         style="fill:#231f20;fill-opacity:1;fill-rule:nonzero;stroke:none;stroke-width:0.1"
         d="m 929.135,866.312 c -0.165,-12.886 0.099,-25.863 -0.625,-38.73 -0.67,-11.888 -3.963,-24.748 -15.395,-30.577 -2.867,-1.462 -0.34,-5.778 2.524,-4.318 10.483,5.346 15.574,16.36 17.163,27.572 2.135,15.069 1.139,30.86 1.333,46.053 0.041,3.218 -4.959,3.22 -5,0 v 0"
         />
      <path
         id="path144"
         style="fill:#231f20;fill-opacity:1;fill-rule:nonzero;stroke:none;stroke-width:0.1"
         d="m 929.178,810.291 c 3.929,-9.935 11.878,-17.35 22.176,-20.339 3.097,-0.899 4.419,3.925 1.33,4.822 -8.492,2.464 -15.419,8.588 -18.685,16.847 -1.169,2.957 -6.007,1.668 -4.821,-1.33 v 0"
         />
      <path
         id="path146"
         style="display:inline;fill:#231f20;fill-opacity:1;fill-rule:nonzero;stroke:none;stroke-width:0.1"
         d="m 911.626,905.807 c 12.022,8.309 27.921,8.043 39.696,-0.598 2.597,-1.906 5.093,2.431 2.523,4.317 -13.078,9.598 -31.406,9.815 -44.742,0.598 -2.63,-1.817 -0.133,-6.153 2.523,-4.317 v 0"
         />
      <path
         id="path148"
         style="fill:#231f20;fill-opacity:1;fill-rule:nonzero;stroke:none;stroke-width:0.1"
         d="m 972.537,866.242 c -17.923,9.706 -27.054,30.521 -22.799,50.364 4.225,19.7 19.995,36.277 40.05,39.903 20.042,3.624 37.002,-8.773 45.772,-26.057 8.39,-16.53 11.95,-41.772 -3.25,-55.597 -7.23,-6.575 -17.05,-9.47 -26.31,-11.84 -5.98,-1.529 -12.198,-3.148 -18.391,-1.981 -5.631,1.061 -10.746,3.892 -15.54,6.918 -9.188,5.799 -17.712,12.937 -19.914,24.107 -1.819,9.223 -0.507,19.237 2.744,27.989 6.441,17.343 21.818,31.093 40.913,31.168 8.228,0.032 16.548,-2.266 23.408,-6.847 8.58,-5.718 12.7,-14.101 15.49,-23.779 2.98,-10.289 6.25,-21.786 3.77,-32.513 -2.85,-12.326 -13.88,-17.585 -25.22,-20.207 -12.76,-2.948 -25.727,-4.183 -37.485,2.6 -9.728,5.611 -17.226,14.379 -24.406,22.837 -1.178,-1.179 -2.357,-2.357 -3.535,-3.536 15.037,-15.758 37.205,-27.121 59.456,-24.037 18.52,2.566 34.93,17.201 35.62,36.56 0.11,3.218 -4.89,3.213 -5,0 -0.65,-18.422 -17.7,-31.079 -35.09,-31.992 -19.567,-1.026 -38.258,9.18 -51.451,23.005 -2.25,2.359 -5.591,-1.114 -3.535,-3.536 7.617,-8.973 15.655,-18.189 26.078,-23.987 11.664,-6.487 24.118,-6.072 36.878,-3.543 10.52,2.084 21.76,5.518 28.22,14.738 6.21,8.874 5.91,20.267 4.08,30.477 -1.96,10.863 -4.74,23.165 -11.52,32.107 -5.75,7.576 -14.27,12.732 -23.42,15.1 -19.927,5.154 -39.755,-3.302 -51.292,-20.03 -11.726,-17 -16.053,-44.239 -0.814,-60.43 7.752,-8.236 19.801,-16.223 31.064,-18.126 11.324,-1.913 25.092,2.619 35.462,7.038 10.05,4.282 18.29,11.209 22.24,21.601 3.93,10.334 3.41,22.092 0.84,32.686 -4.84,19.871 -19,39.945 -40.21,43.965 -25.313,4.8 -49.678,-12.698 -58.324,-35.925 -8.822,-23.7 0.383,-51.325 22.897,-63.518 2.83,-1.532 5.357,2.783 2.524,4.318 v 0"
         />
      <path
         id="path150"
         style="fill:#231f20;fill-opacity:1;fill-rule:nonzero;stroke:none;stroke-width:0.1"
         d="m 904.3,905.919 c 0.637,-0.756 1.273,-1.512 1.91,-2.268 1.146,-1.362 3.889,-0.703 4.178,1.103 0.611,3.814 1.222,7.629 1.833,11.443 -1.637,0.222 -3.273,0.444 -4.91,0.665 1.27,-13.837 1.348,-27.425 -8.71,-38.205 -7.965,-8.536 -19.281,-13.318 -30.898,-13.603 -22.787,-0.558 -45.436,15.005 -49.322,38.205 -4.278,25.544 17.178,48.107 42.196,48.669 25.77,0.58 46.978,-19.907 50.104,-45.036 1.697,-13.646 -2.84,-26.28 -15.237,-33.104 -12.035,-6.624 -26.27,-5.905 -39.466,-4.351 -6.636,0.781 -14.697,0.873 -19.737,5.893 -4.641,4.622 -6.426,11.744 -8.303,17.827 -4.282,13.884 -5.56,27.449 3.308,39.833 14.984,20.926 46.499,25.787 66.33,9.009 18.845,-15.944 19.1,-45.909 1.047,-62.655 -20.437,-18.959 -54.038,-14.336 -68.897,9.015 -6.962,10.94 -8.697,24.404 -3.453,36.424 5.284,12.114 16.558,21.615 29.864,23.166 3.158,0.368 3.195,5.372 0,5 -26.383,-3.075 -44.168,-31.205 -35.81,-56.407 8.695,-26.218 37.874,-40.223 63.838,-31.354 25.947,8.863 40.339,38.615 29.083,64.195 -11.781,26.772 -45.584,34.828 -70.041,20.825 -11.889,-6.806 -21.642,-18.688 -23.542,-32.531 -1.12,-8.155 0.584,-16.264 2.906,-24.061 1.993,-6.694 3.976,-14.05 8.307,-19.671 4.621,-5.997 11.054,-7.68 18.281,-8.642 8.713,-1.161 17.537,-2.325 26.346,-1.816 13.37,0.771 27.419,5.759 35.12,17.367 7.924,11.945 6.342,28.438 1.211,41.151 -5.097,12.625 -14.589,23.659 -26.93,29.64 -25.914,12.558 -58.306,1.708 -68.869,-25.635 -10.354,-26.804 7.039,-54.645 33.095,-63.183 24.218,-7.935 55.688,2.613 62.543,29.297 2.08,8.097 1.39,16.514 0.636,24.738 -0.236,2.57 -4.431,3.664 -4.911,0.665 -0.611,-3.815 -1.222,-7.629 -1.833,-11.444 1.393,0.368 2.786,0.735 4.178,1.103 -0.636,0.756 -1.273,1.512 -1.909,2.268 -2.075,2.465 -5.596,-1.087 -3.536,-3.535 v 0"
         />
      <path
         id="path152"
         style="fill:#231f20;fill-opacity:1;fill-rule:nonzero;stroke:none;stroke-width:0.1"
         d="m 1058.25,925.658 c -3.21,2.953 -8.37,2.945 -11.35,-0.373 -1.16,-1.3 -0.85,-3.785 1.11,-4.178 3.98,-0.802 7.75,-0.341 11.45,1.316 -0.84,1.439 -1.69,2.878 -2.53,4.317 -2.18,-1.672 -4.55,-2.515 -7.3,-2.45 -3.22,0.076 -3.22,-4.924 0,-5 3.54,-0.083 7.01,0.974 9.83,3.133 2.54,1.95 0.45,5.651 -2.53,4.317 -2.38,-1.069 -5.04,-1.326 -7.59,-0.812 0.36,-1.393 0.73,-2.785 1.1,-4.178 1.1,1.233 2.98,1.562 4.27,0.373 2.36,-2.178 5.91,1.349 3.54,3.535 v 0"
         />
      <path
         id="path154"
         style="fill:#231f20;fill-opacity:1;fill-rule:nonzero;stroke:none;stroke-width:0.1"
         d="m 802.226,923.292 c 5.248,-0.657 10.364,-1.898 15.368,-3.599 0.222,1.637 0.443,3.274 0.665,4.911 -4.69,0.219 -9.216,1.004 -13.717,2.334 -0.222,-1.637 -0.443,-3.274 -0.665,-4.911 3.731,-0.338 7.462,-0.675 11.193,-1.013 2.805,-0.254 3.401,4.308 0.665,4.911 -4.741,1.045 -9.256,2.583 -13.615,4.727 -0.642,-1.523 -1.284,-3.046 -1.926,-4.569 1.427,-0.238 2.854,-0.475 4.281,-0.712 3.148,-0.524 4.501,4.294 1.33,4.821 -1.428,0.237 -2.855,0.475 -4.282,0.712 -2.569,0.427 -4.677,-3.216 -1.927,-4.569 4.74,-2.332 9.649,-4.094 14.81,-5.231 0.221,1.636 0.443,3.273 0.664,4.91 -3.731,0.338 -7.462,0.675 -11.193,1.013 -2.88,0.26 -3.285,-4.137 -0.664,-4.911 4.92,-1.453 9.922,-2.273 15.046,-2.512 2.934,-0.137 3.23,4.038 0.664,4.911 -5.451,1.852 -10.987,3.062 -16.697,3.777 -3.184,0.398 -3.155,-4.605 0,-5 v 0"
         />
    </g>
  </g>
</svg>
