<?xml version="1.0" encoding="UTF-8" standalone="no"?>
<!-- Created with Inkscape (http://www.inkscape.org/) -->

<svg
   width="119.68409mm"
   height="101.00282mm"
   viewBox="0 0 119.68409 101.00282"
   version="1.1"
   id="svg11472"
   xmlns="http://www.w3.org/2000/svg"
   xmlnssvg="http://www.w3.org/2000/svg">
  <defs
     id="defs11469" />
  <g
     inkscapeLabel="Layer 1"
     id="layer1"
     transform="translate(-774.5266,-108.06639)">
    <g
       id="g10751"
       transform="matrix(0.35277777,0,0,-0.35277777,514.72412,347.47726)">
      <path
         id="path76"
         style="fill:#231f20;fill-opacity:1;fill-rule:nonzero;stroke:none;stroke-width:0.1"
         d="m 1013.63,440.966 c -53.214,-64.698 -164.442,-67.801 -211.379,8.634 -7.256,11.818 -12.35,25.342 -19.867,36.932 -7.517,11.591 -18.464,21.512 -30.864,21.514 4.286,6.963 10.253,12.481 17.021,15.737 -9.336,7.237 -21.11,9.992 -32.093,7.508 14.026,32.179 38.045,58.179 66.485,71.969 3.63,1.76 7.55,3.526 9.802,7.307 2.046,3.437 2.301,7.862 2.658,12.035 1.694,19.79 7.255,39.109 16.132,56.043 11.476,-17.517 19.293,-38.319 22.58,-60.086 42.127,2.38 69.446,0.058 111.201,-6.924 5.175,16.507 25.351,33.015 30.527,49.522 5.777,-19.711 8.667,-40.583 8.517,-61.43 31.91,-6.805 60.01,-34.425 71.36,-70.134 -6.18,-0.897 -12.18,-3.351 -17.5,-7.15 7.63,-9.724 13.25,-21.608 16.25,-34.354 -12.54,2.468 -25.19,-4.634 -34.85,-14.358 -9.65,-9.724 -17.14,-22.022 -25.98,-32.765"
         />
      <path
         id="path78"
         style="fill:#ffffff;fill-opacity:1;fill-rule:nonzero;stroke:none;stroke-width:0.1"
         d="m 974.402,561.213 c -5.989,-7.671 -8.603,-17.597 -6.017,-27.148 2.158,-7.971 9.957,-13.435 16.963,-6.483 3.426,3.399 4.682,8.684 5.716,13.234 1.067,4.699 1.674,9.967 -0.505,14.461 -3.08,6.354 -12.11,9.497 -17.383,3.937 -2.213,-2.334 1.316,-5.876 3.536,-3.535 5.041,5.316 10.332,-2.988 10.327,-7.637 -0.006,-4.931 -1.562,-13.255 -5.25,-16.766 -6.635,-6.315 -9.365,5.531 -9.386,10.32 -0.026,5.846 1.941,11.478 5.535,16.081 1.957,2.508 -1.557,6.071 -3.536,3.536 v 0"
         />
      <path
         id="path80"
         style="fill:#ffffff;fill-opacity:1;fill-rule:nonzero;stroke:none;stroke-width:0.1"
         d="m 838.985,561.213 c -5.989,-7.671 -8.603,-17.597 -6.017,-27.148 2.159,-7.971 9.957,-13.435 16.963,-6.483 3.426,3.399 4.682,8.684 5.716,13.234 1.067,4.699 1.674,9.967 -0.505,14.461 -3.079,6.354 -12.11,9.497 -17.382,3.937 -2.214,-2.334 1.315,-5.876 3.535,-3.535 5.042,5.316 10.332,-2.988 10.327,-7.637 -0.006,-4.931 -1.562,-13.255 -5.25,-16.766 -6.635,-6.315 -9.365,5.531 -9.386,10.32 -0.026,5.846 1.941,11.478 5.535,16.081 1.957,2.508 -1.557,6.071 -3.536,3.536 v 0"
         />
      <path
         id="path82"
         style="fill:#ffffff;fill-opacity:1;fill-rule:nonzero;stroke:none;stroke-width:0.1"
         d="m 869.652,500.524 c 0.163,-10.651 8.136,-22.37 19.714,-22.367 12.23,0.003 18.352,12.546 22.322,22.224 -1.637,0.221 -3.274,0.443 -4.911,0.664 1.383,-11.943 5.432,-24.342 19.415,-25.264 12.622,-0.833 21.579,10.012 22.288,21.873 0.192,3.214 -4.809,3.203 -5,0 -0.558,-9.329 -7.697,-17.883 -17.637,-16.817 -10.664,1.145 -13.026,11.226 -14.066,20.208 -0.33,2.859 -3.818,3.327 -4.91,0.665 -2.893,-7.053 -7.018,-16.764 -15.456,-18.357 -9.684,-1.827 -16.629,8.676 -16.759,17.171 -0.049,3.215 -5.049,3.224 -5,0 v 0"
         />
      <path
         id="path84"
         style="fill:#ffffff;fill-opacity:1;fill-rule:nonzero;stroke:none;stroke-width:0.1"
         d="m 911.878,514.128 c -4.947,5.196 -13.686,1.036 -13.008,-6.02 0.676,-7.042 9.347,-11.605 15.455,-7.843 5.373,3.309 5.672,12.434 -0.137,15.463 -5.631,2.936 -13.519,-2.717 -11.599,-9.06 1.945,-6.429 12.009,-6.244 14.067,-0.092 0.38,1.137 -0.284,2.178 -1.149,2.823 -2.632,1.962 -7.768,3.365 -8.941,-1.022 -0.745,-2.788 1.481,-6.138 4.566,-5.094 3.031,1.026 1.73,5.857 -1.33,4.821 1.22,-0.266 1.81,-0.948 1.769,-2.045 0.494,-0.293 0.964,-0.618 1.412,-0.977 -0.383,0.941 -0.766,1.882 -1.149,2.823 -0.679,-2.029 -5.037,-1.084 -4.478,1.237 0.34,1.409 2.231,2.479 3.601,2.375 1.736,-0.132 2.522,-1.809 2.519,-3.381 -0.008,-4.179 -4.6,-5.263 -7.586,-3.025 -1.481,1.11 -2.975,3.809 -1.568,5.499 1.023,1.228 3.007,1.046 4.02,-0.018 2.223,-2.335 5.755,1.204 3.536,3.536 v 0"
         />
      <path
         id="path86"
         style="fill:#ffffff;fill-opacity:1;fill-rule:nonzero;stroke:none;stroke-width:0.1"
         d="m 996.662,498.467 c 10.218,-3.567 19.778,-8.437 28.718,-14.53 2.66,-1.817 5.17,2.514 2.52,4.317 -9.29,6.335 -19.29,11.328 -29.909,15.035 -3.044,1.062 -4.352,-3.766 -1.329,-4.822 v 0"
         />
      <path
         id="path88"
         style="fill:#ffffff;fill-opacity:1;fill-rule:nonzero;stroke:none;stroke-width:0.1"
         d="m 995.86,483.128 c 5.62,-2.885 10.43,-6.758 14.47,-11.617 2.06,-2.477 5.58,1.076 3.54,3.535 -4.29,5.153 -9.53,9.341 -15.486,12.399 -2.858,1.466 -5.391,-2.846 -2.524,-4.317 v 0"
         />
      <path
         id="path90"
         style="fill:#ffffff;fill-opacity:1;fill-rule:nonzero;stroke:none;stroke-width:0.1"
         d="m 989.13,472.129 c 2.481,-4.51 4.962,-9.02 7.444,-13.53 1.551,-2.82 5.866,-0.3 4.316,2.524 -2.48,4.51 -4.962,9.02 -7.443,13.53 -1.551,2.819 -5.871,0.3 -4.317,-2.524 v 0"
         />
      <path
         id="path92"
         style="fill:#ffffff;fill-opacity:1;fill-rule:nonzero;stroke:none;stroke-width:0.1"
         d="m 826.956,510.841 c -9.567,2.076 -19.002,0.835 -27.704,-3.647 -2.862,-1.474 -0.336,-5.79 2.523,-4.317 7.471,3.847 15.641,4.924 23.852,3.142 3.136,-0.681 4.477,4.138 1.329,4.822 v 0"
         />
      <path
         id="path94"
         style="fill:#ffffff;fill-opacity:1;fill-rule:nonzero;stroke:none;stroke-width:0.1"
         d="m 823.895,498.591 c -7.164,-1.632 -13.566,-5.102 -18.908,-10.138 -2.346,-2.212 1.194,-5.742 3.536,-3.535 4.742,4.471 10.353,7.406 16.701,8.851 3.136,0.715 1.809,5.536 -1.329,4.822 v 0"
         />
      <path
         id="path96"
         style="fill:#ffffff;fill-opacity:1;fill-rule:nonzero;stroke:none;stroke-width:0.1"
         d="m 825.859,482.586 c -4.022,-3.475 -8.043,-6.949 -12.065,-10.424 -2.439,-2.107 1.111,-5.63 3.536,-3.535 4.021,3.474 8.043,6.949 12.064,10.423 2.439,2.108 -1.11,5.631 -3.535,3.536 v 0"
         />
      <path
         id="path294"
         style="fill:#efee0e;fill-opacity:1;fill-rule:nonzero;stroke:none;stroke-width:0.1"
         d="m 909.309,442.474 c -6.006,14.997 -28.935,2.602 -28.866,-10.134 0.083,-15.642 27.938,-15.803 36.02,-7.33 10.997,11.529 -3.901,27.33 -17.076,21.019 -5.801,-2.779 -11.458,-10.025 -8.71,-16.728 2.532,-6.175 10.079,-7.714 15.792,-5.433 5.002,1.998 14.662,10.117 8.388,15.799 -5.956,5.394 -15.022,-1.563 -17.605,-7.116 -0.73,-1.569 -0.107,-3.054 1.494,-3.673 5.3,-2.047 11.207,0.346 13.62,5.478 0.825,1.754 -0.168,3.643 -2.159,3.762 -4.765,0.285 -8.763,-1.164 -12.476,-4.093 -0.793,-0.626 -0.978,-2.213 -0.391,-3.03 3.203,-4.45 9.718,-5.258 13.327,-0.744 1.055,1.318 0.939,3.799 -1.103,4.178 -7.105,1.319 -14.234,1.991 -21.463,1.962 -2.937,-0.012 -3.239,-3.973 -0.664,-4.911 4.885,-1.78 9.815,-0.56 13.458,3.097 1.546,1.552 0.388,4.233 -1.768,4.268 -6.044,0.098 -11.291,-3.038 -13.893,-8.532 -0.695,-1.468 -0.152,-3.177 1.494,-3.672 6.68,-2.01 13.457,-3.171 20.419,-3.552 3.215,-0.176 3.206,4.825 0,5 -6.524,0.357 -12.835,1.491 -19.089,3.373 0.498,-1.224 0.996,-2.448 1.494,-3.672 1.873,3.956 5.134,6.127 9.575,6.055 -0.589,1.422 -1.178,2.845 -1.768,4.267 -2.46,-2.469 -5.399,-2.974 -8.593,-1.811 -0.222,-1.637 -0.443,-3.273 -0.665,-4.91 6.786,0.027 13.459,-0.544 20.134,-1.783 -0.368,1.393 -0.735,2.785 -1.103,4.178 -1.296,-1.621 -3.865,-2.503 -5.474,-0.267 -0.131,-1.01 -0.261,-2.02 -0.391,-3.03 2.688,2.121 5.595,2.829 8.94,2.629 -0.719,1.254 -1.439,2.508 -2.158,3.761 -1.527,-3.246 -4.637,-4.468 -7.974,-3.179 0.498,-1.225 0.996,-2.449 1.494,-3.673 0.966,2.076 2.165,3.815 4.176,5.043 1.137,0.716 2.373,1.153 3.707,1.31 1.42,-2.288 1.24,-4.001 -0.541,-5.141 -3.341,-3.591 -13.29,-5.924 -13.928,1.461 -0.465,5.383 6.316,9.784 10.957,9.944 5.05,0.175 9.879,-4.2 9.25,-9.404 -1.323,-10.95 -18.362,-10.122 -25.579,-6.417 -13.946,7.161 10.695,24.762 14.877,14.321 1.182,-2.95 6.02,-1.662 4.821,1.33 v 0"
         />
      <path
         id="path296"
         style="fill:#efee0e;fill-opacity:1;fill-rule:nonzero;stroke:none;stroke-width:0.1"
         d="m 820.232,423.916 c 20.902,9.266 44.075,12.524 66.72,9.346 3.147,-0.442 4.507,4.375 1.329,4.821 -24.122,3.386 -48.301,0.023 -70.572,-9.85 -2.936,-1.301 -0.395,-5.611 2.523,-4.317 v 0"
         />
      <path
         id="path298"
         style="fill:#efee0e;fill-opacity:1;fill-rule:nonzero;stroke:none;stroke-width:0.1"
         d="m 826.833,413.649 c 18.565,10.323 39.685,14.364 60.759,11.817 3.187,-0.385 3.159,4.618 0,5 -21.913,2.649 -44.004,-1.78 -63.283,-12.5 -2.813,-1.563 -0.294,-5.884 2.524,-4.317 v 0"
         />
      <path
         id="path300"
         style="fill:#efee0e;fill-opacity:1;fill-rule:nonzero;stroke:none;stroke-width:0.1"
         d="m 911.554,421.116 c 21.911,1.154 43.61,-5.516 60.91,-19.077 2.504,-1.963 6.067,1.552 3.536,3.536 -18.352,14.385 -41.122,21.769 -64.446,20.541 -3.201,-0.168 -3.221,-5.169 0,-5 v 0"
         />
      <path
         id="path302"
         style="fill:#efee0e;fill-opacity:1;fill-rule:nonzero;stroke:none;stroke-width:0.1"
         d="m 917.705,432.908 c 21.493,-1.531 42.037,-8.622 59.986,-20.525 2.689,-1.784 5.196,2.545 2.523,4.317 -18.692,12.397 -40.147,19.615 -62.509,21.208 -3.211,0.229 -3.196,-4.772 0,-5 v 0"
         />
    </g>
  </g>
</svg>
