<?xml version="1.0" encoding="UTF-8" standalone="no"?>
<!-- Created with Inkscape (http://www.inkscape.org/) -->

<svg
   width="97.093582mm"
   height="105.62716mm"
   viewBox="0 0 97.093582 105.62716"
   version="1.1"
   id="svg10994"
   xmlns="http://www.w3.org/2000/svg"
   xmlnsSvg="http://www.w3.org/2000/svg">
  <defs
     id="defs10991" />
  <g
     id="layer1"
     transform="translate(-56.535834,-95.686425)">
    <g
       id="g10879"
       transform="matrix(0.35277777,0,0,-0.35277777,-217.75351,207.05791)">
      <path
         id="path74"
         style="fill:#231f20;fill-opacity:1;fill-rule:nonzero;stroke:none;stroke-width:0.1"
         d="m 836.424,64.473 c 14.453,-21.6 32.14,-43.073 59.349,-47.2429 13.948,-2.1301 28.049,-0.3199 41.851,2.0101 13.738,2.32 26.515,4.67 36.683,14.9297 9.888,9.9813 17.105,22.6852 23.774,34.927 7.279,13.3601 14.429,26.7871 21.759,40.1171 13.79,25.047 27.47,51.255 31.59,79.9 3.97,27.509 -0.7,56.925 -19.39,78.388 -0.84,0.957 -2.71,0.986 -3.54,0 -7.02,-8.382 -14.04,-16.765 -21.06,-25.147 -5.79,-6.917 -12.176,-17.876 -21.601,-19.914 -4.582,-0.991 -9.632,-0.557 -14.285,-0.623 -5.639,-0.08 -11.277,-0.16 -16.915,-0.24 -10.612,-0.151 -21.225,-0.302 -31.838,-0.452 -21.889,-0.311 -43.777,-0.622 -65.666,-0.932 -9.45,-0.134 -20.16,-1.246 -28.893,3.123 -6.569,3.286 -10.914,9.524 -15.048,15.355 -3.567,5.031 -7.102,10.277 -11.976,14.15 -2.773,2.204 -8.618,6.292 -12.371,4.426 -2.22,-1.104 -3.171,-4.246 -3.895,-6.392 -1.476,-4.382 -2.313,-9.011 -3.121,-13.553 -3.862,-21.723 -6.558,-43.356 -1.706,-65.152 8.897,-39.961 33.99,-74.2319 56.299,-107.678 1.777,-2.664 6.11,-0.1628 4.318,2.5239 -19.632,29.432 -40.983,58.9811 -52.069,92.9521 -4.406,13.503 -7.419,28.113 -6.302,42.378 0.725,9.249 1.874,18.493 3.292,27.658 0.752,4.866 1.578,9.735 2.725,14.525 0.407,1.701 1.167,7.658 3.055,8.512 -1.26,-0.57 2.217,-1.35 2.445,-1.452 1.274,-0.57 2.467,-1.326 3.587,-2.152 2.886,-2.128 5.259,-4.919 7.427,-7.752 3.765,-4.922 7.001,-10.25 11.14,-14.883 11.402,-12.764 27.288,-11.785 43.083,-11.561 21.225,0.301 42.451,0.603 63.676,0.904 11.608,0.164 23.216,0.329 34.823,0.494 5.638,0.08 11.276,0.16 16.914,0.24 4.674,0.066 9.635,-0.207 14.175,1.138 8.964,2.658 14.677,11.754 20.357,18.535 7.65,9.145 15.31,18.289 22.97,27.434 -1.18,0 -2.36,0 -3.54,0 16.23,-18.632 20.99,-43.968 18.75,-68.034 -2.46,-26.371 -13.85,-50.9 -26.17,-73.978 -6.46,-12.094 -13.28,-23.9898 -19.72,-36.0941 C 995.191,74.275 989.21,62.5441 981.836,51.6609 973.85,39.875 965.066,30.1602 950.759,26.7699 937.432,23.6102 923.228,21.3402 909.52,21.2602 894.27,21.1699 880.048,25.3 868.054,34.8801 c -11.058,8.8301 -19.503,20.4449 -27.312,32.1168 -1.781,2.6613 -6.114,0.1613 -4.318,-2.5239"
         />
      <path
         id="path178"
         style="fill:#231f20;fill-opacity:1;fill-rule:nonzero;stroke:none;stroke-width:0.1"
         d="m 984.751,184.09 c -12.582,5.22 -20.995,-11.834 -20.974,-21.916 0.024,-11.316 9.116,-21.968 21.116,-20.304 12.378,1.715 18.167,17.882 16.167,28.781 -2.044,11.182 -13.812,19.834 -24.987,15.248 -2.937,-1.205 -1.651,-6.044 1.329,-4.821 8.063,3.308 16.469,-2.129 18.521,-10.241 1.998,-7.898 -1.533,-21.078 -10.176,-23.692 -8.764,-2.651 -16.259,5.321 -16.917,13.474 -0.59,7.323 4.707,22.75 14.592,18.649 2.969,-1.232 4.264,3.604 1.329,4.822 v 0"
         />
      <path
         id="path180"
         style="fill:#231f20;fill-opacity:1;fill-rule:nonzero;stroke:none;stroke-width:0.1"
         d="m 976.875,168.038 c -0.444,-4.087 -0.14,-8.077 0.825,-12.069 0.477,-1.975 2.805,-2.235 4.178,-1.103 5.94,4.895 6.253,13.997 1.231,19.623 -1.361,1.524 -3.559,0.527 -4.178,-1.104 -1.831,-4.823 -6.188,-21.177 4.469,-18.979 3.084,0.637 5.626,3.044 6.164,6.172 0.773,4.489 -2.248,8.452 -4.976,11.64 -1.269,1.483 -3.678,0.583 -4.179,-1.103 -1.568,-5.28 -0.884,-10.722 1.906,-15.464 1.015,-1.726 3.255,-1.495 4.317,0 2.935,4.128 5.695,10.612 0.653,14.453 -4.165,3.174 -10.249,-0.574 -8.986,-5.715 0.767,-3.123 5.59,-1.8 4.821,1.33 0.35,0.17 0.7,0.341 1.05,0.512 0.397,-0.299 0.646,-0.681 0.748,-1.146 0.296,-0.781 0.219,-1.561 0.012,-2.364 -0.43,-1.674 -1.634,-3.166 -2.615,-4.547 1.439,0 2.878,0 4.317,0 -2.142,3.641 -2.603,7.567 -1.401,11.612 -1.393,-0.368 -2.786,-0.736 -4.179,-1.103 1.351,-1.579 3.048,-3.484 3.476,-5.594 0.255,-1.259 -0.238,-4.33 -2.397,-3.827 -2.676,0.623 0.945,11.012 1.621,12.794 -1.393,-0.367 -2.785,-0.735 -4.178,-1.103 3.343,-3.745 2.521,-9.459 -1.231,-12.551 1.392,-0.368 2.785,-0.736 4.178,-1.104 -0.863,3.573 -1.042,7.095 -0.646,10.74 0.346,3.195 -4.656,3.171 -5,0 v 0"
         />
      <path
         id="path182"
         style="fill:#231f20;fill-opacity:1;fill-rule:nonzero;stroke:none;stroke-width:0.1"
         d="m 843.877,184.09 c -12.582,5.22 -20.995,-11.834 -20.974,-21.916 0.024,-11.316 9.116,-21.968 21.117,-20.304 12.377,1.715 18.167,17.882 16.171,28.781 -2.049,11.182 -13.817,19.834 -24.992,15.248 -2.936,-1.205 -1.651,-6.044 1.329,-4.821 8.063,3.308 16.469,-2.129 18.521,-10.241 1.999,-7.898 -1.533,-21.078 -10.176,-23.692 -8.764,-2.651 -16.258,5.321 -16.916,13.474 -0.591,7.323 4.706,22.75 14.591,18.649 2.969,-1.232 4.264,3.604 1.329,4.822 v 0"
         />
      <path
         id="path184"
         style="fill:#231f20;fill-opacity:1;fill-rule:nonzero;stroke:none;stroke-width:0.1"
         d="m 836.001,168.038 c -0.444,-4.087 -0.139,-8.077 0.825,-12.069 0.477,-1.975 2.805,-2.235 4.178,-1.103 5.94,4.895 6.254,13.997 1.231,19.623 -1.36,1.524 -3.559,0.527 -4.178,-1.104 -1.831,-4.823 -6.188,-21.177 4.469,-18.979 3.085,0.637 5.626,3.044 6.164,6.172 0.773,4.489 -2.248,8.452 -4.976,11.64 -1.269,1.483 -3.678,0.583 -4.178,-1.103 -1.569,-5.28 -0.885,-10.722 1.905,-15.464 1.015,-1.726 3.255,-1.495 4.317,0 2.935,4.128 5.695,10.612 0.653,14.453 -4.165,3.174 -10.249,-0.574 -8.986,-5.715 0.768,-3.123 5.591,-1.8 4.822,1.33 0.35,0.17 0.7,0.341 1.05,0.512 0.396,-0.299 0.646,-0.681 0.748,-1.146 0.296,-0.781 0.218,-1.561 0.011,-2.364 -0.43,-1.674 -1.634,-3.166 -2.615,-4.547 1.439,0 2.878,0 4.317,0 -2.142,3.641 -2.602,7.567 -1.401,11.612 -1.393,-0.368 -2.786,-0.736 -4.178,-1.103 1.35,-1.579 3.048,-3.484 3.475,-5.594 0.255,-1.259 -0.238,-4.33 -2.397,-3.827 -2.676,0.623 0.945,11.012 1.621,12.794 -1.392,-0.367 -2.785,-0.735 -4.178,-1.103 3.343,-3.745 2.521,-9.459 -1.231,-12.551 1.393,-0.368 2.786,-0.736 4.178,-1.104 -0.862,3.573 -1.042,7.095 -0.646,10.74 0.347,3.195 -4.656,3.171 -5,0 v 0"
         />
      <path
         id="path186"
         style="fill:#231f20;fill-opacity:1;fill-rule:nonzero;stroke:none;stroke-width:0.1"
         d="m 913.76,129.624 c -3.153,4.24 -7.776,5.454 -12.626,3.391 -0.839,-0.358 -1.154,-1.349 -1.238,-2.159 -1.247,-12.024 14.413,-19.077 21.852,-8.885 8.229,11.274 -8.904,22.14 -18.106,14.052 -8.41,-7.391 -1.128,-22.724 10.011,-17.71 10.292,4.633 2.037,21.523 -7.149,15.313 -3.596,-2.431 -3.614,-7.683 -0.517,-10.611 3.825,-3.614 9.933,-1.434 12.132,2.91 1.973,3.896 -0.526,9.104 -5.367,8.002 -4.681,-1.066 -5.19,-7.324 -1.918,-10.22 8.301,-7.346 17.909,5.845 13.081,13.701 -6.469,10.528 -23.698,0.613 -23.376,-9.763 0.436,-14.011 21.568,-11.162 27.606,-3.175 3.25,4.299 3.522,11.463 -1.307,14.821 -4.486,3.118 -10.868,0.769 -12.288,-4.405 -0.853,-3.107 3.97,-4.433 4.821,-1.329 0.336,1.223 1.939,2.216 3.161,2.132 2.222,-0.153 3.087,-2.999 2.966,-4.719 -0.185,-2.622 -2.025,-4.599 -4.159,-5.956 -3.385,-2.151 -8.266,-3.189 -12.12,-1.666 -7.098,2.805 -2.128,10.544 2.776,12.564 5.13,2.112 11.157,-1.854 7.183,-7.283 -1.712,-2.339 -7.205,-3.241 -9.14,-1.294 -1.79,0.75 -1.829,1.331 -0.117,1.742 0.792,0.899 1.492,0.885 2.1,-0.043 1.199,-0.679 1.903,-2.547 1.547,-3.9 -0.733,-2.788 -4.583,-3.265 -6.698,-1.919 -3.172,2.019 -2.332,6.602 -0.015,8.767 2.33,2.176 5.643,2.311 8.467,0.982 4.369,-2.055 4.277,-7.476 0.324,-9.901 -5.721,-3.508 -11.357,1.937 -10.75,7.793 -0.413,-0.72 -0.825,-1.439 -1.238,-2.159 2.064,0.879 4.454,0.193 5.785,-1.596 1.898,-2.553 6.241,-0.063 4.317,2.523 v 0"
         />
      <path
         id="path188"
         style="fill:#231f20;fill-opacity:1;fill-rule:nonzero;stroke:none;stroke-width:0.1"
         d="m 884.734,103.845 c -2.057,-12.4989 11.651,-20.5649 22.405,-15.293 13.653,6.6929 14.112,23.263 11.75,36.253 -0.574,3.161 -5.394,1.822 -4.821,-1.329 1.652,-9.087 2.282,-19.683 -4.507,-26.9459 -2.912,-3.116 -7.206,-5.459 -11.599,-4.6871 -4.92,0.864 -9.252,5.534 -8.406,10.673 0.518,3.148 -4.299,4.501 -4.822,1.329 v 0"
         inkscapeLabel="path917" />
      <path
         id="path190"
         style="fill:#231f20;fill-opacity:1;fill-rule:nonzero;stroke:none;stroke-width:0.1"
         d="m 914.626,117.316 c 1.424,-10.12 6.273,-27.893 18.337,-30.048 10.497,-1.8739 15.71,9.8519 18.03,18.034 0.879,3.101 -3.944,4.424 -4.821,1.329 -1.82,-6.418 -6.822,-19.008 -15.515,-12.9849 -7.282,5.0469 -10.052,16.7749 -11.209,24.9989 -0.447,3.174 -5.265,1.823 -4.822,-1.329 v 0"
         />
      <path
         id="path192"
         style="fill:#231f20;fill-opacity:1;fill-rule:nonzero;stroke:none;stroke-width:0.1"
         d="m 833.507,215.813 c -2.868,18.766 10.572,36.885 20.559,51.574 9.685,14.246 21.694,25.912 38.373,31.306 30.692,9.924 64.154,-1.918 81.932,-28.731 9.842,-14.844 14.526,-32.555 13.369,-50.311 -0.209,-3.213 4.792,-3.2 5,0 2.193,33.663 -16.6,68.504 -48.324,81.722 -15.413,6.422 -32.943,7.532 -49.098,3.363 -17.341,-4.476 -30.996,-15.033 -41.602,-29.238 -6.91,-9.254 -13.388,-19.313 -18.625,-29.609 -5.028,-9.885 -8.106,-20.278 -6.405,-31.405 0.485,-3.171 5.303,-1.824 4.821,1.329 v 0"
         />
      <path
         id="path194"
         style="fill:#231f20;fill-opacity:1;fill-rule:nonzero;stroke:none;stroke-width:0.1"
         d="m 828.737,216.822 c 22.442,-23.992 50.364,-51.019 86.046,-48.144 15.799,1.272 30.197,8.561 42.889,17.687 6.441,4.631 12.568,9.706 18.493,14.977 5.47,4.866 10.488,10.153 12.366,17.42 0.805,3.117 -4.016,4.447 -4.822,1.329 -1.863,-7.211 -7.475,-12.081 -12.885,-16.801 -5.679,-4.955 -11.513,-9.75 -17.71,-14.049 -12.346,-8.565 -26.423,-15.392 -41.71,-15.737 -33.011,-0.745 -58.237,24.515 -79.132,46.854 -2.202,2.355 -5.733,-1.187 -3.535,-3.536 v 0"
         />
      <path
         id="path196"
         style="fill:#231f20;fill-opacity:1;fill-rule:nonzero;stroke:none;stroke-width:0.1"
         d="m 883.381,219.773 c -2.658,31.15 10.683,62.081 35.125,81.565 2.516,2.006 -1.043,5.523 -3.535,3.536 -25.346,-20.204 -39.345,-52.811 -36.59,-85.101 0.271,-3.182 5.273,-3.211 5,0 v 0"
         />
      <path
         id="path198"
         style="fill:#231f20;fill-opacity:1;fill-rule:nonzero;stroke:none;stroke-width:0.1"
         d="m 915.406,300.634 c 22.121,-19.566 40.033,-51.555 35.883,-81.958 -0.429,-3.146 4.388,-4.508 4.822,-1.329 4.403,32.261 -13.532,65.915 -37.17,86.823 -2.402,2.125 -5.951,-1.399 -3.535,-3.536 v 0"
         />
      <path
         id="path200"
         style="fill:#231f20;fill-opacity:1;fill-rule:nonzero;stroke:none;stroke-width:0.1"
         d="m 912.04,305.353 c -0.454,-0.991 -1.468,-1.135 -2.369,-0.583 -1.591,0.973 -0.778,2.908 0.185,4.016 2.339,2.691 6.365,2.208 9.478,1.674 0.726,-0.124 2.892,-0.176 3.373,-0.844 0.268,-0.056 0.499,-0.173 0.693,-0.35 -0.55,-0.481 -1.138,-0.907 -1.766,-1.276 -2.477,-1.544 -8.538,-3.078 -8.49,1.844 -0.413,-0.72 -0.826,-1.44 -1.238,-2.159 3.895,1.791 8.129,1.808 12.035,0.035 -0.169,1.309 -0.337,2.618 -0.506,3.927 -1.917,-1.498 -3.938,-1.965 -6.322,-1.864 -3.217,0.136 -3.211,-4.865 0,-5 3.801,-0.161 6.887,1.008 9.857,3.328 1.2,0.938 0.854,3.309 -0.506,3.927 -5.674,2.575 -11.419,2.568 -17.082,-0.036 -0.783,-0.36 -1.23,-1.343 -1.238,-2.158 -0.089,-9.216 10.623,-9.757 16.571,-5.812 2.428,1.611 4.756,3.939 3.467,7.052 -1.373,3.318 -5.725,3.958 -8.82,4.425 -6.471,0.975 -16.797,-1.493 -15.509,-10.221 0.858,-5.821 9.824,-8.299 12.504,-2.449 1.331,2.905 -2.977,5.449 -4.317,2.524 v 0"
         />
      <path
         id="path202"
         style="fill:#231f20;fill-opacity:1;fill-rule:nonzero;stroke:none;stroke-width:0.1"
         d="m 915.84,298.033 c -10.057,-9.441 -18.694,-20.156 -25.807,-31.974 -1.554,-2.582 1.834,-4.734 3.927,-3.029 9.077,7.391 17.749,15.23 26.016,23.518 -1.178,1.178 -2.357,2.357 -3.535,3.535 -10.267,-13.108 -20.533,-26.217 -30.8,-39.326 -1.782,-2.275 0.36,-5.076 3.03,-3.926 15.996,6.888 20.213,26.36 34.958,34.722 -1.14,1.14 -2.281,2.28 -3.421,3.42 -12.32,-17.318 -24.64,-34.637 -36.96,-51.956 -1.629,-2.291 2.134,-5.237 3.927,-3.03 14.164,17.442 28.329,34.884 42.493,52.326 -1.308,1.01 -2.617,2.02 -3.926,3.029 -11.147,-15.557 -22.293,-31.115 -33.44,-46.672 1.44,-0.841 2.879,-1.683 4.318,-2.524 9.119,12.889 19.625,24.635 31.359,35.194 -1.308,1.01 -2.617,2.02 -3.926,3.03 -7.472,-12.393 -15.594,-24.351 -24.359,-35.865 -1.725,-2.266 2.02,-5.088 3.926,-3.03 10.051,10.848 20.101,21.696 30.151,32.544 -1.309,1.01 -2.617,2.02 -3.926,3.03 -7.212,-15.157 -16.396,-29.161 -27.497,-41.756 -2.112,-2.396 1.31,-5.896 3.535,-3.535 10.915,11.577 21.829,23.154 32.743,34.731 -1.309,1.01 -2.618,2.019 -3.927,3.029 -8.18,-12.244 -16.36,-24.487 -24.54,-36.731 -1.83,-2.738 2.417,-5.005 4.317,-2.524 7.77,10.145 16.646,19.32 26.438,27.524 -1.393,0.811 -2.785,1.621 -4.178,2.432 -3.527,-9.353 -8.538,-17.939 -14.945,-25.612 -2.054,-2.46 1.089,-5.676 3.535,-3.535 5.701,4.989 11.402,9.979 17.103,14.968 -1.309,1.01 -2.618,2.02 -3.927,3.03 -2.332,-4.783 -4.665,-9.565 -6.997,-14.347 -0.992,-2.032 1.198,-4.993 3.42,-3.421 3.23,2.286 6.46,4.571 9.69,6.856 -1.225,0.941 -2.449,1.882 -3.673,2.823 -1.096,-3.958 -2.651,-7.553 -4.775,-11.067 -1.104,-1.828 0.733,-4.328 2.823,-3.673 2.359,0.74 4.374,1.708 6.372,3.177 -1.224,0.498 -2.448,0.996 -3.672,1.494 0.472,-1.387 0.944,-2.774 1.417,-4.161 0.627,-1.841 3.596,-2.693 4.569,-0.597 2.565,5.528 5.96,12.394 5.671,18.626 -0.176,3.797 -2.253,8.109 -6.648,7.555 0.72,-1.254 1.439,-2.508 2.159,-3.762 3.798,7.11 0.327,15.193 -4.962,20.603 -4.097,4.192 -11.497,5.52 -13.794,-1.173 1.637,-0.222 3.274,-0.444 4.911,-0.665 0.633,10.149 -2.811,19.694 -9.586,27.246 -1.862,2.074 -5.675,-0.761 -3.927,-3.03 9.407,-12.208 15.475,-26.491 17.396,-41.808 1.637,0.221 3.274,0.443 4.911,0.664 -0.282,1.791 -0.563,3.583 -0.845,5.374 -0.182,1.159 -1.398,1.722 -2.411,1.835 -2.883,0.322 -5.206,-0.969 -6.854,-3.357 -2.95,-4.271 -1.538,-8.547 -7.175,-11.014 -4.578,-2.003 -10.268,-2.722 -15.107,-4.005 -5.035,-1.335 -10.071,-2.67 -15.107,-4.004 0.811,-1.393 1.622,-2.786 2.433,-4.179 5.741,5.002 11.483,10.004 17.225,15.007 -1.179,1.178 -2.357,2.357 -3.536,3.535 -9.03,-8.973 -20.227,-14.752 -32.742,-17.036 -2.025,-0.369 -2.179,-2.872 -1.103,-4.178 5.142,-6.242 14.023,-3.11 20.551,-1.34 10.976,2.976 21.951,5.952 32.926,8.929 -0.642,1.523 -1.284,3.046 -1.926,4.569 -7.263,-4.482 -14.984,-7.617 -23.313,-9.481 0.444,-1.607 0.887,-3.214 1.33,-4.821 7.803,2.193 15.606,4.387 23.409,6.581 -1.026,1.025 -2.051,2.05 -3.076,3.075 -2.792,-7.027 -16.443,-3.906 -21.762,-2.664 -4.152,0.971 -8.593,2.603 -11.115,6.268 -2.389,3.472 -2.949,8.233 0.19,11.383 -1.393,0.811 -2.786,1.622 -4.179,2.433 -1.006,-3.687 -2.013,-7.373 -3.019,-11.06 -0.458,-1.678 0.814,-3.024 2.411,-3.164 4.811,-0.422 9.184,0.725 13.184,3.421 2.642,1.781 0.253,6.013 -2.523,4.317 -2.891,-1.765 -6.258,-3.86 -9.636,-4.494 -2.633,-0.495 -5.248,-0.041 -4.77,3.106 0.221,1.455 0.576,2.904 0.874,4.344 1.113,5.379 2.336,10.743 3.914,16.007 3.416,11.404 8.696,22.995 18.415,30.385 1.677,1.276 4.941,3.062 7.141,2.301 1.294,-0.448 2.596,-2.6 3.462,-3.688 2.246,-2.824 4.293,-5.815 6.181,-8.889 3.462,-5.636 6.337,-11.63 8.548,-17.864 4.43,-12.488 6.18,-25.63 5.324,-38.84 -0.19,-2.945 4.04,-3.21 4.911,-0.665 1.944,5.676 3,11.446 3.269,17.434 -1.636,-0.221 -3.273,-0.443 -4.91,-0.664 0.767,-3.934 0.769,-7.605 0.008,-11.535 -0.61,-3.143 4.209,-4.49 4.821,-1.329 0.93,4.797 0.927,9.402 -0.008,14.193 -0.56,2.872 -4.789,2.04 -4.911,-0.665 -0.249,-5.553 -1.292,-10.854 -3.09,-16.105 1.637,-0.221 3.274,-0.443 4.91,-0.664 0.882,13.605 -0.941,27.309 -5.503,40.169 -2.263,6.38 -5.139,12.555 -8.629,18.357 -2.911,4.837 -6.547,11.45 -11.322,14.67 -9.502,6.409 -20.94,-8.867 -25.166,-15.812 -6.412,-10.537 -9.536,-22.777 -12.034,-34.738 -0.962,-4.605 -3.514,-12.248 2.299,-14.757 5.512,-2.378 13.852,2.634 18.425,5.426 -0.841,1.439 -1.682,2.878 -2.523,4.317 -3.331,-2.245 -6.66,-3.089 -10.661,-2.738 0.803,-1.055 1.607,-2.11 2.41,-3.165 1.007,3.687 2.013,7.373 3.02,11.06 0.656,2.403 -2.412,4.205 -4.179,2.432 -3.951,-3.966 -4.51,-9.561 -2.421,-14.638 2.258,-5.489 7.126,-8.764 12.63,-10.565 9.079,-2.972 26.329,-5.992 30.836,5.351 0.725,1.824 -1.391,3.548 -3.076,3.075 -7.803,-2.194 -15.606,-4.387 -23.409,-6.581 -3.109,-0.874 -1.804,-5.523 1.33,-4.821 8.723,1.952 16.9,5.29 24.506,9.985 2.386,1.472 0.859,5.324 -1.926,4.569 -8.467,-2.296 -16.933,-4.592 -25.4,-6.888 -5.653,-1.533 -18.567,-7.626 -23.212,-1.987 -0.368,-1.392 -0.736,-2.785 -1.103,-4.178 13.313,2.43 25.353,8.789 34.948,18.322 2.307,2.292 -1.131,5.63 -3.536,3.535 -5.742,-5.002 -11.483,-10.004 -17.225,-15.006 -1.946,-1.696 0.134,-4.788 2.433,-4.179 9.441,2.503 18.894,4.967 28.325,7.509 2.949,0.795 5.98,1.425 7.998,3.897 1.884,2.307 2.594,11.242 6.59,10.796 -0.803,0.612 -1.607,1.224 -2.41,1.836 0.281,-1.792 0.563,-3.583 0.845,-5.374 0.432,-2.752 5.261,-2.136 4.91,0.665 -2.035,16.222 -8.083,31.359 -18.078,44.332 -1.309,-1.01 -2.618,-2.02 -3.927,-3.03 5.938,-6.618 8.674,-14.863 8.122,-23.71 -0.184,-2.945 4.038,-3.21 4.911,-0.665 1.467,4.278 7.464,-3.446 8.232,-4.683 2.075,-3.342 3.356,-7.202 1.385,-10.894 -0.795,-1.487 0.156,-4.014 2.158,-3.761 4.709,0.594 -2.81,-17.515 -3.34,-18.658 1.523,-0.199 3.046,-0.398 4.569,-0.597 -0.472,1.387 -0.944,2.774 -1.417,4.161 -0.469,1.378 -2.287,2.512 -3.672,1.494 -1.732,-1.273 -3.062,-2.009 -5.178,-2.672 0.941,-1.225 1.882,-2.449 2.823,-3.673 2.336,3.864 4.075,7.913 5.279,12.262 0.546,1.968 -1.833,4.124 -3.672,2.823 -3.23,-2.285 -6.46,-4.57 -9.689,-6.855 1.14,-1.14 2.28,-2.281 3.42,-3.421 2.333,4.783 4.665,9.565 6.998,14.347 1.249,2.561 -1.747,4.937 -3.927,3.03 -5.701,-4.99 -11.401,-9.979 -17.102,-14.969 1.178,-1.178 2.357,-2.357 3.535,-3.535 6.987,8.366 12.385,17.619 16.231,27.818 0.967,2.564 -2.47,3.864 -4.178,2.432 -10.142,-8.497 -19.178,-18.035 -27.22,-28.535 1.439,-0.841 2.878,-1.683 4.317,-2.524 8.18,12.244 16.36,24.488 24.54,36.732 1.581,2.365 -1.989,5.084 -3.926,3.029 -10.914,-11.577 -21.828,-23.154 -32.742,-34.731 1.178,-1.178 2.357,-2.357 3.535,-3.535 11.38,12.91 20.883,27.225 28.279,42.767 1.15,2.417 -1.873,5.246 -3.926,3.03 -10.051,-10.848 -20.101,-21.696 -30.151,-32.544 1.309,-1.01 2.618,-2.02 3.926,-3.03 8.766,11.514 16.888,23.473 24.359,35.865 1.511,2.506 -1.863,4.887 -3.926,3.03 -12.056,-10.848 -22.776,-22.969 -32.142,-36.206 -1.865,-2.637 2.461,-5.115 4.318,-2.524 11.146,15.558 22.293,31.115 33.439,46.673 1.638,2.285 -2.134,5.236 -3.926,3.029 -14.165,-17.442 -28.329,-34.883 -42.494,-52.325 1.309,-1.01 2.618,-2.02 3.927,-3.03 12.32,17.319 24.64,34.638 36.96,51.957 1.513,2.128 -1.38,4.578 -3.421,3.42 -14.768,-8.375 -19.2,-27.936 -34.958,-34.722 1.01,-1.308 2.02,-2.617 3.03,-3.926 10.266,13.109 20.533,26.217 30.799,39.326 1.928,2.461 -1.196,5.881 -3.535,3.535 -8.268,-8.287 -16.939,-16.126 -26.017,-23.518 1.309,-1.01 2.618,-2.02 3.927,-3.029 6.903,11.469 15.266,21.8 25.025,30.961 2.351,2.207 -1.19,5.738 -3.536,3.536 v 0"
         />
      <path
         id="path204"
         style="fill:#231f20;fill-opacity:1;fill-rule:nonzero;stroke:none;stroke-width:0.1"
         d="m 1015.48,211.046 c 5.11,8.874 10.22,17.748 15.33,26.622 -1.44,0 -2.88,0 -4.32,0 4.01,-8.038 6.96,-16.39 8.96,-25.144 0.8,1.054 1.6,2.109 2.41,3.164 -6.79,-0.331 -13.5,-0.025 -20.22,1.032 0.5,-1.225 0.99,-2.449 1.49,-3.673 2.94,6.114 5.88,12.228 8.83,18.342 -1.56,0.42 -3.11,0.841 -4.66,1.262 -0.71,-5.343 -1.42,-10.685 -2.13,-16.027 -0.31,-2.317 2.84,-3.063 4.27,-1.768 3.98,3.628 6.05,8.082 6.57,13.418 0.28,2.776 -4.46,3.45 -4.91,0.664 -0.46,-2.943 -0.93,-5.886 -1.4,-8.829 1.6,0 3.21,0 4.82,0 -0.04,0.253 -0.07,0.506 -0.1,0.758 -0.22,-0.811 -0.43,-1.621 -0.65,-2.432 -2.11,-2.178 0.14,-5.255 2.28,-6.369 2.35,-1.218 4.42,1.177 3.42,3.421 -2.69,6.042 -5.38,12.085 -8.07,18.127 -1.09,2.438 -4.54,0.98 -4.66,-1.261 -0.41,-7.571 1.5,-14.677 5.64,-21.03 0.5,1.224 1,2.448 1.49,3.672 -0.66,0.27 -1.33,0.539 -1.99,0.809 -0.81,-1.055 -1.61,-2.11 -2.41,-3.165 1.83,0.083 3.66,0.166 5.5,0.249 3.2,0.145 3.22,5.146 0,5 -1.84,-0.083 -3.67,-0.166 -5.5,-0.249 -1.5,-0.067 -3.01,-1.563 -2.42,-3.164 1.32,-3.546 4.41,-5.39 8.15,-4.301 1.49,0.431 2.4,2.292 1.5,3.672 -3.69,5.665 -5.32,11.756 -4.96,18.507 -1.56,-0.421 -3.11,-0.842 -4.66,-1.262 2.69,-6.043 5.38,-12.085 8.07,-18.128 1.14,1.141 2.28,2.281 3.43,3.421 -0.99,0.511 -1.16,4.585 -2.07,5.631 -0.76,0.877 -1.79,1.518 -3.02,1.536 -2.87,0.042 -4.13,-2.302 -3.79,-4.771 0.33,-2.41 4.44,-2.365 4.82,0 0.47,2.943 0.94,5.886 1.41,8.829 -1.64,0.222 -3.28,0.443 -4.92,0.665 -0.39,-4.021 -2.14,-7.178 -5.11,-9.882 1.42,-0.59 2.85,-1.179 4.27,-1.768 0.71,5.342 1.42,10.684 2.13,16.027 0.32,2.459 -3.63,3.407 -4.66,1.261 -2.94,-6.113 -5.88,-12.227 -8.83,-18.341 -0.62,-1.293 -0.22,-3.402 1.5,-3.673 7.16,-1.126 14.3,-1.564 21.55,-1.21 1.66,0.081 2.78,1.528 2.41,3.165 -2.09,9.166 -5.26,17.928 -9.46,26.338 -0.85,1.705 -3.42,1.549 -4.32,0 -5.11,-8.874 -10.22,-17.748 -15.33,-26.622 -1.61,-2.793 2.71,-5.314 4.32,-2.523 v 0"
         />
      <path
         id="path206"
         style="fill:#231f20;fill-opacity:1;fill-rule:nonzero;stroke:none;stroke-width:0.1"
         d="m 797.458,214.682 c 0.911,6.498 1.821,12.997 2.731,19.495 -1.224,-0.498 -2.448,-0.996 -3.672,-1.494 3.265,-2.319 7.027,-4.875 8.516,-8.766 0.865,-2.262 1.131,-4.944 -0.578,-6.872 -1.294,-1.459 -3.674,-2.021 -5.252,-0.636 -0.169,-1.308 -0.337,-2.617 -0.506,-3.926 5.546,3.739 8.065,10.043 6.514,16.569 -0.644,2.715 -5.044,2.173 -4.91,-0.665 0.16,-3.394 1.045,-6.434 2.815,-9.336 1.178,-1.933 5,-1.343 4.658,1.262 -0.521,3.972 -2.065,7.214 -5.26,9.732 -1.481,1.167 -4.51,0.64 -4.268,-1.768 0.271,-2.688 1.131,-4.738 3.194,-6.547 1.994,-1.748 5.69,0.588 3.926,3.03 -0.784,1.085 -1.569,2.171 -2.353,3.257 -1.403,1.942 -4.604,1.369 -4.659,-1.262 -0.073,-3.501 -0.145,-7.003 -0.218,-10.504 1.637,0.222 3.274,0.443 4.911,0.665 -0.505,1.167 -0.147,2.064 1.073,2.691 2.983,1.125 1.69,5.96 -1.329,4.821 -3.723,-1.404 -5.786,-4.903 -4.566,-8.841 0.831,-2.682 4.851,-2.198 4.911,0.664 0.073,3.501 0.145,7.003 0.218,10.504 -1.553,-0.421 -3.106,-0.841 -4.658,-1.262 0.784,-1.086 1.568,-2.171 2.353,-3.257 1.308,1.01 2.617,2.02 3.926,3.03 -1.036,0.681 -1.612,1.685 -1.729,3.011 -1.422,-0.589 -2.845,-1.178 -4.267,-1.768 2.043,-1.61 3.448,-3.551 3.795,-6.196 1.553,0.42 3.106,0.841 4.659,1.261 -1.324,2.173 -2.013,4.28 -2.132,6.813 -1.637,-0.221 -3.274,-0.443 -4.911,-0.664 1.007,-4.237 -0.593,-8.48 -4.216,-10.923 -1.248,-0.841 -1.79,-2.799 -0.506,-3.926 5,-4.391 12.771,-1.756 14.616,4.549 2.545,8.698 -4.975,15.125 -11.243,19.577 -1.206,0.856 -3.458,0.04 -3.673,-1.494 -0.91,-6.498 -1.821,-12.997 -2.731,-19.495 -0.441,-3.147 4.376,-4.507 4.821,-1.329 v 0"
         />
      <path
         id="path208"
         style="fill:#231f20;fill-opacity:1;fill-rule:nonzero;stroke:none;stroke-width:0.1"
         d="m 1001.46,114.834 c 9.95,0.053 19.25,-4.417 25.2,-12.449 1.9,-2.5569 6.24,-0.066 4.32,2.523 -7.03,9.484 -17.67,14.989 -29.52,14.926 -3.217,-0.018 -3.223,-5.018 0,-5 v 0"
         />
      <path
         id="path210"
         style="fill:#231f20;fill-opacity:1;fill-rule:nonzero;stroke:none;stroke-width:0.1"
         d="m 994.322,95.1172 c 7.258,-3.4711 13.468,-8.3102 18.618,-14.491 2.06,-2.4762 5.58,1.0777 3.54,3.5347 -5.39,6.4723 -12.04,11.6391 -19.635,15.2731 -2.888,1.381 -5.428,-2.9277 -2.523,-4.3168 v 0"
         />
      <path
         id="path212"
         style="fill:#231f20;fill-opacity:1;fill-rule:nonzero;stroke:none;stroke-width:0.1"
         d="m 990.751,78.3891 c 2.915,-4.9442 5.83,-9.8871 8.745,-14.8309 1.634,-2.7703 5.954,-0.257 4.314,2.5231 -2.91,4.9437 -5.827,9.8878 -8.742,14.8316 -1.633,2.7703 -5.957,0.257 -4.317,-2.5238 v 0"
         />
      <path
         id="path214"
         style="fill:#231f20;fill-opacity:1;fill-rule:nonzero;stroke:none;stroke-width:0.1"
         d="m 833.038,123.136 c -13.602,-1.143 -26.011,-7.071 -35.279,-17.129 -2.178,-2.363 1.349,-5.907 3.535,-3.535 8.339,9.049 19.455,14.631 31.744,15.664 3.183,0.268 3.211,5.271 0,5 v 0"
         />
      <path
         id="path216"
         style="fill:#231f20;fill-opacity:1;fill-rule:nonzero;stroke:none;stroke-width:0.1"
         d="m 817.058,80.6152 c 5.234,9.1899 12.443,16.745 21.41,22.3578 2.722,1.704 0.215,6.031 -2.523,4.317 -9.672,-6.054 -17.556,-14.233 -23.204,-24.1509 -1.595,-2.8012 2.723,-5.3231 4.317,-2.5239 v 0"
         />
      <path
         id="path218"
         style="fill:#231f20;fill-opacity:1;fill-rule:nonzero;stroke:none;stroke-width:0.1"
         d="m 832.576,69.9391 c 2.567,6.28 6.382,11.825 11.206,16.5808 2.296,2.2621 -1.24,5.7973 -3.535,3.5352 -5.472,-5.393 -9.589,-11.684 -12.492,-18.7871 -1.217,-2.9758 3.618,-4.2719 4.821,-1.3289 v 0"
         />
      <path
         id="path314"
         style="fill:#efee0e;fill-opacity:1;fill-rule:nonzero;stroke:none;stroke-width:0.1"
         d="m 915.98,239.053 c -2.817,2.897 -4.907,6.114 -6.151,9.987 -0.491,1.53 -2.517,9.151 -0.329,9.412 1.297,0.154 1.778,-4.04 2.922,-5.428 1.138,-1.38 2.81,-2.254 4.636,-2.162 1.909,0.095 3.482,1.314 4.665,2.712 0.801,0.946 3.35,7.288 4.84,4.948 0.871,-1.368 -3.341,-8.15 -4.106,-9.435 -2.052,-3.453 -4.575,-6.436 -7.469,-9.201 1.392,-0.367 2.785,-0.735 4.178,-1.103 -0.732,4.612 -2.089,8.93 -3.987,13.187 -0.612,1.374 -2.987,1.691 -3.926,0.506 -2.432,-3.071 -2.444,-6.401 0.033,-9.457 0.787,-0.97 2.756,-0.981 3.536,0 2.058,2.588 2.715,5.061 2.045,8.31 -0.36,1.743 -3.01,2.536 -4.179,1.103 -3.486,-4.276 -3.476,-9.574 0.236,-13.719 0.944,-1.053 2.564,-0.85 3.536,0 3.635,3.179 6.074,6.916 7.709,11.449 -1.607,0 -3.215,0 -4.822,0 0.786,-2.022 0.93,-3.517 0.309,-5.656 -0.898,-3.096 3.925,-4.418 4.822,-1.329 0.846,2.916 0.795,5.474 -0.309,8.314 -0.901,2.317 -3.951,2.414 -4.822,0 -1.343,-3.723 -3.447,-6.641 -6.423,-9.243 1.179,0 2.357,0 3.536,0 -1.718,1.918 -1.895,4.615 -0.236,6.648 -1.393,0.368 -2.786,0.736 -4.179,1.103 -0.253,-1.148 -0.506,-2.296 -0.759,-3.445 1.179,0 2.357,0 3.536,0 -0.677,0.786 -0.689,1.582 -0.033,2.386 -1.309,0.169 -2.618,0.338 -3.927,0.506 1.726,-3.872 2.819,-7.813 3.483,-11.992 0.309,-1.949 2.944,-2.282 4.178,-1.103 3.753,3.585 6.978,7.658 9.391,12.267 1.825,3.484 4.48,8.413 3.87,12.457 -0.448,2.965 -2.859,5.213 -5.989,4.617 -1.644,-0.313 -3.131,-1.487 -4.222,-2.697 -1.589,-1.763 -1.987,-5.264 -4.458,-5.329 -2.433,-0.065 -1.828,2.604 -2.906,4.568 -0.707,1.288 -1.758,2.547 -3.121,3.167 -3.049,1.386 -5.93,-0.625 -6.874,-3.588 -2.878,-9.032 2.036,-19.925 8.231,-26.296 2.247,-2.311 5.781,1.227 3.535,3.536 v 0"
         />
    </g>
  </g>
</svg>
