<?xml version="1.0" encoding="UTF-8" standalone="no"?>
<!-- Created with Inkscape (http://www.inkscape.org/) -->

<svg
   width="108.69044mm"
   height="116.97427mm"
   viewBox="0 0 108.69044 116.97427"
   version="1.1"
   id="svg11864"
   xmlns="http://www.w3.org/2000/svg"
   xmlnsSvg="http://www.w3.org/2000/svg">
  <defs
     id="defs11861" />
  <g
     inkscapeLabel="Layer 1"
     id="layer1"
     transform="translate(-796.3836,-208.30948)">
    <g
       id="g10794"
       transform="matrix(0.35277777,0,0,-0.35277777,654.60841,325.28459)">
      <path
         id="path68"
         style="fill:#231f20;fill-opacity:1;fill-rule:nonzero;stroke:none;stroke-width:0.1"
         d="m 561.873,257.567 c -15.179,1.602 -29.648,4.305 -37.544,5.978 -19.571,4.147 -29.192,30.528 -40.434,44.466 -26.541,-66.653 -93.03,-130.147 -80.444,-207.048 19.04,-116.3329 192.232,-125.7829 267.214,-60.731 26.651,23.32 40.53,56.209 39.233,91.539 -1.345,36.612 -17.208,68.097 -36.239,98.472 -2.249,3.591 -4.5,7.184 -6.513,10.912 -3.265,6.044 -6.207,12.547 -8.938,19.12 -2.655,6.388 -5.111,12.841 -7.47,19.001 -1.435,3.746 -7.674,22.169 -4.226,25.417 -12.24,-11.527 -21.616,-33.493 -34.283,-42.805 -9.023,-6.633 -30.309,-6.437 -50.356,-4.321"
         inkscapeLabel="path825" />
      <path
         id="path220"
         style="fill:#231f20;fill-opacity:1;fill-rule:nonzero;stroke:none;stroke-width:0.1"
         d="m 520.183,265.085 c -3.616,0.889 -4.895,4.224 -5.568,7.578 -0.363,1.805 -0.545,3.694 -0.546,5.538 0,0.706 0.009,1.389 0.085,2.093 0.157,1.445 1.123,3.718 3.112,3.406 1.814,-0.284 4.289,-4.029 5.768,-5.143 2.164,-1.628 4.654,-2.571 7.395,-2.042 6.442,1.242 8.959,7.821 9.463,13.611 0.795,9.135 1.271,17.827 4.082,26.659 0.67,2.106 1.31,4.354 2.414,6.277 1.81,3.153 4.21,2.613 6.596,0.594 2.299,-1.945 3.614,-3.896 6.618,-5.037 6.126,-2.327 11.304,-0.163 16.202,3.565 10.679,8.129 16.9,-4.396 17.276,-13.866 0.301,-7.566 -1.155,-16.485 3.154,-23.243 1.603,-2.513 4.234,-4.787 7.279,-5.157 1.417,-0.173 2.498,0.237 3.825,0.61 1.79,0.503 1.316,0.717 2.226,-0.289 0.718,-0.794 0.6,-3.259 0.612,-4.221 0.112,-8.994 -5.674,-17.589 -13.99,-20.931 -2.948,-1.185 -1.661,-6.023 1.329,-4.821 7.277,2.924 12.911,8.445 15.779,15.795 1.937,4.964 4.312,17.339 -2.464,20.063 -1.626,0.653 -2.399,0.149 -3.934,-0.204 -4.184,-0.961 -6.214,0.308 -7.639,4.532 -2.001,5.929 -0.898,12.553 -1.217,18.687 -0.423,8.115 -3.201,17.035 -11.587,20.074 -3.339,1.21 -6.881,1.094 -10.048,-0.571 -4.572,-2.403 -7.488,-6.901 -13.282,-5.806 -5.326,1.006 -5.857,5.794 -10.001,8.015 -3.024,1.62 -6.305,0.358 -8.581,-1.899 -6.324,-6.274 -7.856,-18.627 -8.866,-27.009 -0.604,-5.012 0.199,-11.016 -1.539,-15.793 -1.319,-3.627 -4.831,-6.021 -8.308,-3.43 -1.715,1.278 -2.993,3.06 -4.704,4.35 -6.552,4.943 -11.78,-0.838 -12.048,-7.668 -0.287,-7.304 1.596,-17.127 9.778,-19.138 3.124,-0.768 4.457,4.052 1.329,4.821 v 0"
         inkscapeLabel="path823" />
      <path
         id="path222"
         style="fill:#231f20;fill-opacity:1;fill-rule:nonzero;stroke:none;stroke-width:0.1"
         d="m 533.863,277.903 c 12.024,-1.825 24.135,-2.879 36.3,-2.947 9.8,-0.056 22.494,-1.195 30.799,5.038 2.543,1.909 0.053,6.252 -2.524,4.318 -7.89,-5.922 -20.855,-4.466 -30.209,-4.338 -11.066,0.152 -22.096,1.09 -33.037,2.751 -3.147,0.477 -4.505,-4.34 -1.329,-4.822 v 0"
         inkscapeLabel="path822" />
      <path
         id="path224"
         style="fill:#231f20;fill-opacity:1;fill-rule:nonzero;stroke:none;stroke-width:0.1"
         d="m 536.978,294.202 c 19.07,-6.607 39.374,-7.766 59.097,-3.536 3.144,0.674 1.814,5.495 -1.329,4.821 -18.877,-4.048 -38.207,-2.78 -56.439,3.537 -3.047,1.055 -4.356,-3.773 -1.329,-4.822 v 0"
         inkscapeLabel="path821" />
      <path
         id="path226"
         style="fill:#231f20;fill-opacity:1;fill-rule:nonzero;stroke:none;stroke-width:0.1"
         d="m 541.476,295.928 c -1.425,-3.706 -2.555,-7.44 -3.426,-11.314 -0.539,-2.399 2.341,-4.228 4.179,-2.432 2.222,2.171 4.444,4.343 6.666,6.514 -1.178,1.179 -2.357,2.357 -3.535,3.536 -2.592,-2.931 -3.865,-6.038 -4.044,-9.942 -0.096,-2.085 2.858,-3.407 4.267,-1.768 2.276,2.647 4.552,5.294 6.828,7.941 -1.393,0.368 -2.785,0.736 -4.178,1.103 0.624,-2.141 0.607,-4.183 -0.04,-6.317 -0.736,-2.427 2.437,-4.151 4.179,-2.432 2.502,2.47 4.531,5.104 6.277,8.156 -1.553,0.421 -3.106,0.841 -4.659,1.262 -0.263,-2.462 -0.526,-4.924 -0.789,-7.386 -0.252,-2.353 2.802,-3.026 4.268,-1.768 1.939,1.666 3.878,3.331 5.817,4.997 -1.422,0.589 -2.845,1.178 -4.268,1.768 -0.205,-2.465 -0.411,-4.93 -0.616,-7.395 -0.199,-2.384 2.763,-2.995 4.268,-1.768 2.486,2.027 4.64,4.233 6.608,6.77 -1.309,1.009 -2.618,2.019 -3.926,3.029 -1.131,-2.618 -1.802,-5.089 -2.151,-7.924 -0.237,-1.923 2.285,-3.062 3.762,-2.158 2.753,1.684 5.146,3.624 7.335,6.004 -1.423,0.589 -2.845,1.178 -4.268,1.767 -0.225,-2.267 -0.706,-4.043 -1.482,-6.136 -0.884,-2.385 2.53,-4.166 4.179,-2.432 2.482,2.61 4.964,5.221 7.446,7.831 -1.393,0.811 -2.786,1.622 -4.179,2.432 -0.386,-2.312 -0.773,-4.624 -1.16,-6.936 -0.313,-1.873 1.725,-4.268 3.673,-2.824 1.843,1.367 3.687,2.734 5.53,4.101 -1.254,0.72 -2.508,1.44 -3.762,2.159 -0.198,-1.956 0.174,-3.355 0.999,-5.108 0.669,-1.422 2.916,-1.632 3.926,-0.506 2.538,2.825 4.702,5.79 6.583,9.095 -1.552,0.421 -3.105,0.842 -4.658,1.262 -0.042,-1.344 -0.084,-2.688 -0.125,-4.032 -0.086,-2.769 4.354,-3.465 4.91,-0.665 0.494,0.941 0.988,1.883 1.482,2.824 -1.393,0.367 -2.786,0.735 -4.178,1.103 0.518,-3.152 1.035,-6.304 1.553,-9.456 0.333,-2.022 2.9,-2.185 4.179,-1.103 2.081,1.761 2.868,3.663 2.825,6.376 -0.028,1.771 -1.567,2.656 -3.164,2.41 -3.112,-0.478 -6.224,-0.957 -9.335,-1.436 1.025,-1.025 2.05,-2.05 3.075,-3.075 0.498,2.468 0.722,4.831 0.618,7.352 -0.061,1.472 -1.572,3.029 -3.165,2.411 -2.909,-1.13 -4.642,-2.858 -5.633,-5.826 -0.667,-1.998 1.344,-3.335 3.076,-3.075 1.987,0.298 3.974,0.597 5.961,0.895 1.773,0.266 2.508,3.073 1.104,4.179 -4.699,3.699 -9.842,2.939 -15.319,1.422 -8.952,-2.479 -17.508,-3.21 -26.65,-1.188 -3.136,0.694 -4.475,-4.125 -1.33,-4.821 6.459,-1.429 12.97,-1.873 19.545,-0.997 5.423,0.722 15.404,5.838 20.218,2.048 0.368,1.393 0.736,2.786 1.103,4.178 -1.987,-0.298 -3.974,-0.596 -5.961,-0.894 1.025,-1.026 2.05,-2.051 3.075,-3.076 0.713,0.778 1.427,1.556 2.14,2.333 -1.054,0.804 -2.109,1.607 -3.164,2.411 0.088,-2.143 -0.007,-3.878 -0.439,-6.023 -0.404,-2.001 1.15,-3.371 3.075,-3.075 3.111,0.479 6.223,0.957 9.335,1.436 -1.055,0.804 -2.11,1.607 -3.165,2.411 -0.453,-0.947 -0.907,-1.894 -1.361,-2.84 1.393,-0.368 2.786,-0.736 4.179,-1.104 -0.518,3.152 -1.036,6.304 -1.554,9.456 -0.317,1.928 -2.948,2.308 -4.178,1.103 -1.566,-1.533 -2.343,-2.888 -2.768,-5.03 1.637,-0.221 3.274,-0.443 4.911,-0.664 0.041,1.344 0.083,2.688 0.125,4.032 0.077,2.493 -3.451,3.385 -4.659,1.262 -1.668,-2.931 -3.545,-5.572 -5.801,-8.084 1.309,-0.169 2.618,-0.337 3.926,-0.506 -0.105,0.862 -0.21,1.723 -0.316,2.585 0.183,1.797 -2.298,3.244 -3.761,2.159 -1.844,-1.367 -3.687,-2.734 -5.531,-4.101 1.224,-0.941 2.449,-1.882 3.673,-2.824 0.386,2.313 0.773,4.625 1.16,6.937 0.382,2.288 -2.31,4.398 -4.179,2.433 -2.482,-2.611 -4.964,-5.221 -7.446,-7.832 1.393,-0.81 2.786,-1.621 4.178,-2.432 0.918,2.474 1.402,4.858 1.661,7.465 0.216,2.17 -2.874,3.283 -4.267,1.768 -1.906,-2.072 -3.918,-3.751 -6.323,-5.222 1.253,-0.719 2.507,-1.439 3.761,-2.159 0.179,1.885 0.668,3.685 1.468,5.401 1.005,2.327 -2.019,5.488 -3.927,3.029 -1.966,-2.535 -4.119,-4.741 -6.608,-6.769 1.423,-0.59 2.845,-1.179 4.268,-1.768 0.205,2.465 0.411,4.93 0.616,7.395 0.196,2.342 -2.775,3.049 -4.267,1.767 -1.939,-1.665 -3.879,-3.331 -5.818,-4.996 1.423,-0.589 2.845,-1.179 4.268,-1.768 0.263,2.462 0.526,4.924 0.789,7.386 0.273,2.55 -3.501,3.284 -4.658,1.262 -1.529,-2.671 -3.31,-4.987 -5.496,-7.145 1.393,-0.81 2.786,-1.621 4.178,-2.432 0.95,3.135 0.957,5.832 0.04,8.976 -0.494,1.694 -2.911,2.577 -4.178,1.103 -2.276,-2.647 -4.552,-5.294 -6.828,-7.941 1.422,-0.59 2.845,-1.179 4.268,-1.768 0.118,2.577 0.867,4.469 2.579,6.406 2.118,2.396 -1.212,5.806 -3.535,3.536 -2.222,-2.172 -4.444,-4.343 -6.667,-6.515 1.393,-0.81 2.786,-1.621 4.179,-2.432 0.87,3.874 2.001,7.607 3.426,11.313 1.155,3.006 -3.677,4.307 -4.822,1.33 v 0"
         inkscapeLabel="path820" />
      <path
         id="path228"
         style="fill:#ffffff;fill-opacity:1;fill-rule:nonzero;stroke:none;stroke-width:0.1"
         d="m 633.437,194.313 c -11.071,2.9 -19.241,-8.362 -20.043,-18.285 -0.845,-10.464 7.144,-21.323 18.401,-20.205 10.846,1.077 16.782,12.331 15.07,22.348 -1.672,9.783 -11.368,19.477 -21.435,13.185 -2.723,-1.702 -0.216,-6.03 2.523,-4.318 13.706,8.567 21.888,-26.029 2.466,-26.31 -18.119,-0.262 -13.883,32.842 1.689,28.763 3.115,-0.816 4.444,4.006 1.329,4.822 v 0"
         inkscapeLabel="path819" />
      <path
         id="path230"
         style="fill:#ffffff;fill-opacity:1;fill-rule:nonzero;stroke:none;stroke-width:0.1"
         d="m 629.496,178.19 c -4.07,-2.376 -2.12,-9.894 2.827,-9.263 1.161,0.147 2.033,0.683 2.41,1.835 1.168,3.561 0.24,7.289 -2.171,10.09 -1.076,1.25 -3.146,0.785 -3.926,-0.506 -0.744,-1.231 -1.487,-2.462 -2.231,-3.692 -1.668,-2.761 2.653,-5.277 4.317,-2.524 0.744,1.231 1.487,2.462 2.231,3.692 -1.309,-0.168 -2.618,-0.337 -3.926,-0.506 1.276,-1.482 1.478,-3.414 0.885,-5.225 0.804,0.612 1.607,1.224 2.411,1.836 -0.843,-0.108 -0.08,-0.002 -0.09,-0.09 -0.031,-0.281 0.095,0.419 -0.012,0.154 0.26,0.642 -0.141,-0.082 -0.202,-0.118 2.778,1.622 0.264,5.945 -2.523,4.317 v 0"
         inkscapeLabel="path818" />
      <path
         id="path232"
         style="fill:#ffffff;fill-opacity:1;fill-rule:nonzero;stroke:none;stroke-width:0.1"
         d="m 492.243,194.313 c -11.071,2.9 -19.242,-8.362 -20.043,-18.285 -0.846,-10.464 7.144,-21.323 18.401,-20.205 10.845,1.077 16.782,12.331 15.07,22.348 -1.672,9.783 -11.369,19.477 -21.436,13.185 -2.722,-1.702 -0.215,-6.03 2.524,-4.318 13.705,8.567 21.887,-26.029 2.466,-26.31 -18.119,-0.262 -13.883,32.842 1.689,28.763 3.115,-0.816 4.444,4.006 1.329,4.822 v 0"
         inkscapeLabel="path817" />
      <path
         id="path234"
         style="fill:#ffffff;fill-opacity:1;fill-rule:nonzero;stroke:none;stroke-width:0.1"
         d="m 488.302,178.19 c -4.07,-2.376 -2.12,-9.894 2.826,-9.263 1.162,0.147 2.033,0.683 2.411,1.835 1.167,3.561 0.24,7.289 -2.171,10.09 -1.077,1.25 -3.147,0.785 -3.927,-0.506 -0.743,-1.231 -1.487,-2.462 -2.23,-3.692 -1.669,-2.761 2.653,-5.277 4.317,-2.524 0.744,1.231 1.487,2.462 2.231,3.692 -1.309,-0.168 -2.618,-0.337 -3.927,-0.506 1.277,-1.482 1.479,-3.414 0.886,-5.225 0.803,0.612 1.607,1.224 2.41,1.836 -0.842,-0.108 -0.08,-0.002 -0.089,-0.09 -0.031,-0.281 0.095,0.419 -0.013,0.154 0.261,0.642 -0.14,-0.082 -0.201,-0.118 2.777,1.622 0.264,5.945 -2.523,4.317 v 0"
         inkscapeLabel="path816" />
      <path
         id="path236"
         style="fill:#ffffff;fill-opacity:1;fill-rule:nonzero;stroke:none;stroke-width:0.1"
         d="m 536.367,253.032 c -1.342,-6.733 -1.889,-13.539 -1.264,-20.391 0.361,-3.954 0.441,-9.89 3.875,-12.62 8.289,-6.587 13.762,10.947 14.244,16.204 0.612,6.689 -2.013,17.744 -10.718,17.505 -4.625,-0.126 -5.342,-4.145 -5.504,-7.907 -0.291,-6.78 0.685,-13.637 2.29,-20.208 0.565,-2.309 4.352,-2.457 4.822,0 1.437,7.518 1.885,15.024 1.239,22.655 -0.267,3.162 -5.148,3.251 -5,0 0.304,-6.64 0.168,-13.244 -0.409,-19.867 -0.279,-3.205 4.723,-3.186 5,0 0.577,6.623 0.713,13.227 0.409,19.867 -1.666,0 -3.333,0 -5,0 0.608,-7.183 0.295,-14.238 -1.061,-21.326 1.608,0 3.215,0 4.822,0 -0.8,3.273 -1.455,6.566 -1.791,9.922 -0.25,2.494 -1.313,7.536 -0.284,9.853 1.782,4.012 4.864,-0.876 5.578,-3.112 0.755,-2.366 0.859,-4.923 0.607,-7.382 -0.309,-3.01 -1.114,-6.189 -2.646,-8.814 -0.905,-1.55 -1.604,-3.277 -3.356,-2.395 -1.477,0.743 -1.361,2.119 -1.614,3.605 -1.302,7.64 -0.927,15.51 0.583,23.081 0.626,3.143 -4.192,4.488 -4.822,1.33 v 0"
         inkscapeLabel="path815" />
      <path
         id="path238"
         style="fill:#ffffff;fill-opacity:1;fill-rule:nonzero;stroke:none;stroke-width:0.1"
         d="m 549.053,246.086 c 0.188,0.48 0.377,0.96 0.565,1.44 -1.01,-0.13 -2.02,-0.261 -3.029,-0.391 1.074,-0.707 1.897,-1.636 2.468,-2.788 1.684,-2.805 5.653,-0.353 4.317,2.523 -0.936,2.017 -2.216,3.327 -4.14,4.427 -0.199,-1.523 -0.398,-3.046 -0.597,-4.569 0.088,0.018 -2.869,-9.396 -3.279,-10.475 -1.411,-3.708 -2.821,-7.416 -4.232,-11.124 -1.145,-3.01 3.687,-4.312 4.821,-1.329 1.411,3.708 2.822,7.416 4.232,11.124 1.235,3.246 3.384,7.089 3.652,10.58 0.307,3.986 -2.583,6.865 -6.523,6.045 -2.14,-0.445 -2.39,-3.544 -0.597,-4.569 1.2,-0.555 1.983,-1.433 2.346,-2.633 1.439,0.841 2.878,1.682 4.317,2.523 -1.139,1.899 -2.477,3.277 -4.262,4.582 -0.862,0.631 -2.326,0.354 -3.029,-0.39 -1.802,-1.909 -2.242,-3.756 -1.851,-6.305 0.485,-3.171 5.304,-1.824 4.821,1.329 v 0"
         inkscapeLabel="path814" />
      <path
         id="path240"
         style="fill:#ffffff;fill-opacity:1;fill-rule:nonzero;stroke:none;stroke-width:0.1"
         d="m 568.142,246.38 c -0.33,-5.532 -0.312,-11.052 0.201,-16.574 0.348,-3.752 0.451,-8.371 1.975,-11.862 2.491,-5.709 9.421,-4.219 11.879,0.645 1.856,3.673 2.131,8.392 2.912,12.387 0.791,4.049 1.972,8.443 0.937,12.558 -1.381,5.493 -7.596,9.277 -12.716,5.992 -0.936,-0.6 -1.453,-1.724 -1.149,-2.823 2.239,-8.106 2.454,-16.184 0.584,-24.388 -0.712,-3.127 4.036,-4.462 4.822,-1.329 1.893,7.551 3.309,15.168 4.332,22.883 -1.667,0 -3.334,0 -5,0 0.444,-5.669 0.042,-11.142 -1.299,-16.673 -0.758,-3.126 4.063,-4.46 4.822,-1.329 1.442,5.949 1.955,11.893 1.477,18.002 -0.257,3.28 -4.584,3.142 -5,0 -0.963,-7.268 -2.371,-14.443 -4.154,-21.554 1.608,-0.443 3.215,-0.886 4.822,-1.329 2.063,9.053 1.889,18.093 -0.585,27.046 -0.383,-0.941 -0.766,-1.882 -1.149,-2.823 6.651,4.267 5.19,-9.014 4.605,-12.031 -0.477,-2.463 -0.698,-9.71 -2.401,-11.61 -3.646,-4.067 -3.67,0.417 -3.95,2.125 -0.491,2.989 -0.804,6.01 -0.998,9.032 -0.293,4.554 -0.239,9.102 0.033,13.655 0.192,3.214 -4.808,3.203 -5,0 v 0"
         inkscapeLabel="path813" />
      <path
         id="path242"
         style="fill:#ffffff;fill-opacity:1;fill-rule:nonzero;stroke:none;stroke-width:0.1"
         d="m 572.068,242.392 c 0.197,-3.953 -0.446,-7.663 -1.919,-11.334 -1.198,-2.986 3.636,-4.283 4.822,-1.329 1.622,4.045 2.314,8.312 2.097,12.663 -0.161,3.203 -5.162,3.222 -5,0 v 0"
         inkscapeLabel="path812" />
      <path
         id="path244"
         style="fill:#ffffff;fill-opacity:1;fill-rule:nonzero;stroke:none;stroke-width:0.1"
         d="m 701.61,149.919 c -8.686,-1.054 -16.96,-3.93 -24.116,-9.043 -4.573,-3.268 -12.387,-9.236 -5.363,-14.262 6.774,-4.847 16.892,-5.779 24.743,-3.54 2.765,0.789 5.089,1.844 5.752,4.838 1.051,4.742 -0.45,10.83 -0.782,15.637 -0.119,1.718 -2.096,3.342 -3.762,2.159 -6.232,-4.424 -12.464,-8.848 -18.696,-13.271 -2.122,-1.507 -0.917,-5.668 1.927,-4.569 5.441,2.101 10.292,4.888 14.862,8.512 2.201,1.746 -0.737,5.606 -3.03,3.926 -2.79,-2.043 -5.213,-4.245 -7.415,-6.925 -0.636,-0.775 -1.096,-2.109 -0.391,-3.029 0.757,-0.989 1.24,-1.56 2.44,-2.016 0.412,-0.157 3.853,-0.628 3.858,-0.215 0.412,0.72 0.825,1.44 1.238,2.159 -0.207,-0.128 -0.415,-0.257 -0.622,-0.385 1.224,-0.941 2.448,-1.882 3.672,-2.823 0.368,1.605 1.24,2.887 2.619,3.846 -1.01,1.309 -2.02,2.618 -3.03,3.926 -0.944,-0.877 -11.315,-9.086 -10.767,-3.825 0.336,3.23 7.832,6.231 10.257,7.12 2.978,1.092 1.836,5.641 -1.329,4.822 -7.594,-1.965 -14.261,-5.736 -19.884,-11.201 -1.954,-1.9 0.14,-4.525 2.433,-4.179 5.742,0.867 10.649,3.324 14.932,7.222 2.385,2.171 -1.159,5.699 -3.535,3.536 -3.679,-3.348 -7.829,-5.197 -12.726,-5.937 0.81,-1.392 1.621,-2.785 2.432,-4.178 5.034,4.893 10.882,8.157 17.677,9.915 -0.443,1.608 -0.886,3.215 -1.329,4.822 -5.469,-2.005 -17.336,-8.166 -14.014,-15.897 3.538,-8.233 15.732,0.847 19.389,4.245 2.032,1.889 -0.733,5.662 -3.03,3.926 -2.463,-1.86 -3.981,-3.865 -4.916,-6.834 -0.652,-2.07 1.845,-3.955 3.672,-2.823 2.03,1.256 2.425,3.33 1.071,5.339 -0.533,0.79 -1.388,1.464 -2.272,1.809 -0.522,0.204 -3.869,0.084 -3.918,0.149 -0.131,-1.01 -0.261,-2.02 -0.391,-3.029 1.918,2.335 3.959,4.353 6.403,6.143 -1.01,1.309 -2.02,2.618 -3.03,3.927 -3.855,-3.058 -8.067,-5.455 -12.655,-7.227 0.642,-1.523 1.284,-3.046 1.926,-4.569 6.232,4.423 12.464,8.847 18.695,13.27 -1.253,0.72 -2.507,1.44 -3.761,2.159 0.217,-3.148 0.435,-6.297 0.652,-9.445 0.221,-3.193 0.919,-5.538 -2.753,-6.406 -5.352,-1.264 -13.413,-1.316 -18.13,2.082 -2.989,2.153 -0.55,3.678 1.76,5.519 1.997,1.592 4.126,3.004 6.363,4.239 5.222,2.882 10.959,4.663 16.874,5.381 3.154,0.383 3.192,5.387 0,5 v 0"
         inkscapeLabel="path811" />
      <path
         id="path246"
         style="fill:#ffffff;fill-opacity:1;fill-rule:nonzero;stroke:none;stroke-width:0.1"
         d="m 696.148,109.886 c -0.643,4.637 -12.309,3.177 -15.189,2.357 -4.3,-1.225 -9.824,-4.134 -11.057,-8.812 -1.311,-4.9701 2.939,-9.3599 6.426,-12.272 4.465,-3.7301 9.739,-6.0418 15.465,-6.9711 1.076,-0.175 2.262,0.107 2.823,1.1492 3.834,7.1211 5.624,14.7179 5.261,22.8049 -0.088,1.966 -2.801,3.554 -4.268,1.768 -2.898,-3.527 -5.796,-7.054 -8.694,-10.5811 1.392,-0.8109 2.785,-1.6219 4.178,-2.4328 0.935,2.5441 1.87,5.0879 2.805,7.6319 0.795,2.16 -1.893,3.786 -3.672,2.823 -3.237,-1.75 -6.473,-3.5 -9.71,-5.251 1.01,-1.308 2.02,-2.6168 3.03,-3.9258 1.555,1.693 2.546,3.4038 3.209,5.6118 0.69,2.294 -1.807,3.636 -3.672,2.823 -1.57,-0.67 -3.043,-0.626 -4.422,0.135 -1.229,0.483 -2.786,-0.538 -3.075,-1.746 -0.801,-3.35 -1.468,-7.0757 0.552,-10.1511 2.341,-3.5629 5.111,-2.3817 8.58,-3.1817 2.842,-0.6562 4.962,-2.7839 7.61,-0.1453 2.782,2.7723 1.888,8.4543 1.471,11.8351 -0.163,1.328 -1.012,2.521 -2.5,2.5 -2.686,-0.037 -4.483,-1.777 -4.808,-4.482 -0.152,-1.258 0.097,-2.4949 0.672,-3.625 0.271,-0.5308 0.726,-1.032 1.097,-1.5019 0.408,-0.4629 0.826,-0.916 1.253,-1.3602 0.809,-1.0968 2,-1.0949 3.572,0.0063 0.412,-0.7192 0.825,-1.4391 1.238,-2.159 0.012,0.1637 0.024,0.327 0.035,0.4898 0.233,3.211 -4.768,3.1961 -5,0 -0.198,-2.7398 3.194,-4.421 5.271,-2.5238 1.14,1.041 1.25,2.8 0.837,4.1727 -0.333,1.1082 -3.606,5.9911 -4.167,5.9831 -0.833,0.834 -1.666,1.667 -2.5,2.5 0.228,-1.843 0.428,-3.6948 0.348,-5.5558 -0.159,-3.7012 -0.067,-2.0172 -2.049,-1.2301 -0.942,0.3739 -1.984,0.1551 -2.89,0.3961 -5.236,1.3918 -4.688,2.9918 -3.801,6.7038 -1.025,-0.582 -2.05,-1.164 -3.075,-1.746 2.941,-1.155 5.435,-0.869 8.275,0.369 -1.225,0.941 -2.449,1.882 -3.673,2.823 -0.282,-1.338 -0.923,-2.473 -1.924,-3.405 -1.915,-2.0858 0.492,-5.2998 3.03,-3.9268 3.236,1.75 6.473,3.5008 9.71,5.2508 -1.225,0.941 -2.449,1.882 -3.673,2.823 -0.935,-2.544 -1.87,-5.088 -2.805,-7.632 -0.843,-2.2918 2.611,-4.3391 4.178,-2.432 2.898,3.5269 5.797,7.054 8.695,10.582 -1.423,0.589 -2.845,1.178 -4.268,1.767 0.324,-7.22 -1.149,-13.9119 -4.578,-20.2818 0.941,0.3828 1.882,0.766 2.823,1.1488 -5.099,0.8281 -9.905,2.7492 -13.842,6.1672 -2.984,2.5918 -6.14,7.0988 -1.668,10.0948 2.159,1.447 4.638,2.306 7.201,2.643 2.593,0.34 5.115,0.1 7.618,-0.688 1.706,-0.538 3.299,-1.563 5.178,-1.252 2.76,0.456 3.702,2.777 3.36,5.242 -0.44,3.173 -5.258,1.822 -4.821,-1.33 v 0"
         inkscapeLabel="path810" />
      <path
         id="path248"
         style="fill:#ffffff;fill-opacity:1;fill-rule:nonzero;stroke:none;stroke-width:0.1"
         d="m 409.152,139.397 c -0.335,-6.74 -0.638,-13.897 0.444,-20.588 0.627,-3.876 2.279,-6.08 6.472,-5.688 5.631,0.528 11.511,2.666 16.677,4.885 4.375,1.879 9.275,4.703 10.959,9.478 3.481,9.877 -8.924,13.109 -16.042,13.564 -3.977,0.255 -9.8,0.493 -12.726,-2.822 -3.384,-3.833 -1.485,-11.714 -1.347,-16.361 0.051,-1.713 2.157,-3.356 3.762,-2.159 4.335,3.233 7.955,6.911 11.098,11.315 1.631,2.287 -2.174,5.268 -3.927,3.03 -2.113,-2.699 -3.459,-5.392 -4.01,-8.805 -0.397,-2.454 2.204,-4.154 4.178,-2.432 3.079,2.686 6.402,4.594 10.275,5.912 -0.941,1.224 -1.882,2.449 -2.823,3.673 -2.131,-2.96 -4.263,-5.919 -6.394,-8.878 -1.5,-2.082 1.389,-4.657 3.42,-3.421 3.898,2.373 13.171,5.591 10.312,11.8 -2.207,4.791 -9.074,5.878 -13.672,5.208 -5.088,-0.742 -10.518,-3.871 -12.791,-8.683 -2.944,-6.235 4.544,-7.646 8.916,-9.361 2.997,-1.175 4.296,3.658 1.329,4.822 -2.534,0.993 -6.541,1.5 -4.14,4.547 1.667,2.116 4.79,3.33 7.357,3.714 2.072,0.309 6.665,0.473 7.364,-2.023 0.521,-1.859 -1.084,-1.984 -2.603,-2.909 -1.532,-0.932 -3.064,-1.865 -4.596,-2.797 1.141,-1.141 2.281,-2.281 3.421,-3.421 2.131,2.959 4.263,5.919 6.395,8.878 1.265,1.757 -0.839,4.348 -2.824,3.673 -4.693,-1.598 -8.745,-3.94 -12.481,-7.198 1.392,-0.811 2.785,-1.622 4.178,-2.433 0.401,2.482 1.146,4.582 2.725,6.598 -1.309,1.01 -2.618,2.02 -3.927,3.03 -2.624,-3.678 -5.68,-6.819 -9.304,-9.522 1.254,-0.719 2.508,-1.439 3.762,-2.158 -0.095,3.195 -0.532,6.588 -0.291,9.772 0.226,2.981 0.678,3.928 3.527,4.353 1.586,0.236 3.408,0.183 5.004,0.111 3.041,-0.136 6.549,-0.452 9.3,-1.886 5.24,-2.732 2.01,-7.494 -1.673,-9.805 -2.646,-1.661 -5.711,-2.74 -8.66,-3.725 -1.808,-0.604 -9.611,-3.741 -11.122,-2.337 -1.192,1.108 -0.633,8.124 -0.68,9.809 -0.106,3.751 -0.028,7.494 0.158,11.24 0.16,3.216 -4.84,3.208 -5,0 v 0"
         inkscapeLabel="path89" />
      <path
         id="path250"
         style="fill:#ffffff;fill-opacity:1;fill-rule:nonzero;stroke:none;stroke-width:0.1"
         d="m 415.221,94.075 c 5.344,1.4629 9.884,4.9512 15.19,6.379 5.883,1.583 14.322,-1.3868 9.698,-8.861 -3.067,-4.9578 -8.925,-8.6719 -13.752,-11.718 -0.752,-0.4738 -2.694,-2.218 -3.643,-2.1719 -1.837,0.091 -1.509,0.9539 -2.211,2.152 -0.64,1.0918 -1.033,2.4058 -1.526,3.5789 -0.352,0.848 -0.704,1.6961 -1.056,2.5441 -1.122,2.0149 -0.59,3.8559 1.595,5.5219 -0.582,1.025 -1.164,2.05 -1.746,3.075 -1.36,-3.784 -1.776,-7.307 -1.304,-11.3 0.283,-2.3937 3.225,-3.4891 4.659,-1.2621 2.733,4.2434 5.466,8.4871 8.199,12.7301 -1.439,0.841 -2.878,1.6832 -4.317,2.5242 -1.621,-3.757 -3.241,-7.5133 -4.861,-11.2703 -1.036,-2.4 1.822,-5.293 3.926,-3.0289 3.808,4.0961 7.616,8.1922 11.425,12.2883 -1.309,1.0097 -2.618,2.0187 -3.927,3.0289 -2.596,-5.052 -5.596,-9.7973 -9.049,-14.3082 -1.766,-2.3079 1.955,-4.9399 3.927,-3.0301 4.3,4.166 8.601,8.3332 12.902,12.4992 -1.393,0.8102 -2.786,1.6211 -4.179,2.432 -1.061,-2.7699 -2.565,-4.8172 -4.747,-6.8121 1.309,-1.0101 2.618,-2.0199 3.927,-3.0301 1.252,2.218 2.702,4.2223 4.633,5.9141 1.241,1.0871 2.816,1.7289 3.574,3.2301 1.129,2.234 0.292,4.8289 -1.728,6.2329 -5.977,4.151 -14.42,-3.7501 -18.421,-7.588 -3.649,-3.4988 -9.836,-11.841 -2.207,-15.0781 8.539,-3.6239 11.073,7.6652 17.074,9.9871 2.969,1.15 1.678,5.9859 -1.33,4.8219 -2.926,-1.1329 -4.745,-2.8477 -6.679,-5.3149 -0.791,-1.0078 -3.578,-5.532 -5.364,-4.8519 -4.333,1.6488 1.594,6.4941 2.595,7.4351 1.7,1.5969 3.439,3.184 5.424,4.427 1.092,0.7078 2.245,1.3027 3.459,1.784 2.361,0.6648 2.961,0.6187 1.8,-0.1383 -0.198,-0.8758 -3.591,-3.2278 -4.308,-4.0977 -1.094,-1.3262 -1.997,-2.7461 -2.84,-4.239 -1.419,-2.5129 1.842,-4.9372 3.927,-3.0301 2.814,2.5738 4.672,5.466 6.032,9.0191 0.936,2.4438 -2.507,4.0508 -4.178,2.4317 -4.301,-4.1657 -8.601,-8.3317 -12.902,-12.4977 1.309,-1.0102 2.618,-2.0203 3.927,-3.0301 3.452,4.511 6.452,9.2559 9.048,14.309 1.246,2.4231 -1.906,5.2019 -3.926,3.0289 -3.808,-4.0961 -7.616,-8.1918 -11.425,-12.2879 1.309,-1.0101 2.618,-2.0199 3.927,-3.0289 1.62,3.7559 3.241,7.5129 4.861,11.2688 1.248,2.8929 -2.529,5.3 -4.317,2.5242 -2.733,-4.2442 -5.466,-8.4871 -8.199,-12.7313 1.553,-0.4199 3.105,-0.841 4.658,-1.2609 -0.416,3.523 -0.07,6.6461 1.125,9.9711 0.461,1.2809 -0.525,2.725 -1.746,3.075 -3.372,0.968 -6.601,-0.6332 -8.039,-3.8648 -2.079,-4.6762 1.235,-10.1653 3.075,-14.409 1.441,-3.3254 3.377,-6.6082 7.561,-5.4891 5.014,1.3398 10.253,6.1078 14.19,9.3457 6.216,5.1109 13.958,15.8641 4.319,21.9851 -9.622,6.11 -18.991,-2.509 -28.059,-4.9929 -3.1,-0.8488 -1.784,-5.6742 1.329,-4.8211 v 0"
         inkscapeLabel="path88" />
      <path
         id="path252"
         style="fill:#ffffff;fill-opacity:1;fill-rule:nonzero;stroke:none;stroke-width:0.1"
         d="m 570.198,130.855 c -1.961,4.615 -7.498,8.35 -12.457,5.712 -4.658,-2.478 -5.794,-8.658 -1.651,-12.147 3.898,-3.283 9.76,-3.15 14.082,-0.825 3.756,2.021 8.401,7.603 5.88,12.106 -1.218,2.175 -3.964,2.843 -6.181,3.401 -3.383,0.852 -7.058,1.307 -10.375,-0.048 -4.375,-1.787 -7.505,-6.907 -5.31,-11.478 4.112,-8.561 24.384,-3.522 18.287,5.33 -2.662,3.866 -12.43,5.121 -14.419,-0.082 -0.908,-2.375 0.361,-5.06 2.401,-6.393 3.03,-1.979 6.525,-0.567 9.44,0.902 1.14,0.575 1.634,2.361 0.897,3.421 -1.823,2.618 -5.474,2.794 -7.161,-0.119 -1.615,-2.79 2.704,-5.31 4.318,-2.523 -0.492,0.039 -0.983,0.079 -1.475,0.118 0.299,1.14 0.598,2.28 0.897,3.42 -0.88,-0.501 -1.811,-0.885 -2.791,-1.153 -2.027,0.407 -2.175,0.595 -0.442,0.561 0.807,0.06 3.717,0.073 4.05,-0.73 0.747,-1.806 -4.464,-2.275 -5.541,-2.262 -2.522,0.029 -5.182,1.216 -3.762,4.206 1.573,3.313 6.195,2.789 9.031,2.17 0.576,-0.126 3.132,-0.439 3.506,-1.041 0.726,-1.168 -0.755,-3.012 -1.485,-3.779 -1.564,-1.642 -3.82,-2.653 -6.084,-2.74 -2.397,-0.091 -7.527,1.823 -4.517,4.727 2.606,2.513 5.578,-1.004 6.544,-3.277 1.255,-2.952 5.563,-0.407 4.318,2.523 v 0"
         inkscapeLabel="path87" />
      <path
         id="path254"
         style="fill:#ffffff;fill-opacity:1;fill-rule:nonzero;stroke:none;stroke-width:0.1"
         d="m 557.967,122.851 c 3.807,-5.903 4.462,-13.301 0.561,-19.365 -1.678,-2.609 -4.007,-4.7458 -6.756,-6.186 -2.984,-1.5621 -12.319,-3.434 -11.203,3.213 0.528,3.147 -4.289,4.5 -4.822,1.329 -0.74,-4.4068 1.226,-8.444 5.446,-10.265 5.204,-2.2469 11.416,-0.061 15.743,3.08 9.882,7.174 11.864,20.616 5.348,30.717 -1.738,2.695 -6.068,0.191 -4.317,-2.523 v 0"
         inkscapeLabel="path86" />
      <path
         id="path256"
         style="fill:#ffffff;fill-opacity:1;fill-rule:nonzero;stroke:none;stroke-width:0.1"
         d="m 562.498,120.086 c 0.3,-7.543 1.31,-17.224 8.603,-21.4219 8.071,-4.645 16.906,0.7691 21.797,7.3659 1.917,2.587 -2.421,5.083 -4.318,2.523 -3.871,-5.221 -11.895,-9.7178 -17.194,-3.673 -3.445,3.93 -3.691,10.271 -3.888,15.206 -0.127,3.206 -5.128,3.223 -5,0 v 0"
         inkscapeLabel="path85" />
      <path
         id="path258"
         style="fill:#ffffff;fill-opacity:1;fill-rule:nonzero;stroke:none;stroke-width:0.1"
         d="m 608.118,128.343 c 8.97,2.553 17.9,2.491 26.841,-0.173 3.09,-0.921 4.411,3.903 1.329,4.821 -9.731,2.9 -19.734,2.953 -29.5,0.173 -3.089,-0.879 -1.776,-5.705 1.33,-4.821 v 0"
         inkscapeLabel="path84" />
      <path
         id="path260"
         style="fill:#ffffff;fill-opacity:1;fill-rule:nonzero;stroke:none;stroke-width:0.1"
         d="m 614.308,117.246 c 3.691,-1.609 7.383,-3.218 11.075,-4.827 2.921,-1.273 5.469,3.034 2.523,4.318 -3.691,1.609 -7.383,3.218 -11.075,4.827 -2.921,1.273 -5.469,-3.034 -2.523,-4.318 v 0"
         inkscapeLabel="path83" />
      <path
         id="path262"
         style="fill:#ffffff;fill-opacity:1;fill-rule:nonzero;stroke:none;stroke-width:0.1"
         d="m 533.403,133.362 c -6.42,1.886 -12.868,2.246 -19.479,1.285 -3.172,-0.462 -1.823,-5.281 1.33,-4.822 5.692,0.828 11.312,0.334 16.82,-1.284 3.093,-0.909 4.414,3.914 1.329,4.821 v 0"
         inkscapeLabel="path82" />
      <path
         id="path264"
         style="fill:#ffffff;fill-opacity:1;fill-rule:nonzero;stroke:none;stroke-width:0.1"
         d="m 528.469,126.205 c -6.036,-2.925 -12.072,-5.851 -18.108,-8.777 -2.895,-1.403 -0.362,-5.716 2.524,-4.317 6.036,2.925 12.072,5.851 18.108,8.777 2.895,1.403 0.362,5.716 -2.524,4.317 v 0"
         inkscapeLabel="path81" />
    </g>
  </g>
</svg>
