<?xml version="1.0" encoding="UTF-8" standalone="no"?>
<!-- Created with Inkscape (http://www.inkscape.org/) -->

<svg
   width="90.308037mm"
   height="117.35281mm"
   viewBox="0 0 90.308037 117.35281"
   version="1.1"
   id="svg12616"
   xmlns="http://www.w3.org/2000/svg"
   xmlnsSvg="http://www.w3.org/2000/svg">
  <defs
     id="defs12613" />
  <g
     inkscapeLabel="Layer 1"
     id="layer1"
     transform="translate(-59.92861,-89.823595)">
    <g
       id="g10853"
       transform="matrix(0.35277777,0,0,-0.35277777,-95.769323,340.06685)">
      <path
         id="path66"
         style="fill:#231f20;fill-opacity:1;fill-rule:nonzero;stroke:none;stroke-width:0.1"
         d="m 443.948,452.706 c 0.606,-15.092 1.973,-31.091 9.953,-44.325 9.118,-15.121 25.276,-21.909 41.97,-25.123 20.396,-3.927 41.525,-5.327 62.247,-6.135 22.076,-0.86 44.202,-0.418 66.225,1.336 18.156,1.446 39.331,2.038 54.399,13.601 11.59,8.893 16.462,22.79 17.91,36.877 1.917,18.651 -0.672,37.932 -1.722,56.568 -1.273,22.597 -2.547,45.194 -3.82,67.792 -2.884,51.175 -5.768,102.351 -8.652,153.527 -0.113,2.013 -2.741,3.491 -4.267,1.768 -11.704,-13.211 -23.407,-26.422 -35.11,-39.634 -5.852,-6.605 -11.696,-13.217 -17.555,-19.816 -2.304,-2.596 -4.613,-5.373 -7.695,-7.078 -3.988,-2.207 -8.865,-2.209 -13.287,-2.512 -35.468,-2.432 -70.941,-4.814 -106.411,-7.221 0.804,-0.611 1.607,-1.223 2.411,-1.835 -8.831,29.937 -26.942,56.097 -50.331,76.559 -2.403,2.101 -5.819,-1.219 -3.536,-3.536 1.405,-1.426 0.75,-6.851 0.674,-8.9 -0.206,-5.626 -0.836,-11.238 -1.496,-16.825 -1.364,-11.555 -3.261,-23.064 -4.302,-34.654 -0.47,-5.236 -0.035,-10.141 0.354,-15.397 0.822,-11.1 1.322,-22.222 1.61,-33.347 0.575,-22.298 0.3,-44.605 0.041,-66.906 -0.289,-24.929 -0.532,-49.864 0.39,-74.784 0.119,-3.208 5.12,-3.224 5,0 -1.699,45.911 0.647,91.841 -0.338,137.76 -0.239,11.128 -0.678,22.254 -1.426,33.359 -0.429,6.365 -1.221,12.558 -0.667,18.92 1.038,11.907 3.014,23.727 4.402,35.596 0.724,6.187 1.456,12.435 1.49,18.672 0.017,3.166 0.22,7.59 -2.196,10.042 -1.179,-1.179 -2.357,-2.357 -3.536,-3.536 22.761,-19.912 40.447,-45.202 49.045,-74.352 0.294,-0.996 1.313,-1.91 2.411,-1.836 19.049,1.293 38.098,2.585 57.147,3.878 18.151,1.232 36.446,1.895 54.545,3.734 6.702,0.681 11.975,2.924 16.664,7.808 6.081,6.333 11.705,13.165 17.527,19.736 12.57,14.19 25.14,28.38 37.71,42.57 -1.422,0.589 -2.845,1.178 -4.268,1.767 4.757,-84.407 9.538,-168.812 14.27,-253.221 0.814,-14.518 1.393,-30.237 -4.985,-43.718 -8.021,-16.954 -25.418,-22.315 -42.779,-24.496 -40.572,-5.097 -82.117,-4.898 -122.744,-0.602 -19.498,2.062 -43.011,3.781 -57.434,18.805 -12.444,12.961 -14.153,32.064 -14.838,49.114 -0.128,3.206 -5.129,3.223 -5,0"
         inkscapeLabel="path517" />
      <path
         id="path98"
         style="fill:#231f20;fill-opacity:1;fill-rule:nonzero;stroke:none;stroke-width:0.1"
         d="m 574.336,524.23 c -6.706,1.979 -16.143,-0.696 -17.998,-8.305 -2.046,-8.388 8.591,-10.287 14.603,-9.083 6.131,1.228 15.597,7.909 11.229,15.21 -3.914,6.541 -13.955,4.373 -18.872,0.523 -4.938,-3.866 -8.55,-13.523 0.356,-14.988 5.159,-0.849 15.206,5.124 13.214,11.331 -2.064,6.434 -12.354,3.919 -13.97,-1.55 -1.787,-6.051 5.771,-11.56 10.154,-6.12 5.018,6.227 -5.72,11.75 -8.416,5.081 -1.214,-3.004 1.125,-5.875 4.101,-6.389 3.845,-0.664 6.384,2.266 8.361,5.099 0.69,0.988 0.261,2.194 -0.391,3.03 -2.268,2.907 -6.567,2.888 -8.929,0.116 -0.722,-0.848 -0.991,-2.024 -0.39,-3.03 1.153,-1.933 2.621,-2.398 4.775,-2.071 3.171,0.482 1.824,5.301 -1.329,4.822 0.29,-0.076 0.581,-0.152 0.871,-0.227 -0.13,-1.01 -0.261,-2.02 -0.391,-3.03 0.619,-0.039 1.239,-0.077 1.858,-0.116 -0.13,1.01 -0.261,2.02 -0.391,3.03 -0.783,-1.122 -3.184,-3.806 -4.874,-3.103 -1.548,0.643 1.681,3.872 3.039,3.213 2.718,-1.318 -3.833,-4.789 -5.082,-5.048 -3.02,-0.625 -2.795,2.451 -1.311,4.277 0.782,0.962 1.754,1.774 2.792,2.44 2.365,1.516 5.758,2.493 8.508,1.478 4.149,-1.533 1.022,-5.849 -1.54,-7.392 -2.512,-1.513 -5.525,-2.215 -8.448,-1.925 -1.957,0.194 -5.4,0.759 -4.342,4.15 0.418,1.341 2.153,2.491 3.285,3.105 2.575,1.397 5.437,1.466 8.199,0.651 3.092,-0.913 4.413,3.911 1.329,4.821 v 0"
         inkscapeLabel="path617" />
      <path
         id="path100"
         style="fill:#231f20;fill-opacity:1;fill-rule:nonzero;stroke:none;stroke-width:0.1"
         d="m 562.039,508.681 c 2.375,-6.898 1.82,-15.477 -5.19,-19.487 -6.705,-3.836 -16.269,0.901 -13.976,9.312 0.848,3.109 -3.974,4.435 -4.821,1.33 -2.8,-10.269 6.903,-19.198 16.955,-16.737 12.026,2.944 15.482,16.374 11.853,26.911 -1.041,3.025 -5.873,1.725 -4.821,-1.329 v 0"
         inkscapeLabel="path516" />
      <path
         id="path102"
         style="fill:#231f20;fill-opacity:1;fill-rule:nonzero;stroke:none;stroke-width:0.1"
         d="m 564.302,503.763 c 1.332,-8.35 4.309,-18.098 13.64,-20.396 8.894,-2.19 14.283,5.914 17.495,12.849 1.344,2.901 -2.964,5.444 -4.317,2.524 -2.469,-5.331 -6.616,-13.335 -13.813,-9.85 -5.983,2.897 -7.245,10.321 -8.184,16.202 -0.505,3.169 -5.324,1.824 -4.821,-1.329 v 0"
         inkscapeLabel="path515" />
      <path
         id="path104"
         style="fill:#231f20;fill-opacity:1;fill-rule:nonzero;stroke:none;stroke-width:0.1"
         d="m 619.499,582.973 c -1.707,-8.212 -0.376,-16.29 4.046,-23.438 1.032,-1.669 3.26,-1.551 4.317,0 6.858,10.072 6.924,23.364 0.202,33.518 -0.8,1.209 -2.855,1.838 -3.926,0.506 -7.449,-9.257 -8.327,-22.194 -1.607,-32.143 0.951,-1.409 3.471,-1.831 4.317,0 3.145,6.801 9.099,23.961 -1.322,27.622 -1.161,0.408 -2.894,-0.47 -3.075,-1.746 -0.807,-5.67 -0.549,-11.046 0.978,-16.574 0.458,-1.659 2.967,-2.625 4.178,-1.103 2.912,3.661 3.432,8.049 0.857,12.075 -0.914,1.428 -3.509,1.819 -4.318,0 -1.624,-3.653 -1.995,-7.07 -0.933,-10.941 0.85,-3.099 5.675,-1.784 4.822,1.329 -0.701,2.554 -0.659,4.642 0.429,7.089 -1.44,0 -2.879,0 -4.318,0 1.229,-1.922 1.447,-4.103 -0.074,-6.017 1.392,-0.367 2.785,-0.735 4.178,-1.103 -1.28,4.635 -1.656,9.147 -0.978,13.916 -1.025,-0.582 -2.05,-1.164 -3.075,-1.746 5.603,-1.969 -0.236,-17.184 -1.666,-20.278 1.439,0 2.878,0 4.317,0 -5.363,7.941 -5.256,18.526 0.825,26.085 -1.308,0.168 -2.617,0.337 -3.926,0.506 5.812,-8.78 5.72,-19.774 -0.202,-28.471 1.439,0 2.878,0 4.317,0 -3.716,6.007 -4.984,12.646 -3.542,19.585 0.653,3.14 -4.166,4.483 -4.821,1.329 v 0"
         inkscapeLabel="path514" />
      <path
         id="path106"
         style="fill:#231f20;fill-opacity:1;fill-rule:nonzero;stroke:none;stroke-width:0.1"
         d="m 503.117,583.824 c -3.238,-4.869 -4.653,-10.632 -3.661,-16.441 0.651,-3.814 2.824,-10.25 7.887,-9.295 4.469,0.843 5.513,7.878 5.969,11.473 0.773,6.106 -0.462,12.008 -3.153,17.501 -0.892,1.822 -3.328,1.41 -4.317,0 -5.771,-8.232 -7.602,-18.092 -5.458,-27.883 0.336,-1.535 2.364,-2.343 3.673,-1.494 7.314,4.744 9.648,14.491 4.909,21.916 -0.931,1.458 -2.658,1.544 -3.927,0.506 -3.448,-2.821 -4.616,-7.142 -3.145,-11.338 0.764,-2.178 3.256,-2.304 4.569,-0.598 1.579,2.051 2.161,3.991 2.268,6.56 0.084,2.018 -2.907,3.497 -4.268,1.768 -2.628,-3.341 -3.51,-7.058 -1.928,-11.108 1.159,-2.964 5.995,-1.675 4.822,1.329 -0.845,2.162 -0.898,4.286 0.642,6.243 -1.423,0.589 -2.845,1.179 -4.268,1.768 0.022,-1.609 -0.506,-2.955 -1.585,-4.036 1.523,-0.199 3.046,-0.398 4.569,-0.597 -0.923,2.634 -0.296,4.71 1.86,6.473 -1.309,0.169 -2.618,0.337 -3.927,0.506 3.225,-5.051 2,-11.757 -3.115,-15.075 1.224,-0.498 2.449,-0.996 3.673,-1.494 -1.874,8.554 -0.057,16.883 4.953,24.03 -1.439,0 -2.878,0 -4.317,0 1.467,-2.995 2.441,-6.154 2.667,-9.495 0.159,-2.36 0.517,-7.755 -1.226,-9.634 -2.513,-2.707 -3.196,4.409 -3.139,6.197 0.116,3.607 1.31,6.717 3.29,9.695 1.787,2.687 -2.542,5.193 -4.317,2.523 v 0"
         inkscapeLabel="path513" />
      <path
         id="path108"
         style="fill:#231f20;fill-opacity:1;fill-rule:nonzero;stroke:none;stroke-width:0.1"
         d="m 522.379,630.791 c 6.689,-2.995 5.096,-12.757 8.348,-18.37 2.609,-4.502 7.022,-7.867 11.949,-9.471 4.901,-1.595 10.12,-1.34 14.81,0.795 7.47,3.401 12.436,9.242 21.356,7.461 6.336,-1.264 11.931,-3.028 18.39,-1.364 5.298,1.366 10.218,4.506 13.799,8.627 4.713,5.424 11.264,22.282 -0.896,23.384 -0.775,0.07 -1.846,-0.509 -2.159,-1.238 -3.513,-8.19 -8.26,-15.482 -14.406,-21.947 1.309,-1.01 2.618,-2.02 3.927,-3.029 3.093,4.725 6.656,8.98 10.728,12.885 -1.309,1.01 -2.617,2.02 -3.926,3.03 -4.076,-5.583 -8.781,-10.507 -14.089,-14.925 1.179,-1.178 2.357,-2.357 3.536,-3.535 4.349,5.139 9.292,9.372 15.078,12.829 -1.14,1.14 -2.28,2.281 -3.421,3.421 -3.503,-4.708 -7.006,-9.416 -10.509,-14.124 1.439,-0.841 2.878,-1.683 4.317,-2.524 3.334,5.017 7.21,9.444 11.691,13.462 -1.179,1.178 -2.357,2.357 -3.536,3.535 -4.64,-5.096 -9.6,-9.824 -14.912,-14.216 1.308,-1.01 2.617,-2.02 3.926,-3.029 3.001,5.574 6.002,11.148 9.003,16.722 1.114,2.068 -1.241,4.897 -3.42,3.42 -6.175,-4.184 -12.349,-8.368 -18.524,-12.553 1.01,-1.309 2.02,-2.617 3.03,-3.926 3.894,4.517 7.788,9.035 11.682,13.553 1.722,1.998 -0.575,5.697 -3.03,3.926 -6.379,-4.598 -12.757,-9.197 -19.136,-13.796 1.01,-1.309 2.02,-2.617 3.029,-3.926 4.205,4.434 8.41,8.868 12.616,13.302 1.894,1.998 -0.563,5.508 -3.03,3.926 -8.043,-5.156 -16.085,-10.312 -24.128,-15.468 1.01,-1.309 2.02,-2.618 3.03,-3.927 6.757,5.428 13.033,11.331 18.864,17.743 1.802,1.982 -0.619,5.683 -3.03,3.926 -9.006,-6.561 -18.012,-13.122 -27.017,-19.683 1.009,-1.309 2.019,-2.618 3.029,-3.927 5.469,4.543 10.398,9.555 14.85,15.098 1.649,2.052 -0.44,5.572 -3.029,3.926 -6.531,-4.152 -13.062,-8.304 -19.593,-12.456 1.01,-1.308 2.02,-2.617 3.03,-3.926 3.317,3.763 6.635,7.526 9.952,11.289 1.541,1.749 0.095,5.015 -2.432,4.179 -6.566,-2.171 -12.291,-5.591 -17.291,-10.373 -1.996,-1.909 0.717,-5.663 3.03,-3.926 3.81,2.861 5.845,6.534 5.95,11.338 0.044,2.001 -2.128,2.972 -3.762,2.158 -4.224,-2.105 -8.512,-3.982 -12.932,-5.642 1.055,-0.803 2.11,-1.607 3.164,-2.41 0.033,2.099 0.043,4.197 0.03,6.296 -0.008,1.307 -1.139,2.56 -2.5,2.5 -7.779,-0.343 -12.865,-8.413 -8.937,-15.45 4.37,-7.829 14.352,-7.332 20.227,-1.64 -1.393,0.368 -2.786,0.736 -4.179,1.104 1.196,-5.521 8.019,-8.266 12.585,-4.765 -1.01,1.309 -2.02,2.618 -3.03,3.926 -2.272,-1.911 -4.659,-3.53 -7.236,-4.989 1.224,-0.941 2.448,-1.882 3.672,-2.823 0.295,1.141 0.59,2.283 0.885,3.424 0.315,1.216 -0.396,2.836 -1.746,3.075 -1.214,0.216 -2.211,0.324 -3.429,0.298 -2.979,-0.063 -3.88,-0.115 -2.133,3.328 1.757,3.463 5.432,6.913 7.83,9.965 1.373,1.748 0.194,5.092 -2.433,4.178 -1.854,-0.644 -3.361,-1.449 -4.865,-2.736 -0.937,-0.803 -1.747,-1.738 -2.648,-2.577 -0.223,-0.207 -5.769,-4.891 -5.082,-0.61 0.16,0.999 6.514,2.104 7.484,2.34 3.431,0.832 6.889,1.412 10.399,1.8 -0.42,1.553 -0.841,3.105 -1.262,4.658 -4.425,-2.716 -8.452,-5.859 -12.157,-9.499 -2.036,-2.001 0.563,-5.332 3.029,-3.927 8.251,4.701 16.786,8.726 25.681,12.053 -0.81,1.393 -1.621,2.786 -2.432,4.179 -3.507,-3.829 -7.281,-7.314 -11.376,-10.506 -2.394,-1.867 0.657,-5.023 3.03,-3.927 6.31,2.916 12.313,6.312 18.063,10.218 -0.841,1.439 -1.682,2.878 -2.524,4.318 -4.127,-3.076 -7.794,-6.492 -11.052,-10.486 -1.54,-1.888 -0.138,-4.782 2.433,-4.178 6.91,1.623 13.611,3.791 20.163,6.524 -0.941,1.225 -1.882,2.449 -2.824,3.673 -1.645,-2.857 -3.29,-5.714 -4.935,-8.571 -1.278,-2.219 1.244,-4.584 3.42,-3.421 1.991,1.476 4.228,1.484 6.71,0.025 -0.341,-1.948 1.7,-4.161 3.673,-2.823 7.959,5.399 14.682,12.002 20.245,19.845 -1.523,0.2 -3.046,0.399 -4.569,0.598 1.512,-4.718 0.802,-9.408 -2.401,-13.263 1.01,0.13 2.019,0.26 3.029,0.391 -1.432,1.003 -2.865,2.007 -4.298,3.011 -2.641,1.85 -5.142,-2.483 -2.523,-4.318 1.432,-1.003 2.865,-2.007 4.298,-3.011 0.831,-0.582 2.369,-0.404 3.029,0.391 4.327,5.207 5.771,11.628 3.687,18.128 -0.69,2.154 -3.33,2.344 -4.569,0.597 -5.056,-7.128 -11.219,-13.145 -18.452,-18.052 1.224,-0.941 2.449,-1.882 3.673,-2.823 0.521,2.979 -0.435,5.56 -3.183,7.113 -3.63,2.051 -7.537,0.292 -10.872,-1.491 1.14,-1.14 2.28,-2.281 3.42,-3.421 1.645,2.857 3.291,5.714 4.936,8.571 0.984,1.709 -0.707,4.556 -2.823,3.673 -6.552,-2.733 -13.253,-4.902 -20.164,-6.525 0.811,-1.393 1.622,-2.785 2.433,-4.178 2.974,3.647 6.262,6.888 10.04,9.703 2.522,1.88 0.184,6.157 -2.524,4.318 -5.75,-3.906 -11.753,-7.302 -18.063,-10.218 1.01,-1.309 2.02,-2.618 3.03,-3.927 4.095,3.193 7.869,6.678 11.376,10.506 1.552,1.695 0.06,5.111 -2.433,4.179 -9.29,-3.476 -18.256,-7.646 -26.875,-12.557 1.01,-1.309 2.019,-2.618 3.029,-3.927 3.405,3.345 7.076,6.22 11.146,8.718 1.948,1.195 1.341,4.946 -1.262,4.659 -5.908,-0.653 -11.927,-1.622 -17.548,-3.619 -3.198,-1.136 -6.668,-3.187 -6.235,-7.11 0.377,-3.421 3.997,-5.615 7.234,-5.408 5.578,0.356 7.741,6.412 12.591,8.099 -0.811,1.393 -1.622,2.786 -2.433,4.178 -2.81,-3.577 -5.623,-7.152 -8.431,-10.731 -1.434,-1.826 -3.301,-3.734 -3.139,-6.238 0.406,-6.249 7.673,-4.296 11.509,-4.978 -0.582,1.025 -1.164,2.05 -1.746,3.075 -0.295,-1.141 -0.59,-2.282 -0.885,-3.424 -0.548,-2.119 1.763,-3.904 3.672,-2.823 2.96,1.676 5.65,3.584 8.249,5.771 2.145,1.804 -0.769,5.659 -3.03,3.926 -2.04,-1.564 -4.665,-0.874 -5.239,1.777 -0.41,1.89 -2.892,2.35 -4.179,1.103 -3.071,-2.976 -7.82,-4.269 -11.112,-0.895 -3.297,3.379 -1.937,9.216 3.358,9.449 -0.833,0.833 -1.667,1.667 -2.5,2.5 0.013,-2.099 0.003,-4.197 -0.03,-6.296 -0.023,-1.51 1.635,-2.986 3.165,-2.411 4.818,1.81 9.52,3.85 14.127,6.146 -1.254,0.719 -2.508,1.439 -3.762,2.159 -0.063,-2.916 -1.11,-5.246 -3.474,-7.021 1.01,-1.309 2.02,-2.617 3.03,-3.926 4.376,4.185 9.333,7.185 15.084,9.086 -0.811,1.393 -1.622,2.786 -2.433,4.179 -3.317,-3.763 -6.634,-7.526 -9.952,-11.29 -1.79,-2.03 0.511,-5.528 3.03,-3.926 6.531,4.152 13.062,8.304 19.592,12.456 -1.01,1.308 -2.019,2.617 -3.029,3.926 -4.453,-5.543 -9.382,-10.554 -14.85,-15.097 -2.16,-1.795 0.729,-5.603 3.029,-3.927 9.006,6.561 18.012,13.123 27.018,19.684 -1.01,1.309 -2.02,2.618 -3.03,3.927 -5.83,-6.413 -12.106,-12.316 -18.864,-17.743 -2.215,-1.78 0.661,-5.445 3.03,-3.926 8.043,5.156 16.085,10.312 24.128,15.468 -1.01,1.308 -2.02,2.617 -3.03,3.926 -4.205,-4.434 -8.41,-8.868 -12.615,-13.302 -1.866,-1.968 0.635,-5.652 3.029,-3.926 6.379,4.599 12.758,9.197 19.137,13.796 -1.01,1.309 -2.02,2.618 -3.03,3.927 -3.894,-4.518 -7.788,-9.036 -11.682,-13.554 -1.737,-2.015 0.53,-5.62 3.03,-3.926 6.174,4.184 12.349,8.369 18.523,12.553 -1.14,1.14 -2.28,2.28 -3.42,3.421 -3.001,-5.575 -6.002,-11.149 -9.003,-16.723 -1.4,-2.6 1.78,-4.803 3.926,-3.029 5.313,4.391 10.272,9.119 14.913,14.216 2.173,2.387 -1.138,5.686 -3.536,3.535 -4.793,-4.299 -8.911,-9.113 -12.472,-14.473 -1.814,-2.729 2.44,-5.047 4.317,-2.524 3.503,4.708 7.007,9.416 10.51,14.124 1.546,2.078 -1.405,4.625 -3.421,3.421 -6.122,-3.659 -11.48,-8.164 -16.09,-13.612 -2.091,-2.471 1.059,-5.597 3.536,-3.535 5.646,4.7 10.542,10.008 14.87,15.936 1.719,2.355 -1.945,4.93 -3.926,3.03 -4.384,-4.205 -8.185,-8.817 -11.511,-13.898 -1.558,-2.38 1.979,-5.079 3.927,-3.029 6.413,6.745 11.517,14.401 15.188,22.958 -0.72,-0.412 -1.439,-0.825 -2.159,-1.238 3.028,-0.274 1.835,-6.043 1.376,-7.587 -0.789,-2.647 -2.231,-5.158 -4.016,-7.262 -3.291,-3.879 -7.929,-6.681 -12.934,-7.649 -5.697,-1.102 -10.944,1.208 -16.488,2.05 -4.782,0.727 -9.002,-0.181 -13.217,-2.491 -4.29,-2.351 -8.25,-6.022 -13.219,-6.845 -5.134,-0.851 -10.586,1.166 -14.234,4.796 -6.623,6.59 -2.921,18.953 -12.5,23.243 -2.912,1.304 -5.458,-3.003 -2.524,-4.317 v 0"
         inkscapeLabel="path512" />
      <path
         id="path110"
         style="fill:#231f20;fill-opacity:1;fill-rule:nonzero;stroke:none;stroke-width:0.1"
         d="m 610.813,513.254 c 8.636,4.895 17.755,8.454 27.413,10.735 3.131,0.739 1.806,5.562 -1.329,4.822 -10.063,-2.377 -19.613,-6.141 -28.607,-11.24 -2.799,-1.586 -0.283,-5.907 2.523,-4.317 v 0"
         inkscapeLabel="path511" />
      <path
         id="path112"
         style="fill:#231f20;fill-opacity:1;fill-rule:nonzero;stroke:none;stroke-width:0.1"
         d="m 611.572,497.834 c 5.803,0.695 11.44,-0.07 16.75,-2.561 2.896,-1.358 5.437,2.951 2.523,4.318 -6.097,2.86 -12.568,4.046 -19.273,3.243 -3.156,-0.378 -3.194,-5.383 0,-5 v 0"
         inkscapeLabel="path510" />
      <path
         id="path114"
         style="fill:#231f20;fill-opacity:1;fill-rule:nonzero;stroke:none;stroke-width:0.1"
         d="m 611.394,483.369 c 5.901,-4.093 11.036,-9.049 15.435,-14.72 1.97,-2.539 5.485,1.023 3.535,3.536 -4.669,6.019 -10.19,11.163 -16.446,15.502 -2.65,1.838 -5.152,-2.494 -2.524,-4.318 v 0"
         inkscapeLabel="path59" />
      <path
         id="path116"
         style="fill:#231f20;fill-opacity:1;fill-rule:nonzero;stroke:none;stroke-width:0.1"
         d="m 528.012,519.96 c -9.662,4.174 -19.818,5.147 -30.075,2.696 -3.128,-0.748 -1.803,-5.57 1.33,-4.822 8.854,2.117 17.842,1.429 26.222,-2.192 2.923,-1.263 5.472,3.044 2.523,4.318 v 0"
         inkscapeLabel="path58" />
      <path
         id="path118"
         style="fill:#231f20;fill-opacity:1;fill-rule:nonzero;stroke:none;stroke-width:0.1"
         d="m 523.56,502.864 c -8.122,0.785 -15.942,-0.739 -23.268,-4.294 -2.895,-1.404 -0.362,-5.717 2.523,-4.317 6.557,3.181 13.509,4.31 20.745,3.611 3.201,-0.309 3.18,4.693 0,5 v 0"
         inkscapeLabel="path57" />
      <path
         id="path120"
         style="fill:#231f20;fill-opacity:1;fill-rule:nonzero;stroke:none;stroke-width:0.1"
         d="m 521.939,488.233 c -9.327,-5.101 -17.144,-12.092 -23.38,-20.688 -1.892,-2.609 2.444,-5.107 4.318,-2.524 5.724,7.891 13.041,14.222 21.585,18.894 2.824,1.545 0.304,5.864 -2.523,4.318 v 0"
         inkscapeLabel="path56" />
      <path
         id="path122"
         style="fill:#231f20;fill-opacity:1;fill-rule:nonzero;stroke:none;stroke-width:0.1"
         d="m 685.487,541.135 c -8.37,3.382 -14.998,-7.052 -15.739,-14.148 -0.46,-4.409 0.896,-7.668 2.594,-11.586 1.835,-4.234 0.771,-6.335 -2.024,-9.626 -1.996,-2.351 -4.19,-4.524 -6.15,-6.907 -5.081,-6.181 -9.147,-15.643 -3.595,-22.907 7.166,-9.375 24.553,-4.249 28.677,-17.187 0.973,-3.055 5.802,-1.749 4.821,1.329 -2.332,7.319 -8.648,11.131 -15.658,13.292 -4.639,1.431 -12.147,1.858 -14.618,6.75 -2.529,5.005 0.521,10.87 3.599,14.775 4.038,5.123 12.696,11.25 11.122,18.793 -0.792,3.797 -3.69,6.507 -3.88,10.576 -0.199,4.254 3.213,14.574 9.522,12.024 2.982,-1.205 4.279,3.63 1.329,4.822 v 0"
         inkscapeLabel="path55" />
      <path
         id="path124"
         style="fill:#231f20;fill-opacity:1;fill-rule:nonzero;stroke:none;stroke-width:0.1"
         d="m 692.989,459.724 c 0.775,2.527 1.55,5.054 2.324,7.581 0.594,1.936 -1.886,4.167 -3.672,2.824 -1.302,-0.98 -2.222,-1.901 -3.051,-3.306 1.553,-0.421 3.106,-0.841 4.659,-1.262 0.028,3.962 0.717,7.674 2.274,11.334 0.996,2.34 -1.938,5.44 -3.926,3.03 -2.62,-3.178 -5.241,-6.355 -7.861,-9.533 1.309,-1.01 2.618,-2.019 3.927,-3.029 2.142,5.036 3.967,10.144 5.422,15.423 0.67,2.43 -2.4,4.162 -4.179,2.432 -2.594,-2.525 -5.189,-5.049 -7.783,-7.574 1.308,-1.009 2.617,-2.019 3.926,-3.029 2.757,5.159 5.035,10.48 6.873,16.033 0.833,2.516 -2.433,3.988 -4.178,2.432 -4.66,-4.151 -9.32,-8.303 -13.98,-12.454 1.309,-1.01 2.618,-2.02 3.927,-3.03 3.515,5.827 7.03,11.653 10.546,17.479 1.473,2.443 -1.914,5.028 -3.927,3.03 -5.091,-5.054 -10.181,-10.108 -15.272,-15.161 1.309,-1.01 2.618,-2.02 3.927,-3.03 4.55,6.781 9.101,13.562 13.651,20.344 1.652,2.462 -1.897,4.833 -3.926,3.029 -6.939,-6.168 -13.878,-12.336 -20.816,-18.504 1.309,-1.01 2.617,-2.02 3.926,-3.029 4.675,7.035 9.349,14.07 14.023,21.105 1.344,2.023 -1.381,4.874 -3.42,3.42 -5.821,-4.149 -10.622,-9.103 -14.545,-15.084 -1.53,-2.333 2.164,-5.286 3.927,-3.03 2.299,2.945 4.599,5.89 6.899,8.834 -1.393,0.811 -2.786,1.622 -4.179,2.433 -2.093,-6.981 -9.66,-12.152 -7.836,-20.228 1.477,-6.541 9.673,-8.541 15.518,-7.546 5.513,0.938 8.745,5.413 10.657,10.334 3.277,8.433 4.419,17.999 6.363,26.809 0.472,2.137 -1.707,3.891 -3.672,2.824 -2.691,-1.462 -5.406,-2.862 -8.158,-4.205 1.254,-0.72 2.508,-1.439 3.762,-2.159 0.118,3.071 0.978,5.558 2.942,7.97 -1.309,1.01 -2.618,2.02 -3.927,3.029 -1.735,-2.831 -3.726,-5.321 -6.089,-7.648 1.309,-1.01 2.618,-2.02 3.927,-3.029 2.792,6.558 4.924,13.236 6.319,20.233 0.373,1.871 -1.775,4.274 -3.673,2.823 -2.061,-1.577 -3.642,-3.225 -5.016,-5.441 1.439,-0.842 2.878,-1.683 4.317,-2.524 2.102,4.008 3.783,8.115 5.078,12.454 0.642,2.152 -1.81,3.841 -3.673,2.823 -3.554,-1.942 -6.486,-4.363 -9.025,-7.525 1.392,-0.81 2.785,-1.621 4.178,-2.432 1.382,3.847 2.764,7.694 4.146,11.541 0.994,2.767 -3.096,4.212 -4.57,1.926 -2.948,-4.572 -5.249,-9.379 -7.03,-14.515 -0.339,-0.979 0.212,-2.357 1.149,-2.823 1.747,-0.87 2.416,-1.05 4.364,-1.188 3.211,-0.228 3.196,4.773 0,5 -0.614,0.168 -1.227,0.337 -1.841,0.505 0.383,-0.941 0.766,-1.882 1.149,-2.823 1.643,4.737 3.813,9.111 6.527,13.321 -1.524,0.642 -3.047,1.284 -4.57,1.926 -1.382,-3.847 -2.763,-7.694 -4.145,-11.541 -0.819,-2.28 2.621,-4.372 4.178,-2.432 2.271,2.828 4.819,4.998 8.014,6.743 -1.224,0.941 -2.449,1.882 -3.673,2.823 -1.17,-3.922 -2.671,-7.631 -4.573,-11.259 -1.493,-2.848 2.615,-5.27 4.317,-2.524 0.783,1.473 1.858,2.689 3.223,3.647 -1.224,0.942 -2.448,1.883 -3.673,2.824 -1.305,-6.548 -3.197,-12.892 -5.815,-19.039 -1.045,-2.455 1.744,-5.179 3.927,-3.029 2.681,2.64 4.904,5.452 6.871,8.66 1.447,2.361 -2.102,5.271 -3.927,3.029 -2.805,-3.445 -4.235,-7.041 -4.406,-11.505 -0.077,-2.02 2.149,-2.946 3.762,-2.158 2.751,1.343 5.467,2.743 8.157,4.204 -1.224,0.941 -2.448,1.883 -3.672,2.824 -1.302,-5.9 -2.604,-11.799 -3.906,-17.699 -0.981,-4.446 -1.78,-9.993 -4.985,-13.487 -4.584,-4.995 -16.163,-2.191 -13.456,5.768 1.653,4.861 5.779,8.36 7.288,13.389 0.675,2.249 -2.595,4.461 -4.179,2.433 -2.299,-2.945 -4.599,-5.89 -6.899,-8.834 1.309,-1.01 2.618,-2.02 3.926,-3.03 3.435,5.238 7.649,9.654 12.751,13.291 -1.14,1.14 -2.28,2.28 -3.42,3.421 -4.675,-7.036 -9.349,-14.071 -14.023,-21.106 -1.64,-2.468 1.894,-4.836 3.926,-3.029 6.939,6.168 13.878,12.336 20.816,18.504 -1.309,1.01 -2.617,2.019 -3.926,3.029 -4.551,-6.781 -9.101,-13.562 -13.652,-20.343 -1.607,-2.395 1.947,-4.995 3.927,-3.03 5.09,5.054 10.181,10.108 15.272,15.161 -1.309,1.01 -2.618,2.02 -3.927,3.03 -3.515,-5.826 -7.03,-11.653 -10.546,-17.479 -1.515,-2.512 1.86,-4.872 3.927,-3.03 4.66,4.152 9.319,8.303 13.979,12.455 -1.393,0.81 -2.786,1.621 -4.178,2.432 -1.704,-5.146 -3.816,-10.059 -6.369,-14.839 -1.325,-2.479 1.849,-5.05 3.926,-3.029 2.595,2.524 5.189,5.049 7.784,7.573 -1.393,0.811 -2.786,1.622 -4.178,2.433 -1.338,-4.853 -2.948,-9.594 -4.919,-14.229 -0.995,-2.339 1.939,-5.44 3.927,-3.029 2.62,3.177 5.24,6.355 7.86,9.532 -1.308,1.01 -2.617,2.02 -3.926,3.03 -1.914,-4.497 -2.922,-8.96 -2.957,-13.858 -0.019,-2.494 3.406,-3.383 4.658,-1.262 0.419,0.504 0.838,1.008 1.258,1.512 -1.225,0.941 -2.449,1.882 -3.673,2.823 -0.775,-2.527 -1.549,-5.054 -2.324,-7.581 -0.945,-3.084 3.879,-4.402 4.821,-1.329 v 0"
         inkscapeLabel="path54" />
      <path
         id="path126"
         style="fill:#231f20;fill-opacity:1;fill-rule:nonzero;stroke:none;stroke-width:0.1"
         d="m 442.915,526.916 c 2.927,-4.022 6.907,-6.061 11.088,-8.56 2.883,-1.723 5.696,-3.698 6.697,-7.096 1.05,-3.568 -0.071,-7.439 -1.021,-10.892 -3.057,-11.112 -4.583,-21.512 2.746,-31.45 5.995,-8.129 28.181,-15.857 20.121,-28.723 -4.206,-6.715 -12.791,-7.581 -19.971,-7.074 -5.034,0.355 -10.171,2.12 -14.296,-1.633 -2.386,-2.17 1.158,-5.697 3.535,-3.535 2.526,2.298 9.516,0.176 12.51,0.065 3.105,-0.116 6.248,0.038 9.289,0.714 5.312,1.181 10.346,4.243 13.251,8.939 7.29,11.785 -3.609,20.979 -12.538,27.11 -6.539,4.49 -11.304,10.218 -12.341,18.324 -0.963,7.533 2.655,14.156 3.767,21.43 0.814,5.326 -0.118,10.496 -4.067,14.384 -4.279,4.212 -10.86,5.583 -14.452,10.52 -1.875,2.577 -6.215,0.085 -4.318,-2.523 v 0"
         inkscapeLabel="path53" />
      <path
         id="path128"
         style="fill:#231f20;fill-opacity:1;fill-rule:nonzero;stroke:none;stroke-width:0.1"
         d="m 451.759,519.197 c -3.228,-3.437 -4.909,-7.235 -5.489,-11.902 -0.299,-2.409 2.81,-2.942 4.268,-1.768 2.715,2.186 4.911,4.611 6.923,7.443 -1.439,0.841 -2.878,1.682 -4.317,2.524 -3.309,-4.678 -5.52,-9.747 -6.714,-15.351 -0.544,-2.55 2.257,-4.007 4.178,-2.432 3.198,2.622 6.397,5.245 9.595,7.867 -1.309,1.01 -2.618,2.02 -3.927,3.03 -3.667,-7.261 -6.856,-14.713 -9.584,-22.376 -0.909,-2.555 2.45,-3.903 4.179,-2.432 4.628,3.936 8.317,8.563 11.143,13.939 -1.523,0.643 -3.046,1.285 -4.569,1.927 -2.559,-9.747 -5.901,-19.206 -10.101,-28.369 -1.323,-2.886 2.892,-5.438 4.317,-2.523 2.238,4.577 4.933,8.699 8.303,12.53 -1.423,0.59 -2.845,1.179 -4.268,1.768 -1.036,-8.005 -3.275,-15.715 -6.649,-23.046 -1.108,-2.409 1.861,-5.268 3.927,-3.029 2.867,3.108 5.734,6.216 8.601,9.323 -1.392,0.811 -2.785,1.622 -4.178,2.433 -2.471,-7.828 -6.036,-15.046 -10.687,-21.802 -1.593,-2.314 2.1,-5.213 3.927,-3.029 4.252,5.083 8.504,10.165 12.755,15.248 -1.308,1.01 -2.617,2.02 -3.926,3.029 -3.26,-6.46 -6.519,-12.921 -9.779,-19.382 -1.23,-2.438 1.874,-5.175 3.927,-3.029 5.618,5.872 11.236,11.745 16.854,17.618 -1.309,1.01 -2.618,2.02 -3.927,3.029 -3.922,-7.629 -8.22,-15.026 -12.908,-22.21 -1.525,-2.337 2.139,-5.27 3.926,-3.03 5.916,7.415 12.218,14.476 18.915,21.194 -1.309,1.01 -2.618,2.02 -3.927,3.03 -4.679,-7.425 -9.359,-14.85 -14.039,-22.275 -1.516,-2.405 1.955,-5.067 3.926,-3.03 5.177,5.351 10.354,10.702 15.531,16.053 -1.393,0.811 -2.786,1.622 -4.179,2.433 -1.761,-4.84 -4.113,-9.238 -7.065,-13.448 -1.611,-2.298 2.159,-5.261 3.927,-3.03 3.958,4.998 8.362,9.47 13.298,13.504 -1.423,0.59 -2.845,1.179 -4.268,1.768 -0.435,-4.263 -1.986,-8.029 -4.697,-11.366 -1.99,-2.449 1.35,-5.968 3.535,-3.535 2.283,2.541 4.566,5.082 6.849,7.623 -1.392,0.81 -2.785,1.621 -4.178,2.432 -0.638,-3.649 -1.636,-7.066 -3.19,-10.441 1.523,-0.199 3.046,-0.398 4.569,-0.598 -0.627,1.816 -1.254,3.632 -1.881,5.448 -1.044,3.023 -5.875,1.724 -4.821,-1.329 0.627,-1.816 1.254,-3.632 1.881,-5.448 0.632,-1.83 3.599,-2.704 4.569,-0.597 1.731,3.76 2.98,7.551 3.694,11.636 0.393,2.247 -2.357,4.46 -4.178,2.432 -2.283,-2.541 -4.566,-5.082 -6.849,-7.623 1.178,-1.178 2.357,-2.357 3.535,-3.535 3.612,4.445 5.58,9.194 6.162,14.901 0.244,2.39 -2.786,2.979 -4.268,1.768 -4.936,-4.034 -9.34,-8.507 -13.298,-13.504 1.309,-1.01 2.618,-2.02 3.927,-3.03 3.2,4.565 5.664,9.41 7.568,14.642 0.873,2.399 -2.516,4.151 -4.178,2.433 -5.177,-5.351 -10.353,-10.702 -15.53,-16.053 1.309,-1.01 2.618,-2.02 3.926,-3.03 4.68,7.425 9.36,14.85 14.04,22.275 1.525,2.42 -1.935,5.027 -3.927,3.03 -6.697,-6.718 -12.999,-13.779 -18.915,-21.194 1.309,-1.01 2.618,-2.02 3.927,-3.03 4.688,7.184 8.987,14.581 12.908,22.211 1.254,2.438 -1.882,5.166 -3.926,3.029 -5.618,-5.872 -11.236,-11.745 -16.854,-17.618 1.309,-1.01 2.618,-2.02 3.927,-3.03 3.259,6.461 6.519,12.922 9.778,19.383 1.202,2.381 -2,5.331 -3.926,3.029 -4.252,-5.082 -8.504,-10.165 -12.756,-15.248 1.309,-1.009 2.618,-2.019 3.927,-3.029 4.897,7.115 8.592,14.763 11.19,22.996 0.745,2.359 -2.496,4.256 -4.178,2.432 -2.867,-3.108 -5.735,-6.216 -8.602,-9.324 1.309,-1.009 2.618,-2.019 3.927,-3.029 3.768,8.188 6.174,16.631 7.331,25.569 0.279,2.151 -2.921,3.299 -4.267,1.768 -3.639,-4.136 -6.663,-8.589 -9.085,-13.543 1.439,-0.841 2.878,-1.682 4.317,-2.523 4.379,9.554 7.935,19.395 10.605,29.563 0.703,2.675 -3.219,4.495 -4.569,1.926 -2.64,-5.021 -6.042,-9.254 -10.362,-12.928 1.393,-0.811 2.786,-1.621 4.179,-2.432 2.583,7.258 5.607,14.305 9.08,21.181 1.32,2.614 -1.743,4.82 -3.927,3.03 -3.198,-2.623 -6.396,-5.245 -9.594,-7.868 1.392,-0.81 2.785,-1.621 4.178,-2.432 1.107,5.194 3.146,9.825 6.21,14.156 1.863,2.634 -2.468,5.126 -4.317,2.524 -1.762,-2.479 -3.784,-4.533 -6.141,-6.432 1.422,-0.589 2.845,-1.178 4.267,-1.767 0.405,3.256 1.796,5.993 4.024,8.367 2.202,2.344 -1.327,5.887 -3.535,3.535 v 0"
         inkscapeLabel="path52" />
      <path
         id="path130"
         style="fill:#231f20;fill-opacity:1;fill-rule:nonzero;stroke:none;stroke-width:0.1"
         d="m 471.02,467.114 c -3.734,-2.058 -6.884,-4.671 -9.555,-7.996 1.393,-0.81 2.786,-1.621 4.179,-2.432 0.814,3.657 3.45,10.277 -2.018,11.56 -4.468,1.049 -6.657,-3.113 -7.323,-6.799 -0.466,-2.58 2.194,-3.973 4.179,-2.432 1.383,1.128 2.934,1.734 4.653,1.817 -1.055,0.803 -2.11,1.607 -3.165,2.41 -0.208,-4.368 -0.417,-8.736 -0.625,-13.104 -0.141,-2.955 -1.179,-7.4 -0.019,-10.29 2.139,-5.326 10.108,-1.799 13.943,-0.994 -1.025,1.025 -2.05,2.05 -3.075,3.075 -1.268,-4.339 -5.436,-5.989 -9.653,-5.994 -2.003,-0.003 -8.706,0.422 -10.013,2.496 -0.481,0.766 -0.105,4.912 -0.125,5.836 -0.035,1.621 -0.069,3.242 -0.104,4.863 -0.076,3.567 -0.153,7.133 -0.229,10.699 -0.306,14.266 -0.612,28.531 -0.918,42.797 -0.069,3.215 -4.938,3.222 -5,0 -0.058,-3.018 -0.116,-6.035 -0.174,-9.052 -0.053,-2.737 4.515,-3.51 4.91,-0.665 0.789,5.664 1.744,11.394 3.316,16.902 0.546,1.91 1.954,6.461 2.994,2.237 0.83,-3.376 0.187,-6.654 -1.13,-9.783 1.607,0 3.214,0 4.821,0 -1.278,6.652 -4.068,12.432 -8.258,17.729 -1.443,1.825 -4.18,0.182 -4.268,-1.768 -0.136,-3.019 0.515,-5.489 2.078,-8.07 1.664,-2.749 5.99,-0.239 4.317,2.524 -1.143,1.888 -1.492,3.388 -1.395,5.546 -1.423,-0.589 -2.845,-1.178 -4.268,-1.767 3.634,-4.595 5.872,-9.793 6.973,-15.523 0.523,-2.72 3.981,-1.996 4.821,0 1.902,4.517 3.521,19.486 -5.151,18.495 -3.238,-0.37 -4.92,-3.719 -5.857,-6.441 -2.047,-5.947 -2.951,-12.547 -3.814,-18.752 1.637,-0.221 3.274,-0.443 4.911,-0.664 0.058,3.017 0.116,6.034 0.174,9.052 -1.667,0 -3.333,0 -5,0 0.445,-20.746 0.677,-41.509 1.335,-62.249 0.09,-2.836 0.008,-5.19 2.649,-6.838 2.978,-1.858 8.021,-2.413 11.492,-2.59 6.798,-0.346 13.392,2.824 15.387,9.651 0.563,1.924 -1.269,3.455 -3.075,3.076 -1.996,-0.42 -4.272,-1.26 -6.306,-1.325 -1.384,-0.044 -0.983,-0.434 -1.647,0.299 -0.51,0.563 0.19,3.965 0.224,4.68 0.253,5.304 0.506,10.608 0.759,15.912 0.086,1.788 -1.657,2.635 -3.164,2.411 -2.762,-0.41 -4.676,-1.407 -6.86,-3.103 1.393,-0.811 2.786,-1.621 4.179,-2.432 0.693,3.834 -0.1,-1.192 -0.303,-2.103 -0.492,-2.211 2.497,-4.526 4.179,-2.432 2.435,3.031 5.124,5.329 8.542,7.213 2.819,1.554 0.299,5.874 -2.523,4.318 v 0"
         inkscapeLabel="path51" />
    </g>
  </g>
</svg>
