<?xml version="1.0" encoding="UTF-8" standalone="no"?>
<!-- Created with Inkscape (http://www.inkscape.org/) -->

<svg
   width="109.41721mm"
   height="95.386879mm"
   viewBox="0 0 109.41721 95.386879"
   version="1.1"
   id="svg11220"
   xmlns="http://www.w3.org/2000/svg"
   xmlnssvg="http://www.w3.org/2000/svg">
  <defs
     id="defs11217" />
  <g
     id="layer1"
     transform="translate(-50.374023,-100.80656)">
    <g
       id="g10733"
       transform="matrix(0.35277777,0,0,-0.35277777,47.684665,204.78749)">
      <path
         id="path70"
         style="fill:#231f20;fill-opacity:1;fill-rule:nonzero;stroke:none;stroke-width:0.1"
         d="m 68.182,292.806 c -2.3324,-16.135 1.8403,-32.542 13.0164,-44.677 12.3329,-13.392 30.7796,-18.276 48.2126,-20.579 20.948,-2.768 42.145,-4.119 63.182,-6.065 18.372,-1.699 38.737,-4.33 54.486,7.525 6.605,4.972 11.314,11.857 13.205,19.927 1.896,8.093 0.842,20.166 8.157,25.739 -1.224,0.498 -2.449,0.996 -3.673,1.494 8.183,-27.564 16.366,-55.128 24.549,-82.693 3.982,-13.412 8.199,-26.781 11.833,-40.292 3.648,-13.56 6.458,-27.682 4.726,-41.765 C 302.901,87.241 285.988,67.516 266.437,54.2563 247.717,41.559 225.928,34.3898 203.625,31.3301 180.831,28.2 157.582,29.1 134.785,31.7 113.504,34.1199 91.4914,37.1602 71.268,44.5012 50.3176,52.1031 32.4223,66.0148 25.2098,87.777 c -7.4981,22.625 -4.2016,47.376 -0.3578,70.368 3.8878,23.259 8.9558,46.397 16.1136,68.882 7.109,22.331 16.266,45.145 31.3949,63.346 2.0426,2.458 -1.4757,6.014 -3.5355,3.536 C 55.0477,277.333 46.0836,257.248 39.0375,237.037 31.466,215.318 26.1094,192.846 21.927,170.248 17.7066,147.447 13.6191,123.777 17.0824,100.607 20.4664,77.9711 32.7645,59.0512 52.6469,47.5762 71.6461,36.6102 93.8387,32.6102 115.244,29.3301 c 24.261,-3.7301 48.922,-6.0399 73.473,-4.4699 44.529,2.85 95.946,21.498 115.998,64.8558 13.499,29.188 2.808,60.003 -5.78,88.932 -9.782,32.951 -19.563,65.901 -29.345,98.851 -0.412,1.388 -2.339,2.511 -3.673,1.494 -11.301,-8.611 -7.052,-24.541 -13.093,-35.984 -8.828,-16.726 -29.109,-18.916 -45.963,-17.771 -19.847,1.349 -39.668,3.597 -59.476,5.429 -17.633,1.631 -36.251,3.042 -51.8299,12.302 -16.8832,10.035 -25.3403,29.217 -22.5516,48.508 0.4551,3.147 -4.3621,4.506 -4.8215,1.329"
         />
      <path
         id="path156"
         style="fill:#ffffff;fill-opacity:1;fill-rule:nonzero;stroke:none;stroke-width:0.1"
         d="m 242.9,236.812 c -0.766,8.374 -3.49,16.563 -7.893,23.727 -1.647,2.679 -3.657,5.326 -6.529,6.608 -6.185,2.76 -13.009,-1.794 -18.245,-6.09 -3.38,-2.774 -7.007,-5.977 -7.551,-10.315 -0.717,-5.721 4.234,-10.53 9.182,-13.489 6.432,-3.848 13.65,-6.376 21.076,-7.382 2.519,-0.342 5.188,-0.489 7.499,0.569 2.311,1.057 4.087,3.674 3.394,6.119 5.302,5.164 15.274,4.243 19.349,-1.935 4.074,-6.177 0.772,-15.896 -6.292,-18.101 -7.064,-2.205 -15.413,4.199 -14.899,11.581 0.155,-8.21 11.435,-13.002 18.364,-8.595 2.019,1.284 3.688,3.095 5.812,4.198 7.829,4.065 16.646,-2.937 22.678,-9.374 1.427,-1.522 2.919,-3.174 3.248,-5.234 0.53,-3.317 -2.113,-6.264 -4.797,-8.284 -6.282,-4.729 -15,-7.494 -22.025,-3.961 -7.024,3.534 -9.187,15.194 -2.388,19.144"
         />
      <path
         id="path158"
         style="fill:#231f20;fill-opacity:1;fill-rule:nonzero;stroke:none;stroke-width:0.1"
         d="m 245.4,236.812 c -0.709,6.619 -2.297,12.991 -5.076,19.055 -2.47,5.391 -5.893,11.903 -11.9,13.946 -5.741,1.952 -11.626,-0.856 -16.267,-4.149 -4.401,-3.123 -9.505,-6.908 -11.349,-12.189 -4.384,-12.553 12.034,-20.571 21.375,-23.669 5.501,-1.824 13.268,-4.149 18.92,-1.777 4.832,2.027 3.932,7.76 8.667,9.032 8.2,2.203 15.392,-5.452 11.614,-13.32 -4.191,-8.728 -16.898,-4.884 -16.893,4.363 -1.667,0 -3.333,0 -5,0 0.549,-6.559 5.441,-11.222 11.817,-12.459 3.017,-0.585 6.2,-0.314 8.992,1.011 4.805,2.282 7.659,6.989 13.695,5.32 4.715,-1.303 10.238,-5.43 13.082,-9.41 1.079,-1.51 2.548,-4.263 2.037,-6.222 -0.338,-1.295 -2.352,-2.759 -3.407,-3.565 -2.257,-1.723 -4.811,-3.131 -7.519,-4.008 -5.224,-1.692 -11.926,-1.55 -15.193,3.516 -2.279,3.533 -2.699,8.953 1.15,11.552 2.653,1.791 0.153,6.125 -2.523,4.317 -7.732,-5.22 -6.523,-16.851 0.516,-22.244 8.868,-6.793 24.457,-1.874 30.498,6.705 3.456,4.908 1.701,9.405 -2.023,13.484 -4.091,4.482 -9.325,9.031 -15.289,10.697 -5.684,1.587 -9.984,-0.413 -14.43,-3.807 -5.323,-4.063 -15.705,-3.231 -16.403,5.113 -0.264,3.159 -4.998,3.267 -5,0 -0.006,-9.654 10.541,-17.636 19.744,-13.331 8.177,3.825 10.937,15.731 4.982,22.6 -2.972,3.428 -7.61,5.142 -12.088,5.018 -3.697,-0.102 -9.353,-1.675 -10.751,-5.499 -0.282,-0.773 0.103,-1.932 -0.274,-2.651 -0.795,-1.513 -3.714,-2.104 -5.102,-2.122 -1.936,-0.025 -3.915,0.361 -5.808,0.734 -3.852,0.759 -7.624,1.951 -11.212,3.538 -6.65,2.941 -18.038,9.452 -12.018,17.979 4.439,6.288 16.628,15.494 23.47,8.229 6.178,-6.56 9.032,-17.071 9.966,-25.787 0.339,-3.166 5.343,-3.201 5,0 v 0"
         />
      <path
         id="path160"
         style="fill:#231f20;fill-opacity:1;fill-rule:nonzero;stroke:none;stroke-width:0.1"
         d="m 225.681,194.296 c -13.002,-1.102 -25.644,-3.556 -38.63,-9.13 -42.04,-18.045 -9.58,-70.619 17.258,-88.482 7.633,-5.0789 16.861,-7.2559 25.993,-8.066 19.82,-1.7571 40.403,2.7672 56.806,14.029 16.404,11.261 28.245,29.466 30.362,49.25 0.64,5.982 0.396,12.161 -1.67,17.811 -4.035,11.034 -14.596,18.655 -25.816,22.14 -11.22,3.484 -23.186,3.453 -34.934,3.392 -10.165,-0.054 -19.863,-0.138 -29.369,-0.944"
         />
      <path
         id="path162"
         style="fill:#231f20;fill-opacity:1;fill-rule:nonzero;stroke:none;stroke-width:0.1"
         d="m 91.673,189.226 c 11.866,-1.006 23.402,-3.245 35.253,-8.332 38.366,-16.468 8.743,-64.445 -15.749,-80.746 -6.965,-4.6351 -15.3872,-6.6218 -23.7207,-7.3609 -18.0868,-1.6039 -36.8708,2.525 -51.8403,12.8019 -14.9691,10.277 -25.77498,26.89 -27.70741,44.944 -0.58437,5.459 -0.36132,11.099 1.52422,16.255 3.68199,10.069 13.31989,17.024 23.55899,20.204 10.2391,3.179 21.159,3.151 31.8805,3.095 9.2765,-0.049 18.1265,-0.125 26.8007,-0.861"
         />
      <path
         id="path164"
         style="fill:#231f20;fill-opacity:1;fill-rule:nonzero;stroke:none;stroke-width:0.1"
         d="m 163.417,105.62 c 1.106,7.601 -7.507,11.705 -13.121,6.634 -5.012,-4.528 -5.007,-12.6989 1.047,-16.2849 6.907,-4.0902 15.93,-0.1839 18.771,6.9369 3.11,7.796 -0.736,16.543 -8.399,19.767 -7.294,3.07 -15.4,0.361 -19.532,-6.349 -3.798,-6.168 -3.363,-14.629 2.662,-19.2099 5.396,-4.102 14.023,-4.2672 19.064,0.55 5.274,5.0399 4.969,14.6459 -0.947,19.0909 -6.181,4.642 -16.707,0.77 -17.335,-7.301 -0.593,-7.617 8.935,-12.972 15.117,-8.594 1.146,0.811 1.564,2.13 0.897,3.42 -3.209,6.203 -12.303,7.287 -16.702,1.747 -1.089,-1.371 -0.878,-2.874 0.506,-3.926 3.96,-3.0088 10.036,-4.6158 13.445,0.168 2.248,3.154 1.332,7.645 -2.565,8.871 -3.221,1.013 -7.133,-1.035 -6.754,-4.721 0.365,-3.561 4.806,-5.272 7.85,-3.945 3.873,1.689 3.972,6.563 1.516,9.534 -3.26,3.941 -8.713,3.143 -12.552,0.566 -3.289,-2.208 -5.875,-6.099 -3.108,-9.781 3.681,-4.8981 9.695,-2.27 13.602,0.702 0.871,0.663 1.504,1.679 1.148,2.823 -2.295,7.378 -10.622,10.791 -17.453,7.207 -1.172,-0.615 -1.586,-2.313 -0.897,-3.421 5.155,-8.277 18.356,-6.627 21.509,2.508 1.052,3.048 -3.776,4.358 -4.822,1.33 -1.744,-5.054 -9.589,-5.778 -12.369,-1.314 -0.299,-1.14 -0.598,-2.28 -0.897,-3.421 3.938,2.067 8.791,0.017 10.108,-4.218 0.383,0.941 0.766,1.882 1.149,2.823 -0.774,-0.589 -1.544,-1.227 -2.383,-1.721 -0.671,-0.321 -1.342,-0.641 -2.013,-0.962 -2.163,1.493 -2.414,2.581 -0.751,3.265 0.644,0.57 1.397,0.908 2.26,1.016 1.931,0.985 2.123,0.218 0.577,-2.302 0.204,-2.616 -0.404,-3.334 -1.824,-2.155 -0.831,0.362 -1.582,0.85 -2.252,1.465 0.168,-1.309 0.337,-2.617 0.506,-3.926 2.444,3.079 7.006,2.826 8.848,-0.736 0.299,1.141 0.598,2.281 0.897,3.421 -4.801,-3.4 -10.544,3.795 -5.407,7.402 5.398,3.79 10.889,-1.88 9.64,-7.561 -2.351,-10.7039 -19.91,-5.8918 -17.538,4.933 2.365,10.799 18.65,12.413 21.107,0.723 1.266,-6.018 -3.371,-12.2748 -9.774,-11.165 -2.804,0.4859 -5.144,2.499 -4.575,5.62 0.175,0.956 0.748,2.09 1.387,2.819 0.697,0.795 6.353,4.62 5.536,-0.999 -0.458,-3.147 4.359,-4.506 4.821,-1.329 v 0"
         />
      <path
         id="path166"
         style="fill:#231f20;fill-opacity:1;fill-rule:nonzero;stroke:none;stroke-width:0.1"
         d="m 150.406,98.273 c 1.007,-8.446 2.407,-19.9449 -6.179,-25.1468 -8.873,-5.3762 -14.405,5.348 -16.732,12.1898 -1.03,3.0289 -5.861,1.7289 -4.821,-1.3301 3.071,-9.0289 9.738,-20.2847 21.077,-16.5718 13.039,4.2691 12.976,19.7828 11.655,30.8589 -0.377,3.156 -5.381,3.194 -5,0 v 0"
         />
      <path
         id="path168"
         style="fill:#231f20;fill-opacity:1;fill-rule:nonzero;stroke:none;stroke-width:0.1"
         d="m 153.599,93.9711 c 0.212,-10.1949 3.672,-22.9109 14.444,-26.6461 8.158,-2.8289 18.569,0.7781 20.776,9.6641 0.775,3.123 -4.046,4.4558 -4.822,1.3289 -1.687,-6.7938 -10.449,-8.5578 -16.062,-5.5039 -7.301,3.9718 -9.18,13.6289 -9.336,21.157 -0.067,3.2129 -5.067,3.2238 -5,0 v 0"
         />
      <path
         id="path170"
         style="fill:#231f20;fill-opacity:1;fill-rule:nonzero;stroke:none;stroke-width:0.1"
         d="m 136.375,150.629 c 11.098,9.158 27.353,9.214 38.827,0.764 2.594,-1.91 5.09,2.428 2.524,4.318 -13.392,9.861 -32.167,8.95 -44.887,-1.546 -2.483,-2.05 1.071,-5.57 3.536,-3.536 v 0"
          />
      <path
         id="path172"
         style="fill:#231f20;fill-opacity:1;fill-rule:nonzero;stroke:none;stroke-width:0.1"
         d="m 138.902,147.208 c 10.133,6.995 22.551,8.459 34.045,4.055 3.008,-1.152 4.309,3.681 1.33,4.822 -12.615,4.832 -26.785,3.112 -37.899,-4.56 -2.631,-1.816 -0.133,-6.151 2.524,-4.317 v 0"
         />
      <path
         id="path174"
         style="fill:#ffffff;fill-opacity:1;fill-rule:nonzero;stroke:none;stroke-width:0.1"
         d="m 188.411,163.69 c 6.353,4.591 13.466,7.573 21.264,8.58 3.147,0.407 3.188,5.412 0,5 -8.693,-1.123 -16.665,-4.116 -23.788,-9.262 -2.584,-1.867 -0.091,-6.207 2.524,-4.318 v 0"
         />
      <path
         id="path176"
         style="fill:#ffffff;fill-opacity:1;fill-rule:nonzero;stroke:none;stroke-width:0.1"
         d="m 26.0738,159.16 c 0.8914,2.926 3.495,5.365 6.595,5.759 1.3503,0.171 2.4847,1.026 2.5,2.5 0.0128,1.22 -1.1606,2.669 -2.5,2.5 -5.3903,-0.684 -9.8129,-4.168 -11.4165,-9.43 -0.9402,-3.085 3.8844,-4.404 4.8215,-1.329 v 0"
         />
      <path
         id="path304"
         style="fill:#efee0e;fill-opacity:1;fill-rule:nonzero;stroke:none;stroke-width:0.1"
         d="m 226.457,256.361 c -1.841,6.694 -11.005,5.888 -14.044,0.588 -3.55,-6.192 0.167,-14.253 7.089,-15.646 7.438,-1.497 14.868,4.86 13.471,12.597 -1.183,6.547 -9.868,10.176 -14.761,4.908 -5.54,-5.964 1.053,-14.361 6.884,-16.89 5.062,-2.195 14.972,-1.443 14.056,6.266 -0.797,6.704 -10.163,7.791 -13.914,3.05 -4.046,-5.113 -1.287,-13.382 5.74,-13.36 7.993,0.025 9.987,11.477 2.055,13.588 -7.669,2.04 -10.14,-9.572 -3.183,-12.143 3.022,-1.117 4.326,3.714 1.329,4.822 -2.156,0.796 1.46,5.164 1.989,0.87 0.239,-1.939 -2.006,-2.48 -3.301,-1.957 -4.073,1.646 0.232,8.568 3.485,5.668 3.506,-3.124 -3.908,-2.99 -5.132,-2.639 -2.697,0.773 -5.786,3.063 -6.643,5.834 -1.349,4.369 4.069,5.938 6.043,2.484 2.169,-3.795 -1.537,-7.992 -5.265,-8.302 -3.419,-0.284 -6.438,2.18 -6.295,5.742 0.049,1.243 0.498,2.828 1.515,3.656 1.035,0.842 3.571,1.314 4.06,-0.465 0.852,-3.099 5.677,-1.783 4.822,1.329 v 0"
         />
      <path
         id="path306"
         style="fill:#efee0e;fill-opacity:1;fill-rule:nonzero;stroke:none;stroke-width:0.1"
         d="m 251.091,231.42 c -3.049,3.542 -9.26,1.567 -10.418,-2.758 -1.396,-5.209 4.34,-9.407 9.079,-8.409 3.508,0.738 10.949,7.626 5.744,10.725 -3.648,2.171 -9.061,-2.764 -6.26,-6.405 1.935,-2.515 6.28,-0.028 4.317,2.524 -0.319,-0.769 -0.345,-0.983 -0.078,-0.643 0.518,0.222 0.225,0.392 -0.882,0.511 -0.084,0.642 -0.168,1.284 -0.252,1.926 -0.788,-2.213 -3.36,-5.08 -5.866,-3.268 -1.927,1.393 -0.034,3.556 1.08,2.261 2.103,-2.442 5.626,1.108 3.536,3.536 v 0"
         />
      <path
         id="path308"
         style="fill:#efee0e;fill-opacity:1;fill-rule:nonzero;stroke:none;stroke-width:0.1"
         d="m 268.978,224.278 c -4.349,-0.62 -7.593,-5.294 -6.356,-9.626 1.157,-4.052 5.926,-6.05 9.792,-4.713 4.362,1.508 5.314,6.197 1.689,9.189 -4.565,3.769 -8.157,-0.394 -8.63,-5.121 -0.433,-4.336 2.656,-9.189 7.491,-8.598 3.663,0.448 6.134,4.746 4.271,8.13 -2.163,3.93 -7.436,2.556 -9.07,-1.037 -2.195,-4.825 2.403,-8.655 6.742,-9.41 -0.498,1.224 -0.996,2.448 -1.494,3.672 -0.976,-2.157 -1.783,-4.866 0.217,-6.749 1.708,-1.609 3.883,-1.295 5.543,0.086 2.477,2.059 -1.077,5.579 -3.535,3.535 0.697,0.202 1.395,0.403 2.092,0.605 0.598,1.321 0.246,3.369 -1.494,3.672 -0.801,0.081 -1.567,0.295 -2.298,0.641 -0.16,2.134 -0.799,2.739 -1.916,1.814 -2.292,2.1 -1.692,3.932 -0.319,6.377 -0.72,-0.413 -1.439,-0.826 -2.159,-1.239 2.211,-0.405 2.35,-0.73 0.416,-0.976 -1.102,-0.063 -1.941,0.421 -2.516,1.451 -0.75,1.897 1.376,3.264 2.863,3.475 3.173,0.452 1.823,5.271 -1.329,4.822 v 0"
         />
      <path
         id="path310"
         style="fill:#efee0e;fill-opacity:1;fill-rule:nonzero;stroke:none;stroke-width:0.1"
         d="m 289.816,161.563 c 1.65,3.021 3.842,5.686 6.612,7.753 -1.141,1.14 -2.281,2.28 -3.421,3.42 -1,-1.385 -2,-2.77 -3,-4.155 -1.886,-2.613 2.449,-5.111 4.317,-2.524 1,1.386 2,2.771 3,4.156 1.429,1.979 -1.439,4.898 -3.42,3.42 -3.469,-2.588 -6.324,-5.737 -8.406,-9.547 -1.543,-2.825 2.773,-5.351 4.318,-2.523 v 0"
         />
      <path
         id="path312"
         style="fill:#efee0e;fill-opacity:1;fill-rule:nonzero;stroke:none;stroke-width:0.1"
         d="m 288.985,151.586 c 3.995,3.005 7.991,6.011 11.987,9.016 2.54,1.911 0.051,6.254 -2.524,4.317 -3.996,-3.005 -7.991,-6.01 -11.987,-9.016 -2.54,-1.911 -0.051,-6.254 2.524,-4.317 v 0"
         />
    </g>
  </g>
</svg>
