<?xml version="1.0" encoding="UTF-8" standalone="no"?>
<!-- Created with Inkscape (http://www.inkscape.org/) -->

<svg
   width="98.647652mm"
   height="97.749397mm"
   viewBox="0 0 98.647652 97.749397"
   version="1.1"
   id="svg12793"
   xmlns="http://www.w3.org/2000/svg"
   xmlnssvg="http://www.w3.org/2000/svg">
  <defs
     id="defs12790" />
  <g
     inkscapeLabel="Layer 1"
     id="layer1"
     transform="translate(-55.758802,-99.6253)">
    <g
       id="g10714"
       transform="matrix(0.35277777,0,0,-0.35277777,-92.978001,465.57932)">
      <path
         id="path46"
         style="fill:#231f20;fill-opacity:1;fill-rule:nonzero;stroke:none;stroke-width:0.1"
         d="m 628.737,767.991 c -8.76,-2.794 -18.251,-4.745 -28.437,-5.846 -60.316,-6.519 -134.487,1.743 -166.975,59.73 -5.293,9.448 -7.566,20.271 -9.106,30.991 -9.173,63.863 6.141,130.936 42.124,184.484 6.964,-12.28 13.928,-24.56 20.893,-36.85 2.145,-3.78 4.483,-7.757 8.315,-9.815 2.921,-1.569 6.347,-1.815 9.656,-2.028 38.052,-2.451 76.104,-4.902 114.156,-7.353 4.598,-0.296 9.589,-0.491 13.382,2.125 2.759,1.902 4.413,4.991 5.965,7.962 5.263,10.079 10.526,20.159 15.789,30.229 35.613,-45.478 52.232,-105.376 45.142,-162.704 -5.877,-47.52 -30.688,-78.099 -70.904,-90.925"
         />
      <path
         id="path48"
         style="fill:#ffffff;fill-opacity:1;fill-rule:nonzero;stroke:none;stroke-width:0.1"
         d="m 626.312,918.396 c -2.454,-6.23 0.97,-12.844 6.916,-15.343 0.788,-0.331 1.869,0.071 2.432,0.643 3.83,3.892 6.966,8.978 5.683,14.646 -1.125,4.969 -5.708,8.696 -10.893,7.472 -4.694,-1.107 -8.197,-5.612 -8.075,-10.427 0.145,-5.696 4.564,-9.973 9.555,-11.941 0.806,-0.318 1.853,0.064 2.433,0.642 4.741,4.732 4.729,12.485 -0.058,17.181 -1.286,1.262 -3.765,0.776 -4.179,-1.103 -0.712,-3.235 -0.666,-6.321 0.216,-9.515 0.855,-3.097 5.681,-1.782 4.821,1.33 -0.648,2.347 -0.738,4.485 -0.216,6.856 -1.392,-0.368 -2.785,-0.735 -4.178,-1.103 2.857,-2.803 2.897,-7.277 0.058,-10.11 0.811,0.214 1.622,0.429 2.432,0.643 -2.895,1.142 -5.751,3.804 -5.884,7.12 -0.104,2.616 1.849,5.188 4.488,5.601 3.228,0.504 4.925,-2.906 4.791,-5.696 -0.153,-3.205 -2.392,-5.889 -4.529,-8.06 0.811,0.214 1.621,0.428 2.432,0.642 -3.625,1.524 -4.772,5.769 -3.424,9.193 1.18,2.995 -3.654,4.294 -4.821,1.329 v 0"
         />
      <path
         id="path50"
         style="fill:#ffffff;fill-opacity:1;fill-rule:nonzero;stroke:none;stroke-width:0.1"
         d="m 489.968,931.016 c -7.933,-2.728 -3.758,-14.782 4.041,-13.819 8.619,1.065 13.171,15.176 5.279,20.125 -8.816,5.529 -17.56,-9.983 -13.407,-17.139 5.374,-9.257 17.952,-0.857 15.869,8.109 -1.06,4.561 -6.227,6.788 -10.144,3.964 -4.687,-3.38 -2.63,-9.663 2.176,-11.521 3.003,-1.161 4.304,3.671 1.329,4.821 -3.131,1.211 0.125,4.032 1.459,2.422 0.456,-0.551 0.449,-1.505 0.397,-2.184 -0.15,-1.972 -1.65,-4.203 -3.682,-4.617 -3.37,-0.686 -4.033,3.464 -3.358,5.738 0.632,2.128 2.481,5.23 4.613,6.078 5.172,2.055 3.663,-6.822 1.903,-8.919 -1.164,-1.386 -3.375,-2.852 -4.956,-1.279 -0.641,0.638 -1.457,2.964 -0.19,3.4 3.025,1.04 1.725,5.872 -1.329,4.821 v 0"
         />
      <path
         id="path52"
         style="fill:#ffffff;fill-opacity:1;fill-rule:nonzero;stroke:none;stroke-width:0.1"
         d="m 553.676,874.469 c -0.421,-1.402 -0.842,-2.804 -1.262,-4.206 -0.251,-0.836 0.015,-1.829 0.643,-2.432 1.066,-1.026 2.133,-2.052 3.199,-3.077 0.595,-0.572 1.615,-0.964 2.433,-0.643 4.261,1.668 7.683,4.389 10.169,8.245 0.66,1.024 0.278,2.165 -0.391,3.03 -2.938,3.802 -9.264,3.845 -12.291,0.133 -3.083,-3.78 -1.449,-9.929 2.867,-12.005 4.988,-2.4 9.442,6.348 5.626,9.941 -4.116,3.876 -9.728,-2.937 -5.085,-6.213 2.634,-1.859 5.135,2.474 2.524,4.317 1.051,-1.353 0.768,-1.986 -0.85,-1.897 -0.029,-0.258 -0.137,-0.478 -0.324,-0.66 -0.611,-0.607 -1.181,-1.201 -1.864,-1.748 0.811,0.214 1.622,0.428 2.432,0.643 -1.654,0.578 -2.627,3.089 -1.432,4.523 1.351,1.62 3.777,0.834 4.862,-0.569 -0.13,1.009 -0.261,2.019 -0.391,3.029 -1.733,-2.688 -4.192,-4.777 -7.182,-5.948 0.811,-0.214 1.622,-0.429 2.433,-0.643 -1.067,1.026 -2.133,2.051 -3.2,3.077 0.214,-0.811 0.429,-1.621 0.643,-2.432 0.421,1.402 0.842,2.803 1.262,4.205 0.927,3.089 -3.897,4.409 -4.821,1.33 v 0"
         />
      <path
         id="path54"
         style="fill:#ffffff;fill-opacity:1;fill-rule:nonzero;stroke:none;stroke-width:0.1"
         d="m 520.88,840.987 c 6.135,-8.014 16.974,-8.805 25.647,-4.422 11.247,5.684 15.577,19.069 19.054,30.246 -1.608,0.443 -3.215,0.886 -4.822,1.329 -3.324,-12.672 -1.718,-28.422 9.435,-36.905 9.286,-7.062 24.113,-7.014 31.656,2.561 1.97,2.501 -1.545,6.063 -3.536,3.536 -6.293,-7.989 -18.607,-7.808 -26.042,-1.379 -8.66,7.489 -9.403,20.523 -6.691,30.858 0.819,3.123 -3.868,4.397 -4.822,1.329 -2.736,-8.797 -5.699,-18.771 -13.086,-24.885 -6.097,-5.045 -17.116,-6.744 -22.475,0.256 -1.93,2.521 -6.275,0.033 -4.318,-2.524 v 0"
         />
      <path
         id="path56"
         style="fill:#ffffff;fill-opacity:1;fill-rule:nonzero;stroke:none;stroke-width:0.1"
         d="m 631.865,863.652 c 8.984,2.066 17.968,4.132 26.952,6.199 3.135,0.721 1.808,5.543 -1.329,4.821 -8.984,-2.066 -17.968,-4.132 -26.953,-6.199 -3.134,-0.72 -1.808,-5.542 1.33,-4.821 v 0"
         />
      <path
         id="path58"
         style="fill:#ffffff;fill-opacity:1;fill-rule:nonzero;stroke:none;stroke-width:0.1"
         d="m 637.821,845.838 c 7.011,1.446 14.022,2.891 21.033,4.336 3.149,0.649 1.816,5.47 -1.33,4.821 -7.011,-1.445 -14.022,-2.89 -21.033,-4.335 -3.149,-0.649 -1.816,-5.47 1.33,-4.822 v 0"
         />
      <path
         id="path60"
         style="fill:#ffffff;fill-opacity:1;fill-rule:nonzero;stroke:none;stroke-width:0.1"
         d="m 490.778,877.593 c -8.706,3.576 -17.649,6.191 -26.91,7.867 -3.146,0.569 -4.496,-4.249 -1.329,-4.822 9.261,-1.676 18.204,-4.29 26.91,-7.866 2.974,-1.222 4.269,3.613 1.329,4.821 v 0"
         />
      <path
         id="path62"
         style="fill:#ffffff;fill-opacity:1;fill-rule:nonzero;stroke:none;stroke-width:0.1"
         d="m 454.162,848.848 c 10.287,-0.686 20.494,-0.167 30.673,1.439 3.17,0.5 1.824,5.319 -1.329,4.821 -9.739,-1.536 -19.511,-1.915 -29.344,-1.26 -3.212,0.215 -3.199,-4.786 0,-5 v 0"
         />
    </g>
  </g>
</svg>
